<svg xmlns="http://www.w3.org/2000/svg" width="1400" height="1180" viewBox="0 0 1400 1180">
<rect width="100%" height="100%" fill="#fafafa"/>
<text x="90" y="24" font-family="monospace" font-size="12" font-size="16">team_vs_baseline shaping scratch 512x512 merged history</text>
<text x="90" y="42" font-family="monospace" font-size="12">iterations 1..497</text>
<rect x="90" y="50" width="1270" height="220" fill="white" stroke="#cccccc"/>
<line x1="90" y1="50.0" x2="1360" y2="50.0" stroke="#eeeeee"/>
<line x1="90" y1="105.0" x2="1360" y2="105.0" stroke="#eeeeee"/>
<line x1="90" y1="160.0" x2="1360" y2="160.0" stroke="#eeeeee"/>
<line x1="90" y1="215.0" x2="1360" y2="215.0" stroke="#eeeeee"/>
<line x1="90" y1="270.0" x2="1360" y2="270.0" stroke="#eeeeee"/>
<line x1="90.0" y1="50" x2="90.0" y2="270" stroke="#f3f3f3"/>
<line x1="407.5" y1="50" x2="407.5" y2="270" stroke="#f3f3f3"/>
<line x1="725.0" y1="50" x2="725.0" y2="270" stroke="#f3f3f3"/>
<line x1="1042.5" y1="50" x2="1042.5" y2="270" stroke="#f3f3f3"/>
<line x1="1360.0" y1="50" x2="1360.0" y2="270" stroke="#f3f3f3"/>
<text x="90" y="40" font-family="monospace" font-size="12">reward + baseline eval</text>
<text x="10" y="65" font-family="monospace" font-size="12">2.512</text>
<text x="10" y="270.0" font-family="monospace" font-size="12">-1.341</text>
<text x="1370" y="65" font-family="monospace" font-size="12">1.000</text>
<text x="1370" y="270.0" font-family="monospace" font-size="12">0.000</text>
<polyline fill="none" stroke="#1f77b4" stroke-width="2" points="90.0,235.6 92.6,237.3 95.1,247.1 97.7,242.6 100.2,237.2 102.8,245.6 105.4,243.9 107.9,246.4 110.5,251.7 113.0,249.1 115.6,250.4 118.2,240.0 120.7,233.3 123.3,245.1 125.8,251.1 128.4,246.9 131.0,250.9 133.5,245.3 136.1,243.9 138.6,232.2 141.2,226.7 143.8,239.2 146.3,220.0 148.9,202.1 151.5,215.8 154.0,217.2 156.6,218.2 159.1,211.2 161.7,208.0 164.3,224.5 166.8,200.8 169.4,194.8 171.9,198.5 174.5,199.9 177.1,193.5 179.6,195.1 182.2,171.0 184.7,172.9 187.3,160.6 189.9,166.7 192.4,177.0 195.0,160.6 197.5,147.6 200.1,170.4 202.7,149.5 205.2,161.8 207.8,159.5 210.3,159.8 212.9,142.0 215.5,163.4 218.0,120.9 220.6,121.0 223.1,132.9 225.7,122.1 228.3,124.2 230.8,122.5 233.4,113.4 235.9,129.1 238.5,117.7 241.1,115.0 243.6,123.6 246.2,118.0 248.8,114.4 251.3,113.9 253.9,119.1 256.4,106.3 259.0,104.3 261.6,108.5 264.1,99.2 266.7,109.5 269.2,102.3 271.8,101.2 274.4,93.4 276.9,103.3 279.5,95.6 282.0,102.8 284.6,101.8 287.2,99.1 289.7,100.9 292.3,91.3 294.8,91.0 297.4,87.8 300.0,105.0 302.5,94.7 305.1,92.0 307.6,93.0 310.2,91.2 312.8,89.1 315.3,88.7 317.9,88.1 320.4,86.0 323.0,92.1 325.6,83.7 328.1,87.4 330.7,88.5 333.2,88.2 335.8,84.4 338.4,87.4 340.9,84.9 343.5,87.3 346.0,86.2 348.6,86.1 351.2,80.2 353.7,81.9 356.3,82.3 358.9,80.1 361.4,80.7 364.0,82.7 366.5,84.9 369.1,82.2 371.7,81.1 374.2,82.8 376.8,81.4 379.3,77.5 381.9,78.9 384.5,78.8 387.0,82.3 389.6,80.7 392.1,77.4 394.7,79.6 397.3,80.2 399.8,77.5 402.4,78.6 404.9,80.4 407.5,77.5 410.1,79.5 412.6,79.3 415.2,76.7 417.7,78.3 420.3,76.2 422.9,77.2 425.4,77.7 428.0,78.8 430.5,80.9 433.1,80.0 435.7,79.0 438.2,78.7 440.8,78.2 443.3,78.6 445.9,79.0 448.5,75.3 451.0,75.7 453.6,75.5 456.1,76.8 458.7,75.5 461.3,75.6 463.8,76.4 466.4,76.0 469.0,75.5 471.5,76.3 474.1,74.1 476.6,74.2 479.2,73.8 481.8,75.0 484.3,75.4 486.9,73.7 489.4,74.4 492.0,75.1 494.6,77.7 497.1,74.9 499.7,74.7 502.2,75.8 504.8,75.5 507.4,76.5 509.9,74.8 512.5,74.9 515.0,74.7 517.6,72.3 520.2,72.1 522.7,76.3 525.3,74.8 527.8,73.0 530.4,74.7 533.0,72.3 535.5,73.4 538.1,74.0 540.6,73.5 543.2,74.5 545.8,75.5 548.3,72.3 550.9,72.9 553.4,74.8 556.0,73.9 558.6,74.0 561.1,72.7 563.7,72.1 566.2,73.7 568.8,71.6 571.4,75.0 573.9,73.6 576.5,72.9 579.1,72.8 581.6,71.4 584.2,73.1 586.7,72.0 589.3,72.5 591.9,71.9 594.4,74.1 597.0,74.6 599.5,70.6 602.1,74.1 604.7,72.7 607.2,72.8 609.8,71.9 612.3,72.4 614.9,71.9 617.5,71.4 620.0,71.8 622.6,75.0 625.1,74.9 627.7,71.5 630.3,74.3 632.8,71.8 635.4,73.5 637.9,72.5 640.5,71.1 643.1,71.1 645.6,71.8 648.2,72.6 650.7,70.6 653.3,72.0 655.9,70.6 658.4,71.8 661.0,71.3 663.5,72.4 666.1,71.9 668.7,71.8 671.2,73.3 673.8,72.6 676.4,71.8 678.9,71.2 681.5,72.8 684.0,73.0 686.6,71.5 689.2,72.4 691.7,73.5 694.3,70.6 696.8,72.6 699.4,72.3 702.0,71.8 704.5,71.3 707.1,72.7 709.6,73.9 712.2,72.4 714.8,71.7 717.3,73.5 719.9,73.6 722.4,72.4 725.0,71.3 727.6,69.7 730.1,71.2 732.7,72.4 735.2,72.0 737.8,70.7 740.4,71.2 742.9,72.6 745.5,71.1 748.0,71.2 750.6,72.1 753.2,72.2 755.7,72.1 758.3,71.7 760.8,70.3 763.4,72.4 766.0,72.6 768.5,71.8 771.1,71.2 773.6,69.6 776.2,70.5 778.8,70.7 781.3,70.9 783.9,72.1 786.5,71.8 789.0,71.3 791.6,71.4 794.1,71.3 796.7,69.4 799.3,73.1 801.8,70.7 804.4,71.8 806.9,71.9 809.5,71.4 812.1,72.9 814.6,69.3 817.2,71.1 819.7,70.3 822.3,71.4 824.9,71.3 827.4,70.7 830.0,70.9 832.5,70.4 835.1,70.7 837.7,70.0 840.2,70.9 842.8,69.8 845.3,70.4 847.9,69.6 850.5,68.6 853.0,70.4 855.6,70.4 858.1,70.3 860.7,71.2 863.3,70.6 865.8,70.6 868.4,70.9 870.9,72.1 873.5,70.8 876.1,70.8 878.6,72.3 881.2,70.0 883.8,70.8 886.3,71.3 888.9,71.3 891.4,68.6 894.0,70.6 896.6,71.4 899.1,71.6 901.7,70.6 904.2,71.6 906.8,69.5 909.4,70.6 911.9,72.0 914.5,70.4 917.0,70.9 919.6,70.5 922.2,71.6 924.7,70.8 927.3,71.9 929.8,68.5 932.4,72.2 935.0,72.5 937.5,69.2 940.1,70.7 942.6,72.5 945.2,70.2 947.8,70.8 950.3,69.5 952.9,70.9 955.4,70.6 958.0,71.2 960.6,69.5 963.1,70.3 965.7,70.4 968.2,71.3 970.8,72.1 973.4,70.0 975.9,70.8 978.5,70.6 981.0,72.1 983.6,69.8 986.2,70.9 988.7,70.4 991.3,69.8 993.9,70.5 996.4,69.5 999.0,71.0 1001.5,70.0 1004.1,71.1 1006.7,70.8 1009.2,70.9 1011.8,70.8 1014.3,71.3 1016.9,69.7 1019.5,70.8 1022.0,70.3 1024.6,70.1 1027.1,69.0 1029.7,70.4 1032.3,71.2 1034.8,68.8 1037.4,71.1 1039.9,69.6 1042.5,70.7 1045.1,69.7 1047.6,70.9 1050.2,71.6 1052.7,71.4 1055.3,69.1 1057.9,71.2 1060.4,70.0 1063.0,72.7 1065.5,69.7 1068.1,71.3 1070.7,70.3 1073.2,69.0 1075.8,71.0 1078.3,69.1 1080.9,69.9 1083.5,70.0 1086.0,69.2 1088.6,69.6 1091.1,71.3 1093.7,71.3 1096.3,69.4 1098.8,70.5 1101.4,70.5 1104.0,70.5 1106.5,69.9 1109.1,70.3 1111.6,70.0 1114.2,70.6 1116.8,69.8 1119.3,71.4 1121.9,69.4 1124.4,71.2 1127.0,72.0 1129.6,73.5 1132.1,70.8 1134.7,70.8 1137.2,69.7 1139.8,69.8 1142.4,70.0 1144.9,71.3 1147.5,70.2 1150.0,71.0 1152.6,69.1 1155.2,71.0 1157.7,70.2 1160.3,69.0 1162.8,70.3 1165.4,70.1 1168.0,69.6 1170.5,69.9 1173.1,70.1 1175.6,69.9 1178.2,70.4 1180.8,69.7 1183.3,70.4 1185.9,68.5 1188.4,69.9 1191.0,71.6 1193.6,69.0 1196.1,70.6 1198.7,72.1 1201.2,72.0 1203.8,70.3 1206.4,68.3 1208.9,69.7 1211.5,70.5 1214.1,69.8 1216.6,71.4 1219.2,69.2 1221.7,70.0 1224.3,70.3 1226.9,70.7 1229.4,71.6 1232.0,70.1 1234.5,70.3 1237.1,70.6 1239.7,69.2 1242.2,70.3 1244.8,69.9 1247.3,69.3 1249.9,69.0 1252.5,69.6 1255.0,70.9 1257.6,69.6 1260.1,71.2 1262.7,70.1 1265.3,70.3 1267.8,71.1 1270.4,72.2 1272.9,71.9 1275.5,70.3 1278.1,70.4 1280.6,70.4 1283.2,69.4 1285.7,69.3 1288.3,69.9 1290.9,71.2 1293.4,69.6 1296.0,71.5 1298.5,68.9 1301.1,70.6 1303.7,71.5 1306.2,70.2 1308.8,69.6 1311.4,69.5 1313.9,70.7 1316.5,68.6 1319.0,69.4 1321.6,70.0 1324.2,70.4 1326.7,68.9 1329.3,70.1 1331.8,69.8 1334.4,69.0 1337.0,69.8 1339.5,69.6 1342.1,69.3 1344.6,71.2 1347.2,69.6 1349.8,69.9 1352.3,70.5 1354.9,71.1 1357.4,68.9 1360.0,70.5"/>
<line x1="100" y1="70" x2="120" y2="70" stroke="#1f77b4" stroke-width="2"/><text x="128" y="74" font-family="monospace" font-size="12">episode_reward_mean</text>
<circle cx="113.0" cy="248.0" r="3.5" fill="#ff7f0e"/>
<circle cx="138.6" cy="252.4" r="3.5" fill="#ff7f0e"/>
<circle cx="164.3" cy="239.2" r="3.5" fill="#ff7f0e"/>
<circle cx="189.9" cy="226.0" r="3.5" fill="#ff7f0e"/>
<circle cx="215.5" cy="221.6" r="3.5" fill="#ff7f0e"/>
<circle cx="241.1" cy="204.0" r="3.5" fill="#ff7f0e"/>
<circle cx="266.7" cy="204.0" r="3.5" fill="#ff7f0e"/>
<circle cx="292.3" cy="168.8" r="3.5" fill="#ff7f0e"/>
<circle cx="317.9" cy="173.2" r="3.5" fill="#ff7f0e"/>
<circle cx="343.5" cy="195.2" r="3.5" fill="#ff7f0e"/>
<circle cx="369.1" cy="160.0" r="3.5" fill="#ff7f0e"/>
<circle cx="394.7" cy="155.6" r="3.5" fill="#ff7f0e"/>
<circle cx="420.3" cy="138.0" r="3.5" fill="#ff7f0e"/>
<circle cx="445.9" cy="155.6" r="3.5" fill="#ff7f0e"/>
<circle cx="471.5" cy="151.2" r="3.5" fill="#ff7f0e"/>
<circle cx="497.1" cy="133.6" r="3.5" fill="#ff7f0e"/>
<circle cx="522.7" cy="177.6" r="3.5" fill="#ff7f0e"/>
<circle cx="548.3" cy="146.8" r="3.5" fill="#ff7f0e"/>
<circle cx="573.9" cy="151.2" r="3.5" fill="#ff7f0e"/>
<circle cx="599.5" cy="146.8" r="3.5" fill="#ff7f0e"/>
<circle cx="625.1" cy="129.2" r="3.5" fill="#ff7f0e"/>
<circle cx="650.7" cy="111.6" r="3.5" fill="#ff7f0e"/>
<circle cx="676.4" cy="138.0" r="3.5" fill="#ff7f0e"/>
<circle cx="702.0" cy="133.6" r="3.5" fill="#ff7f0e"/>
<circle cx="727.6" cy="116.0" r="3.5" fill="#ff7f0e"/>
<circle cx="753.2" cy="129.2" r="3.5" fill="#ff7f0e"/>
<circle cx="778.8" cy="107.2" r="3.5" fill="#ff7f0e"/>
<circle cx="804.4" cy="124.8" r="3.5" fill="#ff7f0e"/>
<circle cx="830.0" cy="138.0" r="3.5" fill="#ff7f0e"/>
<circle cx="855.6" cy="102.8" r="3.5" fill="#ff7f0e"/>
<circle cx="881.2" cy="120.4" r="3.5" fill="#ff7f0e"/>
<circle cx="906.8" cy="116.0" r="3.5" fill="#ff7f0e"/>
<circle cx="932.4" cy="120.4" r="3.5" fill="#ff7f0e"/>
<circle cx="958.0" cy="116.0" r="3.5" fill="#ff7f0e"/>
<circle cx="983.6" cy="142.4" r="3.5" fill="#ff7f0e"/>
<circle cx="1009.2" cy="116.0" r="3.5" fill="#ff7f0e"/>
<circle cx="1034.8" cy="129.2" r="3.5" fill="#ff7f0e"/>
<circle cx="1060.4" cy="107.2" r="3.5" fill="#ff7f0e"/>
<circle cx="1086.0" cy="102.8" r="3.5" fill="#ff7f0e"/>
<circle cx="1111.6" cy="98.4" r="3.5" fill="#ff7f0e"/>
<circle cx="1137.2" cy="107.2" r="3.5" fill="#ff7f0e"/>
<circle cx="1162.8" cy="102.8" r="3.5" fill="#ff7f0e"/>
<circle cx="1188.4" cy="94.0" r="3.5" fill="#ff7f0e"/>
<circle cx="1214.1" cy="151.2" r="3.5" fill="#ff7f0e"/>
<circle cx="1239.7" cy="116.0" r="3.5" fill="#ff7f0e"/>
<circle cx="1265.3" cy="107.2" r="3.5" fill="#ff7f0e"/>
<circle cx="1290.9" cy="111.6" r="3.5" fill="#ff7f0e"/>
<circle cx="1316.5" cy="120.4" r="3.5" fill="#ff7f0e"/>
<circle cx="1342.1" cy="120.4" r="3.5" fill="#ff7f0e"/>
<rect x="90" y="300" width="1270" height="220" fill="white" stroke="#cccccc"/>
<line x1="90" y1="300.0" x2="1360" y2="300.0" stroke="#eeeeee"/>
<line x1="90" y1="355.0" x2="1360" y2="355.0" stroke="#eeeeee"/>
<line x1="90" y1="410.0" x2="1360" y2="410.0" stroke="#eeeeee"/>
<line x1="90" y1="465.0" x2="1360" y2="465.0" stroke="#eeeeee"/>
<line x1="90" y1="520.0" x2="1360" y2="520.0" stroke="#eeeeee"/>
<line x1="90.0" y1="300" x2="90.0" y2="520" stroke="#f3f3f3"/>
<line x1="407.5" y1="300" x2="407.5" y2="520" stroke="#f3f3f3"/>
<line x1="725.0" y1="300" x2="725.0" y2="520" stroke="#f3f3f3"/>
<line x1="1042.5" y1="300" x2="1042.5" y2="520" stroke="#f3f3f3"/>
<line x1="1360.0" y1="300" x2="1360.0" y2="520" stroke="#f3f3f3"/>
<text x="90" y="290" font-family="monospace" font-size="12">losses</text>
<text x="10" y="315" font-family="monospace" font-size="12">0.129</text>
<text x="10" y="520.0" font-family="monospace" font-size="12">-0.169</text>
<polyline fill="none" stroke="#d62728" stroke-width="2" points="90.0,406.9 92.6,416.3 95.1,427.7 97.7,434.0 100.2,429.5 102.8,434.5 105.4,431.3 107.9,424.4 110.5,433.3 113.0,421.0 115.6,431.6 118.2,428.0 120.7,431.8 123.3,435.2 125.8,439.2 128.4,436.7 131.0,434.6 133.5,433.1 136.1,430.5 138.6,423.3 141.2,429.2 143.8,434.4 146.3,432.2 148.9,429.2 151.5,437.0 154.0,427.7 156.6,439.7 159.1,433.5 161.7,430.1 164.3,438.3 166.8,429.0 169.4,434.2 171.9,435.8 174.5,440.3 177.1,431.1 179.6,435.5 182.2,431.1 184.7,436.1 187.3,430.1 189.9,440.7 192.4,441.9 195.0,437.0 197.5,452.8 200.1,434.7 202.7,434.1 205.2,434.7 207.8,445.0 210.3,432.2 212.9,438.8 215.5,438.1 218.0,439.0 220.6,438.7 223.1,437.0 225.7,441.3 228.3,434.4 230.8,437.9 233.4,439.5 235.9,429.1 238.5,438.5 241.1,435.5 243.6,436.2 246.2,433.4 248.8,432.8 251.3,438.4 253.9,443.7 256.4,437.4 259.0,431.7 261.6,435.3 264.1,439.1 266.7,437.1 269.2,435.6 271.8,433.9 274.4,432.9 276.9,429.3 279.5,421.2 282.0,431.2 284.6,427.4 287.2,426.2 289.7,434.6 292.3,432.0 294.8,427.5 297.4,436.7 300.0,425.2 302.5,434.6 305.1,422.0 307.6,424.5 310.2,427.8 312.8,420.6 315.3,426.7 317.9,434.0 320.4,425.4 323.0,415.3 325.6,431.3 328.1,425.5 330.7,421.4 333.2,419.9 335.8,417.0 338.4,422.9 340.9,429.8 343.5,419.6 346.0,428.5 348.6,414.7 351.2,432.4 353.7,429.7 356.3,421.3 358.9,432.2 361.4,418.7 364.0,419.0 366.5,412.1 369.1,416.1 371.7,416.7 374.2,418.8 376.8,413.3 379.3,429.4 381.9,424.5 384.5,432.8 387.0,420.3 389.6,421.7 392.1,427.5 394.7,423.1 397.3,414.9 399.8,427.8 402.4,431.0 404.9,414.9 407.5,424.0 410.1,422.3 412.6,418.2 415.2,426.9 417.7,424.8 420.3,428.1 422.9,426.5 425.4,420.9 428.0,424.7 430.5,419.6 433.1,415.9 435.7,417.8 438.2,417.6 440.8,406.4 443.3,420.3 445.9,421.2 448.5,423.0 451.0,425.0 453.6,425.2 456.1,418.9 458.7,428.5 461.3,427.1 463.8,419.2 466.4,419.8 469.0,411.2 471.5,422.3 474.1,421.6 476.6,428.4 479.2,433.3 481.8,423.5 484.3,428.0 486.9,430.8 489.4,431.2 492.0,424.0 494.6,414.1 497.1,423.9 499.7,416.1 502.2,418.0 504.8,423.4 507.4,403.8 509.9,421.7 512.5,414.7 515.0,416.8 517.6,432.5 520.2,438.0 522.7,417.3 525.3,422.1 527.8,425.2 530.4,413.7 533.0,430.1 535.5,422.3 538.1,419.0 540.6,428.6 543.2,424.6 545.8,415.4 548.3,430.3 550.9,423.3 553.4,417.9 556.0,422.5 558.6,424.6 561.1,421.7 563.7,425.0 566.2,418.4 568.8,422.2 571.4,408.5 573.9,417.9 576.5,418.9 579.1,421.5 581.6,433.4 584.2,424.1 586.7,428.7 589.3,430.4 591.9,426.9 594.4,417.2 597.0,413.3 599.5,430.4 602.1,416.0 604.7,419.1 607.2,422.8 609.8,421.8 612.3,413.5 614.9,424.4 617.5,428.2 620.0,423.2 622.6,407.0 625.1,401.4 627.7,423.8 630.3,417.0 632.8,420.5 635.4,410.7 637.9,431.6 640.5,426.1 643.1,418.8 645.6,425.1 648.2,415.0 650.7,425.2 653.3,418.9 655.9,426.2 658.4,421.6 661.0,420.7 663.5,414.9 666.1,419.3 668.7,426.9 671.2,419.6 673.8,418.7 676.4,425.3 678.9,426.4 681.5,405.6 684.0,412.1 686.6,420.1 689.2,416.3 691.7,412.2 694.3,417.3 696.8,411.4 699.4,416.0 702.0,414.6 704.5,419.1 707.1,404.8 709.6,411.2 712.2,418.5 714.8,424.5 717.3,419.3 719.9,406.6 722.4,415.3 725.0,424.1 727.6,431.6 730.1,423.0 732.7,414.0 735.2,413.6 737.8,428.0 740.4,426.3 742.9,404.8 745.5,423.4 748.0,424.3 750.6,418.1 753.2,410.9 755.7,422.9 758.3,410.7 760.8,421.2 763.4,415.7 766.0,412.0 768.5,420.6 771.1,423.5 773.6,436.7 776.2,420.6 778.8,428.7 781.3,418.5 783.9,419.2 786.5,406.5 789.0,415.4 791.6,424.7 794.1,417.9 796.7,429.0 799.3,407.2 801.8,417.7 804.4,415.2 806.9,416.2 809.5,415.2 812.1,409.4 814.6,432.2 817.2,417.6 819.7,419.5 822.3,413.8 824.9,414.0 827.4,419.4 830.0,423.5 832.5,427.7 835.1,418.3 837.7,419.5 840.2,416.9 842.8,424.8 845.3,424.8 847.9,420.2 850.5,435.0 853.0,423.4 855.6,422.7 858.1,420.5 860.7,419.1 863.3,420.7 865.8,424.0 868.4,413.8 870.9,407.6 873.5,417.6 876.1,412.1 878.6,405.5 881.2,418.1 883.8,409.1 886.3,417.1 888.9,411.1 891.4,435.5 894.0,421.2 896.6,414.5 899.1,406.6 901.7,416.1 904.2,410.6 906.8,422.1 909.4,413.0 911.9,409.4 914.5,417.1 917.0,418.4 919.6,416.7 922.2,409.0 924.7,411.5 927.3,403.5 929.8,429.4 932.4,403.3 935.0,402.2 937.5,425.4 940.1,415.2 942.6,409.6 945.2,420.2 947.8,421.3 950.3,428.1 952.9,411.0 955.4,412.5 958.0,407.1 960.6,416.0 963.1,412.6 965.7,414.7 968.2,403.9 970.8,402.1 973.4,412.2 975.9,408.1 978.5,405.8 981.0,398.5 983.6,415.0 986.2,412.7 988.7,416.5 991.3,417.9 993.9,412.2 996.4,424.6 999.0,413.9 1001.5,415.8 1004.1,405.0 1006.7,404.2 1009.2,408.0 1011.8,405.5 1014.3,405.4 1016.9,418.8 1019.5,402.5 1022.0,415.9 1024.6,407.9 1027.1,425.0 1029.7,408.0 1032.3,405.7 1034.8,427.3 1037.4,407.2 1039.9,418.7 1042.5,407.7 1045.1,413.4 1047.6,407.7 1050.2,401.5 1052.7,401.4 1055.3,417.1 1057.9,405.6 1060.4,417.7 1063.0,394.9 1065.5,417.4 1068.1,408.3 1070.7,398.0 1073.2,410.8 1075.8,392.2 1078.3,414.8 1080.9,405.9 1083.5,409.9 1086.0,409.9 1088.6,399.3 1091.1,398.5 1093.7,399.9 1096.3,413.8 1098.8,402.0 1101.4,396.0 1104.0,401.0 1106.5,404.9 1109.1,402.2 1111.6,411.1 1114.2,394.6 1116.8,408.5 1119.3,397.6 1121.9,408.8 1124.4,401.1 1127.0,393.4 1129.6,379.5 1132.1,398.7 1134.7,395.8 1137.2,410.5 1139.8,398.0 1142.4,399.1 1144.9,392.1 1147.5,402.2 1150.0,401.9 1152.6,407.7 1155.2,395.9 1157.7,404.9 1160.3,413.1 1162.8,400.5 1165.4,402.9 1168.0,407.3 1170.5,395.9 1173.1,403.5 1175.6,401.9 1178.2,405.0 1180.8,405.3 1183.3,392.7 1185.9,412.9 1188.4,407.3 1191.0,396.0 1193.6,414.7 1196.1,400.9 1198.7,385.7 1201.2,387.7 1203.8,398.7 1206.4,406.7 1208.9,409.9 1211.5,396.4 1214.1,407.3 1216.6,387.7 1219.2,405.1 1221.7,404.4 1224.3,397.3 1226.9,390.4 1229.4,389.7 1232.0,403.7 1234.5,401.1 1237.1,399.2 1239.7,412.2 1242.2,397.6 1244.8,402.4 1247.3,408.7 1249.9,415.2 1252.5,403.1 1255.0,390.9 1257.6,405.3 1260.1,395.3 1262.7,400.9 1265.3,399.4 1267.8,395.6 1270.4,389.0 1272.9,387.1 1275.5,395.2 1278.1,392.6 1280.6,395.1 1283.2,405.1 1285.7,410.6 1288.3,399.9 1290.9,390.7 1293.4,401.3 1296.0,393.3 1298.5,407.6 1301.1,391.2 1303.7,395.6 1306.2,399.3 1308.8,403.6 1311.4,411.9 1313.9,390.8 1316.5,407.8 1319.0,404.3 1321.6,406.6 1324.2,405.5 1326.7,408.8 1329.3,397.8 1331.8,403.0 1334.4,405.0 1337.0,396.9 1339.5,400.4 1342.1,405.3 1344.6,392.3 1347.2,400.0 1349.8,400.3 1352.3,391.0 1354.9,395.4 1357.4,407.4 1360.0,400.1"/>
<line x1="100" y1="320" x2="120" y2="320" stroke="#d62728" stroke-width="2"/><text x="128" y="324" font-family="monospace" font-size="12">total_loss</text>
<polyline fill="none" stroke="#9467bd" stroke-width="2" stroke-dasharray="8,4" points="90.0,413.7 92.6,423.0 95.1,437.1 97.7,441.8 100.2,438.0 102.8,440.2 105.4,438.2 107.9,432.9 110.5,439.5 113.0,431.4 115.6,440.8 118.2,438.6 120.7,442.0 123.3,443.7 125.8,446.7 128.4,443.3 131.0,442.2 133.5,440.0 136.1,437.5 138.6,434.3 141.2,442.6 143.8,445.2 146.3,444.3 148.9,440.1 151.5,449.8 154.0,441.7 156.6,449.0 159.1,447.4 161.7,445.8 164.3,450.6 166.8,443.6 169.4,448.8 171.9,449.5 174.5,453.7 177.1,448.9 179.6,451.3 182.2,451.0 184.7,453.5 187.3,457.8 189.9,459.6 192.4,458.4 195.0,460.5 197.5,470.8 200.1,455.2 202.7,458.3 205.2,457.9 207.8,465.8 210.3,461.3 212.9,465.9 215.5,466.2 218.0,472.9 220.6,472.2 223.1,470.0 225.7,473.9 228.3,472.4 230.8,473.6 233.4,476.8 235.9,472.1 238.5,476.2 241.1,477.2 243.6,478.6 246.2,473.7 248.8,479.5 251.3,477.5 253.9,480.5 256.4,484.0 259.0,480.3 261.6,483.8 264.1,486.4 266.7,482.5 269.2,484.9 271.8,484.4 274.4,490.5 276.9,486.1 279.5,483.7 282.0,487.7 284.6,488.8 287.2,486.1 289.7,487.5 292.3,491.7 294.8,492.1 297.4,491.6 300.0,484.4 302.5,492.0 305.1,488.4 307.6,490.0 310.2,492.2 312.8,488.6 315.3,493.4 317.9,492.6 320.4,491.2 323.0,489.4 325.6,496.2 328.1,490.7 330.7,490.4 333.2,489.7 335.8,491.8 338.4,493.8 340.9,494.1 343.5,489.9 346.0,493.8 348.6,490.1 351.2,498.2 353.7,498.9 356.3,491.7 358.9,499.1 361.4,487.7 364.0,492.1 366.5,487.3 369.1,492.8 371.7,492.7 374.2,494.8 376.8,491.7 379.3,497.9 381.9,497.2 384.5,499.0 387.0,495.6 389.6,494.9 392.1,496.7 394.7,496.9 397.3,495.2 399.8,494.9 402.4,498.7 404.9,493.2 407.5,497.3 410.1,496.2 412.6,494.7 415.2,497.4 417.7,496.3 420.3,499.8 422.9,494.9 425.4,497.6 428.0,497.3 430.5,494.0 433.1,493.0 435.7,494.1 438.2,498.0 440.8,492.2 443.3,500.0 445.9,497.4 448.5,494.4 451.0,495.8 453.6,498.2 456.1,494.7 458.7,500.3 461.3,499.5 463.8,493.7 466.4,496.9 469.0,488.9 471.5,497.2 474.1,497.8 476.6,500.0 479.2,499.5 481.8,495.3 484.3,498.6 486.9,497.3 489.4,500.3 492.0,496.8 494.6,496.0 497.1,494.8 499.7,493.1 502.2,494.1 504.8,495.8 507.4,489.6 509.9,497.9 512.5,492.7 515.0,494.9 517.6,499.3 520.2,501.7 522.7,495.1 525.3,496.1 527.8,496.1 530.4,489.2 533.0,498.5 535.5,492.0 538.1,491.1 540.6,499.0 543.2,498.7 545.8,492.7 548.3,498.2 550.9,496.1 553.4,492.2 556.0,494.9 558.6,497.6 561.1,493.2 563.7,491.1 566.2,494.8 568.8,492.8 571.4,490.4 573.9,492.8 576.5,494.4 579.1,494.9 581.6,500.6 584.2,495.4 586.7,499.4 589.3,499.4 591.9,495.9 594.4,494.5 597.0,494.2 599.5,496.5 602.1,492.0 604.7,491.4 607.2,498.0 609.8,494.7 612.3,490.6 614.9,492.5 617.5,495.9 620.0,491.8 622.6,487.4 625.1,485.6 627.7,495.7 630.3,492.6 632.8,493.2 635.4,488.9 637.9,498.4 640.5,493.1 643.1,491.6 645.6,495.8 648.2,489.9 650.7,492.6 653.3,492.2 655.9,493.7 658.4,492.0 661.0,490.4 663.5,488.4 666.1,490.7 668.7,497.1 671.2,493.6 673.8,492.8 676.4,494.3 678.9,495.9 681.5,483.7 684.0,489.5 686.6,492.4 689.2,490.4 691.7,492.8 694.3,489.2 696.8,486.9 699.4,491.2 702.0,489.5 704.5,487.9 707.1,484.3 709.6,491.6 712.2,494.3 714.8,493.8 717.3,492.1 719.9,488.6 722.4,492.1 725.0,493.2 727.6,496.7 730.1,493.4 732.7,488.6 735.2,487.1 737.8,491.8 740.4,493.2 742.9,482.9 745.5,493.6 748.0,490.1 750.6,490.6 753.2,487.6 755.7,492.0 758.3,485.9 760.8,486.4 763.4,487.6 766.0,482.3 768.5,488.8 771.1,489.6 773.6,498.0 776.2,488.2 778.8,492.3 781.3,489.0 783.9,488.3 786.5,483.1 789.0,488.4 791.6,490.6 794.1,488.8 796.7,491.0 799.3,481.3 801.8,488.3 804.4,487.3 806.9,487.5 809.5,488.5 812.1,487.8 814.6,494.7 817.2,485.2 819.7,487.3 822.3,485.7 824.9,487.3 827.4,488.4 830.0,492.1 832.5,491.4 835.1,486.3 837.7,485.8 840.2,484.2 842.8,487.8 845.3,488.2 847.9,486.6 850.5,492.4 853.0,488.7 855.6,486.6 858.1,484.9 860.7,486.8 863.3,487.1 865.8,487.9 868.4,484.1 870.9,481.9 873.5,485.4 876.1,481.6 878.6,481.3 881.2,485.2 883.8,480.0 886.3,486.2 888.9,484.9 891.4,494.8 894.0,487.7 896.6,485.3 899.1,482.2 901.7,485.1 904.2,481.4 906.8,485.0 909.4,480.1 911.9,484.9 914.5,486.8 917.0,482.6 919.6,482.2 922.2,480.6 924.7,481.2 927.3,479.3 929.8,488.1 932.4,479.1 935.0,480.4 937.5,486.1 940.1,480.1 942.6,482.0 945.2,486.0 947.8,487.3 950.3,486.4 952.9,481.7 955.4,481.2 958.0,479.5 960.6,483.6 963.1,479.1 965.7,481.9 968.2,477.0 970.8,480.3 973.4,481.3 975.9,478.7 978.5,477.4 981.0,477.2 983.6,482.8 986.2,480.0 988.7,484.6 991.3,482.8 993.9,480.3 996.4,488.3 999.0,482.9 1001.5,483.6 1004.1,477.7 1006.7,475.9 1009.2,478.6 1011.8,476.7 1014.3,479.4 1016.9,482.0 1019.5,474.2 1022.0,483.4 1024.6,479.2 1027.1,486.2 1029.7,477.1 1032.3,477.8 1034.8,484.7 1037.4,477.4 1039.9,484.6 1042.5,475.8 1045.1,478.5 1047.6,476.4 1050.2,476.6 1052.7,477.8 1055.3,480.0 1057.9,478.4 1060.4,481.7 1063.0,471.8 1065.5,478.4 1068.1,476.1 1070.7,472.0 1073.2,477.6 1075.8,471.3 1078.3,480.8 1080.9,474.7 1083.5,475.1 1086.0,475.8 1088.6,470.4 1091.1,472.8 1093.7,476.9 1096.3,480.9 1098.8,472.4 1101.4,469.5 1104.0,472.6 1106.5,473.2 1109.1,472.7 1111.6,477.3 1114.2,465.4 1116.8,473.1 1119.3,473.6 1121.9,476.9 1124.4,472.4 1127.0,470.1 1129.6,467.6 1132.1,473.3 1134.7,470.4 1137.2,476.2 1139.8,469.7 1142.4,469.2 1144.9,466.5 1147.5,472.9 1150.0,474.0 1152.6,474.0 1155.2,471.1 1157.7,474.0 1160.3,476.3 1162.8,471.9 1165.4,471.5 1168.0,475.3 1170.5,470.8 1173.1,473.3 1175.6,473.0 1178.2,474.9 1180.8,472.5 1183.3,466.5 1185.9,474.2 1188.4,475.1 1191.0,469.9 1193.6,478.7 1196.1,469.4 1198.7,466.6 1201.2,468.9 1203.8,471.9 1206.4,472.0 1208.9,478.8 1211.5,468.2 1214.1,473.9 1216.6,466.6 1219.2,471.3 1221.7,474.2 1224.3,469.8 1226.9,466.9 1229.4,468.8 1232.0,476.0 1234.5,473.0 1237.1,471.1 1239.7,476.7 1242.2,467.5 1244.8,471.1 1247.3,477.3 1249.9,479.1 1252.5,470.9 1255.0,467.8 1257.6,473.1 1260.1,468.0 1262.7,474.7 1265.3,471.1 1267.8,468.0 1270.4,469.6 1272.9,466.8 1275.5,470.8 1278.1,467.2 1280.6,470.0 1283.2,470.7 1285.7,474.4 1288.3,469.9 1290.9,465.9 1293.4,471.9 1296.0,471.6 1298.5,471.9 1301.1,465.0 1303.7,470.2 1306.2,471.3 1308.8,474.0 1311.4,477.5 1313.9,466.3 1316.5,473.1 1319.0,473.1 1321.6,473.6 1324.2,472.8 1326.7,471.9 1329.3,468.7 1331.8,471.2 1334.4,473.2 1337.0,468.1 1339.5,468.9 1342.1,470.1 1344.6,467.3 1347.2,469.6 1349.8,467.9 1352.3,465.0 1354.9,468.5 1357.4,469.8 1360.0,471.3"/>
<line x1="100" y1="338" x2="120" y2="338" stroke="#9467bd" stroke-width="2" stroke-dasharray="8,4"/><text x="128" y="342" font-family="monospace" font-size="12">policy_loss</text>
<polyline fill="none" stroke="#2ca02c" stroke-width="2" stroke-dasharray="3,4" points="90.0,389.0 92.6,389.4 95.1,387.0 97.7,388.9 100.2,388.0 102.8,391.0 105.4,389.8 107.9,388.1 110.5,390.5 113.0,386.0 115.6,387.4 118.2,386.2 120.7,386.6 123.3,388.3 125.8,389.5 128.4,390.2 131.0,389.2 133.5,390.0 136.1,389.7 138.6,385.9 141.2,383.6 143.8,386.1 146.3,385.1 148.9,386.1 151.5,384.3 154.0,383.1 156.6,388.3 159.1,383.0 161.7,381.3 164.3,384.9 166.8,382.4 169.4,382.5 171.9,383.6 174.5,383.7 177.1,379.4 179.6,381.5 182.2,377.5 184.7,380.0 187.3,370.1 189.9,378.9 192.4,381.0 195.0,374.1 197.5,379.7 200.1,377.2 202.7,373.5 205.2,374.5 207.8,376.9 210.3,368.7 212.9,370.9 215.5,370.8 218.0,365.3 220.6,365.7 223.1,366.2 225.7,366.3 228.3,361.1 230.8,363.5 233.4,362.1 235.9,357.4 238.5,362.9 241.1,359.0 243.6,358.0 246.2,360.1 248.8,354.0 251.3,361.7 253.9,363.6 256.4,354.5 259.0,352.3 261.6,352.3 264.1,353.7 266.7,355.1 269.2,351.7 271.8,350.3 274.4,344.3 276.9,345.5 279.5,341.3 282.0,346.2 284.6,341.3 287.2,342.9 289.7,350.1 292.3,343.2 294.8,338.4 297.4,348.0 300.0,343.6 302.5,345.9 305.1,336.5 307.6,337.5 310.2,339.0 312.8,334.9 315.3,336.4 317.9,344.3 320.4,337.3 323.0,329.5 325.6,338.6 328.1,337.9 330.7,333.9 333.2,333.3 335.8,329.5 338.4,332.2 340.9,338.8 343.5,333.1 346.0,337.9 348.6,327.7 351.2,337.9 353.7,334.5 356.3,333.0 358.9,336.7 361.4,334.5 364.0,330.3 366.5,328.2 369.1,326.9 371.7,328.0 374.2,327.5 376.8,325.3 379.3,335.8 381.9,331.3 384.5,336.9 387.0,328.1 389.6,330.6 392.1,334.0 394.7,329.8 397.3,323.4 399.8,336.5 402.4,335.9 404.9,325.7 407.5,330.7 410.1,329.2 412.6,327.1 415.2,333.5 417.7,332.0 420.3,332.5 422.9,335.4 425.4,326.9 428.0,331.1 430.5,329.1 433.1,326.9 435.7,327.3 438.2,323.8 440.8,318.7 443.3,324.5 445.9,328.0 448.5,332.2 451.0,332.7 453.6,331.3 456.1,327.9 458.7,332.2 461.3,331.6 463.8,329.2 466.4,327.0 469.0,326.2 471.5,329.2 474.1,327.9 476.6,332.5 479.2,337.8 481.8,332.2 484.3,333.3 486.9,337.5 489.4,334.9 492.0,331.1 494.6,321.5 497.1,333.2 499.7,327.7 502.2,327.8 504.8,331.7 507.4,318.3 509.9,327.7 512.5,326.7 515.0,326.2 517.6,337.2 520.2,340.1 522.7,325.7 525.3,330.2 527.8,333.6 530.4,328.4 533.0,336.1 535.5,334.8 538.1,332.2 540.6,333.7 543.2,330.3 545.8,327.1 548.3,336.6 550.9,331.6 553.4,330.1 556.0,332.1 558.6,331.5 561.1,333.0 563.7,338.5 566.2,328.4 568.8,334.5 571.4,324.4 573.9,332.0 576.5,330.6 579.1,332.7 581.6,339.1 584.2,334.8 586.7,335.9 589.3,337.6 591.9,337.6 594.4,329.0 597.0,326.0 599.5,340.8 602.1,330.5 604.7,333.9 607.2,331.1 609.8,333.8 612.3,329.8 614.9,338.4 617.5,338.9 620.0,338.1 622.6,326.2 625.1,322.2 627.7,334.3 630.3,331.2 632.8,333.8 635.4,329.6 637.9,340.2 640.5,339.9 643.1,334.8 645.6,336.0 648.2,331.9 650.7,339.1 653.3,333.3 655.9,339.1 658.4,335.8 661.0,337.9 663.5,334.5 666.1,335.4 668.7,336.8 671.2,332.7 673.8,333.6 676.4,337.8 678.9,336.9 681.5,331.7 684.0,329.6 686.6,334.4 689.2,332.6 691.7,325.8 694.3,335.4 696.8,331.2 699.4,330.9 702.0,331.5 704.5,338.5 707.1,326.9 709.6,325.9 712.2,331.0 714.8,338.0 717.3,334.4 719.9,324.8 722.4,331.5 725.0,337.7 727.6,343.4 730.1,336.7 732.7,332.7 735.2,333.9 737.8,343.2 740.4,340.4 742.9,329.0 745.5,337.4 748.0,341.4 750.6,335.1 753.2,330.6 755.7,338.9 758.3,331.5 760.8,343.4 763.4,334.9 766.0,336.3 768.5,339.3 771.1,340.9 773.6,346.4 776.2,340.7 778.8,343.9 781.3,337.4 783.9,337.8 786.5,331.8 789.0,334.9 791.6,340.7 794.1,336.4 796.7,346.8 799.3,333.0 801.8,337.2 804.4,335.2 806.9,335.9 809.5,333.7 812.1,329.1 814.6,346.0 817.2,340.0 819.7,340.8 822.3,336.8 824.9,335.1 827.4,339.0 830.0,339.0 832.5,343.3 835.1,339.8 837.7,340.7 840.2,340.5 842.8,345.3 845.3,344.9 847.9,343.3 850.5,351.1 853.0,342.7 855.6,343.9 858.1,343.2 860.7,339.8 863.3,341.9 865.8,343.6 868.4,337.5 870.9,333.0 873.5,341.0 876.1,337.8 878.6,332.1 881.2,341.6 883.8,336.6 886.3,338.3 888.9,334.5 891.4,350.2 894.0,341.9 896.6,336.8 899.1,332.2 901.7,339.4 904.2,337.1 906.8,345.3 909.4,340.9 911.9,332.1 914.5,338.3 917.0,343.7 919.6,343.0 922.2,335.9 924.7,338.2 927.3,331.7 929.8,350.6 932.4,331.8 935.0,328.6 937.5,348.6 940.1,343.1 942.6,336.2 945.2,342.1 947.8,342.3 950.3,349.9 952.9,337.0 955.4,338.8 958.0,335.3 960.6,341.9 963.1,342.0 965.7,340.1 968.2,334.9 970.8,329.5 973.4,338.9 975.9,336.9 978.5,336.9 981.0,329.1 983.6,341.2 986.2,340.8 988.7,340.3 991.3,343.2 993.9,339.6 996.4,345.1 999.0,338.7 1001.5,340.4 1004.1,335.2 1006.7,337.3 1009.2,337.4 1011.8,338.2 1014.3,333.9 1016.9,344.7 1019.5,337.1 1022.0,341.0 1024.6,337.9 1027.1,347.6 1029.7,338.7 1032.3,336.2 1034.8,351.9 1037.4,338.2 1039.9,343.0 1042.5,339.9 1045.1,343.7 1047.6,340.2 1050.2,332.8 1052.7,333.2 1055.3,346.4 1057.9,335.4 1060.4,344.4 1063.0,322.9 1065.5,342.0 1068.1,336.5 1070.7,331.8 1073.2,343.2 1075.8,333.4 1078.3,347.4 1080.9,343.0 1083.5,346.0 1086.0,346.4 1088.6,342.0 1091.1,336.2 1093.7,334.3 1096.3,344.3 1098.8,340.8 1101.4,338.5 1104.0,339.7 1106.5,344.9 1109.1,341.7 1111.6,345.4 1114.2,339.6 1116.8,348.0 1119.3,335.8 1121.9,343.7 1124.4,339.2 1127.0,334.0 1129.6,322.7 1132.1,337.2 1134.7,336.8 1137.2,344.9 1139.8,340.2 1142.4,341.7 1144.9,337.4 1147.5,342.8 1150.0,338.5 1152.6,345.2 1155.2,337.2 1157.7,341.1 1160.3,349.0 1162.8,340.5 1165.4,341.9 1168.0,343.3 1170.5,336.5 1173.1,342.3 1175.6,340.9 1178.2,341.1 1180.8,343.9 1183.3,336.7 1185.9,350.7 1188.4,344.2 1191.0,336.6 1193.6,347.4 1196.1,343.0 1198.7,329.1 1201.2,329.1 1203.8,337.0 1206.4,347.6 1208.9,342.9 1211.5,339.3 1214.1,343.9 1216.6,331.8 1219.2,345.5 1221.7,341.5 1224.3,340.2 1226.9,335.5 1229.4,331.4 1232.0,340.2 1234.5,338.8 1237.1,340.3 1239.7,347.3 1242.2,341.0 1244.8,341.7 1247.3,342.7 1249.9,348.5 1252.5,343.6 1255.0,334.9 1257.6,344.7 1260.1,338.0 1262.7,337.2 1265.3,339.5 1267.8,339.1 1270.4,329.8 1272.9,331.6 1275.5,336.6 1278.1,336.4 1280.6,335.2 1283.2,345.3 1285.7,347.0 1288.3,342.2 1290.9,335.1 1293.4,340.5 1296.0,332.5 1298.5,349.0 1301.1,338.1 1303.7,336.6 1306.2,337.9 1308.8,341.6 1311.4,345.1 1313.9,335.5 1316.5,347.6 1319.0,343.1 1321.6,344.5 1324.2,344.0 1326.7,347.7 1329.3,340.5 1331.8,342.7 1334.4,342.8 1337.0,340.4 1339.5,342.9 1342.1,347.8 1344.6,334.7 1347.2,341.7 1349.8,343.1 1352.3,337.2 1354.9,337.3 1357.4,350.4 1360.0,339.3"/>
<line x1="100" y1="356" x2="120" y2="356" stroke="#2ca02c" stroke-width="2" stroke-dasharray="3,4"/><text x="128" y="360" font-family="monospace" font-size="12">vf_loss</text>
<rect x="90" y="550" width="1270" height="220" fill="white" stroke="#cccccc"/>
<line x1="90" y1="550.0" x2="1360" y2="550.0" stroke="#eeeeee"/>
<line x1="90" y1="605.0" x2="1360" y2="605.0" stroke="#eeeeee"/>
<line x1="90" y1="660.0" x2="1360" y2="660.0" stroke="#eeeeee"/>
<line x1="90" y1="715.0" x2="1360" y2="715.0" stroke="#eeeeee"/>
<line x1="90" y1="770.0" x2="1360" y2="770.0" stroke="#eeeeee"/>
<line x1="90.0" y1="550" x2="90.0" y2="770" stroke="#f3f3f3"/>
<line x1="407.5" y1="550" x2="407.5" y2="770" stroke="#f3f3f3"/>
<line x1="725.0" y1="550" x2="725.0" y2="770" stroke="#f3f3f3"/>
<line x1="1042.5" y1="550" x2="1042.5" y2="770" stroke="#f3f3f3"/>
<line x1="1360.0" y1="550" x2="1360.0" y2="770" stroke="#f3f3f3"/>
<text x="90" y="540" font-family="monospace" font-size="12">entropy</text>
<text x="10" y="565" font-family="monospace" font-size="12">7.053</text>
<text x="10" y="770.0" font-family="monospace" font-size="12">1.448</text>
<polyline fill="none" stroke="#8c564b" stroke-width="2" points="90.0,568.3 92.6,568.7 95.1,569.2 97.7,569.8 100.2,570.2 102.8,570.8 105.4,571.2 107.9,571.6 110.5,572.1 113.0,572.4 115.6,572.8 118.2,573.3 120.7,573.7 123.3,574.3 125.8,574.9 128.4,575.2 131.0,575.6 133.5,576.1 136.1,576.3 138.6,576.6 141.2,577.0 143.8,577.4 146.3,578.1 148.9,578.1 151.5,578.7 154.0,579.0 156.6,579.0 159.1,579.5 161.7,579.8 164.3,580.2 166.8,580.5 169.4,580.7 171.9,581.5 174.5,581.9 177.1,582.4 179.6,582.6 182.2,582.7 184.7,583.3 187.3,583.9 189.9,584.5 192.4,584.3 195.0,584.9 197.5,585.2 200.1,585.1 202.7,586.2 205.2,586.2 207.8,586.7 210.3,587.4 212.9,587.7 215.5,588.0 218.0,588.8 220.6,589.3 223.1,589.4 225.7,589.9 228.3,590.6 230.8,590.8 233.4,590.8 235.9,590.8 238.5,591.3 241.1,591.8 243.6,591.8 246.2,591.8 248.8,592.7 251.3,592.9 253.9,593.2 256.4,594.1 259.0,594.8 261.6,594.7 264.1,595.1 266.7,595.2 269.2,596.3 271.8,596.3 274.4,597.6 276.9,597.0 279.5,598.1 282.0,598.1 284.6,598.7 287.2,598.7 289.7,598.7 292.3,600.2 294.8,601.1 297.4,600.7 300.0,600.4 302.5,601.1 305.1,602.3 307.6,602.2 310.2,603.3 312.8,604.1 315.3,604.4 317.9,603.9 320.4,604.4 323.0,605.4 325.6,605.8 328.1,605.3 330.7,606.4 333.2,607.6 335.8,607.8 338.4,608.2 340.9,607.9 343.5,608.5 346.0,609.0 348.6,610.5 351.2,610.4 353.7,611.9 356.3,611.6 358.9,612.7 361.4,612.4 364.0,614.1 366.5,613.7 369.1,614.4 371.7,615.2 374.2,615.1 376.8,616.9 379.3,617.1 381.9,617.2 384.5,616.5 387.0,618.1 389.6,619.0 392.1,619.0 394.7,619.6 397.3,619.8 399.8,620.3 402.4,620.6 404.9,622.6 407.5,622.6 410.1,622.4 412.6,621.8 415.2,622.7 417.7,623.1 420.3,624.7 422.9,623.3 425.4,625.3 428.0,624.3 430.5,624.7 433.1,625.3 435.7,625.7 438.2,627.3 440.8,627.8 443.3,627.6 445.9,626.4 448.5,628.8 451.0,629.8 453.6,630.5 456.1,630.7 458.7,630.7 461.3,631.6 463.8,631.4 466.4,632.9 469.0,633.3 471.5,633.2 474.1,636.8 476.6,636.4 479.2,636.8 481.8,636.9 484.3,635.9 486.9,637.2 489.4,637.7 492.0,637.9 494.6,640.2 497.1,640.0 499.7,640.9 502.2,641.1 504.8,640.3 507.4,643.3 509.9,643.4 512.5,642.3 515.0,644.0 517.6,644.2 520.2,644.7 522.7,644.5 525.3,645.6 527.8,645.8 530.4,645.9 533.0,648.5 535.5,647.5 538.1,647.8 540.6,649.4 543.2,649.8 545.8,650.2 548.3,652.3 550.9,652.0 553.4,651.6 556.0,651.7 558.6,652.5 561.1,653.0 563.7,652.9 566.2,654.0 568.8,655.8 571.4,654.0 573.9,655.5 576.5,656.3 579.1,656.8 581.6,656.3 584.2,658.0 586.7,659.1 589.3,657.0 591.9,660.3 594.4,660.1 597.0,659.4 599.5,661.3 602.1,661.3 604.7,662.6 607.2,662.3 609.8,663.3 612.3,663.6 614.9,664.6 617.5,663.2 620.0,662.9 622.6,664.4 625.1,665.5 627.7,665.5 630.3,664.1 632.8,666.1 635.4,667.0 637.9,665.6 640.5,666.6 643.1,668.1 645.6,667.8 648.2,671.5 650.7,672.0 653.3,670.0 655.9,672.4 658.4,672.3 661.0,672.3 663.5,673.0 666.1,671.7 668.7,671.9 671.2,673.1 673.8,672.3 676.4,674.0 678.9,674.4 681.5,675.6 684.0,675.3 686.6,675.1 689.2,675.2 691.7,675.0 694.3,679.0 696.8,677.3 699.4,678.8 702.0,679.5 704.5,679.4 707.1,680.6 709.6,679.2 712.2,681.2 714.8,681.1 717.3,680.2 719.9,681.3 722.4,682.0 725.0,682.2 727.6,684.7 730.1,683.9 732.7,684.1 735.2,685.2 737.8,685.2 740.4,686.4 742.9,686.9 745.5,687.5 748.0,689.7 750.6,687.5 753.2,688.9 755.7,689.5 758.3,691.5 760.8,691.2 763.4,690.0 766.0,691.0 768.5,690.0 771.1,691.9 773.6,692.5 776.2,691.5 778.8,690.9 781.3,694.0 783.9,693.8 786.5,694.5 789.0,695.2 791.6,695.1 794.1,697.0 796.7,697.2 799.3,698.3 801.8,697.7 804.4,698.6 806.9,697.8 809.5,699.0 812.1,699.5 814.6,700.4 817.2,700.0 819.7,700.9 822.3,700.9 824.9,700.4 827.4,702.4 830.0,701.8 832.5,702.2 835.1,702.5 837.7,703.6 840.2,705.4 842.8,705.0 845.3,705.5 847.9,707.1 850.5,706.5 853.0,705.0 855.6,706.9 858.1,706.7 860.7,707.8 863.3,706.8 865.8,708.5 868.4,710.0 870.9,708.9 873.5,709.7 876.1,710.3 878.6,711.1 881.2,710.8 883.8,711.4 886.3,711.7 888.9,710.9 891.4,711.6 894.0,712.2 896.6,712.6 899.1,714.0 901.7,713.7 904.2,713.6 906.8,714.0 909.4,715.8 911.9,714.5 914.5,715.2 917.0,716.4 919.6,716.0 922.2,716.6 924.7,716.8 927.3,717.1 929.8,718.0 932.4,717.5 935.0,718.8 937.5,720.2 940.1,719.3 942.6,718.9 945.2,719.6 947.8,719.3 950.3,721.2 952.9,722.0 955.4,722.1 958.0,721.2 960.6,722.9 963.1,722.0 965.7,722.2 968.2,722.6 970.8,723.1 973.4,724.6 975.9,724.2 978.5,726.0 981.0,725.1 983.6,724.5 986.2,724.5 988.7,726.1 991.3,725.8 993.9,725.7 996.4,725.6 999.0,725.7 1001.5,728.1 1004.1,728.0 1006.7,728.6 1009.2,728.2 1011.8,728.8 1014.3,728.3 1016.9,730.1 1019.5,731.2 1022.0,728.5 1024.6,729.8 1027.1,731.1 1029.7,731.9 1032.3,731.6 1034.8,731.6 1037.4,730.9 1039.9,731.6 1042.5,732.1 1045.1,732.8 1047.6,731.6 1050.2,732.3 1052.7,731.7 1055.3,734.2 1057.9,733.5 1060.4,732.8 1063.0,734.0 1065.5,736.7 1068.1,734.8 1070.7,737.7 1073.2,735.8 1075.8,734.8 1078.3,736.0 1080.9,737.5 1083.5,736.8 1086.0,737.6 1088.6,736.5 1091.1,736.4 1093.7,736.4 1096.3,736.5 1098.8,737.7 1101.4,736.6 1104.0,738.1 1106.5,736.7 1109.1,738.1 1111.6,738.3 1114.2,738.6 1116.8,737.3 1119.3,737.1 1121.9,737.5 1124.4,738.1 1127.0,738.6 1129.6,738.7 1132.1,739.2 1134.7,740.2 1137.2,740.6 1139.8,739.4 1142.4,739.4 1144.9,739.7 1147.5,739.8 1150.0,739.5 1152.6,740.6 1155.2,741.1 1157.7,740.6 1160.3,741.1 1162.8,741.6 1165.4,742.5 1168.0,742.3 1170.5,742.9 1173.1,742.5 1175.6,742.2 1178.2,742.4 1180.8,743.1 1183.3,742.9 1185.9,743.2 1188.4,741.9 1191.0,743.3 1193.6,742.2 1196.1,743.0 1198.7,742.9 1201.2,743.3 1203.8,744.2 1206.4,744.6 1208.9,742.9 1211.5,743.2 1214.1,744.2 1216.6,744.9 1219.2,743.9 1221.7,742.8 1224.3,745.0 1226.9,745.0 1229.4,744.4 1232.0,743.0 1234.5,744.5 1237.1,745.7 1239.7,744.7 1242.2,744.7 1244.8,745.4 1247.3,744.5 1249.9,745.4 1252.5,745.5 1255.0,746.5 1257.6,747.5 1260.1,745.9 1262.7,745.9 1265.3,745.8 1267.8,745.1 1270.4,746.0 1272.9,745.7 1275.5,747.0 1278.1,747.3 1280.6,747.2 1283.2,748.8 1285.7,748.7 1288.3,748.2 1290.9,748.9 1293.4,748.6 1296.0,747.3 1298.5,748.3 1301.1,748.6 1303.7,747.5 1306.2,748.8 1308.8,748.1 1311.4,747.9 1313.9,749.0 1316.5,749.3 1319.0,749.2 1321.6,748.6 1324.2,748.2 1326.7,750.1 1329.3,749.9 1331.8,751.7 1334.4,750.3 1337.0,751.3 1339.5,749.8 1342.1,749.6 1344.6,749.9 1347.2,750.4 1349.8,751.6 1352.3,751.3 1354.9,750.6 1357.4,751.6 1360.0,750.5"/>
<line x1="100" y1="570" x2="120" y2="570" stroke="#8c564b" stroke-width="2"/><text x="128" y="574" font-family="monospace" font-size="12">entropy</text>
<rect x="90" y="800" width="1270" height="220" fill="white" stroke="#cccccc"/>
<line x1="90" y1="800.0" x2="1360" y2="800.0" stroke="#eeeeee"/>
<line x1="90" y1="855.0" x2="1360" y2="855.0" stroke="#eeeeee"/>
<line x1="90" y1="910.0" x2="1360" y2="910.0" stroke="#eeeeee"/>
<line x1="90" y1="965.0" x2="1360" y2="965.0" stroke="#eeeeee"/>
<line x1="90" y1="1020.0" x2="1360" y2="1020.0" stroke="#eeeeee"/>
<line x1="90.0" y1="800" x2="90.0" y2="1020" stroke="#f3f3f3"/>
<line x1="407.5" y1="800" x2="407.5" y2="1020" stroke="#f3f3f3"/>
<line x1="725.0" y1="800" x2="725.0" y2="1020" stroke="#f3f3f3"/>
<line x1="1042.5" y1="800" x2="1042.5" y2="1020" stroke="#f3f3f3"/>
<line x1="1360.0" y1="800" x2="1360.0" y2="1020" stroke="#f3f3f3"/>
<text x="90" y="790" font-family="monospace" font-size="12">kl</text>
<text x="10" y="815" font-family="monospace" font-size="12">0.039</text>
<text x="10" y="1020.0" font-family="monospace" font-size="12">0.003</text>
<polyline fill="none" stroke="#7f7f7f" stroke-width="2" points="90.0,1001.7 92.6,989.1 95.1,977.5 97.7,964.4 100.2,973.8 102.8,965.0 105.4,965.5 107.9,974.1 110.5,965.9 113.0,977.2 115.6,970.7 118.2,966.8 120.7,961.5 123.3,958.0 125.8,957.9 128.4,962.0 131.0,964.4 133.5,960.8 136.1,965.8 138.6,959.5 141.2,956.6 143.8,957.7 146.3,946.4 148.9,953.0 151.5,950.3 154.0,953.9 156.6,931.9 159.1,957.6 161.7,955.9 164.3,946.7 166.8,952.9 169.4,952.2 171.9,942.1 174.5,948.8 177.1,944.9 179.6,942.9 182.2,936.4 184.7,938.1 187.3,920.9 189.9,918.5 192.4,933.7 195.0,929.1 197.5,924.8 200.1,926.0 202.7,925.6 205.2,925.8 207.8,926.0 210.3,921.8 212.9,915.7 215.5,930.6 218.0,920.5 220.6,923.8 223.1,922.1 225.7,931.0 228.3,925.2 230.8,922.5 233.4,915.9 235.9,940.0 238.5,933.7 241.1,932.6 243.6,937.9 246.2,939.0 248.8,934.0 251.3,930.7 253.9,939.5 256.4,925.9 259.0,929.0 261.6,931.8 264.1,928.0 266.7,936.6 269.2,927.0 271.8,931.0 274.4,912.5 276.9,948.8 279.5,931.3 282.0,943.6 284.6,944.6 287.2,941.9 289.7,939.4 292.3,941.5 294.8,941.0 297.4,941.1 300.0,943.0 302.5,937.0 305.1,940.5 307.6,940.1 310.2,935.0 312.8,942.2 315.3,938.6 317.9,941.1 320.4,937.9 323.0,933.0 325.6,934.5 328.1,939.1 330.7,940.5 333.2,937.8 335.8,924.0 338.4,939.4 340.9,938.1 343.5,935.7 346.0,938.0 348.6,938.4 351.2,931.2 353.7,931.0 356.3,934.8 358.9,932.5 361.4,933.1 364.0,934.2 366.5,935.0 369.1,933.1 371.7,927.4 374.2,934.1 376.8,932.6 379.3,924.1 381.9,929.2 384.5,938.9 387.0,936.1 389.6,929.5 392.1,936.8 394.7,932.3 397.3,931.6 399.8,932.5 402.4,932.2 404.9,928.8 407.5,928.1 410.1,938.0 412.6,931.7 415.2,928.0 417.7,934.4 420.3,925.8 422.9,930.6 425.4,932.1 428.0,932.4 430.5,934.7 433.1,928.0 435.7,932.6 438.2,925.8 440.8,922.1 443.3,926.1 445.9,925.8 448.5,932.3 451.0,932.8 453.6,923.7 456.1,930.2 458.7,926.9 461.3,926.8 463.8,931.4 466.4,927.0 469.0,930.1 471.5,926.9 474.1,927.6 476.6,925.9 479.2,928.2 481.8,928.5 484.3,929.2 486.9,927.5 489.4,927.1 492.0,928.3 494.6,935.4 497.1,926.9 499.7,919.6 502.2,928.8 504.8,926.8 507.4,926.4 509.9,929.1 512.5,919.5 515.0,925.0 517.6,927.6 520.2,930.8 522.7,933.2 525.3,925.7 527.8,921.0 530.4,929.6 533.0,922.2 535.5,922.2 538.1,924.6 540.6,926.7 543.2,923.1 545.8,922.3 548.3,922.3 550.9,923.4 553.4,922.8 556.0,921.8 558.6,921.4 561.1,920.6 563.7,920.4 566.2,918.3 568.8,915.4 571.4,946.4 573.9,941.2 576.5,947.7 579.1,947.7 581.6,945.5 584.2,947.5 586.7,943.6 589.3,942.7 591.9,943.8 594.4,946.3 597.0,940.5 599.5,940.4 602.1,943.4 604.7,947.2 607.2,945.9 609.8,942.5 612.3,940.5 614.9,943.8 617.5,943.1 620.0,942.6 622.6,943.3 625.1,945.4 627.7,946.4 630.3,942.2 632.8,945.0 635.4,933.9 637.9,940.6 640.5,940.7 643.1,935.3 645.6,943.1 648.2,941.8 650.7,943.9 653.3,944.0 655.9,943.0 658.4,946.7 661.0,935.5 663.5,932.0 666.1,941.8 668.7,940.4 671.2,942.5 673.8,934.9 676.4,941.5 678.9,945.1 681.5,917.2 684.0,940.5 686.6,943.0 689.2,942.3 691.7,945.5 694.3,937.9 696.8,943.1 699.4,948.2 702.0,945.1 704.5,938.4 707.1,945.5 709.6,945.1 712.2,941.8 714.8,938.2 717.3,938.1 719.9,942.8 722.4,929.2 725.0,941.3 727.6,927.8 730.1,938.8 732.7,938.3 735.2,937.1 737.8,940.1 740.4,937.1 742.9,939.4 745.5,934.8 748.0,938.4 750.6,935.3 753.2,937.7 755.7,932.5 758.3,942.1 760.8,927.5 763.4,941.6 766.0,942.8 768.5,936.6 771.1,939.8 773.6,934.3 776.2,930.3 778.8,936.0 781.3,932.6 783.9,941.5 786.5,928.9 789.0,933.2 791.6,944.1 794.1,937.5 796.7,925.0 799.3,939.5 801.8,933.2 804.4,937.6 806.9,938.7 809.5,939.5 812.1,935.9 814.6,928.2 817.2,935.6 819.7,926.9 822.3,926.5 824.9,928.4 827.4,932.3 830.0,934.3 832.5,940.0 835.1,933.0 837.7,939.7 840.2,933.3 842.8,929.4 845.3,929.5 847.9,918.6 850.5,927.8 853.0,931.6 855.6,933.6 858.1,935.4 860.7,936.4 863.3,929.5 865.8,935.2 868.4,933.5 870.9,937.9 873.5,925.5 876.1,937.2 878.6,933.0 881.2,926.5 883.8,936.0 886.3,936.8 888.9,929.4 891.4,920.1 894.0,928.4 896.6,935.5 899.1,933.5 901.7,928.8 904.2,932.6 906.8,930.3 909.4,932.3 911.9,934.5 914.5,932.4 917.0,932.9 919.6,928.3 922.2,936.1 924.7,932.2 927.3,936.0 929.8,921.3 932.4,935.0 935.0,941.5 937.5,921.1 940.1,932.0 942.6,927.1 945.2,932.8 947.8,929.4 950.3,930.5 952.9,933.9 955.4,936.1 958.0,934.0 960.6,919.5 963.1,927.7 965.7,937.5 968.2,932.0 970.8,934.3 973.4,931.4 975.9,935.5 978.5,928.3 981.0,934.0 983.6,924.4 986.2,930.5 988.7,928.7 991.3,931.8 993.9,934.2 996.4,925.3 999.0,934.7 1001.5,930.4 1004.1,932.8 1006.7,923.8 1009.2,931.3 1011.8,921.0 1014.3,932.8 1016.9,932.8 1019.5,925.4 1022.0,928.7 1024.6,921.5 1027.1,925.8 1029.7,933.7 1032.3,929.8 1034.8,920.9 1037.4,927.8 1039.9,925.1 1042.5,931.9 1045.1,926.2 1047.6,925.4 1050.2,932.4 1052.7,919.3 1055.3,922.0 1057.9,930.3 1060.4,928.9 1063.0,836.0 1065.5,818.3 1068.1,867.1 1070.7,906.0 1073.2,915.7 1075.8,943.7 1078.3,938.3 1080.9,947.0 1083.5,949.8 1086.0,944.2 1088.6,939.5 1091.1,953.5 1093.7,949.6 1096.3,949.4 1098.8,949.9 1101.4,946.1 1104.0,949.7 1106.5,939.1 1109.1,945.1 1111.6,947.9 1114.2,954.3 1116.8,942.3 1119.3,946.5 1121.9,946.3 1124.4,954.2 1127.0,952.4 1129.6,951.9 1132.1,946.4 1134.7,948.8 1137.2,953.2 1139.8,946.2 1142.4,946.9 1144.9,947.2 1147.5,937.7 1150.0,953.0 1152.6,948.3 1155.2,943.6 1157.7,955.3 1160.3,944.7 1162.8,946.7 1165.4,953.9 1168.0,950.0 1170.5,948.4 1173.1,945.0 1175.6,945.7 1178.2,951.1 1180.8,950.3 1183.3,953.9 1185.9,945.5 1188.4,945.4 1191.0,954.1 1193.6,949.2 1196.1,948.7 1198.7,956.4 1201.2,954.6 1203.8,955.3 1206.4,940.9 1208.9,947.3 1211.5,950.9 1214.1,953.8 1216.6,952.9 1219.2,948.0 1221.7,949.1 1224.3,941.8 1226.9,945.8 1229.4,954.2 1232.0,942.8 1234.5,952.6 1237.1,944.5 1239.7,946.5 1242.2,951.3 1244.8,955.1 1247.3,949.7 1249.9,943.9 1252.5,948.5 1255.0,946.4 1257.6,942.7 1260.1,952.7 1262.7,951.4 1265.3,950.0 1267.8,948.6 1270.4,954.1 1272.9,950.1 1275.5,945.1 1278.1,951.4 1280.6,955.7 1283.2,951.9 1285.7,952.1 1288.3,944.7 1290.9,955.1 1293.4,950.2 1296.0,951.9 1298.5,938.7 1301.1,946.6 1303.7,950.4 1306.2,957.3 1308.8,945.6 1311.4,952.2 1313.9,951.4 1316.5,940.9 1319.0,946.0 1321.6,948.5 1324.2,949.6 1326.7,951.9 1329.3,948.6 1331.8,952.0 1334.4,950.9 1337.0,947.6 1339.5,949.0 1342.1,942.9 1344.6,957.7 1347.2,949.5 1349.8,952.8 1352.3,950.2 1354.9,954.0 1357.4,941.3 1360.0,953.5"/>
<line x1="100" y1="820" x2="120" y2="820" stroke="#7f7f7f" stroke-width="2"/><text x="128" y="824" font-family="monospace" font-size="12">kl</text>
<text x="90" y="1170" font-family="monospace" font-size="12">orange dots = baseline 50-episode eval win_rate</text>
</svg>