<svg xmlns="http://www.w3.org/2000/svg" width="1400" height="1120" viewBox="0 0 1400 1120">
<rect x="0" y="0" width="1400" height="1120" fill="white" />
<text x="90" y="28" font-size="22" font-family="Arial, sans-serif" font-weight="bold">Training Loss Curve</text>
<text x="90" y="46" font-size="12" font-family="Arial, sans-serif" fill="#555">/home/hice1/wsun377/Desktop/cs8803drl/ray_results/PPO_base_team_vs_baseline_512x256_20260411_192339</text>
<rect x="90" y="50" width="1270" height="210" fill="none" stroke="#bbb" stroke-width="1"/>
<text x="90" y="42" font-size="15" font-family="Arial, sans-serif" font-weight="bold">Losses</text>
<text x="18" y="155.0" font-size="12" font-family="Arial, sans-serif" transform="rotate(-90 18 155.0)">Loss</text>
<text x="18" y="62" font-size="11" font-family="Arial, sans-serif" fill="#666">0.111</text>
<text x="18" y="258" font-size="11" font-family="Arial, sans-serif" fill="#666">-0.155</text>
<line x1="90" y1="102.5" x2="1360" y2="102.5" stroke="#eee" stroke-width="1"/>
<line x1="90" y1="155.0" x2="1360" y2="155.0" stroke="#eee" stroke-width="1"/>
<line x1="90" y1="207.5" x2="1360" y2="207.5" stroke="#eee" stroke-width="1"/>
<rect x="90" y="290" width="1270" height="210" fill="none" stroke="#bbb" stroke-width="1"/>
<text x="90" y="282" font-size="15" font-family="Arial, sans-serif" font-weight="bold">Entropy / KL</text>
<text x="18" y="395.0" font-size="12" font-family="Arial, sans-serif" transform="rotate(-90 18 395.0)">Aux</text>
<text x="18" y="302" font-size="11" font-family="Arial, sans-serif" fill="#666">7.247</text>
<text x="18" y="498" font-size="11" font-family="Arial, sans-serif" fill="#666">-0.655</text>
<line x1="90" y1="342.5" x2="1360" y2="342.5" stroke="#eee" stroke-width="1"/>
<line x1="90" y1="395.0" x2="1360" y2="395.0" stroke="#eee" stroke-width="1"/>
<line x1="90" y1="447.5" x2="1360" y2="447.5" stroke="#eee" stroke-width="1"/>
<rect x="90" y="530" width="1270" height="210" fill="none" stroke="#bbb" stroke-width="1"/>
<text x="90" y="522" font-size="15" font-family="Arial, sans-serif" font-weight="bold">Episode Reward Mean</text>
<text x="18" y="635.0" font-size="12" font-family="Arial, sans-serif" transform="rotate(-90 18 635.0)">Reward</text>
<text x="18" y="542" font-size="11" font-family="Arial, sans-serif" fill="#666">2.151</text>
<text x="18" y="738" font-size="11" font-family="Arial, sans-serif" fill="#666">-0.741</text>
<line x1="90" y1="582.5" x2="1360" y2="582.5" stroke="#eee" stroke-width="1"/>
<line x1="90" y1="635.0" x2="1360" y2="635.0" stroke="#eee" stroke-width="1"/>
<line x1="90" y1="687.5" x2="1360" y2="687.5" stroke="#eee" stroke-width="1"/>
<rect x="90" y="770" width="1270" height="210" fill="none" stroke="#bbb" stroke-width="1"/>
<text x="90" y="762" font-size="15" font-family="Arial, sans-serif" font-weight="bold">Baseline Win Rate (checkpoint eval)</text>
<text x="18" y="875.0" font-size="12" font-family="Arial, sans-serif" transform="rotate(-90 18 875.0)">Win Rate</text>
<text x="18" y="782" font-size="11" font-family="Arial, sans-serif" fill="#666">1.000</text>
<text x="18" y="978" font-size="11" font-family="Arial, sans-serif" fill="#666">0.000</text>
<line x1="90" y1="822.5" x2="1360" y2="822.5" stroke="#eee" stroke-width="1"/>
<line x1="90" y1="875.0" x2="1360" y2="875.0" stroke="#eee" stroke-width="1"/>
<line x1="90" y1="927.5" x2="1360" y2="927.5" stroke="#eee" stroke-width="1"/>
<line x1="90.0" y1="50" x2="90.0" y2="980" stroke="#f3f3f3" stroke-width="1"/>
<text x="90.0" y="998" text-anchor="middle" font-size="11" font-family="Arial, sans-serif" fill="#666">1</text>
<line x1="407.5" y1="50" x2="407.5" y2="980" stroke="#f3f3f3" stroke-width="1"/>
<text x="407.5" y="998" text-anchor="middle" font-size="11" font-family="Arial, sans-serif" fill="#666">126</text>
<line x1="725.0" y1="50" x2="725.0" y2="980" stroke="#f3f3f3" stroke-width="1"/>
<text x="725.0" y="998" text-anchor="middle" font-size="11" font-family="Arial, sans-serif" fill="#666">250</text>
<line x1="1042.5" y1="50" x2="1042.5" y2="980" stroke="#f3f3f3" stroke-width="1"/>
<text x="1042.5" y="998" text-anchor="middle" font-size="11" font-family="Arial, sans-serif" fill="#666">375</text>
<line x1="1360.0" y1="50" x2="1360.0" y2="980" stroke="#f3f3f3" stroke-width="1"/>
<text x="1360.0" y="998" text-anchor="middle" font-size="11" font-family="Arial, sans-serif" fill="#666">500</text>
<text x="725.0" y="1110" text-anchor="middle" font-size="12" font-family="Arial, sans-serif">Training Iteration</text>
<line x1="100" y1="68" x2="122" y2="68" stroke="#1f77b4" stroke-width="3"/>
<text x="128" y="72" font-size="11" font-family="Arial, sans-serif">default_policy</text>
<polyline fill="none" stroke="#1f77b4" stroke-width="2" points="90.0,148.8 92.5,157.0 95.1,157.8 97.6,165.8 100.2,158.8 102.7,171.3 105.3,169.0 107.8,156.3 110.4,161.0 112.9,163.4 115.5,161.1 118.0,165.4 120.5,159.6 123.1,161.9 125.6,165.4 128.2,156.8 130.7,161.6 133.3,153.8 135.8,171.5 138.4,153.8 140.9,167.0 143.4,160.9 146.0,170.4 148.5,165.0 151.1,162.3 153.6,162.3 156.2,153.4 158.7,165.7 161.3,154.4 163.8,162.4 166.4,156.8 168.9,159.6 171.4,171.0 174.0,166.0 176.5,162.9 179.1,162.1 181.6,172.5 184.2,156.2 186.7,164.3 189.3,168.0 191.8,162.7 194.3,161.8 196.9,167.3 199.4,158.1 202.0,159.6 204.5,170.1 207.1,161.6 209.6,159.7 212.2,167.7 214.7,158.5 217.3,163.1 219.8,162.1 222.3,152.7 224.9,166.3 227.4,158.3 230.0,163.3 232.5,157.7 235.1,168.5 237.6,151.8 240.2,161.3 242.7,155.1 245.3,161.6 247.8,162.5 250.3,158.0 252.9,167.3 255.4,158.8 258.0,164.7 260.5,162.2 263.1,153.5 265.6,165.4 268.2,160.6 270.7,172.9 273.2,161.8 275.8,166.5 278.3,166.2 280.9,167.2 283.4,165.0 286.0,172.4 288.5,166.1 291.1,170.7 293.6,165.5 296.2,172.0 298.7,169.5 301.2,177.3 303.8,170.2 306.3,170.9 308.9,169.3 311.4,170.8 314.0,164.1 316.5,181.1 319.1,186.3 321.6,174.6 324.1,167.9 326.7,174.6 329.2,182.8 331.8,169.0 334.3,179.8 336.9,173.9 339.4,173.7 342.0,168.3 344.5,181.2 347.1,176.0 349.6,180.5 352.1,174.8 354.7,170.4 357.2,179.0 359.8,167.4 362.3,185.1 364.9,177.1 367.4,169.4 370.0,168.2 372.5,174.5 375.1,177.8 377.6,170.9 380.1,174.7 382.7,186.4 385.2,173.9 387.8,178.2 390.3,176.3 392.9,164.9 395.4,175.6 398.0,177.1 400.5,174.7 403.0,166.2 405.6,164.1 408.1,172.4 410.7,176.2 413.2,172.7 415.8,154.7 418.3,166.1 420.9,163.5 423.4,173.6 426.0,165.7 428.5,175.8 431.0,163.8 433.6,164.6 436.1,166.6 438.7,161.6 441.2,171.8 443.8,173.6 446.3,173.0 448.9,175.0 451.4,169.7 453.9,178.1 456.5,170.3 459.0,167.2 461.6,174.0 464.1,165.4 466.7,167.1 469.2,165.9 471.8,175.0 474.3,180.0 476.9,175.9 479.4,173.2 481.9,179.1 484.5,169.8 487.0,176.6 489.6,175.1 492.1,174.0 494.7,150.1 497.2,152.4 499.8,168.0 502.3,163.0 504.8,167.0 507.4,166.4 509.9,162.1 512.5,171.9 515.0,172.2 517.6,174.1 520.1,170.8 522.7,165.7 525.2,167.8 527.8,169.2 530.3,153.0 532.8,177.6 535.4,168.3 537.9,159.9 540.5,165.0 543.0,174.1 545.6,169.5 548.1,173.0 550.7,167.9 553.2,171.4 555.8,165.9 558.3,167.3 560.8,165.8 563.4,182.4 565.9,165.7 568.5,179.7 571.0,157.3 573.6,169.8 576.1,179.4 578.7,177.3 581.2,175.7 583.7,172.5 586.3,177.5 588.8,173.3 591.4,177.2 593.9,188.0 596.5,172.8 599.0,174.7 601.6,175.2 604.1,168.3 606.7,166.7 609.2,167.9 611.7,171.2 614.3,184.8 616.8,166.1 619.4,173.3 621.9,165.4 624.5,167.9 627.0,174.0 629.6,164.9 632.1,179.6 634.6,151.9 637.2,155.2 639.7,163.2 642.3,159.9 644.8,157.2 647.4,150.6 649.9,167.2 652.5,155.7 655.0,169.1 657.6,159.2 660.1,160.2 662.6,160.6 665.2,155.2 667.7,151.4 670.3,166.3 672.8,155.1 675.4,158.2 677.9,160.4 680.5,161.6 683.0,155.5 685.6,157.6 688.1,166.9 690.6,163.9 693.2,155.3 695.7,163.7 698.3,163.6 700.8,154.5 703.4,147.6 705.9,158.5 708.5,151.9 711.0,150.6 713.5,156.6 716.1,163.4 718.6,156.8 721.2,155.4 723.7,152.8 726.3,164.0 728.8,155.7 731.4,148.9 733.9,167.9 736.5,162.9 739.0,154.0 741.5,160.9 744.1,162.2 746.6,149.3 749.2,156.3 751.7,162.7 754.3,153.2 756.8,168.2 759.4,172.0 761.9,159.3 764.4,163.4 767.0,143.5 769.5,161.7 772.1,171.9 774.6,152.9 777.2,162.2 779.7,156.7 782.3,161.8 784.8,166.2 787.4,152.4 789.9,165.5 792.4,165.2 795.0,132.8 797.5,147.1 800.1,156.3 802.6,157.7 805.2,157.5 807.7,153.4 810.3,153.6 812.8,162.5 815.4,161.1 817.9,156.4 820.4,175.7 823.0,154.2 825.5,159.4 828.1,162.1 830.6,155.6 833.2,159.1 835.7,154.6 838.3,167.3 840.8,144.9 843.3,154.3 845.9,165.4 848.4,169.9 851.0,154.5 853.5,154.0 856.1,154.6 858.6,151.6 861.2,154.4 863.7,161.0 866.3,156.4 868.8,152.3 871.3,156.6 873.9,160.2 876.4,162.5 879.0,155.9 881.5,156.5 884.1,157.6 886.6,153.4 889.2,165.2 891.7,153.1 894.2,164.2 896.8,150.2 899.3,149.3 901.9,150.7 904.4,162.1 907.0,156.8 909.5,156.5 912.1,153.8 914.6,149.8 917.2,157.1 919.7,150.8 922.2,148.2 924.8,158.1 927.3,151.9 929.9,139.4 932.4,168.3 935.0,148.3 937.5,156.0 940.1,150.3 942.6,156.7 945.2,146.0 947.7,163.9 950.2,157.1 952.8,155.6 955.3,165.4 957.9,156.9 960.4,160.6 963.0,149.0 965.5,148.2 968.1,153.6 970.6,138.5 973.1,160.1 975.7,148.4 978.2,154.5 980.8,154.3 983.3,156.4 985.9,165.7 988.4,153.2 991.0,146.6 993.5,163.5 996.1,146.8 998.6,154.0 1001.1,152.0 1003.7,153.6 1006.2,153.0 1008.8,159.1 1011.3,173.2 1013.9,154.5 1016.4,155.6 1019.0,153.9 1021.5,142.8 1024.0,147.3 1026.6,145.2 1029.1,156.0 1031.7,156.2 1034.2,151.2 1036.8,155.4 1039.3,156.5 1041.9,158.1 1044.4,158.1 1047.0,161.1 1049.5,162.6 1052.0,149.5 1054.6,147.7 1057.1,164.8 1059.7,144.3 1062.2,143.9 1064.8,148.0 1067.3,164.1 1069.9,159.9 1072.4,152.9 1074.9,153.2 1077.5,156.3 1080.0,156.6 1082.6,138.7 1085.1,151.8 1087.7,162.7 1090.2,161.0 1092.8,148.4 1095.3,155.9 1097.9,159.4 1100.4,154.2 1102.9,157.3 1105.5,158.7 1108.0,142.9 1110.6,159.0 1113.1,154.7 1115.7,151.3 1118.2,128.9 1120.8,151.4 1123.3,153.8 1125.9,147.6 1128.4,135.2 1130.9,149.5 1133.5,155.3 1136.0,151.2 1138.6,144.7 1141.1,155.0 1143.7,162.4 1146.2,139.0 1148.8,148.7 1151.3,151.0 1153.8,157.5 1156.4,148.0 1158.9,153.8 1161.5,137.9 1164.0,143.3 1166.6,156.7 1169.1,151.9 1171.7,154.3 1174.2,152.3 1176.8,160.1 1179.3,149.2 1181.8,144.6 1184.4,153.8 1186.9,150.9 1189.5,158.2 1192.0,160.8 1194.6,143.6 1197.1,146.5 1199.7,154.9 1202.2,155.6 1204.7,155.7 1207.3,145.3 1209.8,146.3 1212.4,139.0 1214.9,145.2 1217.5,155.6 1220.0,159.9 1222.6,136.0 1225.1,150.6 1227.7,149.1 1230.2,156.5 1232.7,147.6 1235.3,154.5 1237.8,152.8 1240.4,150.2 1242.9,145.3 1245.5,141.2 1248.0,143.2 1250.6,140.0 1253.1,156.7 1255.7,146.6 1258.2,151.9 1260.7,148.2 1263.3,165.2 1265.8,149.9 1268.4,144.8 1270.9,149.8 1273.5,146.5 1276.0,157.5 1278.6,145.8 1281.1,151.3 1283.6,149.8 1286.2,153.1 1288.7,154.0 1291.3,137.6 1293.8,159.9 1296.4,141.7 1298.9,152.3 1301.5,152.2 1304.0,143.9 1306.6,147.4 1309.1,139.7 1311.6,134.4 1314.2,150.6 1316.7,134.9 1319.3,146.0 1321.8,149.1 1324.4,155.7 1326.9,152.0 1329.5,142.7 1332.0,144.4 1334.5,156.1 1337.1,156.1 1339.6,140.4 1342.2,154.3 1344.7,145.1 1347.3,154.7 1349.8,141.4 1352.4,154.8 1354.9,142.3 1357.5,144.0 1360.0,151.6"/>
<polyline fill="none" stroke="#1f77b4" stroke-width="2" stroke-dasharray="8,4" points="90.0,155.1 92.5,162.9 95.1,165.5 97.6,174.0 100.2,167.8 102.7,177.6 105.3,175.2 107.8,165.3 110.4,167.2 112.9,172.1 115.5,168.7 118.0,171.7 120.5,165.8 123.1,168.4 125.6,170.6 128.2,163.8 130.7,167.5 133.3,160.8 135.8,175.7 138.4,163.6 140.9,176.1 143.4,169.3 146.0,177.2 148.5,172.7 151.1,170.0 153.6,168.2 156.2,159.9 158.7,171.0 161.3,162.4 163.8,168.4 166.4,165.7 168.9,173.5 171.4,180.0 174.0,172.8 176.5,173.0 179.1,171.7 181.6,178.1 184.2,167.0 186.7,173.0 189.3,174.2 191.8,170.8 194.3,167.7 196.9,174.0 199.4,166.1 202.0,167.9 204.5,176.0 207.1,170.3 209.6,168.4 212.2,172.7 214.7,164.5 217.3,168.6 219.8,166.9 222.3,160.4 224.9,171.3 227.4,166.0 230.0,170.4 232.5,167.7 235.1,173.8 237.6,160.4 240.2,170.8 242.7,163.8 245.3,169.9 247.8,169.9 250.3,169.2 252.9,174.7 255.4,167.8 258.0,172.9 260.5,169.5 263.1,164.9 265.6,174.4 268.2,172.6 270.7,181.4 273.2,173.1 275.8,178.6 278.3,181.5 280.9,179.7 283.4,177.7 286.0,184.7 288.5,181.8 291.1,184.8 293.6,183.2 296.2,186.9 298.7,186.6 301.2,193.1 303.8,187.5 306.3,187.2 308.9,187.4 311.4,192.0 314.0,189.8 316.5,204.1 319.1,208.8 321.6,204.0 324.1,204.2 326.7,205.8 329.2,215.3 331.8,208.0 334.3,215.4 336.9,214.5 339.4,215.5 342.0,213.7 344.5,218.1 347.1,220.9 349.6,219.6 352.1,217.5 354.7,219.3 357.2,222.9 359.8,216.5 362.3,226.0 364.9,224.6 367.4,221.4 370.0,221.1 372.5,222.2 375.1,231.5 377.6,223.0 380.1,223.7 382.7,231.4 385.2,226.6 387.8,231.1 390.3,236.4 392.9,225.9 395.4,234.6 398.0,231.4 400.5,231.1 403.0,231.0 405.6,225.8 408.1,232.5 410.7,237.0 413.2,231.8 415.8,225.8 418.3,231.9 420.9,229.1 423.4,232.7 426.0,227.8 428.5,235.9 431.0,230.3 433.6,231.8 436.1,231.5 438.7,231.5 441.2,234.8 443.8,231.7 446.3,234.1 448.9,232.8 451.4,233.1 453.9,236.9 456.5,230.0 459.0,229.9 461.6,236.8 464.1,235.9 466.7,233.8 469.2,236.0 471.8,235.4 474.3,239.4 476.9,237.1 479.4,235.4 481.9,236.0 484.5,236.3 487.0,238.4 489.6,236.1 492.1,235.5 494.7,226.5 497.2,232.9 499.8,235.5 502.3,233.7 504.8,236.1 507.4,233.3 509.9,233.5 512.5,238.1 515.0,237.8 517.6,237.1 520.1,233.2 522.7,233.6 525.2,234.7 527.8,235.6 530.3,231.8 532.8,239.5 535.4,232.4 537.9,229.9 540.5,231.6 543.0,236.3 545.6,230.5 548.1,235.9 550.7,234.0 553.2,235.0 555.8,232.8 558.3,232.3 560.8,233.8 563.4,239.6 565.9,230.1 568.5,237.4 571.0,227.8 573.6,234.7 576.1,238.0 578.7,238.8 581.2,233.5 583.7,234.7 586.3,235.0 588.8,232.7 591.4,234.5 593.9,242.5 596.5,232.4 599.0,231.6 601.6,233.9 604.1,233.4 606.7,230.6 609.2,231.9 611.7,233.2 614.3,240.0 616.8,228.7 619.4,233.4 621.9,229.3 624.5,230.7 627.0,231.3 629.6,227.1 632.1,236.9 634.6,226.0 637.2,227.0 639.7,232.0 642.3,229.5 644.8,227.9 647.4,226.9 649.9,231.1 652.5,229.3 655.0,235.4 657.6,227.0 660.1,226.0 662.6,229.8 665.2,227.2 667.7,228.5 670.3,233.1 672.8,225.7 675.4,227.2 677.9,230.0 680.5,229.9 683.0,228.3 685.6,228.9 688.1,229.6 690.6,230.7 693.2,224.6 695.7,227.4 698.3,228.8 700.8,222.8 703.4,223.1 705.9,228.0 708.5,224.5 711.0,227.2 713.5,226.3 716.1,231.6 718.6,225.5 721.2,228.3 723.7,222.9 726.3,229.1 728.8,224.3 731.4,224.9 733.9,228.7 736.5,228.1 739.0,222.6 741.5,229.7 744.1,227.9 746.6,223.2 749.2,223.6 751.7,230.2 754.3,222.0 756.8,229.0 759.4,232.7 761.9,226.1 764.4,228.9 767.0,220.2 769.5,226.7 772.1,232.4 774.6,218.8 777.2,227.7 779.7,224.9 782.3,228.1 784.8,231.0 787.4,224.8 789.9,229.5 792.4,227.4 795.0,214.1 797.5,219.4 800.1,224.9 802.6,222.0 805.2,223.3 807.7,223.2 810.3,222.4 812.8,228.0 815.4,226.8 817.9,222.2 820.4,233.0 823.0,222.2 825.5,224.9 828.1,226.0 830.6,221.2 833.2,224.5 835.7,222.3 838.3,228.8 840.8,219.7 843.3,221.1 845.9,227.6 848.4,227.5 851.0,220.5 853.5,222.0 856.1,224.1 858.6,221.0 861.2,220.1 863.7,224.9 866.3,222.7 868.8,221.3 871.3,222.7 873.9,224.4 876.4,226.5 879.0,219.4 881.5,221.8 884.1,220.7 886.6,218.5 889.2,224.3 891.7,217.5 894.2,224.9 896.8,217.2 899.3,218.9 901.9,220.7 904.4,222.7 907.0,221.4 909.5,220.5 912.1,221.6 914.6,221.1 917.2,224.5 919.7,217.5 922.2,216.2 924.8,219.4 927.3,217.5 929.9,213.1 932.4,225.0 935.0,217.8 937.5,219.8 940.1,215.3 942.6,217.6 945.2,214.0 947.7,222.3 950.2,219.1 952.8,218.0 955.3,223.4 957.9,220.4 960.4,218.1 963.0,216.5 965.5,214.9 968.1,215.9 970.6,213.1 973.1,223.0 975.7,215.8 978.2,222.2 980.8,217.8 983.3,218.9 985.9,222.8 988.4,215.6 991.0,215.4 993.5,224.2 996.1,216.0 998.6,218.2 1001.1,218.9 1003.7,218.1 1006.2,213.5 1008.8,219.7 1011.3,227.1 1013.9,214.7 1016.4,219.7 1019.0,215.5 1021.5,211.2 1024.0,212.0 1026.6,212.7 1029.1,219.4 1031.7,218.5 1034.2,215.0 1036.8,217.4 1039.3,217.3 1041.9,217.9 1044.4,219.3 1047.0,217.7 1049.5,218.0 1052.0,213.4 1054.6,212.8 1057.1,219.7 1059.7,208.9 1062.2,213.2 1064.8,213.9 1067.3,221.8 1069.9,217.8 1072.4,215.8 1074.9,212.4 1077.5,217.6 1080.0,217.8 1082.6,209.2 1085.1,213.5 1087.7,219.0 1090.2,219.1 1092.8,214.4 1095.3,216.8 1097.9,217.9 1100.4,215.5 1102.9,216.5 1105.5,215.9 1108.0,208.3 1110.6,214.9 1113.1,214.0 1115.7,212.3 1118.2,206.0 1120.8,213.3 1123.3,218.1 1125.9,211.5 1128.4,208.3 1130.9,211.8 1133.5,217.2 1136.0,213.1 1138.6,217.6 1141.1,215.5 1143.7,217.5 1146.2,210.8 1148.8,213.6 1151.3,213.3 1153.8,213.9 1156.4,210.5 1158.9,212.7 1161.5,206.3 1164.0,209.6 1166.6,215.7 1169.1,212.8 1171.7,212.7 1174.2,211.8 1176.8,215.1 1179.3,212.5 1181.8,209.5 1184.4,213.1 1186.9,213.5 1189.5,213.8 1192.0,216.3 1194.6,207.9 1197.1,209.4 1199.7,213.1 1202.2,213.2 1204.7,211.2 1207.3,212.6 1209.8,211.2 1212.4,207.7 1214.9,208.7 1217.5,215.2 1220.0,217.1 1222.6,204.0 1225.1,212.7 1227.7,210.6 1230.2,215.2 1232.7,212.0 1235.3,211.4 1237.8,211.9 1240.4,207.3 1242.9,207.0 1245.5,206.0 1248.0,211.2 1250.6,206.0 1253.1,214.7 1255.7,207.6 1258.2,207.4 1260.7,205.4 1263.3,214.7 1265.8,208.3 1268.4,206.1 1270.9,210.2 1273.5,208.5 1276.0,211.9 1278.6,208.3 1281.1,207.6 1283.6,209.6 1286.2,213.1 1288.7,212.3 1291.3,206.1 1293.8,217.0 1296.4,207.0 1298.9,210.6 1301.5,209.1 1304.0,206.9 1306.6,206.4 1309.1,203.3 1311.6,203.0 1314.2,210.2 1316.7,201.6 1319.3,206.1 1321.8,208.8 1324.4,211.1 1326.9,209.3 1329.5,204.9 1332.0,210.3 1334.5,213.4 1337.1,210.9 1339.6,205.7 1342.2,213.0 1344.7,210.1 1347.3,214.4 1349.8,206.8 1352.4,212.7 1354.9,204.8 1357.5,203.4 1360.0,208.8"/>
<polyline fill="none" stroke="#1f77b4" stroke-width="2" stroke-dasharray="3,4" points="90.0,131.6 92.5,132.2 95.1,130.4 97.6,129.9 100.2,129.1 102.7,131.9 105.3,132.1 107.8,129.2 110.4,132.1 112.9,129.5 115.5,130.6 118.0,132.0 120.5,132.2 123.1,131.7 125.6,133.1 128.2,131.3 130.7,132.4 133.3,131.3 135.8,134.3 138.4,128.5 140.9,129.5 143.4,129.8 146.0,131.7 148.5,130.7 151.1,130.6 153.6,132.6 156.2,131.7 158.7,133.2 161.3,130.4 163.8,132.4 166.4,129.5 168.9,124.4 171.4,129.4 174.0,131.8 176.5,128.3 179.1,129.1 181.6,132.9 184.2,127.5 186.7,129.8 189.3,132.3 191.8,130.4 194.3,132.5 196.9,131.7 199.4,130.2 202.0,130.2 204.5,132.7 207.1,129.8 209.6,129.8 212.2,133.5 214.7,132.5 217.3,133.0 219.8,133.4 222.3,130.6 224.9,133.7 227.4,130.8 230.0,131.4 232.5,128.4 235.1,133.4 237.6,130.2 240.2,129.2 242.7,130.0 245.3,130.1 247.8,131.1 250.3,127.2 252.9,131.2 255.4,130.3 258.0,130.7 260.5,131.8 263.1,127.6 265.6,129.9 268.2,127.0 270.7,130.7 273.2,127.6 275.8,127.0 278.3,123.7 280.9,126.6 283.4,126.7 286.0,127.0 288.5,123.6 291.1,125.2 293.6,121.3 296.2,124.4 298.7,122.2 301.2,123.4 303.8,121.9 306.3,123.0 308.9,121.3 311.4,118.3 314.0,113.8 316.5,116.6 319.1,117.0 321.6,110.2 324.1,103.4 326.7,109.4 329.2,108.1 331.8,101.5 334.3,105.1 336.9,100.1 339.4,99.1 342.0,96.4 344.5,105.1 347.1,97.5 349.6,102.8 352.1,99.1 354.7,93.3 357.2,98.2 359.8,93.1 362.3,101.3 364.9,94.7 367.4,90.1 370.0,89.3 372.5,94.7 375.1,88.5 377.6,90.3 380.1,93.4 382.7,97.2 385.2,89.5 387.8,89.4 390.3,82.5 392.9,81.8 395.4,84.9 398.0,89.8 400.5,87.9 403.0,79.6 405.6,82.7 408.1,84.3 410.7,83.3 413.2,85.2 415.8,73.2 418.3,78.5 420.9,78.8 423.4,85.4 426.0,82.0 428.5,84.4 431.0,77.7 433.6,77.7 436.1,79.7 438.7,75.3 441.2,81.6 443.8,86.4 446.3,83.2 448.9,86.8 451.4,81.2 453.9,86.3 456.5,85.3 459.0,82.0 461.6,81.9 464.1,74.2 466.7,77.9 469.2,74.7 471.8,84.6 474.3,85.9 476.9,83.7 479.4,82.6 481.9,88.0 484.5,78.3 487.0,83.2 489.6,84.0 492.1,83.5 494.7,69.2 497.2,67.5 499.8,79.7 502.3,77.6 504.8,78.4 507.4,80.1 509.9,76.5 512.5,80.5 515.0,81.7 517.6,84.8 520.1,85.4 522.7,79.7 525.2,81.0 527.8,81.1 530.3,69.1 532.8,86.5 535.4,83.8 537.9,77.5 540.5,81.0 543.0,85.8 545.6,87.4 548.1,84.3 550.7,82.2 553.2,84.3 555.8,80.8 558.3,82.4 560.8,79.9 563.4,91.4 565.9,83.6 568.5,90.3 571.0,76.7 573.6,82.6 576.1,89.5 578.7,86.4 581.2,89.8 583.7,86.5 586.3,90.9 588.8,88.9 591.4,91.3 593.9,93.3 596.5,89.2 599.0,91.1 601.6,89.1 604.1,82.1 606.7,84.8 609.2,84.1 611.7,86.0 614.3,92.8 616.8,85.6 619.4,88.6 621.9,84.4 624.5,84.7 627.0,90.9 629.6,85.8 632.1,90.5 634.6,73.7 637.2,76.5 639.7,79.0 642.3,78.6 644.8,77.4 647.4,72.7 649.9,85.0 652.5,74.8 655.0,81.2 657.6,80.8 660.1,83.8 662.6,81.8 665.2,79.2 667.7,74.5 670.3,85.4 672.8,80.8 675.4,82.0 677.9,80.9 680.5,83.0 683.0,78.6 685.6,79.6 688.1,88.1 690.6,83.6 693.2,82.3 695.7,87.7 698.3,85.7 700.8,82.5 703.4,75.7 705.9,81.6 708.5,79.3 711.0,73.8 713.5,83.3 716.1,82.8 718.6,82.4 721.2,77.4 723.7,80.3 726.3,85.0 728.8,82.4 731.4,74.9 733.9,90.6 736.5,87.0 739.0,81.6 741.5,83.1 744.1,84.8 746.6,78.9 749.2,83.8 751.7,83.2 754.3,82.1 756.8,90.5 759.4,90.3 761.9,85.2 764.4,86.5 767.0,74.9 769.5,86.7 772.1,90.8 774.6,85.4 777.2,86.3 779.7,82.7 782.3,85.1 784.8,87.2 787.4,79.7 789.9,88.1 792.4,89.2 795.0,69.7 797.5,78.1 800.1,83.4 802.6,87.0 805.2,86.1 807.7,82.4 810.3,82.7 812.8,86.0 815.4,85.6 817.9,86.5 820.4,95.1 823.0,82.7 825.5,86.6 828.1,86.7 830.6,86.1 833.2,86.0 835.7,84.4 838.3,89.8 840.8,75.9 843.3,84.0 845.9,90.2 848.4,94.3 851.0,86.6 853.5,83.7 856.1,81.4 858.6,81.6 861.2,85.9 863.7,88.2 866.3,85.4 868.8,83.4 871.3,85.8 873.9,87.9 876.4,88.2 879.0,91.1 881.5,86.5 884.1,89.4 886.6,87.3 889.2,92.7 891.7,86.4 894.2,91.2 896.8,84.1 899.3,81.4 901.9,80.9 904.4,91.4 907.0,87.5 909.5,87.1 912.1,83.7 914.6,79.5 917.2,84.4 919.7,83.7 922.2,84.0 924.8,90.9 927.3,87.2 929.9,78.7 932.4,95.6 935.0,82.3 937.5,87.8 940.1,86.3 942.6,91.0 945.2,83.6 947.7,93.7 950.2,89.7 952.8,89.3 955.3,94.6 957.9,88.0 960.4,97.4 963.0,83.0 965.5,84.4 968.1,89.0 970.6,76.7 973.1,90.1 975.7,84.0 978.2,85.9 980.8,87.9 983.3,90.4 985.9,95.5 988.4,89.5 991.0,81.9 993.5,91.4 996.1,81.5 998.6,87.2 1001.1,85.9 1003.7,89.8 1006.2,92.4 1008.8,92.3 1011.3,99.8 1013.9,91.2 1016.4,86.7 1019.0,89.8 1021.5,83.3 1024.0,87.2 1026.6,83.8 1029.1,88.9 1031.7,91.1 1034.2,87.8 1036.8,90.2 1039.3,91.6 1041.9,92.6 1044.4,90.5 1047.0,95.7 1049.5,96.9 1052.0,88.4 1054.6,86.9 1057.1,97.2 1059.7,87.2 1062.2,81.3 1064.8,86.0 1067.3,94.4 1069.9,93.9 1072.4,88.8 1074.9,92.1 1077.5,91.3 1080.0,91.8 1082.6,81.0 1085.1,90.2 1087.7,95.7 1090.2,95.3 1092.8,87.2 1095.3,90.6 1097.9,93.8 1100.4,90.8 1102.9,93.3 1105.5,95.4 1108.0,87.3 1110.6,96.5 1113.1,92.9 1115.7,90.9 1118.2,74.5 1120.8,90.1 1123.3,87.3 1125.9,89.0 1128.4,78.8 1130.9,89.3 1133.5,90.4 1136.0,90.0 1138.6,79.4 1141.1,91.7 1143.7,98.7 1146.2,80.1 1148.8,87.6 1151.3,89.8 1153.8,96.3 1156.4,89.1 1158.9,93.3 1161.5,85.1 1164.0,85.4 1166.6,93.3 1169.1,93.7 1171.7,93.4 1174.2,94.4 1176.8,96.0 1179.3,88.4 1181.8,87.5 1184.4,92.4 1186.9,89.4 1189.5,97.2 1192.0,96.8 1194.6,88.0 1197.1,87.6 1199.7,94.4 1202.2,94.4 1204.7,97.2 1207.3,84.0 1209.8,87.2 1212.4,83.3 1214.9,87.9 1217.5,92.7 1220.0,95.1 1222.6,83.5 1225.1,89.0 1227.7,89.8 1230.2,94.5 1232.7,86.7 1235.3,97.4 1237.8,92.6 1240.4,95.3 1242.9,90.4 1245.5,88.4 1248.0,83.7 1250.6,85.9 1253.1,93.4 1255.7,90.2 1258.2,96.2 1260.7,94.9 1263.3,102.7 1265.8,94.0 1268.4,90.0 1270.9,92.1 1273.5,89.4 1276.0,98.1 1278.6,88.7 1281.1,96.7 1283.6,93.4 1286.2,91.9 1288.7,95.0 1291.3,83.7 1293.8,94.5 1296.4,86.1 1298.9,92.9 1301.5,95.8 1304.0,90.7 1306.6,95.4 1309.1,88.2 1311.6,82.5 1314.2,92.0 1316.7,85.3 1319.3,92.4 1321.8,91.6 1324.4,97.2 1326.9,94.4 1329.5,90.1 1332.0,86.4 1334.5,94.6 1337.1,99.8 1339.6,85.3 1342.2,93.7 1344.7,88.0 1347.3,92.2 1349.8,86.6 1352.4,94.4 1354.9,89.3 1357.5,92.6 1360.0,95.1"/>
<polyline fill="none" stroke="#1f77b4" stroke-width="2" points="90.0,307.5 92.5,307.8 95.1,308.0 97.6,308.3 100.2,308.6 102.7,309.0 105.3,309.3 107.8,309.6 110.4,310.0 112.9,310.4 115.5,310.7 118.0,311.1 120.5,311.4 123.1,311.6 125.6,312.1 128.2,312.2 130.7,312.6 133.3,312.9 135.8,313.3 138.4,313.4 140.9,313.8 143.4,314.1 146.0,314.5 148.5,314.9 151.1,315.1 153.6,315.4 156.2,315.6 158.7,316.0 161.3,316.1 163.8,316.5 166.4,316.6 168.9,317.0 171.4,317.3 174.0,317.7 176.5,318.0 179.1,318.4 181.6,318.7 184.2,319.1 186.7,319.4 189.3,319.7 191.8,319.9 194.3,320.2 196.9,320.4 199.4,320.5 202.0,320.7 204.5,321.2 207.1,321.5 209.6,322.0 212.2,322.3 214.7,322.5 217.3,322.7 219.8,323.0 222.3,323.5 224.9,323.4 227.4,323.7 230.0,324.1 232.5,324.3 235.1,324.1 237.6,324.1 240.2,324.5 242.7,324.8 245.3,324.9 247.8,324.8 250.3,325.5 252.9,325.4 255.4,325.9 258.0,326.0 260.5,326.5 263.1,326.3 265.6,326.6 268.2,326.8 270.7,326.9 273.2,326.8 275.8,327.3 278.3,327.3 280.9,327.9 283.4,328.2 286.0,328.4 288.5,328.4 291.1,328.6 293.6,329.1 296.2,329.8 298.7,329.6 301.2,329.9 303.8,330.3 306.3,330.1 308.9,330.7 311.4,330.9 314.0,330.9 316.5,330.8 319.1,331.4 321.6,331.7 324.1,332.3 326.7,332.4 329.2,332.7 331.8,333.2 334.3,333.6 336.9,334.0 339.4,334.3 342.0,334.6 344.5,334.9 347.1,335.5 349.6,335.6 352.1,335.9 354.7,336.6 357.2,336.8 359.8,336.9 362.3,337.7 364.9,337.6 367.4,338.1 370.0,337.7 372.5,338.5 375.1,339.9 377.6,340.1 380.1,339.6 382.7,339.6 385.2,341.2 387.8,342.1 390.3,343.4 392.9,343.7 395.4,343.7 398.0,343.6 400.5,344.8 403.0,345.1 405.6,345.2 408.1,345.2 410.7,346.1 413.2,347.2 415.8,348.3 418.3,347.8 420.9,347.6 423.4,347.7 426.0,348.7 428.5,349.6 431.0,350.8 433.6,350.2 436.1,351.0 438.7,352.9 441.2,351.7 443.8,350.3 446.3,351.5 448.9,352.7 451.4,353.4 453.9,352.8 456.5,352.9 459.0,354.6 461.6,354.6 464.1,356.6 466.7,356.7 469.2,357.7 471.8,355.8 474.3,356.4 476.9,358.8 479.4,359.5 481.9,358.5 484.5,360.6 487.0,361.1 489.6,360.6 492.1,362.4 494.7,362.3 497.2,363.2 499.8,364.1 502.3,362.9 504.8,364.4 507.4,363.5 509.9,366.3 512.5,365.5 515.0,365.2 517.6,367.2 520.1,368.2 522.7,366.7 525.2,368.4 527.8,368.0 530.3,371.1 532.8,371.8 535.4,371.1 537.9,371.9 540.5,373.4 543.0,372.9 545.6,373.5 548.1,374.5 550.7,374.6 553.2,375.6 555.8,374.1 558.3,375.8 560.8,376.4 563.4,377.4 565.9,378.7 568.5,378.3 571.0,378.3 573.6,378.3 576.1,378.4 578.7,378.8 581.2,379.1 583.7,381.1 586.3,381.2 588.8,381.6 591.4,381.3 593.9,382.0 596.5,382.9 599.0,382.3 601.6,383.3 604.1,384.4 606.7,383.8 609.2,384.3 611.7,386.2 614.3,385.6 616.8,386.3 619.4,387.8 621.9,386.8 624.5,388.3 627.0,388.2 629.6,390.2 632.1,389.7 634.6,388.9 637.2,390.6 639.7,390.6 642.3,391.1 644.8,391.6 647.4,392.7 649.9,393.0 652.5,392.9 655.0,393.5 657.6,394.1 660.1,392.7 662.6,394.8 665.2,394.6 667.7,393.8 670.3,394.9 672.8,395.5 675.4,396.4 677.9,396.4 680.5,397.0 683.0,397.6 685.6,397.2 688.1,397.9 690.6,397.9 693.2,399.1 695.7,398.3 698.3,398.9 700.8,398.8 703.4,398.7 705.9,399.8 708.5,400.0 711.0,399.5 713.5,401.3 716.1,402.0 718.6,402.6 721.2,401.0 723.7,402.4 726.3,403.0 728.8,403.0 731.4,403.0 733.9,403.2 736.5,404.2 739.0,403.3 741.5,404.9 744.1,404.6 746.6,405.0 749.2,404.9 751.7,404.9 754.3,405.6 756.8,406.1 759.4,405.7 761.9,405.9 764.4,404.9 767.0,407.3 769.5,407.1 772.1,406.7 774.6,407.0 777.2,406.7 779.7,408.3 782.3,407.3 784.8,407.1 787.4,407.3 789.9,408.5 792.4,408.4 795.0,409.7 797.5,409.4 800.1,410.5 802.6,410.9 805.2,409.1 807.7,411.2 810.3,411.6 812.8,411.2 815.4,412.0 817.9,412.5 820.4,412.2 823.0,412.7 825.5,413.4 828.1,412.9 830.6,412.8 833.2,413.7 835.7,414.0 838.3,411.9 840.8,414.8 843.3,414.8 845.9,414.5 848.4,414.2 851.0,415.6 853.5,415.4 856.1,416.6 858.6,416.6 861.2,417.3 863.7,416.7 866.3,416.6 868.8,417.1 871.3,417.3 873.9,417.7 876.4,417.2 879.0,418.8 881.5,418.6 884.1,419.0 886.6,419.7 889.2,419.3 891.7,420.0 894.2,419.4 896.8,420.6 899.3,420.1 901.9,420.6 904.4,420.9 907.0,420.7 909.5,421.1 912.1,422.0 914.6,421.2 917.2,421.4 919.7,421.9 922.2,422.6 924.8,422.4 927.3,423.1 929.9,422.7 932.4,423.2 935.0,422.6 937.5,424.0 940.1,423.9 942.6,423.7 945.2,423.6 947.7,424.0 950.2,423.7 952.8,424.1 955.3,424.7 957.9,424.2 960.4,424.0 963.0,425.1 965.5,425.3 968.1,424.8 970.6,425.0 973.1,425.1 975.7,426.1 978.2,426.1 980.8,426.6 983.3,426.2 985.9,426.0 988.4,426.6 991.0,427.1 993.5,426.6 996.1,427.6 998.6,427.6 1001.1,428.2 1003.7,427.8 1006.2,428.0 1008.8,427.5 1011.3,427.7 1013.9,428.5 1016.4,428.7 1019.0,428.9 1021.5,428.6 1024.0,429.3 1026.6,429.9 1029.1,429.4 1031.7,429.4 1034.2,429.4 1036.8,430.4 1039.3,430.7 1041.9,430.8 1044.4,430.3 1047.0,430.5 1049.5,431.2 1052.0,431.7 1054.6,431.3 1057.1,431.5 1059.7,431.4 1062.2,430.9 1064.8,431.5 1067.3,431.7 1069.9,431.7 1072.4,432.4 1074.9,432.3 1077.5,432.6 1080.0,432.0 1082.6,433.0 1085.1,432.9 1087.7,432.6 1090.2,432.9 1092.8,432.7 1095.3,433.0 1097.9,433.3 1100.4,433.2 1102.9,433.4 1105.5,433.0 1108.0,433.7 1110.6,433.7 1113.1,434.0 1115.7,434.1 1118.2,434.1 1120.8,434.2 1123.3,434.1 1125.9,433.9 1128.4,434.6 1130.9,434.3 1133.5,434.5 1136.0,434.8 1138.6,434.5 1141.1,434.7 1143.7,434.4 1146.2,434.6 1148.8,435.3 1151.3,435.0 1153.8,435.2 1156.4,435.5 1158.9,436.0 1161.5,435.7 1164.0,436.0 1166.6,435.7 1169.1,436.2 1171.7,436.2 1174.2,436.0 1176.8,436.2 1179.3,436.5 1181.8,436.4 1184.4,436.4 1186.9,437.2 1189.5,436.8 1192.0,436.6 1194.6,436.8 1197.1,437.0 1199.7,436.9 1202.2,437.8 1204.7,438.0 1207.3,436.9 1209.8,437.7 1212.4,438.1 1214.9,438.7 1217.5,438.2 1220.0,437.9 1222.6,438.3 1225.1,437.9 1227.7,438.3 1230.2,438.2 1232.7,437.9 1235.3,439.1 1237.8,439.1 1240.4,438.9 1242.9,438.9 1245.5,439.0 1248.0,439.0 1250.6,438.7 1253.1,439.3 1255.7,439.6 1258.2,439.3 1260.7,439.4 1263.3,439.4 1265.8,439.6 1268.4,439.5 1270.9,439.7 1273.5,439.8 1276.0,439.7 1278.6,439.7 1281.1,439.9 1283.6,439.6 1286.2,439.7 1288.7,440.0 1291.3,440.2 1293.8,440.6 1296.4,440.5 1298.9,440.6 1301.5,440.5 1304.0,440.7 1306.6,440.9 1309.1,441.0 1311.6,441.0 1314.2,440.9 1316.7,440.9 1319.3,440.8 1321.8,441.0 1324.4,441.0 1326.9,441.2 1329.5,441.5 1332.0,441.4 1334.5,441.5 1337.1,441.5 1339.6,441.7 1342.2,441.9 1344.7,442.0 1347.3,441.9 1349.8,441.9 1352.4,441.8 1354.9,441.8 1357.5,442.6 1360.0,442.0"/>
<polyline fill="none" stroke="#1f77b4" stroke-width="2" stroke-dasharray="8,4" points="90.0,482.5 92.5,482.4 95.1,482.4 97.6,482.3 100.2,482.3 102.7,482.3 105.3,482.3 107.8,482.3 110.4,482.3 112.9,482.3 115.5,482.3 118.0,482.3 120.5,482.3 123.1,482.3 125.6,482.3 128.2,482.3 130.7,482.3 133.3,482.3 135.8,482.2 138.4,482.3 140.9,482.2 143.4,482.3 146.0,482.2 148.5,482.3 151.1,482.3 153.6,482.2 156.2,482.3 158.7,482.2 161.3,482.2 163.8,482.3 166.4,482.3 168.9,482.3 171.4,482.2 174.0,482.2 176.5,482.2 179.1,482.2 181.6,482.2 184.2,482.3 186.7,482.2 189.3,482.2 191.8,482.2 194.3,482.2 196.9,482.3 199.4,482.3 202.0,482.2 204.5,482.2 207.1,482.2 209.6,482.2 212.2,482.2 214.7,482.2 217.3,482.2 219.8,482.3 222.3,482.2 224.9,482.2 227.4,482.2 230.0,482.2 232.5,482.3 235.1,482.2 237.6,482.1 240.2,482.2 242.7,482.2 245.3,482.2 247.8,482.2 250.3,482.2 252.9,482.2 255.4,481.9 258.0,482.2 260.5,482.2 263.1,482.2 265.6,482.2 268.2,482.2 270.7,482.2 273.2,482.2 275.8,482.2 278.3,482.2 280.9,482.2 283.4,482.1 286.0,482.2 288.5,482.2 291.1,482.2 293.6,482.2 296.2,482.2 298.7,482.2 301.2,482.2 303.8,482.2 306.3,482.2 308.9,482.1 311.4,482.1 314.0,482.1 316.5,482.1 319.1,482.1 321.6,482.1 324.1,482.1 326.7,482.1 329.2,482.1 331.8,482.1 334.3,482.1 336.9,482.1 339.4,482.1 342.0,482.1 344.5,482.1 347.1,482.1 349.6,482.1 352.1,482.2 354.7,482.1 357.2,482.1 359.8,482.1 362.3,482.1 364.9,482.1 367.4,482.1 370.0,482.1 372.5,482.1 375.1,482.1 377.6,482.1 380.1,482.1 382.7,482.1 385.2,482.1 387.8,482.1 390.3,482.1 392.9,482.0 395.4,482.2 398.0,482.1 400.5,482.1 403.0,482.1 405.6,482.1 408.1,482.1 410.7,482.1 413.2,482.1 415.8,482.1 418.3,482.1 420.9,482.1 423.4,482.1 426.0,482.1 428.5,482.1 431.0,482.1 433.6,482.1 436.1,482.1 438.7,482.1 441.2,482.1 443.8,482.1 446.3,482.1 448.9,482.1 451.4,482.1 453.9,482.1 456.5,482.1 459.0,482.1 461.6,482.1 464.1,482.1 466.7,482.1 469.2,482.1 471.8,482.1 474.3,482.1 476.9,482.1 479.4,482.1 481.9,482.1 484.5,482.1 487.0,482.1 489.6,482.1 492.1,482.1 494.7,482.0 497.2,482.1 499.8,482.2 502.3,482.1 504.8,482.1 507.4,482.2 509.9,482.1 512.5,482.2 515.0,482.2 517.6,482.1 520.1,482.1 522.7,482.1 525.2,482.1 527.8,482.1 530.3,482.1 532.8,482.1 535.4,482.1 537.9,482.1 540.5,482.1 543.0,482.1 545.6,482.1 548.1,482.2 550.7,482.1 553.2,482.1 555.8,482.1 558.3,482.1 560.8,482.1 563.4,482.1 565.9,482.1 568.5,482.1 571.0,482.2 573.6,482.1 576.1,482.1 578.7,482.1 581.2,482.1 583.7,482.1 586.3,482.1 588.8,482.1 591.4,482.1 593.9,482.1 596.5,482.1 599.0,482.1 601.6,482.1 604.1,482.2 606.7,482.1 609.2,482.1 611.7,482.1 614.3,482.1 616.8,482.1 619.4,482.1 621.9,482.1 624.5,482.1 627.0,482.1 629.6,482.1 632.1,482.1 634.6,482.1 637.2,482.1 639.7,482.1 642.3,482.1 644.8,482.1 647.4,482.1 649.9,482.1 652.5,482.1 655.0,482.1 657.6,482.1 660.1,482.1 662.6,482.2 665.2,482.2 667.7,482.2 670.3,482.2 672.8,482.2 675.4,482.2 677.9,482.2 680.5,482.2 683.0,482.2 685.6,482.2 688.1,482.2 690.6,482.2 693.2,482.2 695.7,482.2 698.3,482.2 700.8,482.2 703.4,482.2 705.9,482.2 708.5,482.2 711.0,482.2 713.5,482.1 716.1,482.2 718.6,482.2 721.2,482.2 723.7,482.2 726.3,482.2 728.8,482.2 731.4,482.2 733.9,482.2 736.5,482.2 739.0,482.2 741.5,482.2 744.1,482.2 746.6,482.1 749.2,482.2 751.7,482.2 754.3,482.2 756.8,482.2 759.4,482.2 761.9,482.2 764.4,482.2 767.0,482.2 769.5,482.2 772.1,482.2 774.6,482.2 777.2,482.2 779.7,482.2 782.3,482.2 784.8,482.2 787.4,482.2 789.9,482.2 792.4,482.2 795.0,482.2 797.5,482.2 800.1,482.2 802.6,482.2 805.2,482.2 807.7,482.2 810.3,482.2 812.8,482.2 815.4,482.2 817.9,482.2 820.4,482.2 823.0,482.2 825.5,482.2 828.1,482.2 830.6,482.2 833.2,482.2 835.7,482.2 838.3,482.2 840.8,482.2 843.3,482.2 845.9,482.1 848.4,482.2 851.0,482.1 853.5,482.2 856.1,482.2 858.6,482.2 861.2,482.2 863.7,482.2 866.3,482.2 868.8,482.1 871.3,482.2 873.9,482.2 876.4,482.2 879.0,482.1 881.5,482.2 884.1,482.1 886.6,482.1 889.2,482.2 891.7,482.2 894.2,482.2 896.8,482.2 899.3,482.2 901.9,482.2 904.4,482.2 907.0,482.2 909.5,482.2 912.1,482.2 914.6,482.2 917.2,482.2 919.7,482.2 922.2,482.2 924.8,482.2 927.3,482.1 929.9,482.1 932.4,482.2 935.0,482.2 937.5,482.2 940.1,482.2 942.6,482.2 945.2,482.2 947.7,482.2 950.2,482.2 952.8,482.2 955.3,482.1 957.9,482.2 960.4,482.1 963.0,482.2 965.5,482.2 968.1,482.2 970.6,482.2 973.1,482.1 975.7,482.2 978.2,482.1 980.8,482.2 983.3,482.1 985.9,482.1 988.4,482.2 991.0,482.2 993.5,482.2 996.1,482.2 998.6,482.2 1001.1,482.1 1003.7,482.1 1006.2,482.1 1008.8,482.1 1011.3,482.1 1013.9,482.2 1016.4,482.2 1019.0,482.2 1021.5,482.2 1024.0,482.2 1026.6,482.2 1029.1,482.1 1031.7,482.1 1034.2,482.2 1036.8,482.2 1039.3,482.2 1041.9,482.1 1044.4,482.2 1047.0,482.2 1049.5,482.1 1052.0,482.2 1054.6,482.2 1057.1,482.2 1059.7,482.2 1062.2,482.2 1064.8,482.2 1067.3,482.2 1069.9,482.2 1072.4,482.2 1074.9,482.2 1077.5,482.1 1080.0,482.1 1082.6,482.2 1085.1,482.2 1087.7,482.2 1090.2,482.1 1092.8,482.1 1095.3,482.2 1097.9,482.2 1100.4,482.2 1102.9,482.1 1105.5,482.1 1108.0,482.1 1110.6,482.1 1113.1,482.2 1115.7,482.2 1118.2,482.2 1120.8,482.2 1123.3,482.2 1125.9,482.1 1128.4,482.2 1130.9,482.2 1133.5,482.2 1136.0,482.2 1138.6,482.2 1141.1,482.2 1143.7,482.1 1146.2,482.2 1148.8,482.1 1151.3,482.2 1153.8,482.1 1156.4,482.2 1158.9,482.2 1161.5,482.1 1164.0,482.2 1166.6,482.1 1169.1,482.1 1171.7,482.2 1174.2,482.1 1176.8,482.2 1179.3,482.2 1181.8,482.1 1184.4,482.2 1186.9,482.2 1189.5,482.1 1192.0,482.2 1194.6,482.2 1197.1,482.2 1199.7,482.1 1202.2,482.2 1204.7,482.1 1207.3,482.2 1209.8,482.2 1212.4,482.2 1214.9,482.2 1217.5,482.2 1220.0,482.2 1222.6,482.2 1225.1,482.2 1227.7,482.2 1230.2,482.1 1232.7,482.2 1235.3,482.1 1237.8,482.2 1240.4,482.1 1242.9,482.2 1245.5,482.1 1248.0,482.2 1250.6,482.2 1253.1,482.2 1255.7,482.2 1258.2,482.2 1260.7,482.2 1263.3,482.2 1265.8,482.1 1268.4,482.2 1270.9,482.1 1273.5,482.2 1276.0,482.1 1278.6,482.2 1281.1,482.1 1283.6,482.1 1286.2,482.2 1288.7,482.1 1291.3,482.2 1293.8,482.2 1296.4,482.2 1298.9,482.2 1301.5,482.1 1304.0,482.1 1306.6,482.1 1309.1,482.2 1311.6,482.2 1314.2,482.2 1316.7,482.2 1319.3,482.1 1321.8,482.2 1324.4,482.1 1326.9,482.2 1329.5,482.1 1332.0,482.2 1334.5,482.2 1337.1,482.1 1339.6,482.2 1342.2,482.1 1344.7,482.1 1347.3,482.2 1349.8,482.2 1352.4,482.2 1354.9,482.2 1357.5,482.2 1360.0,482.2"/>
<polyline fill="none" stroke="#111" stroke-width="2.5" points="90.0,708.8 92.5,701.2 95.1,709.9 97.6,722.5 100.2,715.0 102.7,707.2 105.3,701.0 107.8,690.9 110.4,694.5 112.9,698.6 115.5,694.3 118.0,696.5 120.5,699.1 123.1,699.3 125.6,703.5 128.2,693.1 130.7,680.6 133.3,686.7 135.8,685.1 138.4,696.7 140.9,705.7 143.4,693.5 146.0,685.9 148.5,700.0 151.1,698.8 153.6,693.8 156.2,700.3 158.7,688.7 161.3,682.6 163.8,689.0 166.4,692.8 168.9,692.5 171.4,696.0 174.0,690.1 176.5,686.8 179.1,697.5 181.6,692.7 184.2,697.4 186.7,700.9 189.3,693.6 191.8,699.6 194.3,697.8 196.9,696.9 199.4,698.4 202.0,703.6 204.5,693.0 207.1,687.2 209.6,690.1 212.2,693.8 214.7,690.0 217.3,677.6 219.8,679.7 222.3,687.5 224.9,681.4 227.4,678.1 230.0,690.3 232.5,700.0 235.1,688.9 237.6,679.1 240.2,684.0 242.7,686.0 245.3,675.6 247.8,673.2 250.3,688.6 252.9,692.1 255.4,693.9 258.0,683.1 260.5,685.6 263.1,701.2 265.6,692.0 268.2,685.6 270.7,671.5 273.2,671.3 275.8,674.7 278.3,684.4 280.9,682.4 283.4,671.7 286.0,667.0 288.5,650.4 291.1,656.8 293.6,675.4 296.2,672.5 298.7,669.4 301.2,671.0 303.8,660.3 306.3,650.7 308.9,644.7 311.4,648.2 314.0,633.7 316.5,635.0 319.1,629.9 321.6,617.8 324.1,621.1 326.7,612.8 329.2,612.6 331.8,604.4 334.3,597.2 336.9,608.5 339.4,613.7 342.0,607.6 344.5,597.0 347.1,601.7 349.6,601.2 352.1,596.7 354.7,593.4 357.2,591.6 359.8,598.8 362.3,583.4 364.9,576.2 367.4,581.6 370.0,583.5 372.5,580.1 375.1,574.1 377.6,576.2 380.1,581.1 382.7,574.7 385.2,575.1 387.8,570.6 390.3,565.6 392.9,570.2 395.4,577.1 398.0,569.1 400.5,563.5 403.0,571.0 405.6,567.4 408.1,567.6 410.7,565.8 413.2,562.6 415.8,567.6 418.3,567.7 420.9,566.3 423.4,563.9 426.0,567.2 428.5,562.5 431.0,562.3 433.6,562.6 436.1,562.8 438.7,560.0 441.2,561.3 443.8,561.4 446.3,563.2 448.9,560.0 451.4,559.3 453.9,557.8 456.5,557.2 459.0,559.7 461.6,560.6 464.1,561.4 466.7,558.9 469.2,561.3 471.8,558.4 474.3,557.7 476.9,555.6 479.4,557.4 481.9,557.4 484.5,559.2 487.0,555.0 489.6,556.1 492.1,556.5 494.7,561.9 497.2,560.8 499.8,555.1 502.3,557.8 504.8,555.6 507.4,558.3 509.9,556.3 512.5,555.0 515.0,556.3 517.6,552.4 520.1,552.6 522.7,557.8 525.2,555.0 527.8,554.8 530.3,557.3 532.8,551.5 535.4,554.0 537.9,555.7 540.5,553.6 543.0,553.1 545.6,553.1 548.1,552.9 550.7,553.7 553.2,553.9 555.8,554.9 558.3,553.4 560.8,556.2 563.4,549.5 565.9,553.1 568.5,550.2 571.0,554.8 573.6,553.8 576.1,551.9 578.7,552.8 581.2,551.2 583.7,551.0 586.3,550.7 588.8,552.2 591.4,551.0 593.9,550.4 596.5,552.5 599.0,551.8 601.6,551.5 604.1,553.2 606.7,552.9 609.2,552.2 611.7,551.1 614.3,550.1 616.8,551.6 619.4,551.4 621.9,552.8 624.5,552.3 627.0,549.9 629.6,551.7 632.1,550.9 634.6,555.8 637.2,554.5 639.7,552.6 642.3,552.1 644.8,552.7 647.4,554.1 649.9,551.1 652.5,554.2 655.0,551.3 657.6,552.3 660.1,551.6 662.6,551.7 665.2,552.6 667.7,554.1 670.3,550.3 672.8,552.2 675.4,551.5 677.9,551.3 680.5,551.7 683.0,552.5 685.6,551.5 688.1,549.3 690.6,551.7 693.2,551.8 695.7,550.3 698.3,550.9 700.8,551.9 703.4,552.4 705.9,552.1 708.5,551.6 711.0,554.2 713.5,549.9 716.1,550.5 718.6,552.2 721.2,553.1 723.7,551.3 726.3,550.5 728.8,551.1 731.4,552.6 733.9,549.8 736.5,550.4 739.0,551.5 741.5,551.1 744.1,550.8 746.6,552.2 749.2,550.8 751.7,551.3 754.3,551.3 756.8,549.7 759.4,550.3 761.9,550.6 764.4,550.7 767.0,552.3 769.5,549.9 772.1,549.2 774.6,551.4 777.2,550.5 779.7,550.7 782.3,550.2 784.8,550.3 787.4,551.7 789.9,549.6 792.4,550.2 795.0,554.0 797.5,552.4 800.1,550.5 802.6,550.1 805.2,551.8 807.7,551.7 810.3,550.7 812.8,550.4 815.4,550.6 817.9,550.3 820.4,548.7 823.0,551.3 825.5,550.2 828.1,550.6 830.6,550.8 833.2,550.1 835.7,550.5 838.3,550.0 840.8,552.6 843.3,550.4 845.9,549.3 848.4,548.7 851.0,550.2 853.5,550.7 856.1,550.7 858.6,550.7 861.2,549.9 863.7,549.3 866.3,550.8 868.8,551.2 871.3,550.6 873.9,549.9 876.4,551.2 879.0,549.2 881.5,550.4 884.1,549.7 886.6,550.0 889.2,548.6 891.7,551.1 894.2,549.5 896.8,550.2 899.3,550.9 901.9,551.5 904.4,549.9 907.0,550.5 909.5,550.0 912.1,550.8 914.6,551.4 917.2,549.9 919.7,550.7 922.2,550.4 924.8,549.1 927.3,549.9 929.9,550.3 932.4,548.0 935.0,551.0 937.5,549.3 940.1,550.3 942.6,549.4 945.2,549.6 947.7,548.9 950.2,549.6 952.8,550.1 955.3,548.3 957.9,550.2 960.4,548.2 963.0,551.0 965.5,550.3 968.1,550.3 970.6,552.1 973.1,549.7 975.7,550.7 978.2,549.4 980.8,550.5 983.3,550.3 985.9,548.7 988.4,549.3 991.0,551.5 993.5,549.2 996.1,550.6 998.6,550.6 1001.1,549.7 1003.7,549.4 1006.2,548.3 1008.8,549.0 1011.3,548.0 1013.9,549.4 1016.4,549.8 1019.0,549.3 1021.5,551.4 1024.0,549.9 1026.6,550.4 1029.1,549.5 1031.7,549.0 1034.2,550.0 1036.8,549.7 1039.3,548.4 1041.9,548.8 1044.4,549.3 1047.0,548.8 1049.5,548.2 1052.0,549.7 1054.6,550.3 1057.1,548.3 1059.7,550.3 1062.2,551.4 1064.8,550.2 1067.3,548.6 1069.9,548.7 1072.4,549.8 1074.9,549.1 1077.5,548.7 1080.0,549.2 1082.6,550.7 1085.1,549.2 1087.7,548.0 1090.2,548.3 1092.8,549.8 1095.3,548.8 1097.9,548.5 1100.4,549.8 1102.9,548.9 1105.5,548.4 1108.0,549.9 1110.6,547.7 1113.1,548.7 1115.7,548.9 1118.2,551.8 1120.8,549.7 1123.3,550.3 1125.9,549.2 1128.4,551.0 1130.9,549.0 1133.5,548.6 1136.0,549.2 1138.6,551.2 1141.1,548.6 1143.7,547.8 1146.2,551.8 1148.8,549.0 1151.3,549.2 1153.8,548.1 1156.4,550.2 1158.9,548.4 1161.5,550.3 1164.0,549.7 1166.6,548.7 1169.1,548.9 1171.7,548.9 1174.2,548.7 1176.8,548.1 1179.3,550.3 1181.8,549.7 1184.4,548.6 1186.9,549.4 1189.5,548.2 1192.0,548.5 1194.6,550.1 1197.1,549.3 1199.7,548.3 1202.2,548.0 1204.7,548.3 1207.3,550.5 1209.8,549.3 1212.4,550.3 1214.9,549.6 1217.5,548.1 1220.0,548.3 1222.6,550.2 1225.1,549.5 1227.7,549.3 1230.2,548.6 1232.7,550.1 1235.3,548.0 1237.8,549.7 1240.4,548.4 1242.9,548.8 1245.5,549.8 1248.0,550.5 1250.6,550.1 1253.1,548.1 1255.7,549.1 1258.2,548.6 1260.7,548.7 1263.3,547.5 1265.8,549.2 1268.4,549.2 1270.9,549.0 1273.5,550.0 1276.0,548.2 1278.6,549.6 1281.1,548.4 1283.6,548.7 1286.2,548.9 1288.7,548.4 1291.3,549.8 1293.8,548.4 1296.4,550.6 1298.9,548.6 1301.5,548.6 1304.0,549.9 1306.6,547.9 1309.1,549.8 1311.6,551.0 1314.2,549.0 1316.7,550.1 1319.3,548.7 1321.8,549.0 1324.4,548.1 1326.9,548.6 1329.5,549.2 1332.0,549.6 1334.5,548.4 1337.1,547.9 1339.6,550.1 1342.2,548.3 1344.7,549.2 1347.3,548.7 1349.8,549.8 1352.4,548.6 1354.9,549.0 1357.5,548.2 1360.0,548.6"/>
<polyline fill="none" stroke="#2ca02c" stroke-width="2.5" points="112.9,971.6 138.4,980.0 163.8,980.0 189.3,980.0 214.7,975.8 240.2,971.6 265.6,967.4 291.1,959.0 316.5,963.2 342.0,942.2 367.4,938.0 392.9,933.8 418.3,938.0 443.8,912.8 469.2,921.2 494.7,933.8 520.1,912.8 545.6,917.0 571.0,887.6 596.5,891.8 621.9,900.2 647.4,849.8 672.8,879.2 698.3,900.2 723.7,883.4 749.2,862.4 774.6,866.6 800.1,883.4 825.5,870.8 851.0,854.0 876.4,870.8 901.9,841.4 927.3,862.4 952.8,883.4 978.2,870.8 1003.7,841.4 1029.1,870.8 1054.6,866.6 1080.0,862.4 1105.5,891.8 1130.9,841.4 1156.4,854.0 1181.8,870.8 1207.3,870.8 1232.7,862.4 1258.2,845.6 1283.6,891.8 1309.1,841.4 1334.5,858.2 1360.0,845.6"/>
<circle cx="112.9" cy="971.6" r="3.5" fill="#2ca02c"/>
<circle cx="138.4" cy="980.0" r="3.5" fill="#2ca02c"/>
<circle cx="163.8" cy="980.0" r="3.5" fill="#2ca02c"/>
<circle cx="189.3" cy="980.0" r="3.5" fill="#2ca02c"/>
<circle cx="214.7" cy="975.8" r="3.5" fill="#2ca02c"/>
<circle cx="240.2" cy="971.6" r="3.5" fill="#2ca02c"/>
<circle cx="265.6" cy="967.4" r="3.5" fill="#2ca02c"/>
<circle cx="291.1" cy="959.0" r="3.5" fill="#2ca02c"/>
<circle cx="316.5" cy="963.2" r="3.5" fill="#2ca02c"/>
<circle cx="342.0" cy="942.2" r="3.5" fill="#2ca02c"/>
<circle cx="367.4" cy="938.0" r="3.5" fill="#2ca02c"/>
<circle cx="392.9" cy="933.8" r="3.5" fill="#2ca02c"/>
<circle cx="418.3" cy="938.0" r="3.5" fill="#2ca02c"/>
<circle cx="443.8" cy="912.8" r="3.5" fill="#2ca02c"/>
<circle cx="469.2" cy="921.2" r="3.5" fill="#2ca02c"/>
<circle cx="494.7" cy="933.8" r="3.5" fill="#2ca02c"/>
<circle cx="520.1" cy="912.8" r="3.5" fill="#2ca02c"/>
<circle cx="545.6" cy="917.0" r="3.5" fill="#2ca02c"/>
<circle cx="571.0" cy="887.6" r="3.5" fill="#2ca02c"/>
<circle cx="596.5" cy="891.8" r="3.5" fill="#2ca02c"/>
<circle cx="621.9" cy="900.2" r="3.5" fill="#2ca02c"/>
<circle cx="647.4" cy="849.8" r="3.5" fill="#2ca02c"/>
<circle cx="672.8" cy="879.2" r="3.5" fill="#2ca02c"/>
<circle cx="698.3" cy="900.2" r="3.5" fill="#2ca02c"/>
<circle cx="723.7" cy="883.4" r="3.5" fill="#2ca02c"/>
<circle cx="749.2" cy="862.4" r="3.5" fill="#2ca02c"/>
<circle cx="774.6" cy="866.6" r="3.5" fill="#2ca02c"/>
<circle cx="800.1" cy="883.4" r="3.5" fill="#2ca02c"/>
<circle cx="825.5" cy="870.8" r="3.5" fill="#2ca02c"/>
<circle cx="851.0" cy="854.0" r="3.5" fill="#2ca02c"/>
<circle cx="876.4" cy="870.8" r="3.5" fill="#2ca02c"/>
<circle cx="901.9" cy="841.4" r="3.5" fill="#2ca02c"/>
<circle cx="927.3" cy="862.4" r="3.5" fill="#2ca02c"/>
<circle cx="952.8" cy="883.4" r="3.5" fill="#2ca02c"/>
<circle cx="978.2" cy="870.8" r="3.5" fill="#2ca02c"/>
<circle cx="1003.7" cy="841.4" r="3.5" fill="#2ca02c"/>
<circle cx="1029.1" cy="870.8" r="3.5" fill="#2ca02c"/>
<circle cx="1054.6" cy="866.6" r="3.5" fill="#2ca02c"/>
<circle cx="1080.0" cy="862.4" r="3.5" fill="#2ca02c"/>
<circle cx="1105.5" cy="891.8" r="3.5" fill="#2ca02c"/>
<circle cx="1130.9" cy="841.4" r="3.5" fill="#2ca02c"/>
<circle cx="1156.4" cy="854.0" r="3.5" fill="#2ca02c"/>
<circle cx="1181.8" cy="870.8" r="3.5" fill="#2ca02c"/>
<circle cx="1207.3" cy="870.8" r="3.5" fill="#2ca02c"/>
<circle cx="1232.7" cy="862.4" r="3.5" fill="#2ca02c"/>
<circle cx="1258.2" cy="845.6" r="3.5" fill="#2ca02c"/>
<circle cx="1283.6" cy="891.8" r="3.5" fill="#2ca02c"/>
<circle cx="1309.1" cy="841.4" r="3.5" fill="#2ca02c"/>
<circle cx="1334.5" cy="858.2" r="3.5" fill="#2ca02c"/>
<circle cx="1360.0" cy="845.6" r="3.5" fill="#2ca02c"/>
<line x1="1135" y1="70" x2="1161" y2="70" stroke="#333" stroke-width="2"/>
<text x="1169" y="74" font-size="11" font-family="Arial, sans-serif">total_loss</text>
<line x1="1135" y1="86" x2="1161" y2="86" stroke="#333" stroke-width="2" stroke-dasharray="8,4"/>
<text x="1169" y="90" font-size="11" font-family="Arial, sans-serif">policy_loss</text>
<line x1="1135" y1="102" x2="1161" y2="102" stroke="#333" stroke-width="2" stroke-dasharray="3,4"/>
<text x="1169" y="106" font-size="11" font-family="Arial, sans-serif">vf_loss</text>
</svg>