<svg xmlns="http://www.w3.org/2000/svg" width="1400" height="1120" viewBox="0 0 1400 1120">
<rect x="0" y="0" width="1400" height="1120" fill="white" />
<text x="90" y="28" font-size="22" font-family="Arial, sans-serif" font-weight="bold">Training Loss Curve</text>
<text x="90" y="46" font-size="12" font-family="Arial, sans-serif" fill="#555">/home/hice1/wsun377/Desktop/cs8803drl/ray_results/PPO_singleplayer_fixed_teammate_20260411_151253</text>
<rect x="90" y="50" width="1270" height="210" fill="none" stroke="#bbb" stroke-width="1"/>
<text x="90" y="42" font-size="15" font-family="Arial, sans-serif" font-weight="bold">Losses</text>
<text x="18" y="155.0" font-size="12" font-family="Arial, sans-serif" transform="rotate(-90 18 155.0)">Loss</text>
<text x="18" y="62" font-size="11" font-family="Arial, sans-serif" fill="#666">0.090</text>
<text x="18" y="258" font-size="11" font-family="Arial, sans-serif" fill="#666">-0.025</text>
<line x1="90" y1="102.5" x2="1360" y2="102.5" stroke="#eee" stroke-width="1"/>
<line x1="90" y1="155.0" x2="1360" y2="155.0" stroke="#eee" stroke-width="1"/>
<line x1="90" y1="207.5" x2="1360" y2="207.5" stroke="#eee" stroke-width="1"/>
<rect x="90" y="290" width="1270" height="210" fill="none" stroke="#bbb" stroke-width="1"/>
<text x="90" y="282" font-size="15" font-family="Arial, sans-serif" font-weight="bold">Entropy / KL</text>
<text x="18" y="395.0" font-size="12" font-family="Arial, sans-serif" transform="rotate(-90 18 395.0)">Aux</text>
<text x="18" y="302" font-size="11" font-family="Arial, sans-serif" fill="#666">0.957</text>
<text x="18" y="498" font-size="11" font-family="Arial, sans-serif" fill="#666">-0.084</text>
<line x1="90" y1="342.5" x2="1360" y2="342.5" stroke="#eee" stroke-width="1"/>
<line x1="90" y1="395.0" x2="1360" y2="395.0" stroke="#eee" stroke-width="1"/>
<line x1="90" y1="447.5" x2="1360" y2="447.5" stroke="#eee" stroke-width="1"/>
<rect x="90" y="530" width="1270" height="210" fill="none" stroke="#bbb" stroke-width="1"/>
<text x="90" y="522" font-size="15" font-family="Arial, sans-serif" font-weight="bold">Episode Reward Mean</text>
<text x="18" y="635.0" font-size="12" font-family="Arial, sans-serif" transform="rotate(-90 18 635.0)">Reward</text>
<text x="18" y="542" font-size="11" font-family="Arial, sans-serif" fill="#666">1.940</text>
<text x="18" y="738" font-size="11" font-family="Arial, sans-serif" fill="#666">1.861</text>
<line x1="90" y1="582.5" x2="1360" y2="582.5" stroke="#eee" stroke-width="1"/>
<line x1="90" y1="635.0" x2="1360" y2="635.0" stroke="#eee" stroke-width="1"/>
<line x1="90" y1="687.5" x2="1360" y2="687.5" stroke="#eee" stroke-width="1"/>
<rect x="90" y="770" width="1270" height="210" fill="none" stroke="#bbb" stroke-width="1"/>
<text x="90" y="762" font-size="15" font-family="Arial, sans-serif" font-weight="bold">Baseline Win Rate (checkpoint eval)</text>
<text x="18" y="875.0" font-size="12" font-family="Arial, sans-serif" transform="rotate(-90 18 875.0)">Win Rate</text>
<text x="18" y="782" font-size="11" font-family="Arial, sans-serif" fill="#666">1.000</text>
<text x="18" y="978" font-size="11" font-family="Arial, sans-serif" fill="#666">0.000</text>
<line x1="90" y1="822.5" x2="1360" y2="822.5" stroke="#eee" stroke-width="1"/>
<line x1="90" y1="875.0" x2="1360" y2="875.0" stroke="#eee" stroke-width="1"/>
<line x1="90" y1="927.5" x2="1360" y2="927.5" stroke="#eee" stroke-width="1"/>
<line x1="90.0" y1="50" x2="90.0" y2="980" stroke="#f3f3f3" stroke-width="1"/>
<text x="90.0" y="998" text-anchor="middle" font-size="11" font-family="Arial, sans-serif" fill="#666">1</text>
<line x1="407.5" y1="50" x2="407.5" y2="980" stroke="#f3f3f3" stroke-width="1"/>
<text x="407.5" y="998" text-anchor="middle" font-size="11" font-family="Arial, sans-serif" fill="#666">32</text>
<line x1="725.0" y1="50" x2="725.0" y2="980" stroke="#f3f3f3" stroke-width="1"/>
<text x="725.0" y="998" text-anchor="middle" font-size="11" font-family="Arial, sans-serif" fill="#666">63</text>
<line x1="1042.5" y1="50" x2="1042.5" y2="980" stroke="#f3f3f3" stroke-width="1"/>
<text x="1042.5" y="998" text-anchor="middle" font-size="11" font-family="Arial, sans-serif" fill="#666">94</text>
<line x1="1360.0" y1="50" x2="1360.0" y2="980" stroke="#f3f3f3" stroke-width="1"/>
<text x="1360.0" y="998" text-anchor="middle" font-size="11" font-family="Arial, sans-serif" fill="#666">125</text>
<text x="725.0" y="1110" text-anchor="middle" font-size="12" font-family="Arial, sans-serif">Training Iteration</text>
<line x1="100" y1="68" x2="122" y2="68" stroke="#1f77b4" stroke-width="3"/>
<text x="128" y="72" font-size="11" font-family="Arial, sans-serif">default_policy</text>
<polyline fill="none" stroke="#1f77b4" stroke-width="2" points="90.0,117.5 100.2,151.2 110.5,138.8 120.7,132.4 131.0,149.7 141.2,174.9 151.5,141.8 161.7,146.8 171.9,146.5 182.2,148.1 192.4,147.0 202.7,148.4 212.9,127.6 223.1,135.0 233.4,145.3 243.6,131.4 253.9,143.2 264.1,116.1 274.4,136.0 284.6,125.2 294.8,137.9 305.1,135.6 315.3,152.1 325.6,124.5 335.8,123.7 346.0,150.5 356.3,128.4 366.5,129.1 376.8,136.4 387.0,160.0 397.3,125.1 407.5,142.9 417.7,142.9 428.0,145.6 438.2,145.1 448.5,154.3 458.7,132.1 469.0,145.0 479.2,145.7 489.4,141.8 499.7,172.6 509.9,149.8 520.2,143.1 530.4,131.9 540.6,132.3 550.9,131.2 561.1,120.9 571.4,125.6 581.6,146.6 591.9,114.7 602.1,128.3 612.3,130.7 622.6,131.6 632.8,158.8 643.1,124.0 653.3,131.2 663.5,145.6 673.8,92.4 684.0,101.4 694.3,130.1 704.5,149.0 714.8,142.0 725.0,133.0 735.2,163.3 745.5,120.8 755.7,115.4 766.0,134.1 776.2,118.1 786.5,151.4 796.7,166.1 806.9,138.7 817.2,152.3 827.4,139.5 837.7,167.9 847.9,172.0 858.1,150.0 868.4,140.3 878.6,154.7 888.9,154.8 899.1,156.6 909.4,171.8 919.6,140.9 929.8,143.0 940.1,142.7 950.3,148.5 960.6,119.2 970.8,107.7 981.0,116.8 991.3,107.5 1001.5,155.4 1011.8,132.8 1022.0,109.2 1032.3,138.0 1042.5,128.9 1052.7,150.9 1063.0,143.0 1073.2,126.8 1083.5,127.2 1093.7,142.2 1104.0,160.0 1114.2,159.6 1124.4,164.2 1134.7,151.8 1144.9,158.3 1155.2,129.0 1165.4,149.1 1175.6,136.6 1185.9,143.1 1196.1,128.8 1206.4,156.8 1216.6,138.6 1226.9,174.5 1237.1,169.6 1247.3,123.6 1257.6,122.2 1267.8,153.7 1278.1,135.7 1288.3,164.9 1298.5,121.1 1308.8,141.5 1319.0,170.6 1329.3,123.2 1339.5,133.9 1349.8,151.4 1360.0,149.2"/>
<polyline fill="none" stroke="#1f77b4" stroke-width="2" stroke-dasharray="8,4" points="90.0,239.0 100.2,236.7 110.5,237.7 120.7,238.2 131.0,237.7 141.2,240.9 151.5,239.4 161.7,241.7 171.9,239.8 182.2,241.4 192.4,238.4 202.7,239.3 212.9,238.6 223.1,240.0 233.4,239.2 243.6,237.8 253.9,237.8 264.1,239.8 274.4,238.0 284.6,240.4 294.8,241.5 305.1,240.7 315.3,239.7 325.6,237.3 335.8,238.6 346.0,240.0 356.3,238.5 366.5,239.9 376.8,239.7 387.0,240.3 397.3,238.9 407.5,242.1 417.7,239.5 428.0,239.3 438.2,238.6 448.5,238.2 458.7,240.6 469.0,237.4 479.2,239.1 489.4,236.6 499.7,241.3 509.9,241.2 520.2,240.2 530.4,238.2 540.6,240.4 550.9,240.8 561.1,242.2 571.4,242.3 581.6,239.9 591.9,238.2 602.1,239.3 612.3,238.6 622.6,242.5 632.8,242.4 643.1,239.6 653.3,239.8 663.5,241.3 673.8,239.7 684.0,239.0 694.3,239.8 704.5,239.2 714.8,240.4 725.0,237.3 735.2,239.8 745.5,237.8 755.7,241.1 766.0,237.7 776.2,239.4 786.5,240.5 796.7,240.0 806.9,238.7 817.2,238.8 827.4,238.2 837.7,238.0 847.9,240.2 858.1,239.8 868.4,241.9 878.6,237.4 888.9,238.9 899.1,240.0 909.4,241.0 919.6,238.4 929.8,237.7 940.1,240.9 950.3,238.4 960.6,240.7 970.8,238.7 981.0,239.9 991.3,241.8 1001.5,241.9 1011.8,237.5 1022.0,239.5 1032.3,239.3 1042.5,239.8 1052.7,237.4 1063.0,239.7 1073.2,240.0 1083.5,238.8 1093.7,238.9 1104.0,238.1 1114.2,236.0 1124.4,240.4 1134.7,240.8 1144.9,239.5 1155.2,238.7 1165.4,238.3 1175.6,241.1 1185.9,240.4 1196.1,239.4 1206.4,238.5 1216.6,240.8 1226.9,238.2 1237.1,238.3 1247.3,240.2 1257.6,239.0 1267.8,239.1 1278.1,241.4 1288.3,239.0 1298.5,240.7 1308.8,238.6 1319.0,237.2 1329.3,240.3 1339.5,239.7 1349.8,239.0 1360.0,237.7"/>
<polyline fill="none" stroke="#1f77b4" stroke-width="2" stroke-dasharray="3,4" points="90.0,94.2 100.2,129.7 110.5,116.1 120.7,109.2 131.0,126.9 141.2,148.8 151.5,117.3 161.7,119.9 171.9,121.4 182.2,121.6 192.4,123.4 202.7,123.9 212.9,103.9 223.1,109.7 233.4,121.0 243.6,108.4 253.9,120.2 264.1,91.1 274.4,112.9 284.6,99.6 294.8,111.2 305.1,109.7 315.3,127.1 325.6,102.0 335.8,100.0 346.0,125.3 356.3,104.7 366.5,104.0 376.8,111.6 387.0,134.6 397.3,101.0 407.5,115.6 417.7,118.2 428.0,121.1 438.2,121.3 448.5,130.9 458.7,106.2 469.0,122.4 479.2,121.4 489.4,120.1 499.7,146.1 509.9,123.5 520.2,117.7 530.4,108.5 540.6,106.7 550.9,105.2 561.1,93.5 571.4,98.1 581.6,121.5 591.9,91.4 602.1,103.9 612.3,106.9 622.6,103.9 632.8,131.2 643.1,99.2 653.3,106.2 663.5,119.1 673.8,67.5 684.0,77.3 694.3,105.1 704.5,124.6 714.8,116.4 725.0,110.5 735.2,138.2 745.5,97.8 755.7,89.1 766.0,111.3 776.2,93.4 786.5,125.7 796.7,141.0 806.9,114.8 817.2,128.3 827.4,116.1 837.7,144.7 847.9,146.6 858.1,125.0 868.4,113.2 878.6,132.1 888.9,130.7 899.1,131.4 909.4,145.6 919.6,117.3 929.8,120.1 940.1,116.6 950.3,124.9 960.6,93.3 970.8,83.8 981.0,91.8 991.3,80.5 1001.5,128.3 1011.8,110.1 1022.0,84.4 1032.3,113.4 1042.5,103.9 1052.7,128.3 1063.0,118.0 1073.2,101.7 1083.5,103.2 1093.7,118.1 1104.0,136.6 1114.2,138.3 1124.4,138.6 1134.7,125.8 1144.9,133.5 1155.2,105.1 1165.4,125.5 1175.6,110.3 1185.9,117.6 1196.1,104.2 1206.4,133.1 1216.6,112.6 1226.9,151.1 1237.1,146.1 1247.3,98.2 1257.6,98.0 1267.8,129.3 1278.1,109.1 1288.3,140.7 1298.5,95.2 1308.8,117.7 1319.0,148.2 1329.3,97.7 1339.5,109.0 1349.8,127.2 1360.0,126.3"/>
<polyline fill="none" stroke="#1f77b4" stroke-width="2" points="90.0,315.0 100.2,314.7 110.5,312.8 120.7,310.8 131.0,312.7 141.2,310.5 151.5,311.6 161.7,313.0 171.9,314.3 182.2,309.7 192.4,314.0 202.7,310.8 212.9,314.5 223.1,316.3 233.4,314.0 243.6,314.9 253.9,309.3 264.1,307.9 274.4,311.6 284.6,307.5 294.8,312.6 305.1,313.9 315.3,311.6 325.6,313.0 335.8,313.6 346.0,315.4 356.3,314.4 366.5,312.7 376.8,312.7 387.0,311.5 397.3,315.1 407.5,313.8 417.7,316.7 428.0,316.8 438.2,319.3 448.5,318.7 458.7,315.1 469.0,314.4 479.2,314.3 489.4,316.2 499.7,314.1 509.9,315.3 520.2,316.9 530.4,316.7 540.6,319.6 550.9,312.2 561.1,312.1 571.4,313.6 581.6,316.8 591.9,312.7 602.1,314.2 612.3,317.0 622.6,317.0 632.8,317.4 643.1,317.4 653.3,314.7 663.5,310.2 673.8,316.7 684.0,319.8 694.3,317.6 704.5,318.2 714.8,319.2 725.0,316.9 735.2,317.6 745.5,317.4 755.7,317.2 766.0,322.4 776.2,322.1 786.5,320.8 796.7,320.5 806.9,323.2 817.2,322.6 827.4,323.3 837.7,325.1 847.9,327.5 858.1,325.6 868.4,326.0 878.6,329.6 888.9,324.8 899.1,327.5 909.4,327.0 919.6,327.6 929.8,330.6 940.1,326.5 950.3,328.4 960.6,328.2 970.8,327.3 981.0,327.3 991.3,327.5 1001.5,333.1 1011.8,326.4 1022.0,328.6 1032.3,325.7 1042.5,329.5 1052.7,327.6 1063.0,328.3 1073.2,328.7 1083.5,332.0 1093.7,333.4 1104.0,329.2 1114.2,331.0 1124.4,332.3 1134.7,328.0 1144.9,330.5 1155.2,333.0 1165.4,329.4 1175.6,330.9 1185.9,332.3 1196.1,333.1 1206.4,332.2 1216.6,334.3 1226.9,332.3 1237.1,330.8 1247.3,328.2 1257.6,334.8 1267.8,331.9 1278.1,332.2 1288.3,333.1 1298.5,331.1 1308.8,332.4 1319.0,333.0 1329.3,332.4 1339.5,333.1 1349.8,332.3 1360.0,333.7"/>
<polyline fill="none" stroke="#1f77b4" stroke-width="2" stroke-dasharray="8,4" points="90.0,482.5 100.2,482.5 110.5,482.4 120.7,482.3 131.0,482.4 141.2,482.3 151.5,482.4 161.7,482.2 171.9,482.2 182.2,482.3 192.4,482.4 202.7,482.3 212.9,482.3 223.1,482.3 233.4,482.3 243.6,482.3 253.9,482.3 264.1,482.2 274.4,482.2 284.6,482.3 294.8,482.3 305.1,482.3 315.3,482.3 325.6,482.3 335.8,482.3 346.0,482.2 356.3,482.3 366.5,482.2 376.8,482.2 387.0,482.4 397.3,482.3 407.5,482.3 417.7,482.3 428.0,482.2 438.2,482.2 448.5,482.3 458.7,482.2 469.0,482.3 479.2,482.2 489.4,482.4 499.7,482.3 509.9,482.4 520.2,482.3 530.4,482.3 540.6,482.3 550.9,482.3 561.1,482.3 571.4,482.3 581.6,482.2 591.9,482.2 602.1,482.2 612.3,482.3 622.6,482.4 632.8,482.2 643.1,482.2 653.3,482.4 663.5,482.3 673.8,482.2 684.0,482.2 694.3,482.2 704.5,482.2 714.8,482.3 725.0,482.3 735.2,482.3 745.5,482.3 755.7,482.2 766.0,482.4 776.2,482.2 786.5,482.4 796.7,482.3 806.9,482.2 817.2,482.3 827.4,482.3 837.7,482.3 847.9,482.3 858.1,482.3 868.4,482.2 878.6,482.2 888.9,482.3 899.1,482.3 909.4,482.3 919.6,482.4 929.8,482.4 940.1,482.3 950.3,482.3 960.6,482.2 970.8,482.3 981.0,482.3 991.3,482.3 1001.5,482.2 1011.8,482.1 1022.0,482.3 1032.3,482.3 1042.5,482.3 1052.7,482.4 1063.0,482.3 1073.2,482.3 1083.5,482.4 1093.7,482.3 1104.0,482.4 1114.2,482.3 1124.4,482.3 1134.7,482.3 1144.9,482.4 1155.2,482.2 1165.4,482.3 1175.6,482.2 1185.9,482.4 1196.1,482.3 1206.4,482.3 1216.6,482.2 1226.9,482.2 1237.1,482.3 1247.3,482.2 1257.6,482.4 1267.8,482.3 1278.1,482.3 1288.3,482.3 1298.5,482.3 1308.8,482.4 1319.0,482.3 1329.3,482.2 1339.5,482.3 1349.8,482.3 1360.0,482.2"/>
<polyline fill="none" stroke="#111" stroke-width="2.5" points="90.0,679.4 100.2,594.4 110.5,644.7 120.7,645.2 131.0,599.2 141.2,561.5 151.5,644.6 161.7,603.5 171.9,614.1 182.2,613.1 192.4,620.9 202.7,598.0 212.9,656.0 223.1,638.3 233.4,607.6 243.6,636.3 253.9,613.9 264.1,672.8 274.4,630.7 284.6,661.8 294.8,636.9 305.1,645.7 315.3,607.2 325.6,645.5 335.8,650.5 346.0,598.1 356.3,642.8 366.5,648.3 376.8,630.8 387.0,589.5 397.3,654.5 407.5,629.0 417.7,620.6 428.0,607.1 438.2,607.2 448.5,596.2 458.7,650.5 469.0,610.0 479.2,608.8 489.4,610.1 499.7,572.2 509.9,620.5 520.2,622.6 530.4,641.6 540.6,649.6 550.9,657.7 561.1,672.2 571.4,650.3 581.6,609.5 591.9,675.5 602.1,635.1 612.3,631.7 622.6,645.1 632.8,588.5 643.1,647.4 653.3,630.4 663.5,622.9 673.8,722.5 684.0,685.6 694.3,631.1 704.5,577.9 714.8,618.9 725.0,633.7 735.2,570.1 745.5,657.8 755.7,678.9 766.0,616.9 776.2,651.0 786.5,590.5 796.7,571.4 806.9,624.6 817.2,596.5 827.4,619.9 837.7,547.5 847.9,558.0 858.1,601.5 868.4,619.9 878.6,581.6 888.9,595.7 899.1,600.6 909.4,551.0 919.6,630.1 929.8,605.4 940.1,618.5 950.3,598.7 960.6,683.2 970.8,679.5 981.0,681.9 991.3,707.0 1001.5,575.4 1011.8,632.3 1022.0,691.1 1032.3,617.6 1042.5,624.1 1052.7,596.5 1063.0,607.6 1073.2,646.4 1083.5,652.2 1093.7,604.1 1104.0,569.1 1114.2,575.5 1124.4,585.0 1134.7,620.2 1144.9,586.5 1155.2,646.5 1165.4,599.9 1175.6,649.2 1185.9,621.0 1196.1,650.1 1206.4,591.5 1216.6,637.9 1226.9,553.0 1237.1,576.3 1247.3,672.0 1257.6,656.2 1267.8,588.6 1278.1,628.2 1288.3,560.3 1298.5,646.7 1308.8,610.9 1319.0,550.1 1329.3,660.0 1339.5,619.8 1349.8,591.9 1360.0,602.0"/>
<polyline fill="none" stroke="#2ca02c" stroke-width="2.5" points="131.0,807.8 182.2,824.6 233.4,807.8 284.6,803.6 335.8,812.0 387.0,816.2 438.2,807.8 489.4,799.4 540.6,816.2 591.9,816.2 643.1,786.8 694.3,837.2 745.5,824.6 796.7,820.4 847.9,807.8 899.1,820.4 950.3,812.0 1001.5,849.8 1052.7,837.2 1104.0,795.2 1155.2,816.2 1206.4,828.8 1257.6,837.2 1308.8,795.2 1360.0,824.6"/>
<circle cx="131.0" cy="807.8" r="3.5" fill="#2ca02c"/>
<circle cx="182.2" cy="824.6" r="3.5" fill="#2ca02c"/>
<circle cx="233.4" cy="807.8" r="3.5" fill="#2ca02c"/>
<circle cx="284.6" cy="803.6" r="3.5" fill="#2ca02c"/>
<circle cx="335.8" cy="812.0" r="3.5" fill="#2ca02c"/>
<circle cx="387.0" cy="816.2" r="3.5" fill="#2ca02c"/>
<circle cx="438.2" cy="807.8" r="3.5" fill="#2ca02c"/>
<circle cx="489.4" cy="799.4" r="3.5" fill="#2ca02c"/>
<circle cx="540.6" cy="816.2" r="3.5" fill="#2ca02c"/>
<circle cx="591.9" cy="816.2" r="3.5" fill="#2ca02c"/>
<circle cx="643.1" cy="786.8" r="3.5" fill="#2ca02c"/>
<circle cx="694.3" cy="837.2" r="3.5" fill="#2ca02c"/>
<circle cx="745.5" cy="824.6" r="3.5" fill="#2ca02c"/>
<circle cx="796.7" cy="820.4" r="3.5" fill="#2ca02c"/>
<circle cx="847.9" cy="807.8" r="3.5" fill="#2ca02c"/>
<circle cx="899.1" cy="820.4" r="3.5" fill="#2ca02c"/>
<circle cx="950.3" cy="812.0" r="3.5" fill="#2ca02c"/>
<circle cx="1001.5" cy="849.8" r="3.5" fill="#2ca02c"/>
<circle cx="1052.7" cy="837.2" r="3.5" fill="#2ca02c"/>
<circle cx="1104.0" cy="795.2" r="3.5" fill="#2ca02c"/>
<circle cx="1155.2" cy="816.2" r="3.5" fill="#2ca02c"/>
<circle cx="1206.4" cy="828.8" r="3.5" fill="#2ca02c"/>
<circle cx="1257.6" cy="837.2" r="3.5" fill="#2ca02c"/>
<circle cx="1308.8" cy="795.2" r="3.5" fill="#2ca02c"/>
<circle cx="1360.0" cy="824.6" r="3.5" fill="#2ca02c"/>
<line x1="1135" y1="70" x2="1161" y2="70" stroke="#333" stroke-width="2"/>
<text x="1169" y="74" font-size="11" font-family="Arial, sans-serif">total_loss</text>
<line x1="1135" y1="86" x2="1161" y2="86" stroke="#333" stroke-width="2" stroke-dasharray="8,4"/>
<text x="1169" y="90" font-size="11" font-family="Arial, sans-serif">policy_loss</text>
<line x1="1135" y1="102" x2="1161" y2="102" stroke="#333" stroke-width="2" stroke-dasharray="3,4"/>
<text x="1169" y="106" font-size="11" font-family="Arial, sans-serif">vf_loss</text>
</svg>