<svg xmlns="http://www.w3.org/2000/svg" width="1400" height="1120" viewBox="0 0 1400 1120">
<rect x="0" y="0" width="1400" height="1120" fill="white" />
<text x="90" y="28" font-size="22" font-family="Arial, sans-serif" font-weight="bold">Training Loss Curve</text>
<text x="90" y="46" font-size="12" font-family="Arial, sans-serif" fill="#555">/home/hice1/wsun377/Desktop/cs8803drl/ray_results/PPO_attack_expert_warm225_20260409_135802</text>
<rect x="90" y="50" width="1270" height="210" fill="none" stroke="#bbb" stroke-width="1"/>
<text x="90" y="42" font-size="15" font-family="Arial, sans-serif" font-weight="bold">Losses</text>
<text x="18" y="155.0" font-size="12" font-family="Arial, sans-serif" transform="rotate(-90 18 155.0)">Loss</text>
<text x="18" y="62" font-size="11" font-family="Arial, sans-serif" fill="#666">0.025</text>
<text x="18" y="258" font-size="11" font-family="Arial, sans-serif" fill="#666">-0.009</text>
<line x1="90" y1="102.5" x2="1360" y2="102.5" stroke="#eee" stroke-width="1"/>
<line x1="90" y1="155.0" x2="1360" y2="155.0" stroke="#eee" stroke-width="1"/>
<line x1="90" y1="207.5" x2="1360" y2="207.5" stroke="#eee" stroke-width="1"/>
<rect x="90" y="290" width="1270" height="210" fill="none" stroke="#bbb" stroke-width="1"/>
<text x="90" y="282" font-size="15" font-family="Arial, sans-serif" font-weight="bold">Entropy / KL</text>
<text x="18" y="395.0" font-size="12" font-family="Arial, sans-serif" transform="rotate(-90 18 395.0)">Aux</text>
<text x="18" y="302" font-size="11" font-family="Arial, sans-serif" fill="#666">3.625</text>
<text x="18" y="498" font-size="11" font-family="Arial, sans-serif" fill="#666">-0.329</text>
<line x1="90" y1="342.5" x2="1360" y2="342.5" stroke="#eee" stroke-width="1"/>
<line x1="90" y1="395.0" x2="1360" y2="395.0" stroke="#eee" stroke-width="1"/>
<line x1="90" y1="447.5" x2="1360" y2="447.5" stroke="#eee" stroke-width="1"/>
<rect x="90" y="530" width="1270" height="210" fill="none" stroke="#bbb" stroke-width="1"/>
<text x="90" y="522" font-size="15" font-family="Arial, sans-serif" font-weight="bold">Episode Reward Mean</text>
<text x="18" y="635.0" font-size="12" font-family="Arial, sans-serif" transform="rotate(-90 18 635.0)">Reward</text>
<text x="18" y="542" font-size="11" font-family="Arial, sans-serif" fill="#666">-1.166</text>
<text x="18" y="738" font-size="11" font-family="Arial, sans-serif" fill="#666">-1.570</text>
<line x1="90" y1="582.5" x2="1360" y2="582.5" stroke="#eee" stroke-width="1"/>
<line x1="90" y1="635.0" x2="1360" y2="635.0" stroke="#eee" stroke-width="1"/>
<line x1="90" y1="687.5" x2="1360" y2="687.5" stroke="#eee" stroke-width="1"/>
<rect x="90" y="770" width="1270" height="210" fill="none" stroke="#bbb" stroke-width="1"/>
<text x="90" y="762" font-size="15" font-family="Arial, sans-serif" font-weight="bold">Baseline Win Rate (checkpoint eval)</text>
<text x="18" y="875.0" font-size="12" font-family="Arial, sans-serif" transform="rotate(-90 18 875.0)">Win Rate</text>
<text x="18" y="782" font-size="11" font-family="Arial, sans-serif" fill="#666">1.000</text>
<text x="18" y="978" font-size="11" font-family="Arial, sans-serif" fill="#666">0.000</text>
<line x1="90" y1="822.5" x2="1360" y2="822.5" stroke="#eee" stroke-width="1"/>
<line x1="90" y1="875.0" x2="1360" y2="875.0" stroke="#eee" stroke-width="1"/>
<line x1="90" y1="927.5" x2="1360" y2="927.5" stroke="#eee" stroke-width="1"/>
<line x1="90.0" y1="50" x2="90.0" y2="980" stroke="#f3f3f3" stroke-width="1"/>
<text x="90.0" y="998" text-anchor="middle" font-size="11" font-family="Arial, sans-serif" fill="#666">1</text>
<line x1="407.5" y1="50" x2="407.5" y2="980" stroke="#f3f3f3" stroke-width="1"/>
<text x="407.5" y="998" text-anchor="middle" font-size="11" font-family="Arial, sans-serif" fill="#666">16</text>
<line x1="725.0" y1="50" x2="725.0" y2="980" stroke="#f3f3f3" stroke-width="1"/>
<text x="725.0" y="998" text-anchor="middle" font-size="11" font-family="Arial, sans-serif" fill="#666">32</text>
<line x1="1042.5" y1="50" x2="1042.5" y2="980" stroke="#f3f3f3" stroke-width="1"/>
<text x="1042.5" y="998" text-anchor="middle" font-size="11" font-family="Arial, sans-serif" fill="#666">48</text>
<line x1="1360.0" y1="50" x2="1360.0" y2="980" stroke="#f3f3f3" stroke-width="1"/>
<text x="1360.0" y="998" text-anchor="middle" font-size="11" font-family="Arial, sans-serif" fill="#666">63</text>
<text x="725.0" y="1110" text-anchor="middle" font-size="12" font-family="Arial, sans-serif">Training Iteration</text>
<line x1="100" y1="68" x2="122" y2="68" stroke="#1f77b4" stroke-width="3"/>
<text x="128" y="72" font-size="11" font-family="Arial, sans-serif">default_policy</text>
<polyline fill="none" stroke="#1f77b4" stroke-width="2" points="90.0,111.5 110.5,150.6 131.0,139.7 151.5,150.0 171.9,121.1 192.4,158.8 212.9,173.7 233.4,112.6 253.9,137.4 274.4,155.0 294.8,171.9 315.3,187.4 335.8,155.0 356.3,86.3 376.8,135.5 397.3,135.0 417.7,119.0 438.2,138.3 458.7,153.7 479.2,195.7 499.7,135.8 520.2,149.7 540.6,189.7 561.1,170.7 581.6,164.0 602.1,145.4 622.6,136.0 643.1,167.8 663.5,148.4 684.0,140.4 704.5,125.5 725.0,133.3 745.5,160.7 766.0,167.0 786.5,141.0 806.9,164.8 827.4,180.9 847.9,152.2 868.4,148.1 888.9,148.2 909.4,132.1 929.8,136.7 950.3,193.1 970.8,199.3 991.3,191.6 1011.8,144.8 1032.3,179.1 1052.7,194.1 1073.2,160.3 1093.7,165.5 1114.2,138.9 1134.7,171.0 1155.2,159.3 1175.6,167.9 1196.1,162.8 1216.6,134.8 1237.1,180.5 1257.6,193.3 1278.1,198.3 1298.5,183.6 1319.0,182.0 1339.5,161.3 1360.0,187.7"/>
<polyline fill="none" stroke="#1f77b4" stroke-width="2" stroke-dasharray="8,4" points="90.0,203.3 110.5,210.6 131.0,215.2 151.5,221.1 171.9,229.8 192.4,232.1 212.9,232.5 233.4,239.1 253.9,227.8 274.4,226.7 294.8,231.9 315.3,237.2 335.8,227.6 356.3,221.5 376.8,225.6 397.3,227.6 417.7,220.0 438.2,230.7 458.7,232.1 479.2,240.8 499.7,230.9 520.2,230.3 540.6,232.7 561.1,236.1 581.6,235.1 602.1,228.9 622.6,229.8 643.1,226.4 663.5,234.2 684.0,232.2 704.5,234.3 725.0,232.4 745.5,225.7 766.0,225.7 786.5,225.5 806.9,233.5 827.4,235.4 847.9,231.7 868.4,220.5 888.9,234.3 909.4,233.8 929.8,227.9 950.3,242.5 970.8,236.0 991.3,235.1 1011.8,230.0 1032.3,231.7 1052.7,229.4 1073.2,224.4 1093.7,237.2 1114.2,229.5 1134.7,231.6 1155.2,234.5 1175.6,236.0 1196.1,222.3 1216.6,228.4 1237.1,230.0 1257.6,238.0 1278.1,232.0 1298.5,237.2 1319.0,224.3 1339.5,217.7 1360.0,235.7"/>
<polyline fill="none" stroke="#1f77b4" stroke-width="2" stroke-dasharray="3,4" points="90.0,111.0 110.5,143.1 131.0,127.7 151.5,132.1 171.9,94.3 192.4,129.6 212.9,144.2 233.4,76.4 253.9,112.4 274.4,131.1 294.8,142.9 315.3,153.0 335.8,130.2 356.3,67.5 376.8,112.7 397.3,110.1 417.7,101.7 438.2,110.4 458.7,124.3 479.2,157.6 499.7,107.5 520.2,122.1 540.6,159.6 561.1,137.3 581.6,131.5 602.1,119.2 622.6,108.9 643.1,144.1 663.5,116.9 684.0,110.8 704.5,93.9 725.0,103.6 745.5,137.7 766.0,143.9 786.5,118.2 806.9,134.0 827.4,148.1 847.9,123.2 868.4,130.3 888.9,116.5 909.4,101.0 929.8,111.5 950.3,153.3 970.8,165.9 991.3,159.2 1011.8,117.5 1032.3,150.1 1052.7,167.4 1073.2,138.6 1093.7,131.0 1114.2,112.0 1134.7,142.0 1155.2,127.4 1175.6,134.6 1196.1,143.2 1216.6,109.1 1237.1,153.1 1257.6,158.0 1278.1,169.0 1298.5,149.1 1319.0,160.4 1339.5,146.3 1360.0,154.6"/>
<polyline fill="none" stroke="#1f77b4" stroke-width="2" points="90.0,307.5 110.5,307.6 131.0,307.8 151.5,308.3 171.9,308.8 192.4,310.0 212.9,310.9 233.4,310.5 253.9,309.7 274.4,310.8 294.8,310.0 315.3,311.6 335.8,311.3 356.3,311.2 376.8,312.8 397.3,311.5 417.7,313.4 438.2,312.7 458.7,314.0 479.2,313.4 499.7,314.0 520.2,314.3 540.6,313.3 561.1,314.9 581.6,315.0 602.1,317.1 622.6,314.8 643.1,314.8 663.5,315.7 684.0,316.2 704.5,315.2 725.0,313.9 745.5,315.2 766.0,316.1 786.5,318.4 806.9,320.1 827.4,319.1 847.9,322.1 868.4,323.5 888.9,324.4 909.4,324.2 929.8,327.2 950.3,328.5 970.8,324.5 991.3,326.0 1011.8,328.7 1032.3,326.4 1052.7,327.6 1073.2,327.6 1093.7,326.5 1114.2,328.9 1134.7,327.3 1155.2,329.8 1175.6,327.4 1196.1,326.1 1216.6,331.4 1237.1,328.6 1257.6,325.3 1278.1,322.8 1298.5,324.3 1319.0,323.4 1339.5,323.0 1360.0,321.4"/>
<polyline fill="none" stroke="#1f77b4" stroke-width="2" stroke-dasharray="8,4" points="90.0,482.5 110.5,482.5 131.0,482.4 151.5,482.3 171.9,482.3 192.4,482.1 212.9,482.1 233.4,482.2 253.9,482.2 274.4,482.3 294.8,482.1 315.3,482.0 335.8,482.2 356.3,482.4 376.8,482.1 397.3,482.2 417.7,482.1 438.2,482.2 458.7,482.2 479.2,482.2 499.7,482.3 520.2,482.3 540.6,482.2 561.1,482.2 581.6,482.1 602.1,482.2 622.6,482.2 643.1,482.3 663.5,482.2 684.0,482.3 704.5,482.1 725.0,482.1 745.5,482.3 766.0,482.4 786.5,482.3 806.9,482.2 827.4,482.2 847.9,482.2 868.4,482.3 888.9,482.2 909.4,482.3 929.8,482.2 950.3,482.1 970.8,482.1 991.3,482.2 1011.8,482.2 1032.3,482.2 1052.7,482.3 1073.2,482.2 1093.7,482.1 1114.2,482.2 1134.7,482.2 1155.2,482.3 1175.6,482.1 1196.1,482.3 1216.6,482.2 1237.1,482.2 1257.6,482.1 1278.1,482.2 1298.5,482.2 1319.0,482.3 1339.5,482.3 1360.0,482.1"/>
<polyline fill="none" stroke="#111" stroke-width="2.5" points="90.0,722.5 110.5,636.1 131.0,574.5 151.5,574.0 171.9,630.2 192.4,655.5 212.9,654.8 233.4,669.4 253.9,654.0 274.4,683.3 294.8,613.0 315.3,646.7 335.8,592.5 356.3,651.0 376.8,659.5 397.3,693.1 417.7,603.5 438.2,626.0 458.7,640.4 479.2,606.4 499.7,601.1 520.2,613.1 540.6,642.7 561.1,617.9 581.6,615.4 602.1,659.6 622.6,708.5 643.1,674.2 663.5,637.0 684.0,652.9 704.5,695.9 725.0,711.2 745.5,653.0 766.0,611.8 786.5,596.7 806.9,635.2 827.4,636.7 847.9,616.5 868.4,592.1 888.9,655.1 909.4,664.3 929.8,652.1 950.3,611.1 970.8,589.8 991.3,573.6 1011.8,585.7 1032.3,587.3 1052.7,583.0 1073.2,591.7 1093.7,612.2 1114.2,639.9 1134.7,615.0 1155.2,623.8 1175.6,601.7 1196.1,618.9 1216.6,631.5 1237.1,620.1 1257.6,599.1 1278.1,571.1 1298.5,553.1 1319.0,547.5 1339.5,573.5 1360.0,579.8"/>
<polyline fill="none" stroke="#2ca02c" stroke-width="2.5" points="171.9,954.8 274.4,950.6 376.8,959.0 479.2,954.8 581.6,967.4 684.0,950.6 786.5,963.2 888.9,946.4 991.3,946.4 1093.7,938.0 1196.1,954.8 1298.5,946.4 1360.0,938.0"/>
<circle cx="171.9" cy="954.8" r="3.5" fill="#2ca02c"/>
<circle cx="274.4" cy="950.6" r="3.5" fill="#2ca02c"/>
<circle cx="376.8" cy="959.0" r="3.5" fill="#2ca02c"/>
<circle cx="479.2" cy="954.8" r="3.5" fill="#2ca02c"/>
<circle cx="581.6" cy="967.4" r="3.5" fill="#2ca02c"/>
<circle cx="684.0" cy="950.6" r="3.5" fill="#2ca02c"/>
<circle cx="786.5" cy="963.2" r="3.5" fill="#2ca02c"/>
<circle cx="888.9" cy="946.4" r="3.5" fill="#2ca02c"/>
<circle cx="991.3" cy="946.4" r="3.5" fill="#2ca02c"/>
<circle cx="1093.7" cy="938.0" r="3.5" fill="#2ca02c"/>
<circle cx="1196.1" cy="954.8" r="3.5" fill="#2ca02c"/>
<circle cx="1298.5" cy="946.4" r="3.5" fill="#2ca02c"/>
<circle cx="1360.0" cy="938.0" r="3.5" fill="#2ca02c"/>
<line x1="1135" y1="70" x2="1161" y2="70" stroke="#333" stroke-width="2"/>
<text x="1169" y="74" font-size="11" font-family="Arial, sans-serif">total_loss</text>
<line x1="1135" y1="86" x2="1161" y2="86" stroke="#333" stroke-width="2" stroke-dasharray="8,4"/>
<text x="1169" y="90" font-size="11" font-family="Arial, sans-serif">policy_loss</text>
<line x1="1135" y1="102" x2="1161" y2="102" stroke="#333" stroke-width="2" stroke-dasharray="3,4"/>
<text x="1169" y="106" font-size="11" font-family="Arial, sans-serif">vf_loss</text>
</svg>