<svg xmlns="http://www.w3.org/2000/svg" width="1400" height="1120" viewBox="0 0 1400 1120">
<rect x="0" y="0" width="1400" height="1120" fill="white" />
<text x="90" y="28" font-size="22" font-family="Arial, sans-serif" font-weight="bold">Training Loss Curve</text>
<text x="90" y="46" font-size="12" font-family="Arial, sans-serif" fill="#555">/home/hice1/wsun377/Desktop/cs8803drl/ray_results/PPO_base_team_vs_baseline_512x512_20260411_192140</text>
<rect x="90" y="50" width="1270" height="210" fill="none" stroke="#bbb" stroke-width="1"/>
<text x="90" y="42" font-size="15" font-family="Arial, sans-serif" font-weight="bold">Losses</text>
<text x="18" y="155.0" font-size="12" font-family="Arial, sans-serif" transform="rotate(-90 18 155.0)">Loss</text>
<text x="18" y="62" font-size="11" font-family="Arial, sans-serif" fill="#666">0.114</text>
<text x="18" y="258" font-size="11" font-family="Arial, sans-serif" fill="#666">-0.164</text>
<line x1="90" y1="102.5" x2="1360" y2="102.5" stroke="#eee" stroke-width="1"/>
<line x1="90" y1="155.0" x2="1360" y2="155.0" stroke="#eee" stroke-width="1"/>
<line x1="90" y1="207.5" x2="1360" y2="207.5" stroke="#eee" stroke-width="1"/>
<rect x="90" y="290" width="1270" height="210" fill="none" stroke="#bbb" stroke-width="1"/>
<text x="90" y="282" font-size="15" font-family="Arial, sans-serif" font-weight="bold">Entropy / KL</text>
<text x="18" y="395.0" font-size="12" font-family="Arial, sans-serif" transform="rotate(-90 18 395.0)">Aux</text>
<text x="18" y="302" font-size="11" font-family="Arial, sans-serif" fill="#666">7.247</text>
<text x="18" y="498" font-size="11" font-family="Arial, sans-serif" fill="#666">-0.656</text>
<line x1="90" y1="342.5" x2="1360" y2="342.5" stroke="#eee" stroke-width="1"/>
<line x1="90" y1="395.0" x2="1360" y2="395.0" stroke="#eee" stroke-width="1"/>
<line x1="90" y1="447.5" x2="1360" y2="447.5" stroke="#eee" stroke-width="1"/>
<rect x="90" y="530" width="1270" height="210" fill="none" stroke="#bbb" stroke-width="1"/>
<text x="90" y="522" font-size="15" font-family="Arial, sans-serif" font-weight="bold">Episode Reward Mean</text>
<text x="18" y="635.0" font-size="12" font-family="Arial, sans-serif" transform="rotate(-90 18 635.0)">Reward</text>
<text x="18" y="542" font-size="11" font-family="Arial, sans-serif" fill="#666">2.142</text>
<text x="18" y="738" font-size="11" font-family="Arial, sans-serif" fill="#666">-0.535</text>
<line x1="90" y1="582.5" x2="1360" y2="582.5" stroke="#eee" stroke-width="1"/>
<line x1="90" y1="635.0" x2="1360" y2="635.0" stroke="#eee" stroke-width="1"/>
<line x1="90" y1="687.5" x2="1360" y2="687.5" stroke="#eee" stroke-width="1"/>
<rect x="90" y="770" width="1270" height="210" fill="none" stroke="#bbb" stroke-width="1"/>
<text x="90" y="762" font-size="15" font-family="Arial, sans-serif" font-weight="bold">Baseline Win Rate (checkpoint eval)</text>
<text x="18" y="875.0" font-size="12" font-family="Arial, sans-serif" transform="rotate(-90 18 875.0)">Win Rate</text>
<text x="18" y="782" font-size="11" font-family="Arial, sans-serif" fill="#666">1.000</text>
<text x="18" y="978" font-size="11" font-family="Arial, sans-serif" fill="#666">0.000</text>
<line x1="90" y1="822.5" x2="1360" y2="822.5" stroke="#eee" stroke-width="1"/>
<line x1="90" y1="875.0" x2="1360" y2="875.0" stroke="#eee" stroke-width="1"/>
<line x1="90" y1="927.5" x2="1360" y2="927.5" stroke="#eee" stroke-width="1"/>
<line x1="90.0" y1="50" x2="90.0" y2="980" stroke="#f3f3f3" stroke-width="1"/>
<text x="90.0" y="998" text-anchor="middle" font-size="11" font-family="Arial, sans-serif" fill="#666">1</text>
<line x1="407.5" y1="50" x2="407.5" y2="980" stroke="#f3f3f3" stroke-width="1"/>
<text x="407.5" y="998" text-anchor="middle" font-size="11" font-family="Arial, sans-serif" fill="#666">126</text>
<line x1="725.0" y1="50" x2="725.0" y2="980" stroke="#f3f3f3" stroke-width="1"/>
<text x="725.0" y="998" text-anchor="middle" font-size="11" font-family="Arial, sans-serif" fill="#666">250</text>
<line x1="1042.5" y1="50" x2="1042.5" y2="980" stroke="#f3f3f3" stroke-width="1"/>
<text x="1042.5" y="998" text-anchor="middle" font-size="11" font-family="Arial, sans-serif" fill="#666">375</text>
<line x1="1360.0" y1="50" x2="1360.0" y2="980" stroke="#f3f3f3" stroke-width="1"/>
<text x="1360.0" y="998" text-anchor="middle" font-size="11" font-family="Arial, sans-serif" fill="#666">500</text>
<text x="725.0" y="1110" text-anchor="middle" font-size="12" font-family="Arial, sans-serif">Training Iteration</text>
<line x1="100" y1="68" x2="122" y2="68" stroke="#1f77b4" stroke-width="3"/>
<text x="128" y="72" font-size="11" font-family="Arial, sans-serif">default_policy</text>
<polyline fill="none" stroke="#1f77b4" stroke-width="2" points="90.0,150.8 92.5,160.5 95.1,164.8 97.6,178.0 100.2,163.1 102.7,162.6 105.3,176.2 107.8,172.8 110.4,180.3 112.9,163.7 115.5,183.0 118.0,164.0 120.5,166.3 123.1,164.1 125.6,159.8 128.2,167.6 130.7,172.1 133.3,165.8 135.8,163.6 138.4,163.8 140.9,167.8 143.4,165.2 146.0,166.2 148.5,159.7 151.1,177.2 153.6,168.0 156.2,162.7 158.7,164.3 161.3,162.5 163.8,166.3 166.4,170.9 168.9,170.8 171.4,173.0 174.0,174.4 176.5,171.4 179.1,163.9 181.6,164.6 184.2,173.4 186.7,160.8 189.3,184.1 191.8,175.1 194.3,173.4 196.9,170.1 199.4,177.5 202.0,173.4 204.5,179.2 207.1,172.7 209.6,187.5 212.2,171.9 214.7,180.6 217.3,179.2 219.8,177.9 222.3,175.2 224.9,185.2 227.4,181.7 230.0,182.8 232.5,182.6 235.1,180.3 237.6,180.3 240.2,183.7 242.7,186.4 245.3,187.3 247.8,178.7 250.3,184.1 252.9,185.4 255.4,184.9 258.0,180.9 260.5,184.4 263.1,181.6 265.6,181.8 268.2,188.3 270.7,176.8 273.2,177.2 275.8,171.1 278.3,175.7 280.9,182.7 283.4,180.3 286.0,183.2 288.5,172.2 291.1,182.0 293.6,176.2 296.2,178.5 298.7,168.9 301.2,176.0 303.8,175.1 306.3,175.3 308.9,179.6 311.4,181.6 314.0,181.4 316.5,186.1 319.1,169.0 321.6,179.0 324.1,181.2 326.7,174.2 329.2,176.2 331.8,175.6 334.3,169.6 336.9,179.2 339.4,174.8 342.0,175.8 344.5,185.1 347.1,170.4 349.6,181.5 352.1,185.4 354.7,178.3 357.2,176.6 359.8,179.2 362.3,183.2 364.9,178.0 367.4,167.9 370.0,182.7 372.5,170.9 375.1,170.8 377.6,189.2 380.1,185.6 382.7,180.3 385.2,165.0 387.8,177.5 390.3,187.6 392.9,175.7 395.4,174.2 398.0,177.7 400.5,172.4 403.0,177.4 405.6,183.6 408.1,177.6 410.7,173.2 413.2,175.6 415.8,182.4 418.3,180.9 420.9,170.3 423.4,177.1 426.0,173.1 428.5,175.5 431.0,175.1 433.6,180.9 436.1,177.9 438.7,166.7 441.2,161.4 443.8,175.6 446.3,174.9 448.9,165.6 451.4,173.2 453.9,166.2 456.5,168.0 459.0,171.0 461.6,175.8 464.1,169.0 466.7,173.4 469.2,175.5 471.8,165.8 474.3,171.1 476.9,164.0 479.4,161.6 481.9,161.1 484.5,175.9 487.0,159.6 489.6,181.1 492.1,178.1 494.7,169.6 497.2,173.7 499.8,179.1 502.3,176.1 504.8,179.5 507.4,172.1 509.9,181.6 512.5,178.5 515.0,179.6 517.6,171.9 520.1,182.5 522.7,178.9 525.2,187.0 527.8,175.5 530.3,176.4 532.8,175.5 535.4,171.4 537.9,171.8 540.5,170.0 543.0,161.2 545.6,174.1 548.1,180.4 550.7,162.8 553.2,159.0 555.8,177.2 558.3,173.4 560.8,181.6 563.4,172.2 565.9,175.5 568.5,177.3 571.0,171.5 573.6,172.6 576.1,173.8 578.7,172.1 581.2,179.6 583.7,174.4 586.3,177.9 588.8,174.2 591.4,174.2 593.9,177.2 596.5,174.7 599.0,168.7 601.6,176.1 604.1,171.2 606.7,175.9 609.2,185.8 611.7,178.0 614.3,170.7 616.8,170.5 619.4,175.7 621.9,178.8 624.5,169.1 627.0,180.0 629.6,172.6 632.1,180.4 634.6,170.7 637.2,171.6 639.7,179.3 642.3,172.2 644.8,175.0 647.4,173.2 649.9,173.1 652.5,159.0 655.0,181.1 657.6,169.7 660.1,171.6 662.6,165.2 665.2,163.7 667.7,163.8 670.3,156.2 672.8,167.8 675.4,170.4 677.9,177.3 680.5,174.9 683.0,173.5 685.6,172.2 688.1,161.3 690.6,177.5 693.2,165.5 695.7,172.4 698.3,174.8 700.8,171.8 703.4,172.2 705.9,177.7 708.5,154.8 711.0,158.9 713.5,166.4 716.1,162.7 718.6,173.9 721.2,179.7 723.7,171.3 726.3,174.5 728.8,157.2 731.4,162.5 733.9,178.0 736.5,176.8 739.0,155.8 741.5,153.6 744.1,147.8 746.6,171.2 749.2,158.5 751.7,166.8 754.3,155.4 756.8,176.6 759.4,168.4 761.9,164.0 764.4,159.1 767.0,169.7 769.5,161.2 772.1,157.7 774.6,169.7 777.2,159.9 779.7,157.6 782.3,161.8 784.8,150.3 787.4,172.9 789.9,160.8 792.4,162.3 795.0,152.6 797.5,157.0 800.1,165.4 802.6,169.1 805.2,156.5 807.7,174.6 810.3,160.3 812.8,135.6 815.4,170.5 817.9,159.5 820.4,160.4 823.0,162.6 825.5,166.1 828.1,157.9 830.6,155.6 833.2,173.5 835.7,159.7 838.3,162.5 840.8,162.3 843.3,171.3 845.9,164.6 848.4,172.1 851.0,159.6 853.5,162.3 856.1,161.6 858.6,156.0 861.2,161.9 863.7,166.6 866.3,172.8 868.8,161.7 871.3,154.7 873.9,162.9 876.4,168.4 879.0,167.7 881.5,177.2 884.1,153.3 886.6,159.7 889.2,154.1 891.7,153.8 894.2,166.3 896.8,174.5 899.3,163.4 901.9,161.3 904.4,166.0 907.0,165.4 909.5,162.3 912.1,162.3 914.6,171.0 917.2,146.1 919.7,171.4 922.2,165.0 924.8,163.9 927.3,158.7 929.9,150.9 932.4,159.1 935.0,157.7 937.5,154.9 940.1,159.4 942.6,156.8 945.2,157.4 947.7,144.9 950.2,146.4 952.8,146.9 955.3,149.0 957.9,162.9 960.4,158.9 963.0,160.9 965.5,160.9 968.1,164.4 970.6,163.7 973.1,164.6 975.7,147.9 978.2,145.2 980.8,152.6 983.3,159.9 985.9,165.3 988.4,158.2 991.0,146.8 993.5,161.2 996.1,159.9 998.6,165.7 1001.1,154.7 1003.7,156.3 1006.2,164.3 1008.8,164.9 1011.3,157.9 1013.9,164.6 1016.4,160.6 1019.0,155.7 1021.5,152.1 1024.0,145.8 1026.6,166.2 1029.1,164.8 1031.7,158.6 1034.2,164.8 1036.8,148.7 1039.3,167.2 1041.9,157.6 1044.4,162.7 1047.0,150.7 1049.5,158.2 1052.0,163.2 1054.6,159.1 1057.1,145.2 1059.7,165.0 1062.2,159.2 1064.8,148.8 1067.3,151.5 1069.9,161.3 1072.4,163.6 1074.9,159.0 1077.5,159.5 1080.0,144.7 1082.6,159.3 1085.1,158.8 1087.7,156.9 1090.2,156.7 1092.8,148.1 1095.3,154.2 1097.9,160.9 1100.4,162.2 1102.9,155.1 1105.5,159.6 1108.0,152.2 1110.6,158.7 1113.1,152.8 1115.7,153.0 1118.2,160.1 1120.8,148.0 1123.3,152.5 1125.9,162.0 1128.4,153.8 1130.9,157.0 1133.5,145.0 1136.0,148.4 1138.6,153.3 1141.1,147.8 1143.7,156.0 1146.2,150.5 1148.8,156.6 1151.3,155.5 1153.8,144.5 1156.4,155.8 1158.9,152.3 1161.5,153.6 1164.0,150.7 1166.6,141.2 1169.1,157.8 1171.7,153.1 1174.2,157.1 1176.8,152.6 1179.3,133.9 1181.8,151.1 1184.4,139.6 1186.9,155.8 1189.5,136.9 1192.0,162.3 1194.6,147.0 1197.1,150.5 1199.7,143.1 1202.2,152.1 1204.7,150.8 1207.3,140.6 1209.8,134.9 1212.4,147.7 1214.9,156.1 1217.5,149.9 1220.0,151.8 1222.6,164.8 1225.1,141.0 1227.7,134.5 1230.2,142.0 1232.7,155.8 1235.3,157.1 1237.8,151.9 1240.4,151.6 1242.9,136.2 1245.5,152.2 1248.0,148.2 1250.6,150.6 1253.1,146.3 1255.7,146.3 1258.2,139.5 1260.7,151.3 1263.3,144.5 1265.8,163.6 1268.4,145.2 1270.9,147.2 1273.5,147.6 1276.0,134.2 1278.6,143.9 1281.1,148.7 1283.6,154.7 1286.2,125.6 1288.7,146.7 1291.3,146.7 1293.8,153.0 1296.4,154.8 1298.9,153.3 1301.5,147.5 1304.0,145.3 1306.6,150.1 1309.1,143.4 1311.6,147.5 1314.2,142.8 1316.7,145.0 1319.3,136.0 1321.8,161.2 1324.4,145.4 1326.9,137.9 1329.5,152.0 1332.0,140.3 1334.5,144.6 1337.1,146.1 1339.6,141.7 1342.2,152.7 1344.7,156.0 1347.3,140.4 1349.8,151.0 1352.4,147.1 1354.9,139.5 1357.5,147.0 1360.0,150.7"/>
<polyline fill="none" stroke="#1f77b4" stroke-width="2" stroke-dasharray="8,4" points="90.0,154.4 92.5,165.7 95.1,171.0 97.6,182.3 100.2,168.6 102.7,169.8 105.3,181.4 107.8,178.5 110.4,184.9 112.9,170.8 115.5,187.9 118.0,169.5 120.5,171.5 123.1,169.2 125.6,168.3 128.2,173.6 130.7,177.5 133.3,170.9 135.8,169.8 138.4,170.6 140.9,174.3 143.4,173.4 146.0,172.9 148.5,169.2 151.1,183.1 153.6,173.5 156.2,169.5 158.7,170.9 161.3,171.1 163.8,176.0 166.4,180.2 168.9,178.8 171.4,183.0 174.0,181.9 176.5,179.1 179.1,173.5 181.6,175.3 184.2,184.5 186.7,175.7 189.3,194.8 191.8,186.4 194.3,183.2 196.9,183.5 199.4,188.7 202.0,187.9 204.5,194.0 207.1,189.7 209.6,199.7 212.2,190.8 214.7,203.1 217.3,197.9 219.8,198.1 222.3,200.6 224.9,205.7 227.4,205.9 230.0,204.6 232.5,207.6 235.1,207.8 237.6,209.6 240.2,210.8 242.7,213.3 245.3,218.4 247.8,212.1 250.3,217.8 252.9,221.6 255.4,217.2 258.0,215.3 260.5,221.6 263.1,220.4 265.6,221.8 268.2,225.1 270.7,215.6 273.2,218.5 275.8,218.7 278.3,221.0 280.9,227.8 283.4,224.5 286.0,225.5 288.5,221.3 291.1,230.0 293.6,226.2 296.2,234.4 298.7,225.6 301.2,231.0 303.8,230.9 306.3,225.6 308.9,231.1 311.4,233.0 314.0,230.9 316.5,233.0 319.1,229.3 321.6,230.9 324.1,236.9 326.7,232.4 329.2,235.1 331.8,231.2 334.3,228.4 336.9,234.9 339.4,228.3 342.0,232.1 344.5,240.1 347.1,228.8 349.6,238.1 352.1,233.9 354.7,236.0 357.2,232.9 359.8,233.6 362.3,238.0 364.9,237.4 367.4,229.9 370.0,241.0 372.5,231.9 375.1,230.7 377.6,241.6 380.1,239.5 382.7,236.5 385.2,231.2 387.8,237.3 390.3,242.5 392.9,235.0 395.4,234.7 398.0,235.8 400.5,234.7 403.0,234.3 405.6,240.6 408.1,236.7 410.7,233.3 413.2,237.9 415.8,239.0 418.3,237.1 420.9,231.1 423.4,233.6 426.0,233.9 428.5,236.2 431.0,237.3 433.6,237.1 436.1,236.6 438.7,234.4 441.2,231.7 443.8,237.5 446.3,237.3 448.9,235.0 451.4,234.6 453.9,233.3 456.5,234.4 459.0,234.9 461.6,237.1 464.1,232.7 466.7,236.7 469.2,235.7 471.8,231.4 474.3,233.3 476.9,230.9 479.4,229.7 481.9,230.6 484.5,237.2 487.0,228.9 489.6,238.4 492.1,236.8 494.7,233.4 497.2,236.7 499.8,236.5 502.3,237.7 504.8,236.7 507.4,233.4 509.9,237.4 512.5,234.6 515.0,237.8 517.6,232.9 520.1,239.6 522.7,235.6 525.2,239.1 527.8,230.7 530.3,234.1 532.8,232.8 535.4,230.3 537.9,232.2 540.5,233.7 543.0,227.2 545.6,235.7 548.1,236.5 550.7,229.1 553.2,226.5 555.8,235.0 558.3,234.4 560.8,237.4 563.4,234.1 565.9,232.5 568.5,235.0 571.0,232.4 573.6,232.3 576.1,235.0 578.7,231.6 581.2,236.0 583.7,232.3 586.3,236.7 588.8,232.7 591.4,233.8 593.9,236.0 596.5,231.4 599.0,230.4 601.6,233.5 604.1,230.3 606.7,235.5 609.2,239.8 611.7,232.3 614.3,232.0 616.8,230.3 619.4,232.1 621.9,236.5 624.5,231.4 627.0,236.7 629.6,233.0 632.1,234.6 634.6,229.7 637.2,232.8 639.7,234.0 642.3,230.8 644.8,232.9 647.4,230.7 649.9,233.1 652.5,225.2 655.0,237.5 657.6,229.6 660.1,232.5 662.6,230.6 665.2,230.6 667.7,229.3 670.3,227.2 672.8,229.1 675.4,230.4 677.9,236.6 680.5,235.7 683.0,233.0 685.6,232.8 688.1,225.5 690.6,233.6 693.2,230.1 695.7,231.4 698.3,234.4 700.8,230.1 703.4,231.3 705.9,234.3 708.5,222.7 711.0,225.3 713.5,227.6 716.1,223.2 718.6,229.9 721.2,233.5 723.7,227.9 726.3,233.0 728.8,225.4 731.4,226.0 733.9,233.1 736.5,230.9 739.0,224.8 741.5,221.6 744.1,217.6 746.6,229.8 749.2,224.8 751.7,227.9 754.3,223.6 756.8,233.3 759.4,228.4 761.9,226.2 764.4,223.8 767.0,229.5 769.5,227.0 772.1,222.2 774.6,228.7 777.2,220.3 779.7,224.3 782.3,226.6 784.8,218.8 787.4,229.4 789.9,223.4 792.4,223.6 795.0,220.4 797.5,222.7 800.1,223.5 802.6,227.0 805.2,218.6 807.7,232.4 810.3,221.3 812.8,216.8 815.4,227.4 817.9,219.1 820.4,224.8 823.0,223.9 825.5,222.5 828.1,220.9 830.6,216.8 833.2,226.6 835.7,220.8 838.3,219.7 840.8,221.9 843.3,225.8 845.9,224.7 848.4,225.9 851.0,220.7 853.5,221.0 856.1,221.4 858.6,217.9 861.2,220.4 863.7,221.3 866.3,225.0 868.8,219.8 871.3,220.3 873.9,220.4 876.4,222.9 879.0,222.7 881.5,226.8 884.1,216.6 886.6,220.1 889.2,218.1 891.7,215.9 894.2,222.4 896.8,224.8 899.3,220.1 901.9,216.9 904.4,220.9 907.0,219.1 909.5,218.8 912.1,222.3 914.6,225.2 917.2,210.4 919.7,224.4 922.2,219.5 924.8,219.2 927.3,216.9 929.9,215.2 932.4,220.6 935.0,217.7 937.5,217.5 940.1,219.3 942.6,217.8 945.2,218.1 947.7,212.7 950.2,214.5 952.8,214.9 955.3,214.2 957.9,218.2 960.4,216.1 963.0,218.7 965.5,216.8 968.1,217.1 970.6,221.7 973.1,220.1 975.7,210.7 978.2,209.9 980.8,216.3 983.3,217.7 985.9,221.0 988.4,215.4 991.0,212.2 993.5,216.3 996.1,214.9 998.6,220.0 1001.1,213.8 1003.7,216.4 1006.2,218.8 1008.8,219.8 1011.3,214.3 1013.9,217.5 1016.4,216.3 1019.0,212.6 1021.5,216.0 1024.0,211.2 1026.6,221.6 1029.1,219.5 1031.7,214.6 1034.2,218.5 1036.8,208.7 1039.3,220.4 1041.9,213.0 1044.4,219.0 1047.0,213.8 1049.5,215.9 1052.0,217.8 1054.6,215.9 1057.1,210.8 1059.7,219.2 1062.2,214.8 1064.8,211.3 1067.3,215.4 1069.9,218.0 1072.4,219.1 1074.9,216.0 1077.5,218.6 1080.0,208.3 1082.6,212.6 1085.1,214.8 1087.7,213.9 1090.2,213.1 1092.8,211.0 1095.3,214.5 1097.9,217.9 1100.4,214.9 1102.9,212.5 1105.5,213.7 1108.0,209.2 1110.6,211.2 1113.1,210.3 1115.7,210.1 1118.2,212.5 1120.8,208.4 1123.3,211.3 1125.9,216.3 1128.4,213.1 1130.9,214.7 1133.5,208.3 1136.0,212.1 1138.6,212.2 1141.1,208.7 1143.7,212.3 1146.2,211.4 1148.8,214.4 1151.3,213.4 1153.8,207.9 1156.4,215.6 1158.9,210.2 1161.5,216.2 1164.0,209.1 1166.6,205.8 1169.1,211.5 1171.7,210.1 1174.2,213.4 1176.8,210.9 1179.3,199.9 1181.8,212.0 1184.4,207.7 1186.9,210.3 1189.5,203.3 1192.0,215.7 1194.6,205.1 1197.1,210.0 1199.7,208.1 1202.2,210.2 1204.7,209.3 1207.3,206.8 1209.8,204.2 1212.4,211.2 1214.9,213.6 1217.5,209.8 1220.0,208.2 1222.6,215.7 1225.1,205.5 1227.7,202.9 1230.2,205.3 1232.7,211.1 1235.3,209.5 1237.8,208.3 1240.4,206.1 1242.9,200.8 1245.5,208.6 1248.0,209.8 1250.6,208.3 1253.1,206.0 1255.7,208.9 1258.2,204.9 1260.7,210.8 1263.3,205.7 1265.8,218.0 1268.4,205.4 1270.9,206.7 1273.5,205.4 1276.0,198.1 1278.6,206.6 1281.1,206.8 1283.6,209.8 1286.2,197.6 1288.7,209.1 1291.3,206.9 1293.8,209.6 1296.4,208.2 1298.9,207.7 1301.5,205.2 1304.0,204.0 1306.6,208.2 1309.1,205.0 1311.6,206.8 1314.2,203.5 1316.7,205.6 1319.3,201.0 1321.8,212.3 1324.4,201.6 1326.9,203.2 1329.5,208.1 1332.0,200.9 1334.5,205.5 1337.1,204.4 1339.6,203.3 1342.2,209.0 1344.7,210.9 1347.3,199.8 1349.8,207.3 1352.4,204.5 1354.9,201.6 1357.5,205.4 1360.0,209.5"/>
<polyline fill="none" stroke="#1f77b4" stroke-width="2" stroke-dasharray="3,4" points="90.0,132.9 92.5,131.6 95.1,130.6 97.6,132.7 100.2,131.5 102.7,129.8 105.3,131.9 107.8,131.4 110.4,132.6 112.9,129.8 115.5,132.3 118.0,131.6 120.5,131.8 123.1,131.9 125.6,128.7 128.2,131.0 130.7,131.8 133.3,132.0 135.8,130.9 138.4,130.4 140.9,130.8 143.4,128.9 146.0,130.4 148.5,127.5 151.1,131.4 153.6,131.7 156.2,130.2 158.7,130.5 161.3,128.4 163.8,127.6 166.4,128.3 168.9,129.2 171.4,127.2 174.0,129.9 176.5,129.5 179.1,127.6 181.6,126.5 184.2,126.4 186.7,123.2 189.3,127.3 191.8,126.4 194.3,128.1 196.9,124.4 199.4,126.8 202.0,123.4 204.5,123.2 207.1,121.0 209.6,126.0 212.2,119.9 214.7,116.2 217.3,120.5 219.8,118.4 222.3,113.6 224.9,118.6 227.4,114.9 230.0,117.3 232.5,114.4 235.1,112.1 237.6,111.2 240.2,112.8 242.7,113.3 245.3,109.3 247.8,107.1 250.3,106.4 252.9,104.3 255.4,108.2 258.0,106.3 260.5,103.5 263.1,101.9 265.6,100.6 268.2,103.9 270.7,102.0 273.2,99.3 275.8,93.3 278.3,95.8 280.9,95.8 283.4,96.6 286.0,98.5 288.5,91.8 291.1,93.5 293.6,92.7 296.2,86.9 298.7,86.1 301.2,87.5 303.8,87.0 306.3,92.6 308.9,91.0 311.4,91.0 314.0,92.9 316.5,95.8 319.1,82.3 321.6,90.6 324.1,86.7 326.7,84.6 329.2,84.0 331.8,87.2 334.3,84.4 336.9,87.2 339.4,89.3 342.0,86.6 344.5,87.9 347.1,84.3 349.6,86.6 352.1,94.4 354.7,85.3 357.2,86.4 359.8,88.7 362.3,88.2 364.9,83.5 367.4,81.4 370.0,85.0 372.5,82.6 375.1,83.1 377.6,90.7 380.1,89.2 382.7,86.7 385.2,76.6 387.8,83.3 390.3,88.7 392.9,83.8 395.4,82.7 398.0,85.2 400.5,80.6 403.0,86.4 405.6,86.3 408.1,84.7 410.7,85.8 413.2,83.2 415.8,88.8 418.3,89.4 420.9,84.6 423.4,88.4 426.0,84.2 428.5,84.1 431.0,83.2 433.6,91.6 436.1,88.9 438.7,79.6 441.2,78.5 443.8,85.9 446.3,85.0 448.9,77.9 451.4,86.5 453.9,80.6 456.5,80.9 459.0,84.4 461.6,86.4 464.1,84.0 466.7,83.9 469.2,88.0 471.8,82.2 474.3,86.6 476.9,81.5 479.4,79.6 481.9,78.4 484.5,86.8 487.0,78.5 489.6,91.2 492.1,89.3 494.7,85.7 497.2,84.9 499.8,90.1 502.3,86.0 504.8,91.2 507.4,87.0 509.9,91.8 512.5,92.4 515.0,90.1 517.6,87.0 520.1,91.4 522.7,91.3 525.2,97.1 527.8,93.1 530.3,89.5 532.8,90.9 535.4,89.1 537.9,88.1 540.5,84.4 543.0,81.7 545.6,86.8 548.1,92.5 550.7,81.7 553.2,80.8 555.8,90.2 558.3,86.8 560.8,92.5 563.4,86.1 565.9,92.2 568.5,90.2 571.0,88.4 573.6,88.4 576.1,87.3 578.7,89.5 581.2,91.8 583.7,90.4 586.3,89.5 588.8,90.0 591.4,89.6 593.9,89.2 596.5,92.6 599.0,85.8 601.6,91.2 604.1,88.9 606.7,89.4 609.2,94.5 611.7,94.9 614.3,87.0 616.8,88.9 619.4,93.0 621.9,90.8 624.5,86.3 627.0,92.2 629.6,87.7 632.1,94.3 634.6,89.7 637.2,86.6 639.7,94.8 642.3,90.2 644.8,89.9 647.4,90.6 649.9,88.1 652.5,81.8 655.0,92.6 657.6,88.8 660.1,87.0 662.6,84.0 665.2,81.6 667.7,83.0 670.3,76.8 672.8,87.1 675.4,88.7 677.9,89.4 680.5,87.7 683.0,89.2 685.6,88.8 688.1,84.5 690.6,93.0 693.2,83.6 695.7,90.0 698.3,88.5 700.8,90.4 703.4,89.8 705.9,92.0 708.5,80.1 711.0,82.0 713.5,88.4 716.1,88.3 718.6,92.4 721.2,96.4 723.7,91.9 726.3,90.8 728.8,80.4 731.4,85.3 733.9,94.7 736.5,95.1 739.0,78.7 741.5,80.1 744.1,79.0 746.6,90.5 749.2,82.2 751.7,88.5 754.3,81.1 756.8,93.1 759.4,88.9 761.9,86.7 764.4,84.4 767.0,89.3 769.5,84.5 772.1,84.2 774.6,90.3 777.2,88.9 779.7,83.2 782.3,84.5 784.8,81.2 787.4,93.1 789.9,86.5 792.4,88.0 795.0,81.0 797.5,83.2 800.1,91.4 802.6,91.9 805.2,87.0 807.7,92.0 810.3,88.7 812.8,67.5 815.4,93.7 817.9,89.5 820.4,84.7 823.0,87.8 825.5,92.7 828.1,85.8 830.6,89.4 833.2,96.2 835.7,91.3 838.3,92.0 840.8,89.9 843.3,94.9 845.9,89.1 848.4,95.7 851.0,89.1 853.5,91.8 856.1,89.3 858.6,87.7 861.2,90.5 863.7,96.7 866.3,97.4 868.8,91.0 871.3,84.1 873.9,92.6 876.4,94.9 879.0,94.9 881.5,100.5 884.1,85.5 886.6,89.6 889.2,86.0 891.7,87.1 894.2,94.1 896.8,99.1 899.3,93.1 901.9,93.7 904.4,95.4 907.0,96.1 909.5,93.6 912.1,88.8 914.6,96.0 917.2,84.6 919.7,97.1 922.2,95.5 924.8,93.7 927.3,94.9 929.9,84.7 932.4,88.6 935.0,88.9 937.5,87.1 940.1,89.3 942.6,89.3 945.2,89.2 947.7,81.3 950.2,80.6 952.8,81.9 955.3,84.4 957.9,95.2 960.4,91.4 963.0,92.2 965.5,94.5 968.1,96.2 970.6,91.5 973.1,94.6 975.7,89.1 978.2,86.1 980.8,86.1 983.3,92.2 985.9,94.5 988.4,92.7 991.0,84.8 993.5,95.6 996.1,94.1 998.6,96.2 1001.1,91.0 1003.7,89.4 1006.2,95.9 1008.8,95.9 1011.3,93.8 1013.9,97.3 1016.4,93.9 1019.0,93.0 1021.5,85.6 1024.0,84.2 1026.6,94.9 1029.1,95.4 1031.7,94.8 1034.2,96.9 1036.8,89.2 1039.3,97.3 1041.9,94.4 1044.4,93.7 1047.0,86.7 1049.5,92.4 1052.0,95.9 1054.6,93.6 1057.1,84.8 1059.7,96.3 1062.2,95.2 1064.8,86.4 1067.3,86.4 1069.9,93.7 1072.4,95.7 1074.9,93.8 1077.5,91.4 1080.0,86.2 1082.6,97.0 1085.1,94.4 1087.7,92.9 1090.2,94.3 1092.8,89.3 1095.3,90.4 1097.9,93.0 1100.4,98.8 1102.9,92.1 1105.5,97.4 1108.0,93.1 1110.6,98.5 1113.1,92.0 1115.7,93.2 1118.2,98.2 1120.8,89.1 1123.3,91.3 1125.9,95.9 1128.4,90.7 1130.9,92.6 1133.5,86.4 1136.0,86.8 1138.6,91.2 1141.1,89.4 1143.7,93.6 1146.2,89.9 1148.8,92.9 1151.3,93.3 1153.8,86.7 1156.4,90.4 1158.9,92.4 1161.5,87.6 1164.0,91.9 1166.6,84.9 1169.1,99.2 1171.7,93.4 1174.2,94.0 1176.8,93.4 1179.3,84.5 1181.8,89.5 1184.4,82.0 1186.9,96.1 1189.5,84.4 1192.0,97.1 1194.6,91.4 1197.1,91.5 1199.7,85.2 1202.2,92.7 1204.7,92.2 1207.3,83.0 1209.8,80.4 1212.4,87.2 1214.9,92.8 1217.5,90.4 1220.0,94.5 1222.6,99.9 1225.1,89.6 1227.7,84.4 1230.2,92.0 1232.7,98.6 1235.3,100.4 1237.8,96.3 1240.4,101.7 1242.9,87.8 1245.5,97.9 1248.0,91.1 1250.6,94.7 1253.1,93.7 1255.7,91.1 1258.2,86.8 1260.7,94.2 1263.3,90.8 1265.8,101.2 1268.4,91.8 1270.9,94.0 1273.5,94.7 1276.0,88.5 1278.6,90.2 1281.1,95.6 1283.6,99.9 1286.2,80.9 1288.7,90.0 1291.3,92.1 1293.8,96.5 1296.4,100.0 1298.9,100.0 1301.5,96.0 1304.0,95.2 1306.6,95.3 1309.1,89.9 1311.6,93.5 1314.2,92.8 1316.7,92.0 1319.3,86.2 1321.8,102.2 1324.4,97.4 1326.9,86.7 1329.5,96.3 1332.0,91.8 1334.5,93.5 1337.1,94.1 1339.6,91.9 1342.2,96.4 1344.7,99.5 1347.3,92.7 1349.8,98.4 1352.4,94.9 1354.9,91.0 1357.5,93.5 1360.0,92.7"/>
<polyline fill="none" stroke="#1f77b4" stroke-width="2" points="90.0,307.5 92.5,307.8 95.1,308.1 97.6,308.5 100.2,308.9 102.7,309.2 105.3,309.6 107.8,309.9 110.4,310.3 112.9,310.6 115.5,311.1 118.0,311.5 120.5,311.8 123.1,312.1 125.6,312.4 128.2,312.7 130.7,313.0 133.3,313.2 135.8,313.5 138.4,313.9 140.9,314.0 143.4,314.2 146.0,314.4 148.5,314.8 151.1,315.1 153.6,315.4 156.2,315.7 158.7,315.9 161.3,316.5 163.8,316.5 166.4,316.8 168.9,317.2 171.4,317.5 174.0,317.7 176.5,317.8 179.1,318.4 181.6,318.5 184.2,319.1 186.7,319.2 189.3,319.4 191.8,319.9 194.3,319.9 196.9,320.1 199.4,320.4 202.0,320.8 204.5,320.9 207.1,321.3 209.6,321.4 212.2,321.5 214.7,321.8 217.3,322.0 219.8,322.5 222.3,322.7 224.9,322.7 227.4,323.1 230.0,323.6 232.5,324.2 235.1,324.3 237.6,324.6 240.2,324.3 242.7,324.6 245.3,325.2 247.8,325.5 250.3,325.3 252.9,325.7 255.4,325.8 258.0,326.6 260.5,326.9 263.1,327.4 265.6,327.1 268.2,327.6 270.7,327.7 273.2,327.5 275.8,328.8 278.3,329.5 280.9,330.1 283.4,329.8 286.0,330.3 288.5,331.1 291.1,332.3 293.6,332.2 296.2,333.5 298.7,333.6 301.2,333.4 303.8,334.2 306.3,333.8 308.9,334.7 311.4,334.4 314.0,335.0 316.5,334.7 319.1,336.9 321.6,335.8 324.1,336.5 326.7,336.7 329.2,337.9 331.8,337.5 334.3,338.5 336.9,338.4 339.4,338.5 342.0,339.1 344.5,339.9 347.1,340.4 349.6,341.5 352.1,340.5 354.7,342.1 357.2,342.1 359.8,342.2 362.3,342.2 364.9,343.7 367.4,344.7 370.0,344.8 372.5,345.4 375.1,344.4 377.6,344.7 380.1,345.0 382.7,345.3 385.2,345.7 387.8,345.7 390.3,347.5 392.9,346.4 395.4,346.6 398.0,347.5 400.5,348.6 403.0,348.5 405.6,349.5 408.1,350.9 410.7,351.4 413.2,352.3 415.8,351.1 418.3,353.6 420.9,351.9 423.4,352.5 426.0,354.4 428.5,354.5 431.0,355.1 433.6,354.9 436.1,354.6 438.7,355.7 441.2,357.6 443.8,357.2 446.3,357.5 448.9,357.5 451.4,357.9 453.9,358.4 456.5,358.7 459.0,359.4 461.6,359.3 464.1,360.4 466.7,358.4 469.2,359.2 471.8,361.3 474.3,360.2 476.9,362.4 479.4,361.2 481.9,361.1 484.5,362.3 487.0,362.5 489.6,361.7 492.1,363.5 494.7,363.2 497.2,364.2 499.8,362.6 502.3,363.8 504.8,365.7 507.4,365.3 509.9,366.4 512.5,365.1 515.0,367.2 517.6,367.3 520.1,366.9 522.7,367.9 525.2,368.8 527.8,369.1 530.3,367.9 532.8,368.7 535.4,368.9 537.9,368.7 540.5,368.1 543.0,369.1 545.6,370.8 548.1,371.5 550.7,371.7 553.2,369.7 555.8,371.3 558.3,372.6 560.8,374.0 563.4,372.6 565.9,374.5 568.5,374.7 571.0,373.2 573.6,374.3 576.1,374.8 578.7,374.8 581.2,376.2 583.7,375.5 586.3,376.3 588.8,376.3 591.4,377.2 593.9,377.6 596.5,376.5 599.0,376.6 601.6,378.2 604.1,377.9 606.7,376.9 609.2,377.1 611.7,378.1 614.3,377.3 616.8,377.8 619.4,377.5 621.9,378.7 624.5,378.0 627.0,379.2 629.6,379.6 632.1,380.5 634.6,380.6 637.2,380.7 639.7,380.8 642.3,383.1 644.8,382.0 647.4,381.7 649.9,380.4 652.5,380.8 655.0,382.8 657.6,382.8 660.1,384.4 662.6,384.3 665.2,384.1 667.7,385.4 670.3,384.6 672.8,384.6 675.4,386.2 677.9,385.7 680.5,386.5 683.0,386.4 685.6,386.7 688.1,388.2 690.6,388.3 693.2,389.1 695.7,389.8 698.3,388.8 700.8,389.4 703.4,389.7 705.9,389.1 708.5,390.6 711.0,391.1 713.5,391.9 716.1,391.6 718.6,392.8 721.2,392.7 723.7,392.7 726.3,392.2 728.8,393.3 731.4,393.2 733.9,394.3 736.5,394.6 739.0,395.9 741.5,396.5 744.1,396.2 746.6,396.3 749.2,395.9 751.7,396.7 754.3,398.2 756.8,397.3 759.4,397.0 761.9,398.1 764.4,398.3 767.0,398.2 769.5,398.6 772.1,398.9 774.6,400.3 777.2,400.2 779.7,399.4 782.3,401.2 784.8,401.0 787.4,401.9 789.9,401.8 792.4,402.9 795.0,402.8 797.5,403.8 800.1,402.6 802.6,402.6 805.2,403.0 807.7,403.7 810.3,404.3 812.8,403.8 815.4,405.0 817.9,405.3 820.4,405.2 823.0,404.8 825.5,405.9 828.1,405.4 830.6,405.5 833.2,406.2 835.7,406.6 838.3,407.1 840.8,406.9 843.3,407.6 845.9,408.1 848.4,407.7 851.0,408.0 853.5,408.1 856.1,408.1 858.6,409.3 861.2,409.3 863.7,408.9 866.3,409.4 868.8,409.5 871.3,409.3 873.9,410.4 876.4,410.1 879.0,411.0 881.5,411.3 884.1,411.1 886.6,411.4 889.2,411.4 891.7,412.0 894.2,411.8 896.8,412.6 899.3,411.8 901.9,412.6 904.4,413.2 907.0,413.3 909.5,412.7 912.1,413.4 914.6,414.1 917.2,414.7 919.7,414.9 922.2,414.8 924.8,415.1 927.3,414.4 929.9,415.2 932.4,415.5 935.0,415.3 937.5,415.3 940.1,415.9 942.6,416.4 945.2,416.1 947.7,417.1 950.2,417.4 952.8,417.6 955.3,418.7 957.9,417.5 960.4,418.8 963.0,418.0 965.5,418.1 968.1,419.7 970.6,418.9 973.1,419.5 975.7,419.8 978.2,419.7 980.8,420.4 983.3,419.8 985.9,419.9 988.4,420.1 991.0,420.5 993.5,420.6 996.1,421.2 998.6,421.3 1001.1,420.7 1003.7,421.5 1006.2,421.6 1008.8,421.5 1011.3,421.7 1013.9,422.0 1016.4,422.3 1019.0,421.6 1021.5,422.3 1024.0,422.2 1026.6,422.7 1029.1,422.7 1031.7,422.3 1034.2,423.1 1036.8,423.3 1039.3,423.6 1041.9,424.0 1044.4,424.3 1047.0,423.7 1049.5,423.5 1052.0,424.4 1054.6,423.8 1057.1,424.2 1059.7,424.8 1062.2,424.9 1064.8,425.0 1067.3,425.1 1069.9,424.9 1072.4,425.2 1074.9,424.6 1077.5,424.9 1080.0,425.3 1082.6,426.0 1085.1,425.9 1087.7,426.5 1090.2,426.4 1092.8,426.8 1095.3,426.9 1097.9,427.0 1100.4,426.7 1102.9,427.6 1105.5,426.9 1108.0,428.1 1110.6,427.9 1113.1,427.9 1115.7,428.8 1118.2,428.6 1120.8,428.3 1123.3,428.7 1125.9,429.5 1128.4,429.1 1130.9,429.2 1133.5,429.8 1136.0,429.9 1138.6,429.6 1141.1,430.2 1143.7,429.9 1146.2,430.7 1148.8,429.9 1151.3,430.7 1153.8,430.8 1156.4,430.6 1158.9,431.3 1161.5,431.5 1164.0,431.5 1166.6,431.5 1169.1,431.7 1171.7,431.7 1174.2,432.1 1176.8,432.1 1179.3,433.0 1181.8,432.4 1184.4,433.0 1186.9,432.6 1189.5,433.4 1192.0,433.0 1194.6,433.1 1197.1,433.2 1199.7,433.6 1202.2,433.1 1204.7,433.4 1207.3,433.9 1209.8,434.2 1212.4,433.8 1214.9,434.4 1217.5,434.6 1220.0,434.3 1222.6,433.9 1225.1,434.1 1227.7,434.7 1230.2,434.4 1232.7,434.1 1235.3,434.3 1237.8,434.0 1240.4,434.1 1242.9,434.7 1245.5,434.3 1248.0,434.5 1250.6,434.7 1253.1,434.6 1255.7,434.8 1258.2,435.4 1260.7,435.1 1263.3,434.9 1265.8,434.2 1268.4,435.5 1270.9,435.0 1273.5,435.2 1276.0,435.5 1278.6,435.0 1281.1,434.9 1283.6,434.7 1286.2,435.5 1288.7,435.3 1291.3,435.4 1293.8,435.2 1296.4,435.2 1298.9,435.8 1301.5,435.5 1304.0,435.2 1306.6,435.7 1309.1,435.4 1311.6,435.5 1314.2,436.2 1316.7,435.4 1319.3,435.8 1321.8,436.2 1324.4,435.7 1326.9,435.9 1329.5,436.3 1332.0,436.3 1334.5,436.3 1337.1,436.3 1339.6,436.4 1342.2,436.5 1344.7,436.5 1347.3,436.9 1349.8,436.4 1352.4,437.0 1354.9,436.3 1357.5,436.8 1360.0,437.4"/>
<polyline fill="none" stroke="#1f77b4" stroke-width="2" stroke-dasharray="8,4" points="90.0,482.5 92.5,482.3 95.1,482.3 97.6,482.2 100.2,482.3 102.7,482.3 105.3,482.2 107.8,482.2 110.4,482.2 112.9,482.3 115.5,482.2 118.0,482.2 120.5,482.2 123.1,482.2 125.6,482.2 128.2,482.2 130.7,482.2 133.3,482.2 135.8,482.2 138.4,482.2 140.9,482.1 143.4,482.2 146.0,482.2 148.5,482.2 151.1,482.1 153.6,482.2 156.2,482.2 158.7,482.2 161.3,482.2 163.8,482.2 166.4,482.1 168.9,482.2 171.4,482.2 174.0,482.1 176.5,482.2 179.1,482.1 181.6,482.2 184.2,482.1 186.7,481.9 189.3,482.1 191.8,482.2 194.3,482.1 196.9,482.2 199.4,482.1 202.0,482.1 204.5,482.1 207.1,482.1 209.6,482.0 212.2,482.1 214.7,482.1 217.3,482.1 219.8,482.2 222.3,482.1 224.9,482.1 227.4,482.1 230.0,482.1 232.5,482.1 235.1,482.0 237.6,482.1 240.2,482.2 242.7,482.1 245.3,482.1 247.8,482.1 250.3,482.2 252.9,482.1 255.4,482.1 258.0,482.1 260.5,482.1 263.1,482.1 265.6,482.1 268.2,482.1 270.7,482.1 273.2,482.1 275.8,482.1 278.3,482.1 280.9,482.1 283.4,482.1 286.0,482.1 288.5,482.1 291.1,482.0 293.6,482.1 296.2,482.1 298.7,482.1 301.2,482.1 303.8,482.1 306.3,482.1 308.9,482.1 311.4,482.1 314.0,482.1 316.5,482.1 319.1,482.1 321.6,482.1 324.1,482.1 326.7,482.1 329.2,482.1 331.8,482.1 334.3,482.1 336.9,482.1 339.4,482.1 342.0,482.1 344.5,482.1 347.1,482.1 349.6,482.1 352.1,482.1 354.7,482.1 357.2,482.1 359.8,482.1 362.3,482.1 364.9,482.1 367.4,482.1 370.0,482.1 372.5,482.1 375.1,482.1 377.6,482.1 380.1,482.1 382.7,482.1 385.2,482.1 387.8,482.1 390.3,482.0 392.9,482.1 395.4,482.1 398.0,482.1 400.5,482.1 403.0,482.1 405.6,482.1 408.1,482.0 410.7,482.1 413.2,482.1 415.8,482.1 418.3,482.1 420.9,482.1 423.4,482.2 426.0,482.2 428.5,482.2 431.0,482.1 433.6,482.0 436.1,482.2 438.7,482.2 441.2,482.2 443.8,482.2 446.3,482.2 448.9,482.2 451.4,482.2 453.9,482.2 456.5,482.2 459.0,482.2 461.6,482.2 464.1,482.2 466.7,482.2 469.2,482.2 471.8,482.2 474.3,482.2 476.9,482.2 479.4,482.2 481.9,482.2 484.5,482.2 487.0,482.2 489.6,482.2 492.1,482.2 494.7,482.2 497.2,482.2 499.8,482.2 502.3,482.2 504.8,482.2 507.4,482.2 509.9,482.2 512.5,482.2 515.0,482.2 517.6,482.2 520.1,482.2 522.7,482.2 525.2,482.2 527.8,482.2 530.3,482.2 532.8,482.2 535.4,482.2 537.9,482.2 540.5,482.2 543.0,482.2 545.6,482.2 548.1,482.2 550.7,482.2 553.2,482.2 555.8,482.2 558.3,482.2 560.8,482.2 563.4,482.2 565.9,482.2 568.5,482.2 571.0,482.2 573.6,482.2 576.1,482.2 578.7,482.2 581.2,482.2 583.7,482.2 586.3,482.2 588.8,482.2 591.4,482.2 593.9,482.2 596.5,482.2 599.0,482.2 601.6,482.2 604.1,482.2 606.7,482.2 609.2,482.2 611.7,482.2 614.3,482.2 616.8,482.2 619.4,482.2 621.9,482.2 624.5,482.2 627.0,482.2 629.6,482.2 632.1,482.2 634.6,482.2 637.2,482.2 639.7,482.2 642.3,482.2 644.8,482.2 647.4,482.2 649.9,482.2 652.5,482.2 655.0,482.2 657.6,482.2 660.1,482.2 662.6,482.2 665.2,482.2 667.7,482.2 670.3,482.2 672.8,482.2 675.4,482.2 677.9,482.2 680.5,482.2 683.0,482.2 685.6,482.2 688.1,482.2 690.6,482.2 693.2,482.2 695.7,482.2 698.3,482.2 700.8,482.2 703.4,482.2 705.9,482.2 708.5,482.2 711.0,482.2 713.5,482.2 716.1,482.2 718.6,482.2 721.2,482.1 723.7,482.2 726.3,482.2 728.8,482.2 731.4,482.2 733.9,482.2 736.5,482.2 739.0,482.2 741.5,482.2 744.1,482.2 746.6,482.2 749.2,482.2 751.7,482.2 754.3,482.2 756.8,482.2 759.4,482.2 761.9,482.2 764.4,482.2 767.0,482.2 769.5,482.1 772.1,482.2 774.6,482.2 777.2,482.2 779.7,482.2 782.3,482.2 784.8,482.2 787.4,482.2 789.9,482.2 792.4,482.2 795.0,482.2 797.5,482.2 800.1,482.2 802.6,482.2 805.2,482.2 807.7,482.2 810.3,482.2 812.8,482.2 815.4,482.1 817.9,482.2 820.4,482.2 823.0,482.2 825.5,482.2 828.1,482.2 830.6,482.1 833.2,482.2 835.7,482.1 838.3,482.2 840.8,482.2 843.3,482.2 845.9,482.2 848.4,482.2 851.0,482.1 853.5,482.1 856.1,482.2 858.6,482.2 861.2,482.2 863.7,482.1 866.3,482.2 868.8,482.2 871.3,482.2 873.9,482.1 876.4,482.2 879.0,482.1 881.5,482.1 884.1,482.2 886.6,482.1 889.2,482.1 891.7,482.2 894.2,482.1 896.8,482.2 899.3,482.2 901.9,482.2 904.4,482.1 907.0,482.2 909.5,482.1 912.1,482.2 914.6,482.1 917.2,482.2 919.7,482.1 922.2,482.1 924.8,482.2 927.3,482.0 929.9,482.2 932.4,482.1 935.0,482.2 937.5,482.2 940.1,482.2 942.6,482.1 945.2,482.2 947.7,482.2 950.2,482.2 952.8,482.1 955.3,482.2 957.9,482.1 960.4,482.2 963.0,482.1 965.5,482.1 968.1,482.2 970.6,482.2 973.1,482.1 975.7,482.1 978.2,482.1 980.8,482.2 983.3,482.1 985.9,482.1 988.4,482.1 991.0,482.1 993.5,482.1 996.1,482.2 998.6,482.1 1001.1,482.1 1003.7,482.2 1006.2,482.1 1008.8,482.1 1011.3,482.1 1013.9,482.1 1016.4,482.2 1019.0,482.1 1021.5,482.2 1024.0,482.2 1026.6,482.1 1029.1,482.1 1031.7,482.1 1034.2,482.1 1036.8,482.2 1039.3,482.1 1041.9,482.2 1044.4,482.1 1047.0,482.1 1049.5,482.1 1052.0,482.1 1054.6,482.1 1057.1,482.1 1059.7,482.1 1062.2,482.1 1064.8,482.2 1067.3,482.1 1069.9,482.1 1072.4,482.1 1074.9,482.1 1077.5,482.1 1080.0,482.2 1082.6,482.1 1085.1,482.1 1087.7,482.2 1090.2,482.1 1092.8,482.1 1095.3,482.1 1097.9,482.1 1100.4,482.1 1102.9,482.2 1105.5,482.1 1108.0,482.1 1110.6,482.1 1113.1,482.2 1115.7,482.1 1118.2,482.1 1120.8,482.2 1123.3,482.1 1125.9,482.1 1128.4,482.1 1130.9,482.1 1133.5,482.2 1136.0,482.1 1138.6,482.1 1141.1,482.1 1143.7,482.1 1146.2,482.1 1148.8,482.1 1151.3,482.1 1153.8,482.1 1156.4,482.1 1158.9,482.1 1161.5,482.1 1164.0,482.1 1166.6,482.2 1169.1,482.1 1171.7,482.1 1174.2,482.1 1176.8,482.1 1179.3,482.1 1181.8,482.1 1184.4,482.1 1186.9,482.1 1189.5,482.1 1192.0,482.1 1194.6,482.2 1197.1,482.1 1199.7,482.1 1202.2,482.1 1204.7,482.1 1207.3,482.2 1209.8,482.2 1212.4,482.1 1214.9,482.1 1217.5,482.1 1220.0,482.1 1222.6,482.1 1225.1,482.0 1227.7,482.2 1230.2,482.2 1232.7,482.2 1235.3,482.2 1237.8,482.2 1240.4,482.2 1242.9,482.2 1245.5,482.2 1248.0,482.2 1250.6,482.2 1253.1,482.2 1255.7,482.2 1258.2,482.2 1260.7,482.2 1263.3,482.2 1265.8,482.2 1268.4,482.2 1270.9,482.2 1273.5,482.2 1276.0,482.2 1278.6,482.2 1281.1,482.2 1283.6,482.2 1286.2,482.2 1288.7,482.2 1291.3,482.2 1293.8,482.2 1296.4,482.2 1298.9,482.2 1301.5,482.2 1304.0,482.2 1306.6,482.2 1309.1,482.3 1311.6,482.2 1314.2,482.2 1316.7,482.2 1319.3,482.3 1321.8,482.2 1324.4,482.2 1326.9,482.2 1329.5,482.2 1332.0,482.2 1334.5,482.2 1337.1,482.2 1339.6,482.2 1342.2,482.2 1344.7,482.2 1347.3,482.2 1349.8,482.2 1352.4,482.2 1354.9,482.2 1357.5,482.2 1360.0,482.3"/>
<polyline fill="none" stroke="#111" stroke-width="2.5" points="90.0,705.6 92.5,703.9 95.1,717.6 97.6,722.5 100.2,719.7 102.7,711.6 105.3,706.7 107.8,720.0 110.4,714.2 112.9,710.2 115.5,703.6 118.0,707.2 120.5,717.1 123.1,718.3 125.6,711.5 128.2,716.9 130.7,715.7 133.3,704.9 135.8,709.2 138.4,714.5 140.9,707.5 143.4,704.4 146.0,712.5 148.5,704.5 151.1,704.6 153.6,701.6 156.2,697.0 158.7,705.1 161.3,712.0 163.8,716.5 166.4,710.5 168.9,699.4 171.4,686.5 174.0,682.7 176.5,686.7 179.1,691.7 181.6,696.7 184.2,684.7 186.7,676.9 189.3,670.1 191.8,665.6 194.3,673.5 196.9,674.3 199.4,672.1 202.0,662.3 204.5,660.3 207.1,654.1 209.6,654.5 212.2,650.4 214.7,623.6 217.3,651.1 219.8,655.7 222.3,617.0 224.9,629.2 227.4,621.1 230.0,622.4 232.5,610.1 235.1,595.3 237.6,597.9 240.2,614.2 242.7,599.3 245.3,596.8 247.8,595.0 250.3,598.8 252.9,598.0 255.4,592.0 258.0,586.9 260.5,582.6 263.1,581.6 265.6,602.2 268.2,591.8 270.7,587.7 273.2,603.7 275.8,594.4 278.3,585.9 280.9,578.1 283.4,585.8 286.0,578.7 288.5,581.8 291.1,572.3 293.6,577.8 296.2,568.3 298.7,571.1 301.2,575.9 303.8,575.7 306.3,573.4 308.9,570.5 311.4,573.6 314.0,569.8 316.5,565.9 319.1,570.1 321.6,564.0 324.1,570.4 326.7,568.9 329.2,566.5 331.8,567.3 334.3,567.3 336.9,565.6 339.4,562.9 342.0,565.1 344.5,561.7 347.1,563.6 349.6,559.2 352.1,561.3 354.7,560.0 357.2,562.8 359.8,561.9 362.3,561.5 364.9,560.3 367.4,562.6 370.0,558.4 372.5,558.8 375.1,563.5 377.6,558.0 380.1,557.2 382.7,560.7 385.2,565.1 387.8,565.4 390.3,554.6 392.9,560.7 395.4,564.4 398.0,558.9 400.5,561.3 403.0,558.0 405.6,558.2 408.1,559.0 410.7,555.7 413.2,556.5 415.8,557.2 418.3,553.5 420.9,557.6 423.4,556.1 426.0,557.0 428.5,558.1 431.0,557.3 433.6,554.2 436.1,554.8 438.7,558.0 441.2,555.8 443.8,555.3 446.3,555.5 448.9,558.0 451.4,554.9 453.9,556.8 456.5,556.1 459.0,555.6 461.6,554.3 464.1,554.8 466.7,557.1 469.2,553.8 471.8,556.0 474.3,556.4 476.9,556.0 479.4,556.0 481.9,558.1 484.5,553.2 487.0,557.2 489.6,552.8 492.1,553.2 494.7,553.9 497.2,555.0 499.8,552.9 502.3,554.4 504.8,550.9 507.4,554.9 509.9,552.1 512.5,552.4 515.0,552.6 517.6,553.1 520.1,552.0 522.7,552.0 525.2,550.0 527.8,550.9 530.3,554.6 532.8,553.0 535.4,554.1 537.9,553.6 540.5,554.3 543.0,554.4 545.6,553.2 548.1,551.6 550.7,554.4 553.2,555.7 555.8,552.8 558.3,552.7 560.8,551.2 563.4,553.1 565.9,551.9 568.5,552.2 571.0,553.4 573.6,553.2 576.1,552.5 578.7,552.7 581.2,551.1 583.7,552.7 586.3,552.4 588.8,552.1 591.4,552.8 593.9,551.9 596.5,551.5 599.0,553.8 601.6,551.2 604.1,551.4 606.7,552.6 609.2,550.7 611.7,550.2 614.3,552.9 616.8,552.7 619.4,550.4 621.9,552.5 624.5,552.1 627.0,551.2 629.6,552.5 632.1,550.3 634.6,551.8 637.2,553.3 639.7,549.8 642.3,551.7 644.8,551.4 647.4,551.7 649.9,552.1 652.5,554.2 655.0,551.0 657.6,551.7 660.1,552.3 662.6,551.7 665.2,553.3 667.7,552.9 670.3,554.8 672.8,551.8 675.4,551.4 677.9,551.2 680.5,551.3 683.0,551.2 685.6,551.3 688.1,552.4 690.6,549.7 693.2,552.2 695.7,550.7 698.3,551.4 700.8,551.0 703.4,551.2 705.9,550.5 708.5,553.1 711.0,552.4 713.5,551.1 716.1,552.0 718.6,551.0 721.2,549.9 723.7,550.8 726.3,551.3 728.8,553.1 731.4,552.6 733.9,550.1 736.5,550.0 739.0,553.5 741.5,553.0 744.1,553.3 746.6,550.5 749.2,552.9 751.7,551.9 754.3,553.6 756.8,549.8 759.4,551.6 761.9,551.8 764.4,551.6 767.0,551.3 769.5,552.9 772.1,552.2 774.6,550.4 777.2,551.1 779.7,553.0 782.3,552.0 784.8,552.0 787.4,549.1 789.9,552.1 792.4,551.3 795.0,553.1 797.5,552.5 800.1,550.5 802.6,549.7 805.2,551.6 807.7,550.1 810.3,551.7 812.8,556.2 815.4,549.7 817.9,551.2 820.4,552.0 823.0,551.5 825.5,550.0 828.1,552.6 830.6,550.8 833.2,549.6 835.7,550.3 838.3,550.4 840.8,550.9 843.3,549.8 845.9,550.9 848.4,549.8 851.0,551.0 853.5,550.7 856.1,551.2 858.6,550.7 861.2,550.3 863.7,549.5 866.3,549.5 868.8,550.9 871.3,552.0 873.9,550.1 876.4,549.5 879.0,549.8 881.5,548.2 884.1,552.4 886.6,550.9 889.2,552.3 891.7,550.6 894.2,550.1 896.8,548.3 899.3,551.1 901.9,550.0 904.4,550.1 907.0,550.2 909.5,550.6 912.1,551.6 914.6,549.8 917.2,552.1 919.7,548.4 922.2,550.3 924.8,550.0 927.3,549.5 929.9,552.3 932.4,551.2 935.0,551.1 937.5,552.5 940.1,550.9 942.6,550.2 945.2,551.3 947.7,553.3 950.2,552.2 952.8,552.5 955.3,551.6 957.9,549.3 960.4,550.5 963.0,550.0 965.5,549.9 968.1,549.3 970.6,550.0 973.1,549.7 975.7,551.2 978.2,551.4 980.8,551.5 983.3,549.9 985.9,549.3 988.4,549.8 991.0,550.8 993.5,549.8 996.1,550.0 998.6,549.8 1001.1,550.2 1003.7,550.8 1006.2,548.8 1008.8,550.0 1011.3,550.1 1013.9,549.2 1016.4,549.6 1019.0,549.9 1021.5,551.1 1024.0,552.9 1026.6,549.3 1029.1,549.6 1031.7,549.9 1034.2,549.2 1036.8,551.2 1039.3,549.6 1041.9,549.4 1044.4,549.3 1047.0,551.5 1049.5,550.5 1052.0,549.2 1054.6,549.4 1057.1,552.2 1059.7,548.7 1062.2,549.6 1064.8,551.2 1067.3,551.2 1069.9,549.0 1072.4,549.0 1074.9,550.0 1077.5,550.1 1080.0,550.4 1082.6,548.9 1085.1,550.2 1087.7,549.9 1090.2,549.9 1092.8,550.1 1095.3,550.3 1097.9,549.8 1100.4,549.7 1102.9,550.2 1105.5,549.2 1108.0,550.5 1110.6,548.8 1113.1,551.1 1115.7,549.5 1118.2,549.1 1120.8,550.8 1123.3,550.3 1125.9,548.7 1128.4,550.4 1130.9,550.6 1133.5,551.0 1136.0,550.7 1138.6,550.5 1141.1,550.4 1143.7,549.8 1146.2,550.1 1148.8,550.3 1151.3,549.6 1153.8,550.9 1156.4,549.8 1158.9,550.1 1161.5,550.8 1164.0,549.8 1166.6,552.9 1169.1,547.9 1171.7,549.6 1174.2,549.8 1176.8,550.0 1179.3,551.2 1181.8,550.1 1184.4,551.6 1186.9,549.3 1189.5,551.4 1192.0,548.4 1194.6,550.9 1197.1,550.6 1199.7,550.9 1202.2,549.9 1204.7,549.6 1207.3,551.8 1209.8,552.1 1212.4,550.5 1214.9,548.8 1217.5,549.9 1220.0,549.3 1222.6,548.8 1225.1,551.0 1227.7,550.8 1230.2,549.6 1232.7,548.6 1235.3,548.6 1237.8,549.3 1240.4,547.7 1242.9,551.2 1245.5,548.5 1248.0,550.1 1250.6,549.9 1253.1,550.3 1255.7,550.7 1258.2,550.6 1260.7,549.1 1263.3,550.0 1265.8,548.2 1268.4,550.9 1270.9,549.5 1273.5,549.3 1276.0,551.8 1278.6,550.8 1281.1,549.0 1283.6,548.5 1286.2,552.1 1288.7,549.4 1291.3,550.1 1293.8,549.0 1296.4,548.9 1298.9,548.3 1301.5,549.6 1304.0,549.6 1306.6,549.6 1309.1,550.3 1311.6,549.7 1314.2,549.5 1316.7,550.6 1319.3,552.0 1321.8,547.5 1324.4,549.3 1326.9,551.8 1329.5,549.0 1332.0,549.9 1334.5,550.0 1337.1,549.8 1339.6,550.6 1342.2,549.0 1344.7,548.5 1347.3,549.8 1349.8,548.8 1352.4,549.9 1354.9,550.1 1357.5,549.8 1360.0,549.4"/>
<polyline fill="none" stroke="#2ca02c" stroke-width="2.5" points="112.9,967.4 138.4,975.8 163.8,971.6 189.3,963.2 214.7,954.8 240.2,942.2 265.6,912.8 291.1,912.8 316.5,917.0 342.0,908.6 367.4,908.6 392.9,900.2 418.3,883.4 443.8,896.0 469.2,900.2 494.7,896.0 520.1,891.8 545.6,866.6 571.0,849.8 596.5,845.6 621.9,887.6 647.4,870.8 672.8,908.6 698.3,887.6 723.7,870.8 749.2,870.8 774.6,887.6 800.1,858.2 825.5,858.2 851.0,870.8 876.4,854.0 901.9,833.0 927.3,820.4 952.8,849.8 978.2,875.0 1003.7,849.8 1029.1,824.6 1054.6,849.8 1080.0,845.6 1105.5,837.2 1130.9,807.8 1156.4,841.4 1181.8,833.0 1207.3,854.0 1232.7,837.2 1258.2,866.6 1283.6,828.8 1309.1,841.4 1334.5,812.0 1360.0,837.2"/>
<circle cx="112.9" cy="967.4" r="3.5" fill="#2ca02c"/>
<circle cx="138.4" cy="975.8" r="3.5" fill="#2ca02c"/>
<circle cx="163.8" cy="971.6" r="3.5" fill="#2ca02c"/>
<circle cx="189.3" cy="963.2" r="3.5" fill="#2ca02c"/>
<circle cx="214.7" cy="954.8" r="3.5" fill="#2ca02c"/>
<circle cx="240.2" cy="942.2" r="3.5" fill="#2ca02c"/>
<circle cx="265.6" cy="912.8" r="3.5" fill="#2ca02c"/>
<circle cx="291.1" cy="912.8" r="3.5" fill="#2ca02c"/>
<circle cx="316.5" cy="917.0" r="3.5" fill="#2ca02c"/>
<circle cx="342.0" cy="908.6" r="3.5" fill="#2ca02c"/>
<circle cx="367.4" cy="908.6" r="3.5" fill="#2ca02c"/>
<circle cx="392.9" cy="900.2" r="3.5" fill="#2ca02c"/>
<circle cx="418.3" cy="883.4" r="3.5" fill="#2ca02c"/>
<circle cx="443.8" cy="896.0" r="3.5" fill="#2ca02c"/>
<circle cx="469.2" cy="900.2" r="3.5" fill="#2ca02c"/>
<circle cx="494.7" cy="896.0" r="3.5" fill="#2ca02c"/>
<circle cx="520.1" cy="891.8" r="3.5" fill="#2ca02c"/>
<circle cx="545.6" cy="866.6" r="3.5" fill="#2ca02c"/>
<circle cx="571.0" cy="849.8" r="3.5" fill="#2ca02c"/>
<circle cx="596.5" cy="845.6" r="3.5" fill="#2ca02c"/>
<circle cx="621.9" cy="887.6" r="3.5" fill="#2ca02c"/>
<circle cx="647.4" cy="870.8" r="3.5" fill="#2ca02c"/>
<circle cx="672.8" cy="908.6" r="3.5" fill="#2ca02c"/>
<circle cx="698.3" cy="887.6" r="3.5" fill="#2ca02c"/>
<circle cx="723.7" cy="870.8" r="3.5" fill="#2ca02c"/>
<circle cx="749.2" cy="870.8" r="3.5" fill="#2ca02c"/>
<circle cx="774.6" cy="887.6" r="3.5" fill="#2ca02c"/>
<circle cx="800.1" cy="858.2" r="3.5" fill="#2ca02c"/>
<circle cx="825.5" cy="858.2" r="3.5" fill="#2ca02c"/>
<circle cx="851.0" cy="870.8" r="3.5" fill="#2ca02c"/>
<circle cx="876.4" cy="854.0" r="3.5" fill="#2ca02c"/>
<circle cx="901.9" cy="833.0" r="3.5" fill="#2ca02c"/>
<circle cx="927.3" cy="820.4" r="3.5" fill="#2ca02c"/>
<circle cx="952.8" cy="849.8" r="3.5" fill="#2ca02c"/>
<circle cx="978.2" cy="875.0" r="3.5" fill="#2ca02c"/>
<circle cx="1003.7" cy="849.8" r="3.5" fill="#2ca02c"/>
<circle cx="1029.1" cy="824.6" r="3.5" fill="#2ca02c"/>
<circle cx="1054.6" cy="849.8" r="3.5" fill="#2ca02c"/>
<circle cx="1080.0" cy="845.6" r="3.5" fill="#2ca02c"/>
<circle cx="1105.5" cy="837.2" r="3.5" fill="#2ca02c"/>
<circle cx="1130.9" cy="807.8" r="3.5" fill="#2ca02c"/>
<circle cx="1156.4" cy="841.4" r="3.5" fill="#2ca02c"/>
<circle cx="1181.8" cy="833.0" r="3.5" fill="#2ca02c"/>
<circle cx="1207.3" cy="854.0" r="3.5" fill="#2ca02c"/>
<circle cx="1232.7" cy="837.2" r="3.5" fill="#2ca02c"/>
<circle cx="1258.2" cy="866.6" r="3.5" fill="#2ca02c"/>
<circle cx="1283.6" cy="828.8" r="3.5" fill="#2ca02c"/>
<circle cx="1309.1" cy="841.4" r="3.5" fill="#2ca02c"/>
<circle cx="1334.5" cy="812.0" r="3.5" fill="#2ca02c"/>
<circle cx="1360.0" cy="837.2" r="3.5" fill="#2ca02c"/>
<line x1="1135" y1="70" x2="1161" y2="70" stroke="#333" stroke-width="2"/>
<text x="1169" y="74" font-size="11" font-family="Arial, sans-serif">total_loss</text>
<line x1="1135" y1="86" x2="1161" y2="86" stroke="#333" stroke-width="2" stroke-dasharray="8,4"/>
<text x="1169" y="90" font-size="11" font-family="Arial, sans-serif">policy_loss</text>
<line x1="1135" y1="102" x2="1161" y2="102" stroke="#333" stroke-width="2" stroke-dasharray="3,4"/>
<text x="1169" y="106" font-size="11" font-family="Arial, sans-serif">vf_loss</text>
</svg>