<svg xmlns="http://www.w3.org/2000/svg" width="1400" height="1120" viewBox="0 0 1400 1120">
<rect x="0" y="0" width="1400" height="1120" fill="white" />
<text x="90" y="28" font-size="22" font-family="Arial, sans-serif" font-weight="bold">Training Loss Curve</text>
<text x="90" y="46" font-size="12" font-family="Arial, sans-serif" fill="#555">/home/hice1/wsun377/Desktop/cs8803drl/ray_results/PPO_lstm_warm225_20260409_115548</text>
<rect x="90" y="50" width="1270" height="210" fill="none" stroke="#bbb" stroke-width="1"/>
<text x="90" y="42" font-size="15" font-family="Arial, sans-serif" font-weight="bold">Losses</text>
<text x="18" y="155.0" font-size="12" font-family="Arial, sans-serif" transform="rotate(-90 18 155.0)">Loss</text>
<text x="18" y="62" font-size="11" font-family="Arial, sans-serif" fill="#666">0.034</text>
<text x="18" y="258" font-size="11" font-family="Arial, sans-serif" fill="#666">-0.044</text>
<line x1="90" y1="102.5" x2="1360" y2="102.5" stroke="#eee" stroke-width="1"/>
<line x1="90" y1="155.0" x2="1360" y2="155.0" stroke="#eee" stroke-width="1"/>
<line x1="90" y1="207.5" x2="1360" y2="207.5" stroke="#eee" stroke-width="1"/>
<rect x="90" y="290" width="1270" height="210" fill="none" stroke="#bbb" stroke-width="1"/>
<text x="90" y="282" font-size="15" font-family="Arial, sans-serif" font-weight="bold">Entropy / KL</text>
<text x="18" y="395.0" font-size="12" font-family="Arial, sans-serif" transform="rotate(-90 18 395.0)">Aux</text>
<text x="18" y="302" font-size="11" font-family="Arial, sans-serif" fill="#666">3.575</text>
<text x="18" y="498" font-size="11" font-family="Arial, sans-serif" fill="#666">-0.322</text>
<line x1="90" y1="342.5" x2="1360" y2="342.5" stroke="#eee" stroke-width="1"/>
<line x1="90" y1="395.0" x2="1360" y2="395.0" stroke="#eee" stroke-width="1"/>
<line x1="90" y1="447.5" x2="1360" y2="447.5" stroke="#eee" stroke-width="1"/>
<rect x="90" y="530" width="1270" height="210" fill="none" stroke="#bbb" stroke-width="1"/>
<text x="90" y="522" font-size="15" font-family="Arial, sans-serif" font-weight="bold">Episode Reward Mean</text>
<text x="18" y="635.0" font-size="12" font-family="Arial, sans-serif" transform="rotate(-90 18 635.0)">Reward</text>
<text x="18" y="542" font-size="11" font-family="Arial, sans-serif" fill="#666">0.050</text>
<text x="18" y="738" font-size="11" font-family="Arial, sans-serif" fill="#666">-0.318</text>
<line x1="90" y1="582.5" x2="1360" y2="582.5" stroke="#eee" stroke-width="1"/>
<line x1="90" y1="635.0" x2="1360" y2="635.0" stroke="#eee" stroke-width="1"/>
<line x1="90" y1="687.5" x2="1360" y2="687.5" stroke="#eee" stroke-width="1"/>
<rect x="90" y="770" width="1270" height="210" fill="none" stroke="#bbb" stroke-width="1"/>
<text x="90" y="762" font-size="15" font-family="Arial, sans-serif" font-weight="bold">Baseline Win Rate (checkpoint eval)</text>
<text x="18" y="875.0" font-size="12" font-family="Arial, sans-serif" transform="rotate(-90 18 875.0)">Win Rate</text>
<text x="18" y="782" font-size="11" font-family="Arial, sans-serif" fill="#666">1.000</text>
<text x="18" y="978" font-size="11" font-family="Arial, sans-serif" fill="#666">0.000</text>
<line x1="90" y1="822.5" x2="1360" y2="822.5" stroke="#eee" stroke-width="1"/>
<line x1="90" y1="875.0" x2="1360" y2="875.0" stroke="#eee" stroke-width="1"/>
<line x1="90" y1="927.5" x2="1360" y2="927.5" stroke="#eee" stroke-width="1"/>
<line x1="90.0" y1="50" x2="90.0" y2="980" stroke="#f3f3f3" stroke-width="1"/>
<text x="90.0" y="998" text-anchor="middle" font-size="11" font-family="Arial, sans-serif" fill="#666">1</text>
<line x1="407.5" y1="50" x2="407.5" y2="980" stroke="#f3f3f3" stroke-width="1"/>
<text x="407.5" y="998" text-anchor="middle" font-size="11" font-family="Arial, sans-serif" fill="#666">32</text>
<line x1="725.0" y1="50" x2="725.0" y2="980" stroke="#f3f3f3" stroke-width="1"/>
<text x="725.0" y="998" text-anchor="middle" font-size="11" font-family="Arial, sans-serif" fill="#666">63</text>
<line x1="1042.5" y1="50" x2="1042.5" y2="980" stroke="#f3f3f3" stroke-width="1"/>
<text x="1042.5" y="998" text-anchor="middle" font-size="11" font-family="Arial, sans-serif" fill="#666">94</text>
<line x1="1360.0" y1="50" x2="1360.0" y2="980" stroke="#f3f3f3" stroke-width="1"/>
<text x="1360.0" y="998" text-anchor="middle" font-size="11" font-family="Arial, sans-serif" fill="#666">125</text>
<text x="725.0" y="1110" text-anchor="middle" font-size="12" font-family="Arial, sans-serif">Training Iteration</text>
<line x1="100" y1="68" x2="122" y2="68" stroke="#1f77b4" stroke-width="3"/>
<text x="128" y="72" font-size="11" font-family="Arial, sans-serif">default_policy</text>
<polyline fill="none" stroke="#1f77b4" stroke-width="2" points="90.0,147.9 100.2,167.3 110.5,153.8 120.7,137.3 131.0,190.5 141.2,133.8 151.5,138.0 161.7,97.7 171.9,143.4 182.2,86.1 192.4,152.6 202.7,226.1 212.9,193.0 223.1,109.7 233.4,117.8 243.6,146.5 253.9,109.3 264.1,125.9 274.4,158.5 284.6,126.5 294.8,138.8 305.1,138.5 315.3,115.2 325.6,164.7 335.8,151.3 346.0,117.7 356.3,133.0 366.5,129.4 376.8,151.5 387.0,138.2 397.3,112.4 407.5,175.8 417.7,148.1 428.0,144.9 438.2,93.1 448.5,146.3 458.7,128.1 469.0,189.8 479.2,159.7 489.4,141.9 499.7,125.7 509.9,156.2 520.2,142.9 530.4,193.1 540.6,139.2 550.9,127.5 561.1,150.5 571.4,67.5 581.6,121.4 591.9,144.2 602.1,125.5 612.3,159.4 622.6,192.3 632.8,200.6 643.1,128.0 653.3,149.3 663.5,148.1 673.8,149.5 684.0,140.8 694.3,132.7 704.5,106.9 714.8,200.8 725.0,146.4 735.2,172.6 745.5,139.7 755.7,156.0 766.0,145.7 776.2,154.0 786.5,195.1 796.7,168.2 806.9,154.7 817.2,137.9 827.4,146.0 837.7,115.8 847.9,111.9 858.1,104.8 868.4,160.8 878.6,151.7 888.9,117.0 899.1,151.7 909.4,199.4 919.6,106.3 929.8,152.7 940.1,124.2 950.3,176.8 960.6,110.2 970.8,135.4 981.0,152.9 991.3,136.5 1001.5,113.7 1011.8,181.1 1022.0,124.4 1032.3,117.4 1042.5,119.6 1052.7,139.3 1063.0,127.4 1073.2,134.7 1083.5,143.0 1093.7,113.7 1104.0,139.8 1114.2,140.0 1124.4,126.1 1134.7,159.4 1144.9,147.6 1155.2,142.5 1165.4,149.5 1175.6,139.4 1185.9,204.3 1196.1,133.4 1206.4,149.2 1216.6,149.1 1226.9,96.7 1237.1,127.8 1247.3,207.4 1257.6,100.4 1267.8,130.3 1278.1,119.0 1288.3,144.4 1298.5,173.1 1308.8,164.5 1319.0,128.6 1329.3,152.9 1339.5,194.2 1349.8,110.7 1360.0,169.4"/>
<polyline fill="none" stroke="#1f77b4" stroke-width="2" stroke-dasharray="8,4" points="90.0,172.4 100.2,182.2 110.5,161.6 120.7,171.3 131.0,203.4 141.2,151.7 151.5,156.2 161.7,103.8 171.9,184.1 182.2,102.7 192.4,161.8 202.7,242.5 212.9,204.6 223.1,117.7 233.4,150.4 243.6,154.5 253.9,149.3 264.1,142.5 274.4,178.5 284.6,146.9 294.8,151.6 305.1,155.9 315.3,158.4 325.6,193.5 335.8,163.9 346.0,137.7 356.3,161.8 366.5,152.2 376.8,156.3 387.0,162.9 397.3,128.2 407.5,184.4 417.7,160.0 428.0,159.8 438.2,111.8 448.5,156.9 458.7,154.3 469.0,217.9 479.2,163.4 489.4,161.7 499.7,145.2 509.9,188.2 520.2,167.0 530.4,204.4 540.6,153.6 550.9,155.2 561.1,169.4 571.4,68.5 581.6,149.6 591.9,169.5 602.1,159.5 612.3,166.9 622.6,203.7 632.8,214.2 643.1,159.3 653.3,165.1 663.5,165.4 673.8,163.4 684.0,159.9 694.3,155.0 704.5,116.6 714.8,210.5 725.0,155.9 735.2,182.0 745.5,157.7 755.7,171.7 766.0,158.7 776.2,189.6 786.5,225.1 796.7,193.1 806.9,165.8 817.2,159.2 827.4,167.8 837.7,157.0 847.9,144.2 858.1,135.4 868.4,172.8 878.6,156.2 888.9,165.9 899.1,162.9 909.4,210.4 919.6,126.5 929.8,167.7 940.1,151.3 950.3,199.7 960.6,128.3 970.8,166.3 981.0,167.4 991.3,169.5 1001.5,152.2 1011.8,204.0 1022.0,154.5 1032.3,145.4 1042.5,150.5 1052.7,156.0 1063.0,156.3 1073.2,152.4 1083.5,159.0 1093.7,131.3 1104.0,162.0 1114.2,155.3 1124.4,152.5 1134.7,189.5 1144.9,151.8 1155.2,160.0 1165.4,167.4 1175.6,165.2 1185.9,210.2 1196.1,149.8 1206.4,167.7 1216.6,165.3 1226.9,122.7 1237.1,153.3 1247.3,221.3 1257.6,138.4 1267.8,153.4 1278.1,140.0 1288.3,156.1 1298.5,189.9 1308.8,164.8 1319.0,152.4 1329.3,171.2 1339.5,211.9 1349.8,145.2 1360.0,193.4"/>
<polyline fill="none" stroke="#1f77b4" stroke-width="2" stroke-dasharray="3,4" points="90.0,120.2 100.2,129.0 110.5,134.6 120.7,108.6 131.0,129.2 141.2,124.2 151.5,123.8 161.7,135.8 171.9,101.1 182.2,125.1 192.4,132.6 202.7,125.3 212.9,130.1 223.1,133.7 233.4,109.2 243.6,133.6 253.9,101.8 264.1,125.1 274.4,121.7 284.6,121.3 294.8,128.9 305.1,124.3 315.3,98.5 325.6,112.9 335.8,129.2 346.0,121.7 356.3,112.9 366.5,119.0 376.8,136.9 387.0,117.0 397.3,125.8 407.5,133.2 417.7,129.8 428.0,126.7 438.2,123.0 448.5,131.2 458.7,115.5 469.0,113.6 479.2,138.1 489.4,121.9 499.7,122.2 509.9,109.7 520.2,117.6 530.4,130.4 540.6,127.2 550.9,114.1 561.1,122.8 571.4,140.7 581.6,113.5 591.9,116.4 602.1,107.7 612.3,134.1 622.6,130.2 632.8,128.1 643.1,110.4 653.3,125.9 663.5,124.4 673.8,127.8 684.0,122.6 694.3,119.3 704.5,131.9 714.8,132.0 725.0,132.2 735.2,132.3 745.5,123.8 755.7,126.0 766.0,128.7 776.2,106.1 786.5,111.7 796.7,116.9 806.9,130.6 817.2,120.3 827.4,119.9 837.7,100.5 847.9,109.4 858.1,111.0 868.4,129.6 878.6,137.2 888.9,92.7 899.1,130.5 909.4,130.7 919.6,121.5 929.8,126.7 940.1,114.6 950.3,118.8 960.6,123.6 970.8,110.8 981.0,127.3 991.3,108.7 1001.5,103.2 1011.8,118.8 1022.0,111.6 1032.3,113.7 1042.5,110.7 1052.7,124.9 1063.0,112.9 1073.2,124.0 1083.5,125.7 1093.7,124.0 1104.0,119.5 1114.2,126.4 1124.4,115.2 1134.7,111.6 1144.9,137.5 1155.2,124.2 1165.4,123.8 1175.6,115.9 1185.9,135.7 1196.1,125.2 1206.4,123.1 1216.6,125.5 1226.9,115.7 1237.1,116.2 1247.3,127.8 1257.6,103.7 1267.8,118.6 1278.1,120.6 1288.3,130.0 1298.5,124.9 1308.8,141.4 1319.0,117.8 1329.3,123.4 1339.5,124.0 1349.8,107.2 1360.0,117.7"/>
<polyline fill="none" stroke="#1f77b4" stroke-width="2" points="90.0,307.5 100.2,308.1 110.5,308.4 120.7,308.0 131.0,308.3 141.2,308.8 151.5,309.0 161.7,309.3 171.9,309.4 182.2,310.3 192.4,311.5 202.7,312.9 212.9,312.8 223.1,313.3 233.4,314.3 243.6,314.7 253.9,315.2 264.1,315.4 274.4,315.4 284.6,315.4 294.8,316.7 305.1,317.5 315.3,317.0 325.6,315.8 335.8,316.6 346.0,317.1 356.3,317.6 366.5,316.6 376.8,317.2 387.0,316.8 397.3,318.1 407.5,318.1 417.7,317.9 428.0,319.0 438.2,319.3 448.5,321.5 458.7,321.9 469.0,323.4 479.2,322.1 489.4,323.9 499.7,323.2 509.9,324.9 520.2,323.6 530.4,321.7 540.6,320.4 550.9,321.6 561.1,320.3 571.4,320.8 581.6,321.8 591.9,322.7 602.1,322.1 612.3,323.2 622.6,324.8 632.8,322.9 643.1,324.5 653.3,323.7 663.5,322.2 673.8,323.4 684.0,323.7 694.3,321.1 704.5,320.4 714.8,319.3 725.0,320.8 735.2,320.8 745.5,320.0 755.7,318.8 766.0,319.3 776.2,318.7 786.5,318.0 796.7,317.9 806.9,319.3 817.2,319.5 827.4,320.2 837.7,321.0 847.9,321.0 858.1,320.7 868.4,320.0 878.6,320.1 888.9,321.6 899.1,321.7 909.4,321.6 919.6,323.0 929.8,322.8 940.1,322.7 950.3,324.7 960.6,326.1 970.8,327.1 981.0,326.7 991.3,326.9 1001.5,328.4 1011.8,328.2 1022.0,328.5 1032.3,327.2 1042.5,326.0 1052.7,327.5 1063.0,327.3 1073.2,326.0 1083.5,326.3 1093.7,326.7 1104.0,328.6 1114.2,325.6 1124.4,326.5 1134.7,325.4 1144.9,324.4 1155.2,325.2 1165.4,325.8 1175.6,327.9 1185.9,326.1 1196.1,326.3 1206.4,328.5 1216.6,328.1 1226.9,328.6 1237.1,327.0 1247.3,328.2 1257.6,326.6 1267.8,326.5 1278.1,328.2 1288.3,327.6 1298.5,329.2 1308.8,330.1 1319.0,329.6 1329.3,330.2 1339.5,330.2 1349.8,329.9 1360.0,330.6"/>
<polyline fill="none" stroke="#1f77b4" stroke-width="2" stroke-dasharray="8,4" points="90.0,482.4 100.2,482.4 110.5,482.5 120.7,482.3 131.0,482.5 141.2,482.4 151.5,482.5 161.7,482.4 171.9,482.2 182.2,482.4 192.4,482.4 202.7,482.4 212.9,482.4 223.1,482.4 233.4,482.3 243.6,482.4 253.9,482.3 264.1,482.3 274.4,482.4 284.6,482.3 294.8,482.3 305.1,482.3 315.3,482.3 325.6,482.2 335.8,482.4 346.0,482.3 356.3,482.3 366.5,482.3 376.8,482.4 387.0,482.3 397.3,482.4 407.5,482.3 417.7,482.3 428.0,482.3 438.2,482.4 448.5,482.3 458.7,482.3 469.0,482.3 479.2,482.3 489.4,482.3 499.7,482.4 509.9,482.2 520.2,482.3 530.4,482.3 540.6,482.4 550.9,482.3 561.1,482.3 571.4,482.4 581.6,482.3 591.9,482.4 602.1,482.2 612.3,482.3 622.6,482.4 632.8,482.5 643.1,482.3 653.3,482.2 663.5,482.3 673.8,482.3 684.0,482.3 694.3,482.2 704.5,482.3 714.8,482.4 725.0,482.3 735.2,482.4 745.5,482.2 755.7,482.2 766.0,482.3 776.2,482.3 786.5,482.4 796.7,482.3 806.9,482.2 817.2,482.3 827.4,482.3 837.7,482.2 847.9,482.3 858.1,482.3 868.4,482.3 878.6,482.4 888.9,482.2 899.1,482.3 909.4,482.3 919.6,482.2 929.8,482.3 940.1,482.4 950.3,482.2 960.6,482.3 970.8,482.3 981.0,482.3 991.3,482.3 1001.5,482.3 1011.8,482.4 1022.0,482.2 1032.3,482.1 1042.5,482.2 1052.7,482.3 1063.0,482.2 1073.2,482.3 1083.5,482.3 1093.7,482.2 1104.0,482.2 1114.2,482.2 1124.4,482.3 1134.7,482.2 1144.9,482.4 1155.2,482.2 1165.4,482.3 1175.6,482.2 1185.9,482.4 1196.1,482.2 1206.4,482.3 1216.6,482.1 1226.9,482.2 1237.1,482.1 1247.3,482.3 1257.6,482.2 1267.8,482.2 1278.1,482.3 1288.3,482.2 1298.5,482.3 1308.8,482.3 1319.0,482.3 1329.3,482.3 1339.5,482.3 1349.8,482.3 1360.0,482.3"/>
<polyline fill="none" stroke="#111" stroke-width="2.5" points="90.0,591.4 100.2,604.8 110.5,588.3 120.7,647.7 131.0,655.4 141.2,683.0 151.5,713.1 161.7,637.1 171.9,658.1 182.2,633.6 192.4,620.4 202.7,617.0 212.9,590.6 223.1,593.5 233.4,651.7 243.6,635.1 253.9,698.4 264.1,690.3 274.4,681.7 284.6,719.1 294.8,702.8 305.1,721.2 315.3,700.0 325.6,701.9 335.8,694.1 346.0,659.8 356.3,629.9 366.5,649.0 376.8,653.5 387.0,649.5 397.3,633.4 407.5,629.2 417.7,621.6 428.0,649.6 438.2,642.5 448.5,621.6 458.7,647.9 469.0,722.5 479.2,690.3 489.4,647.3 499.7,581.6 509.9,633.6 520.2,638.3 530.4,670.2 540.6,666.3 550.9,633.2 561.1,616.8 571.4,576.8 581.6,632.0 591.9,592.9 602.1,651.7 612.3,628.0 622.6,634.0 632.8,637.7 643.1,693.6 653.3,688.4 663.5,670.6 673.8,615.0 684.0,575.6 694.3,645.2 704.5,663.6 714.8,672.9 725.0,634.3 735.2,593.0 745.5,623.6 755.7,585.8 766.0,572.2 776.2,598.0 786.5,674.4 796.7,693.2 806.9,648.6 817.2,685.1 827.4,631.3 837.7,668.7 847.9,634.1 858.1,680.9 868.4,589.2 878.6,588.4 888.9,571.6 899.1,595.7 909.4,624.0 919.6,592.7 929.8,597.4 940.1,640.5 950.3,660.4 960.6,629.3 970.8,627.1 981.0,573.7 991.3,573.3 1001.5,609.8 1011.8,615.1 1022.0,681.0 1032.3,688.8 1042.5,705.6 1052.7,706.6 1063.0,695.2 1073.2,716.8 1083.5,671.1 1093.7,610.8 1104.0,623.1 1114.2,623.7 1124.4,659.7 1134.7,717.9 1144.9,689.1 1155.2,646.6 1165.4,611.1 1175.6,557.9 1185.9,561.0 1196.1,596.8 1206.4,598.7 1216.6,582.7 1226.9,602.7 1237.1,631.0 1247.3,646.5 1257.6,633.9 1267.8,651.1 1278.1,611.8 1288.3,623.3 1298.5,610.5 1308.8,562.2 1319.0,610.3 1329.3,605.8 1339.5,547.5 1349.8,556.0 1360.0,608.4"/>
<polyline fill="none" stroke="#2ca02c" stroke-width="2.5" points="131.0,975.8 182.2,980.0 233.4,975.8 284.6,980.0 335.8,975.8 387.0,971.6 438.2,975.8 489.4,975.8 540.6,971.6 591.9,967.4 643.1,975.8 694.3,980.0 745.5,975.8 796.7,971.6 847.9,980.0 899.1,980.0 950.3,980.0 1001.5,971.6 1052.7,980.0 1104.0,975.8 1155.2,975.8 1206.4,975.8 1257.6,980.0 1308.8,971.6 1360.0,975.8"/>
<circle cx="131.0" cy="975.8" r="3.5" fill="#2ca02c"/>
<circle cx="182.2" cy="980.0" r="3.5" fill="#2ca02c"/>
<circle cx="233.4" cy="975.8" r="3.5" fill="#2ca02c"/>
<circle cx="284.6" cy="980.0" r="3.5" fill="#2ca02c"/>
<circle cx="335.8" cy="975.8" r="3.5" fill="#2ca02c"/>
<circle cx="387.0" cy="971.6" r="3.5" fill="#2ca02c"/>
<circle cx="438.2" cy="975.8" r="3.5" fill="#2ca02c"/>
<circle cx="489.4" cy="975.8" r="3.5" fill="#2ca02c"/>
<circle cx="540.6" cy="971.6" r="3.5" fill="#2ca02c"/>
<circle cx="591.9" cy="967.4" r="3.5" fill="#2ca02c"/>
<circle cx="643.1" cy="975.8" r="3.5" fill="#2ca02c"/>
<circle cx="694.3" cy="980.0" r="3.5" fill="#2ca02c"/>
<circle cx="745.5" cy="975.8" r="3.5" fill="#2ca02c"/>
<circle cx="796.7" cy="971.6" r="3.5" fill="#2ca02c"/>
<circle cx="847.9" cy="980.0" r="3.5" fill="#2ca02c"/>
<circle cx="899.1" cy="980.0" r="3.5" fill="#2ca02c"/>
<circle cx="950.3" cy="980.0" r="3.5" fill="#2ca02c"/>
<circle cx="1001.5" cy="971.6" r="3.5" fill="#2ca02c"/>
<circle cx="1052.7" cy="980.0" r="3.5" fill="#2ca02c"/>
<circle cx="1104.0" cy="975.8" r="3.5" fill="#2ca02c"/>
<circle cx="1155.2" cy="975.8" r="3.5" fill="#2ca02c"/>
<circle cx="1206.4" cy="975.8" r="3.5" fill="#2ca02c"/>
<circle cx="1257.6" cy="980.0" r="3.5" fill="#2ca02c"/>
<circle cx="1308.8" cy="971.6" r="3.5" fill="#2ca02c"/>
<circle cx="1360.0" cy="975.8" r="3.5" fill="#2ca02c"/>
<line x1="1135" y1="70" x2="1161" y2="70" stroke="#333" stroke-width="2"/>
<text x="1169" y="74" font-size="11" font-family="Arial, sans-serif">total_loss</text>
<line x1="1135" y1="86" x2="1161" y2="86" stroke="#333" stroke-width="2" stroke-dasharray="8,4"/>
<text x="1169" y="90" font-size="11" font-family="Arial, sans-serif">policy_loss</text>
<line x1="1135" y1="102" x2="1161" y2="102" stroke="#333" stroke-width="2" stroke-dasharray="3,4"/>
<text x="1169" y="106" font-size="11" font-family="Arial, sans-serif">vf_loss</text>
</svg>