<svg xmlns="http://www.w3.org/2000/svg" width="1400" height="1120" viewBox="0 0 1400 1120">
<rect x="0" y="0" width="1400" height="1120" fill="white" />
<text x="90" y="28" font-size="22" font-family="Arial, sans-serif" font-weight="bold">Training Loss Curve</text>
<text x="90" y="46" font-size="12" font-family="Arial, sans-serif" fill="#555">/home/hice1/wsun377/Desktop/cs8803drl/ray_results/PPO_attack_expert_warm225_20260409_141445</text>
<rect x="90" y="50" width="1270" height="210" fill="none" stroke="#bbb" stroke-width="1"/>
<text x="90" y="42" font-size="15" font-family="Arial, sans-serif" font-weight="bold">Losses</text>
<text x="18" y="155.0" font-size="12" font-family="Arial, sans-serif" transform="rotate(-90 18 155.0)">Loss</text>
<text x="18" y="62" font-size="11" font-family="Arial, sans-serif" fill="#666">0.031</text>
<text x="18" y="258" font-size="11" font-family="Arial, sans-serif" fill="#666">-0.010</text>
<line x1="90" y1="102.5" x2="1360" y2="102.5" stroke="#eee" stroke-width="1"/>
<line x1="90" y1="155.0" x2="1360" y2="155.0" stroke="#eee" stroke-width="1"/>
<line x1="90" y1="207.5" x2="1360" y2="207.5" stroke="#eee" stroke-width="1"/>
<rect x="90" y="290" width="1270" height="210" fill="none" stroke="#bbb" stroke-width="1"/>
<text x="90" y="282" font-size="15" font-family="Arial, sans-serif" font-weight="bold">Entropy / KL</text>
<text x="18" y="395.0" font-size="12" font-family="Arial, sans-serif" transform="rotate(-90 18 395.0)">Aux</text>
<text x="18" y="302" font-size="11" font-family="Arial, sans-serif" fill="#666">3.625</text>
<text x="18" y="498" font-size="11" font-family="Arial, sans-serif" fill="#666">-0.329</text>
<line x1="90" y1="342.5" x2="1360" y2="342.5" stroke="#eee" stroke-width="1"/>
<line x1="90" y1="395.0" x2="1360" y2="395.0" stroke="#eee" stroke-width="1"/>
<line x1="90" y1="447.5" x2="1360" y2="447.5" stroke="#eee" stroke-width="1"/>
<rect x="90" y="530" width="1270" height="210" fill="none" stroke="#bbb" stroke-width="1"/>
<text x="90" y="522" font-size="15" font-family="Arial, sans-serif" font-weight="bold">Episode Reward Mean</text>
<text x="18" y="635.0" font-size="12" font-family="Arial, sans-serif" transform="rotate(-90 18 635.0)">Reward</text>
<text x="18" y="542" font-size="11" font-family="Arial, sans-serif" fill="#666">-1.123</text>
<text x="18" y="738" font-size="11" font-family="Arial, sans-serif" fill="#666">-1.591</text>
<line x1="90" y1="582.5" x2="1360" y2="582.5" stroke="#eee" stroke-width="1"/>
<line x1="90" y1="635.0" x2="1360" y2="635.0" stroke="#eee" stroke-width="1"/>
<line x1="90" y1="687.5" x2="1360" y2="687.5" stroke="#eee" stroke-width="1"/>
<rect x="90" y="770" width="1270" height="210" fill="none" stroke="#bbb" stroke-width="1"/>
<text x="90" y="762" font-size="15" font-family="Arial, sans-serif" font-weight="bold">Baseline Win Rate (checkpoint eval)</text>
<text x="18" y="875.0" font-size="12" font-family="Arial, sans-serif" transform="rotate(-90 18 875.0)">Win Rate</text>
<text x="18" y="782" font-size="11" font-family="Arial, sans-serif" fill="#666">1.000</text>
<text x="18" y="978" font-size="11" font-family="Arial, sans-serif" fill="#666">0.000</text>
<line x1="90" y1="822.5" x2="1360" y2="822.5" stroke="#eee" stroke-width="1"/>
<line x1="90" y1="875.0" x2="1360" y2="875.0" stroke="#eee" stroke-width="1"/>
<line x1="90" y1="927.5" x2="1360" y2="927.5" stroke="#eee" stroke-width="1"/>
<line x1="90.0" y1="50" x2="90.0" y2="980" stroke="#f3f3f3" stroke-width="1"/>
<text x="90.0" y="998" text-anchor="middle" font-size="11" font-family="Arial, sans-serif" fill="#666">1</text>
<line x1="407.5" y1="50" x2="407.5" y2="980" stroke="#f3f3f3" stroke-width="1"/>
<text x="407.5" y="998" text-anchor="middle" font-size="11" font-family="Arial, sans-serif" fill="#666">16</text>
<line x1="725.0" y1="50" x2="725.0" y2="980" stroke="#f3f3f3" stroke-width="1"/>
<text x="725.0" y="998" text-anchor="middle" font-size="11" font-family="Arial, sans-serif" fill="#666">32</text>
<line x1="1042.5" y1="50" x2="1042.5" y2="980" stroke="#f3f3f3" stroke-width="1"/>
<text x="1042.5" y="998" text-anchor="middle" font-size="11" font-family="Arial, sans-serif" fill="#666">48</text>
<line x1="1360.0" y1="50" x2="1360.0" y2="980" stroke="#f3f3f3" stroke-width="1"/>
<text x="1360.0" y="998" text-anchor="middle" font-size="11" font-family="Arial, sans-serif" fill="#666">63</text>
<text x="725.0" y="1110" text-anchor="middle" font-size="12" font-family="Arial, sans-serif">Training Iteration</text>
<line x1="100" y1="68" x2="122" y2="68" stroke="#1f77b4" stroke-width="3"/>
<text x="128" y="72" font-size="11" font-family="Arial, sans-serif">default_policy</text>
<polyline fill="none" stroke="#1f77b4" stroke-width="2" points="90.0,144.0 110.5,125.4 131.0,110.7 151.5,90.6 171.9,153.4 192.4,203.2 212.9,177.9 233.4,176.2 253.9,158.6 274.4,126.8 294.8,175.7 315.3,136.5 335.8,179.9 356.3,169.7 376.8,183.5 397.3,140.9 417.7,157.0 438.2,167.6 458.7,187.2 479.2,139.2 499.7,183.0 520.2,172.5 540.6,180.7 561.1,165.3 581.6,166.7 602.1,187.7 622.6,164.1 643.1,173.6 663.5,135.4 684.0,172.9 704.5,116.6 725.0,186.6 745.5,156.4 766.0,164.9 786.5,179.2 806.9,182.5 827.4,155.1 847.9,220.3 868.4,189.0 888.9,188.4 909.4,170.0 929.8,159.3 950.3,174.2 970.8,177.9 991.3,157.6 1011.8,182.0 1032.3,198.1 1052.7,204.5 1073.2,188.5 1093.7,187.0 1114.2,191.6 1134.7,171.7 1155.2,164.6 1175.6,109.3 1196.1,179.5 1216.6,191.1 1237.1,178.8 1257.6,202.4 1278.1,166.1 1298.5,154.0 1319.0,185.4 1339.5,166.7 1360.0,192.2"/>
<polyline fill="none" stroke="#1f77b4" stroke-width="2" stroke-dasharray="8,4" points="90.0,211.3 110.5,222.3 131.0,219.7 151.5,232.3 171.9,229.1 192.4,229.4 212.9,223.5 233.4,238.7 253.9,228.4 274.4,229.0 294.8,236.5 315.3,232.1 335.8,234.0 356.3,231.5 376.8,235.2 397.3,238.7 417.7,229.8 438.2,235.5 458.7,240.9 479.2,227.2 499.7,233.2 520.2,232.8 540.6,234.3 561.1,232.5 581.6,233.5 602.1,231.8 622.6,229.3 643.1,227.8 663.5,227.3 684.0,232.6 704.5,232.9 725.0,229.7 745.5,236.8 766.0,225.4 786.5,233.4 806.9,229.6 827.4,226.3 847.9,242.5 868.4,229.1 888.9,227.5 909.4,226.3 929.8,229.0 950.3,233.0 970.8,237.9 991.3,228.8 1011.8,233.1 1032.3,235.1 1052.7,229.0 1073.2,237.2 1093.7,233.2 1114.2,241.7 1134.7,232.0 1155.2,234.3 1175.6,236.8 1196.1,227.0 1216.6,236.1 1237.1,232.3 1257.6,230.9 1278.1,229.7 1298.5,224.6 1319.0,231.8 1339.5,233.1 1360.0,232.2"/>
<polyline fill="none" stroke="#1f77b4" stroke-width="2" stroke-dasharray="3,4" points="90.0,141.9 110.5,112.4 131.0,100.5 151.5,67.5 171.9,133.4 192.4,182.9 212.9,163.4 233.4,146.6 253.9,139.1 274.4,106.8 294.8,148.2 315.3,113.4 335.8,154.9 356.3,147.2 376.8,157.3 397.3,111.2 417.7,136.3 438.2,141.0 458.7,155.3 479.2,121.0 499.7,158.7 520.2,148.7 540.6,155.4 561.1,141.7 581.6,142.1 602.1,164.8 622.6,143.7 643.1,154.7 663.5,117.0 684.0,149.2 704.5,92.6 725.0,165.9 745.5,128.5 766.0,148.4 786.5,154.7 806.9,161.8 827.4,137.7 847.9,186.8 868.4,168.9 888.9,169.8 909.4,152.7 929.8,139.3 950.3,150.1 970.8,148.9 991.3,137.7 1011.8,157.7 1032.3,171.9 1052.7,184.4 1073.2,160.2 1093.7,162.7 1114.2,158.8 1134.7,148.6 1155.2,139.2 1175.6,81.5 1196.1,161.4 1216.6,163.8 1237.1,155.4 1257.6,180.4 1278.1,145.3 1298.5,138.3 1319.0,162.4 1339.5,142.5 1360.0,168.8"/>
<polyline fill="none" stroke="#1f77b4" stroke-width="2" points="90.0,307.5 110.5,307.6 131.0,307.8 151.5,308.1 171.9,308.8 192.4,310.1 212.9,310.1 233.4,311.5 253.9,310.8 274.4,312.2 294.8,310.4 315.3,311.6 335.8,313.2 356.3,313.4 376.8,314.5 397.3,315.5 417.7,313.2 438.2,315.2 458.7,316.2 479.2,317.2 499.7,316.8 520.2,317.6 540.6,318.4 561.1,319.8 581.6,319.4 602.1,319.3 622.6,321.1 643.1,320.1 663.5,322.1 684.0,322.2 704.5,322.2 725.0,323.7 745.5,322.4 766.0,322.2 786.5,323.2 806.9,321.0 827.4,320.9 847.9,320.7 868.4,318.7 888.9,321.3 909.4,320.8 929.8,322.9 950.3,323.6 970.8,324.6 991.3,322.8 1011.8,323.9 1032.3,325.6 1052.7,327.2 1073.2,326.2 1093.7,327.7 1114.2,329.7 1134.7,328.3 1155.2,330.4 1175.6,327.0 1196.1,324.7 1216.6,329.2 1237.1,326.0 1257.6,323.6 1278.1,322.4 1298.5,323.1 1319.0,320.9 1339.5,322.0 1360.0,322.9"/>
<polyline fill="none" stroke="#1f77b4" stroke-width="2" stroke-dasharray="8,4" points="90.0,482.5 110.5,482.5 131.0,482.4 151.5,482.4 171.9,482.3 192.4,482.2 212.9,482.3 233.4,482.0 253.9,482.2 274.4,482.2 294.8,482.0 315.3,482.2 335.8,482.1 356.3,482.2 376.8,482.1 397.3,482.1 417.7,482.1 438.2,482.1 458.7,482.1 479.2,482.0 499.7,482.3 520.2,482.2 540.6,482.1 561.1,482.1 581.6,482.2 602.1,482.0 622.6,482.1 643.1,482.2 663.5,482.1 684.0,481.9 704.5,482.0 725.0,482.1 745.5,482.0 766.0,482.2 786.5,482.1 806.9,482.1 827.4,482.1 847.9,482.0 868.4,482.2 888.9,482.1 909.4,482.3 929.8,482.3 950.3,482.2 970.8,482.0 991.3,482.1 1011.8,482.2 1032.3,482.2 1052.7,482.0 1073.2,482.0 1093.7,482.2 1114.2,481.9 1134.7,482.2 1155.2,482.1 1175.6,482.1 1196.1,482.1 1216.6,482.0 1237.1,482.0 1257.6,482.2 1278.1,482.1 1298.5,482.2 1319.0,482.2 1339.5,482.2 1360.0,482.2"/>
<polyline fill="none" stroke="#111" stroke-width="2.5" points="90.0,575.6 110.5,654.4 131.0,642.1 151.5,677.6 171.9,696.4 192.4,677.4 212.9,630.4 233.4,578.5 253.9,599.6 274.4,645.0 294.8,691.1 315.3,719.2 335.8,662.5 356.3,645.8 376.8,630.1 397.3,679.8 417.7,702.7 438.2,679.3 458.7,630.2 479.2,622.9 499.7,628.0 520.2,636.0 540.6,623.1 561.1,652.9 581.6,670.8 602.1,669.2 622.6,660.8 643.1,644.9 663.5,683.6 684.0,673.2 704.5,722.5 725.0,689.4 745.5,706.1 766.0,666.0 786.5,655.8 806.9,649.4 827.4,615.5 847.9,622.6 868.4,584.1 888.9,594.0 909.4,598.3 929.8,655.3 950.3,656.4 970.8,649.7 991.3,673.5 1011.8,677.9 1032.3,631.8 1052.7,614.3 1073.2,597.8 1093.7,582.2 1114.2,603.5 1134.7,611.2 1155.2,612.4 1175.6,671.2 1196.1,645.9 1216.6,609.8 1237.1,578.9 1257.6,547.5 1278.1,608.5 1298.5,638.8 1319.0,643.9 1339.5,622.1 1360.0,570.7"/>
<polyline fill="none" stroke="#2ca02c" stroke-width="2.5" points="171.9,963.2 274.4,942.2 376.8,971.6 479.2,967.4 581.6,963.2 684.0,980.0 786.5,963.2 888.9,954.8 991.3,963.2 1093.7,975.8 1196.1,967.4 1298.5,929.6 1360.0,963.2"/>
<circle cx="171.9" cy="963.2" r="3.5" fill="#2ca02c"/>
<circle cx="274.4" cy="942.2" r="3.5" fill="#2ca02c"/>
<circle cx="376.8" cy="971.6" r="3.5" fill="#2ca02c"/>
<circle cx="479.2" cy="967.4" r="3.5" fill="#2ca02c"/>
<circle cx="581.6" cy="963.2" r="3.5" fill="#2ca02c"/>
<circle cx="684.0" cy="980.0" r="3.5" fill="#2ca02c"/>
<circle cx="786.5" cy="963.2" r="3.5" fill="#2ca02c"/>
<circle cx="888.9" cy="954.8" r="3.5" fill="#2ca02c"/>
<circle cx="991.3" cy="963.2" r="3.5" fill="#2ca02c"/>
<circle cx="1093.7" cy="975.8" r="3.5" fill="#2ca02c"/>
<circle cx="1196.1" cy="967.4" r="3.5" fill="#2ca02c"/>
<circle cx="1298.5" cy="929.6" r="3.5" fill="#2ca02c"/>
<circle cx="1360.0" cy="963.2" r="3.5" fill="#2ca02c"/>
<line x1="1135" y1="70" x2="1161" y2="70" stroke="#333" stroke-width="2"/>
<text x="1169" y="74" font-size="11" font-family="Arial, sans-serif">total_loss</text>
<line x1="1135" y1="86" x2="1161" y2="86" stroke="#333" stroke-width="2" stroke-dasharray="8,4"/>
<text x="1169" y="90" font-size="11" font-family="Arial, sans-serif">policy_loss</text>
<line x1="1135" y1="102" x2="1161" y2="102" stroke="#333" stroke-width="2" stroke-dasharray="3,4"/>
<text x="1169" y="106" font-size="11" font-family="Arial, sans-serif">vf_loss</text>
</svg>