<svg xmlns="http://www.w3.org/2000/svg" width="1400" height="1120" viewBox="0 0 1400 1120">
<rect x="0" y="0" width="1400" height="1120" fill="white" />
<text x="90" y="28" font-size="22" font-family="Arial, sans-serif" font-weight="bold">Training Loss Curve</text>
<text x="90" y="46" font-size="12" font-family="Arial, sans-serif" fill="#555">/home/hice1/wsun377/Desktop/cs8803drl/ray_results/PPO_summary_obs_warm225_20260409_011316</text>
<rect x="90" y="50" width="1270" height="210" fill="none" stroke="#bbb" stroke-width="1"/>
<text x="90" y="42" font-size="15" font-family="Arial, sans-serif" font-weight="bold">Losses</text>
<text x="18" y="155.0" font-size="12" font-family="Arial, sans-serif" transform="rotate(-90 18 155.0)">Loss</text>
<text x="18" y="62" font-size="11" font-family="Arial, sans-serif" fill="#666">0.083</text>
<text x="18" y="258" font-size="11" font-family="Arial, sans-serif" fill="#666">-0.020</text>
<line x1="90" y1="102.5" x2="1360" y2="102.5" stroke="#eee" stroke-width="1"/>
<line x1="90" y1="155.0" x2="1360" y2="155.0" stroke="#eee" stroke-width="1"/>
<line x1="90" y1="207.5" x2="1360" y2="207.5" stroke="#eee" stroke-width="1"/>
<rect x="90" y="290" width="1270" height="210" fill="none" stroke="#bbb" stroke-width="1"/>
<text x="90" y="282" font-size="15" font-family="Arial, sans-serif" font-weight="bold">Entropy / KL</text>
<text x="18" y="395.0" font-size="12" font-family="Arial, sans-serif" transform="rotate(-90 18 395.0)">Aux</text>
<text x="18" y="302" font-size="11" font-family="Arial, sans-serif" fill="#666">0.932</text>
<text x="18" y="498" font-size="11" font-family="Arial, sans-serif" fill="#666">-0.082</text>
<line x1="90" y1="342.5" x2="1360" y2="342.5" stroke="#eee" stroke-width="1"/>
<line x1="90" y1="395.0" x2="1360" y2="395.0" stroke="#eee" stroke-width="1"/>
<line x1="90" y1="447.5" x2="1360" y2="447.5" stroke="#eee" stroke-width="1"/>
<rect x="90" y="530" width="1270" height="210" fill="none" stroke="#bbb" stroke-width="1"/>
<text x="90" y="522" font-size="15" font-family="Arial, sans-serif" font-weight="bold">Episode Reward Mean</text>
<text x="18" y="635.0" font-size="12" font-family="Arial, sans-serif" transform="rotate(-90 18 635.0)">Reward</text>
<text x="18" y="542" font-size="11" font-family="Arial, sans-serif" fill="#666">1.937</text>
<text x="18" y="738" font-size="11" font-family="Arial, sans-serif" fill="#666">1.867</text>
<line x1="90" y1="582.5" x2="1360" y2="582.5" stroke="#eee" stroke-width="1"/>
<line x1="90" y1="635.0" x2="1360" y2="635.0" stroke="#eee" stroke-width="1"/>
<line x1="90" y1="687.5" x2="1360" y2="687.5" stroke="#eee" stroke-width="1"/>
<rect x="90" y="770" width="1270" height="210" fill="none" stroke="#bbb" stroke-width="1"/>
<text x="90" y="762" font-size="15" font-family="Arial, sans-serif" font-weight="bold">Baseline Win Rate (checkpoint eval)</text>
<text x="18" y="875.0" font-size="12" font-family="Arial, sans-serif" transform="rotate(-90 18 875.0)">Win Rate</text>
<text x="18" y="782" font-size="11" font-family="Arial, sans-serif" fill="#666">1.000</text>
<text x="18" y="978" font-size="11" font-family="Arial, sans-serif" fill="#666">0.000</text>
<line x1="90" y1="822.5" x2="1360" y2="822.5" stroke="#eee" stroke-width="1"/>
<line x1="90" y1="875.0" x2="1360" y2="875.0" stroke="#eee" stroke-width="1"/>
<line x1="90" y1="927.5" x2="1360" y2="927.5" stroke="#eee" stroke-width="1"/>
<line x1="90.0" y1="50" x2="90.0" y2="980" stroke="#f3f3f3" stroke-width="1"/>
<text x="90.0" y="998" text-anchor="middle" font-size="11" font-family="Arial, sans-serif" fill="#666">1</text>
<line x1="407.5" y1="50" x2="407.5" y2="980" stroke="#f3f3f3" stroke-width="1"/>
<text x="407.5" y="998" text-anchor="middle" font-size="11" font-family="Arial, sans-serif" fill="#666">32</text>
<line x1="725.0" y1="50" x2="725.0" y2="980" stroke="#f3f3f3" stroke-width="1"/>
<text x="725.0" y="998" text-anchor="middle" font-size="11" font-family="Arial, sans-serif" fill="#666">63</text>
<line x1="1042.5" y1="50" x2="1042.5" y2="980" stroke="#f3f3f3" stroke-width="1"/>
<text x="1042.5" y="998" text-anchor="middle" font-size="11" font-family="Arial, sans-serif" fill="#666">94</text>
<line x1="1360.0" y1="50" x2="1360.0" y2="980" stroke="#f3f3f3" stroke-width="1"/>
<text x="1360.0" y="998" text-anchor="middle" font-size="11" font-family="Arial, sans-serif" fill="#666">125</text>
<text x="725.0" y="1110" text-anchor="middle" font-size="12" font-family="Arial, sans-serif">Training Iteration</text>
<line x1="100" y1="68" x2="122" y2="68" stroke="#1f77b4" stroke-width="3"/>
<text x="128" y="72" font-size="11" font-family="Arial, sans-serif">default_policy</text>
<polyline fill="none" stroke="#1f77b4" stroke-width="2" points="90.0,135.8 100.2,132.8 110.5,136.1 120.7,128.5 131.0,129.2 141.2,114.8 151.5,152.1 161.7,104.2 171.9,111.9 182.2,117.9 192.4,134.2 202.7,122.6 212.9,121.1 223.1,128.9 233.4,123.7 243.6,100.2 253.9,161.2 264.1,84.6 274.4,121.7 284.6,121.6 294.8,150.3 305.1,128.6 315.3,107.1 325.6,133.8 335.8,132.4 346.0,126.0 356.3,133.2 366.5,141.4 376.8,137.8 387.0,127.4 397.3,133.7 407.5,123.5 417.7,132.0 428.0,134.2 438.2,106.9 448.5,104.4 458.7,116.1 469.0,147.0 479.2,126.8 489.4,131.9 499.7,112.9 509.9,153.1 520.2,143.8 530.4,126.2 540.6,141.1 550.9,128.8 561.1,104.6 571.4,112.6 581.6,120.9 591.9,135.0 602.1,106.9 612.3,136.5 622.6,109.7 632.8,96.7 643.1,97.4 653.3,130.0 663.5,131.4 673.8,139.5 684.0,125.4 694.3,126.1 704.5,133.5 714.8,123.0 725.0,146.0 735.2,137.9 745.5,130.1 755.7,148.2 766.0,133.4 776.2,107.5 786.5,94.9 796.7,139.3 806.9,129.7 817.2,99.1 827.4,117.0 837.7,135.2 847.9,140.8 858.1,113.8 868.4,108.5 878.6,120.5 888.9,96.4 899.1,142.2 909.4,129.7 919.6,132.1 929.8,112.0 940.1,113.0 950.3,104.9 960.6,95.2 970.8,145.9 981.0,138.9 991.3,146.9 1001.5,103.3 1011.8,145.2 1022.0,133.3 1032.3,119.0 1042.5,133.0 1052.7,153.2 1063.0,136.7 1073.2,94.6 1083.5,92.3 1093.7,107.7 1104.0,148.5 1114.2,145.1 1124.4,161.4 1134.7,128.7 1144.9,131.2 1155.2,126.0 1165.4,147.3 1175.6,135.0 1185.9,163.3 1196.1,157.0 1206.4,120.4 1216.6,109.3 1226.9,111.9 1237.1,131.1 1247.3,122.0 1257.6,121.8 1267.8,157.7 1278.1,151.2 1288.3,133.9 1298.5,126.8 1308.8,111.6 1319.0,97.5 1329.3,140.8 1339.5,147.6 1349.8,137.5 1360.0,167.0"/>
<polyline fill="none" stroke="#1f77b4" stroke-width="2" stroke-dasharray="8,4" points="90.0,242.3 100.2,238.2 110.5,235.8 120.7,239.5 131.0,237.8 141.2,240.0 151.5,238.1 161.7,239.4 171.9,238.0 182.2,238.0 192.4,239.6 202.7,238.6 212.9,238.4 223.1,236.6 233.4,239.3 243.6,241.0 253.9,238.4 264.1,236.5 274.4,238.6 284.6,239.9 294.8,238.8 305.1,235.1 315.3,239.1 325.6,238.2 335.8,235.8 346.0,241.9 356.3,240.0 366.5,235.5 376.8,237.6 387.0,238.4 397.3,236.6 407.5,237.2 417.7,236.5 428.0,239.2 438.2,237.0 448.5,238.2 458.7,242.0 469.0,238.6 479.2,237.7 489.4,235.7 499.7,238.4 509.9,237.7 520.2,237.2 530.4,238.0 540.6,236.6 550.9,238.8 561.1,239.0 571.4,238.8 581.6,241.8 591.9,237.3 602.1,239.9 612.3,238.9 622.6,240.0 632.8,238.7 643.1,242.5 653.3,238.0 663.5,240.9 673.8,238.3 684.0,239.9 694.3,239.2 704.5,240.3 714.8,237.4 725.0,236.4 735.2,239.8 745.5,240.8 755.7,239.8 766.0,239.9 776.2,239.2 786.5,239.6 796.7,238.5 806.9,240.1 817.2,241.6 827.4,238.6 837.7,240.2 847.9,242.0 858.1,237.4 868.4,237.3 878.6,238.1 888.9,240.2 899.1,241.8 909.4,237.0 919.6,236.0 929.8,236.4 940.1,237.8 950.3,237.4 960.6,238.6 970.8,238.6 981.0,237.7 991.3,237.0 1001.5,242.3 1011.8,237.2 1022.0,237.5 1032.3,239.9 1042.5,238.5 1052.7,236.8 1063.0,240.7 1073.2,240.5 1083.5,235.2 1093.7,238.0 1104.0,240.9 1114.2,239.0 1124.4,238.2 1134.7,238.7 1144.9,241.0 1155.2,237.0 1165.4,240.2 1175.6,238.6 1185.9,241.0 1196.1,237.9 1206.4,237.3 1216.6,238.4 1226.9,240.1 1237.1,237.9 1247.3,238.0 1257.6,241.1 1267.8,238.3 1278.1,238.9 1288.3,237.2 1298.5,239.8 1308.8,234.1 1319.0,239.0 1329.3,238.1 1339.5,239.0 1349.8,239.9 1360.0,237.8"/>
<polyline fill="none" stroke="#1f77b4" stroke-width="2" stroke-dasharray="3,4" points="90.0,114.0 100.2,114.5 110.5,120.0 120.7,108.5 131.0,110.9 141.2,94.2 151.5,133.4 161.7,84.2 171.9,93.3 182.2,99.3 192.4,114.0 202.7,103.4 212.9,102.1 223.1,111.7 233.4,103.8 243.6,78.7 253.9,142.1 264.1,67.5 274.4,102.5 284.6,101.1 294.8,130.9 305.1,112.9 315.3,87.4 325.6,115.0 335.8,116.0 346.0,103.5 356.3,112.6 366.5,125.3 376.8,119.5 387.0,108.5 397.3,116.6 407.5,105.7 417.7,114.9 428.0,114.3 438.2,89.4 448.5,85.5 458.7,93.4 469.0,127.8 479.2,108.5 489.4,115.5 499.7,93.9 509.9,134.7 520.2,126.0 530.4,107.5 540.6,123.9 550.9,109.3 561.1,85.0 571.4,93.2 581.6,98.5 591.9,117.1 602.1,86.4 612.3,116.9 622.6,89.1 632.8,77.4 643.1,74.3 653.3,111.5 663.5,109.9 673.8,120.6 684.0,104.8 694.3,106.3 704.5,112.6 714.8,105.0 725.0,129.0 735.2,117.5 745.5,108.7 755.7,127.7 766.0,112.9 776.2,87.6 786.5,74.7 796.7,120.2 806.9,109.0 817.2,76.9 827.4,97.8 837.7,114.3 847.9,118.2 858.1,95.8 868.4,90.6 878.6,101.7 888.9,75.5 899.1,119.8 909.4,112.1 919.6,115.4 929.8,95.0 940.1,94.6 950.3,86.9 960.6,76.0 970.8,126.7 981.0,120.6 991.3,129.3 1001.5,80.3 1011.8,127.4 1022.0,115.2 1032.3,98.4 1042.5,113.8 1052.7,135.8 1063.0,115.4 1073.2,73.5 1083.5,76.6 1093.7,89.1 1104.0,127.0 1114.2,125.5 1124.4,142.6 1134.7,109.4 1144.9,109.5 1155.2,108.4 1165.4,126.5 1175.6,115.8 1185.9,141.6 1196.1,138.5 1206.4,102.5 1216.6,90.3 1226.9,91.2 1237.1,112.6 1247.3,103.4 1257.6,100.1 1267.8,138.8 1278.1,131.6 1288.3,116.1 1298.5,106.4 1308.8,96.9 1319.0,77.9 1329.3,122.1 1339.5,128.0 1349.8,117.0 1360.0,148.6"/>
<polyline fill="none" stroke="#1f77b4" stroke-width="2" points="90.0,312.8 100.2,311.5 110.5,310.4 120.7,310.1 131.0,307.8 141.2,307.5 151.5,314.4 161.7,311.9 171.9,312.8 182.2,315.5 192.4,314.6 202.7,317.2 212.9,316.1 223.1,315.1 233.4,315.4 243.6,309.9 253.9,316.2 264.1,317.4 274.4,321.9 284.6,321.3 294.8,323.3 305.1,315.1 315.3,319.8 325.6,321.9 335.8,321.6 346.0,320.8 356.3,319.8 366.5,322.2 376.8,319.0 387.0,323.8 397.3,326.6 407.5,328.1 417.7,330.6 428.0,326.1 438.2,330.3 448.5,331.2 458.7,326.2 469.0,327.1 479.2,327.7 489.4,325.2 499.7,328.7 509.9,329.6 520.2,327.0 530.4,325.4 540.6,325.2 550.9,326.7 561.1,325.1 571.4,324.7 581.6,322.7 591.9,325.3 602.1,321.3 612.3,320.8 622.6,322.6 632.8,317.8 643.1,321.0 653.3,321.1 663.5,318.3 673.8,319.8 684.0,318.8 694.3,314.9 704.5,318.1 714.8,317.3 725.0,317.5 735.2,318.7 745.5,319.7 755.7,321.6 766.0,321.8 776.2,320.3 786.5,320.2 796.7,325.6 806.9,324.5 817.2,326.6 827.4,323.1 837.7,317.5 847.9,323.2 858.1,322.8 868.4,328.5 878.6,328.3 888.9,326.9 899.1,328.5 909.4,331.4 919.6,324.8 929.8,324.8 940.1,325.5 950.3,324.3 960.6,327.5 970.8,325.2 981.0,322.5 991.3,327.0 1001.5,322.8 1011.8,327.1 1022.0,327.1 1032.3,324.4 1042.5,328.3 1052.7,327.1 1063.0,328.7 1073.2,325.5 1083.5,327.9 1093.7,327.6 1104.0,329.4 1114.2,326.8 1124.4,330.1 1134.7,331.7 1144.9,330.9 1155.2,331.4 1165.4,330.4 1175.6,331.5 1185.9,335.1 1196.1,337.5 1206.4,336.1 1216.6,329.8 1226.9,334.9 1237.1,335.8 1247.3,334.0 1257.6,339.2 1267.8,338.6 1278.1,335.3 1288.3,336.6 1298.5,333.7 1308.8,335.2 1319.0,334.8 1329.3,334.2 1339.5,334.9 1349.8,332.7 1360.0,337.0"/>
<polyline fill="none" stroke="#1f77b4" stroke-width="2" stroke-dasharray="8,4" points="90.0,482.4 100.2,482.4 110.5,482.4 120.7,482.4 131.0,482.5 141.2,482.1 151.5,482.3 161.7,482.4 171.9,482.4 182.2,482.4 192.4,482.4 202.7,482.2 212.9,482.4 223.1,482.3 233.4,482.3 243.6,482.3 253.9,482.3 264.1,482.3 274.4,482.3 284.6,482.4 294.8,482.1 305.1,482.4 315.3,482.4 325.6,482.4 335.8,482.4 346.0,482.1 356.3,482.3 366.5,482.3 376.8,482.4 387.0,482.3 397.3,482.2 407.5,482.4 417.7,482.4 428.0,482.2 438.2,482.3 448.5,482.3 458.7,482.3 469.0,482.3 479.2,482.5 489.4,482.4 499.7,482.2 509.9,482.4 520.2,482.3 530.4,482.3 540.6,482.3 550.9,482.3 561.1,482.3 571.4,482.2 581.6,482.4 591.9,482.4 602.1,482.4 612.3,482.4 622.6,482.4 632.8,482.2 643.1,482.3 653.3,482.4 663.5,482.4 673.8,482.4 684.0,482.2 694.3,482.3 704.5,482.3 714.8,482.3 725.0,482.3 735.2,482.3 745.5,482.3 755.7,482.3 766.0,482.2 776.2,482.4 786.5,482.4 796.7,482.4 806.9,482.1 817.2,482.4 827.4,482.3 837.7,482.3 847.9,482.4 858.1,482.4 868.4,482.4 878.6,482.3 888.9,482.3 899.1,482.4 909.4,482.3 919.6,482.4 929.8,482.3 940.1,482.2 950.3,482.2 960.6,482.2 970.8,482.2 981.0,482.3 991.3,482.3 1001.5,482.3 1011.8,482.3 1022.0,482.3 1032.3,482.3 1042.5,482.4 1052.7,482.4 1063.0,482.3 1073.2,482.4 1083.5,482.1 1093.7,482.2 1104.0,482.3 1114.2,482.3 1124.4,482.4 1134.7,482.4 1144.9,482.5 1155.2,482.3 1165.4,482.3 1175.6,482.3 1185.9,482.3 1196.1,482.4 1206.4,482.3 1216.6,482.3 1226.9,482.3 1237.1,482.3 1247.3,482.2 1257.6,482.4 1267.8,482.3 1278.1,482.2 1288.3,482.4 1298.5,482.3 1308.8,482.3 1319.0,482.4 1329.3,482.2 1339.5,482.4 1349.8,482.4 1360.0,482.5"/>
<polyline fill="none" stroke="#111" stroke-width="2.5" points="90.0,634.0 100.2,621.8 110.5,614.0 120.7,640.3 131.0,621.3 141.2,685.5 151.5,571.9 161.7,660.8 171.9,650.7 182.2,639.6 192.4,599.1 202.7,619.8 212.9,632.1 223.1,601.6 233.4,639.4 243.6,689.1 253.9,547.5 264.1,717.5 274.4,621.9 284.6,659.9 294.8,581.3 305.1,625.0 315.3,677.0 325.6,609.0 335.8,613.8 346.0,631.5 356.3,625.3 366.5,604.2 376.8,604.4 387.0,613.6 397.3,605.9 407.5,639.3 417.7,608.0 428.0,611.5 438.2,653.4 448.5,694.5 458.7,665.6 469.0,569.5 479.2,638.1 489.4,611.9 499.7,671.2 509.9,563.4 520.2,597.3 530.4,633.6 540.6,602.6 550.9,632.5 561.1,674.9 571.4,642.8 581.6,657.0 591.9,608.8 602.1,690.0 612.3,597.3 622.6,676.5 632.8,691.1 643.1,704.1 653.3,605.9 663.5,622.7 673.8,608.6 684.0,643.6 694.3,648.4 704.5,611.8 714.8,632.2 725.0,580.4 735.2,602.6 745.5,638.0 755.7,596.4 766.0,612.0 776.2,674.8 786.5,688.3 796.7,595.7 806.9,612.0 817.2,683.9 827.4,626.3 837.7,594.1 847.9,614.0 858.1,650.4 868.4,652.0 878.6,621.3 888.9,702.7 899.1,602.3 909.4,623.8 919.6,616.2 929.8,663.4 940.1,645.6 950.3,685.2 960.6,681.9 970.8,591.8 981.0,606.5 991.3,586.3 1001.5,696.0 1011.8,577.8 1022.0,603.5 1032.3,661.2 1042.5,615.8 1052.7,575.7 1063.0,622.8 1073.2,722.5 1083.5,703.3 1093.7,665.2 1104.0,581.7 1114.2,597.9 1124.4,557.2 1134.7,637.5 1144.9,634.3 1155.2,627.8 1165.4,594.5 1175.6,613.8 1185.9,569.1 1196.1,579.5 1206.4,643.6 1216.6,665.7 1226.9,661.1 1237.1,603.1 1247.3,642.5 1257.6,646.1 1267.8,553.1 1278.1,587.5 1288.3,608.8 1298.5,643.1 1308.8,639.8 1319.0,685.9 1329.3,583.2 1339.5,585.8 1349.8,615.0 1360.0,550.4"/>
<polyline fill="none" stroke="#2ca02c" stroke-width="2.5" points="131.0,812.0 182.2,820.4 233.4,816.2 284.6,820.4 335.8,816.2 387.0,820.4 438.2,824.6 489.4,833.0 540.6,820.4 591.9,837.2 643.1,828.8 694.3,820.4 745.5,828.8 796.7,816.2 847.9,824.6 899.1,799.4 950.3,824.6 1001.5,799.4 1052.7,812.0 1104.0,828.8 1155.2,837.2 1206.4,820.4 1257.6,807.8 1308.8,816.2 1360.0,807.8"/>
<circle cx="131.0" cy="812.0" r="3.5" fill="#2ca02c"/>
<circle cx="182.2" cy="820.4" r="3.5" fill="#2ca02c"/>
<circle cx="233.4" cy="816.2" r="3.5" fill="#2ca02c"/>
<circle cx="284.6" cy="820.4" r="3.5" fill="#2ca02c"/>
<circle cx="335.8" cy="816.2" r="3.5" fill="#2ca02c"/>
<circle cx="387.0" cy="820.4" r="3.5" fill="#2ca02c"/>
<circle cx="438.2" cy="824.6" r="3.5" fill="#2ca02c"/>
<circle cx="489.4" cy="833.0" r="3.5" fill="#2ca02c"/>
<circle cx="540.6" cy="820.4" r="3.5" fill="#2ca02c"/>
<circle cx="591.9" cy="837.2" r="3.5" fill="#2ca02c"/>
<circle cx="643.1" cy="828.8" r="3.5" fill="#2ca02c"/>
<circle cx="694.3" cy="820.4" r="3.5" fill="#2ca02c"/>
<circle cx="745.5" cy="828.8" r="3.5" fill="#2ca02c"/>
<circle cx="796.7" cy="816.2" r="3.5" fill="#2ca02c"/>
<circle cx="847.9" cy="824.6" r="3.5" fill="#2ca02c"/>
<circle cx="899.1" cy="799.4" r="3.5" fill="#2ca02c"/>
<circle cx="950.3" cy="824.6" r="3.5" fill="#2ca02c"/>
<circle cx="1001.5" cy="799.4" r="3.5" fill="#2ca02c"/>
<circle cx="1052.7" cy="812.0" r="3.5" fill="#2ca02c"/>
<circle cx="1104.0" cy="828.8" r="3.5" fill="#2ca02c"/>
<circle cx="1155.2" cy="837.2" r="3.5" fill="#2ca02c"/>
<circle cx="1206.4" cy="820.4" r="3.5" fill="#2ca02c"/>
<circle cx="1257.6" cy="807.8" r="3.5" fill="#2ca02c"/>
<circle cx="1308.8" cy="816.2" r="3.5" fill="#2ca02c"/>
<circle cx="1360.0" cy="807.8" r="3.5" fill="#2ca02c"/>
<line x1="1135" y1="70" x2="1161" y2="70" stroke="#333" stroke-width="2"/>
<text x="1169" y="74" font-size="11" font-family="Arial, sans-serif">total_loss</text>
<line x1="1135" y1="86" x2="1161" y2="86" stroke="#333" stroke-width="2" stroke-dasharray="8,4"/>
<text x="1169" y="90" font-size="11" font-family="Arial, sans-serif">policy_loss</text>
<line x1="1135" y1="102" x2="1161" y2="102" stroke="#333" stroke-width="2" stroke-dasharray="3,4"/>
<text x="1169" y="106" font-size="11" font-family="Arial, sans-serif">vf_loss</text>
</svg>