<svg xmlns="http://www.w3.org/2000/svg" width="1400" height="1180" viewBox="0 0 1400 1180">
<rect width="100%" height="100%" fill="#fafafa"/>
<text x="90" y="24" font-family="monospace" font-size="12" font-size="16">PPO_team_vs_baseline_shaping_restore_512x512_20260412_002744 full-history training curves</text>
<text x="90" y="42" font-family="monospace" font-size="12">iterations 411..660</text>
<rect x="90" y="50" width="1270" height="220" fill="white" stroke="#cccccc"/>
<line x1="90" y1="50.0" x2="1360" y2="50.0" stroke="#eeeeee"/>
<line x1="90" y1="105.0" x2="1360" y2="105.0" stroke="#eeeeee"/>
<line x1="90" y1="160.0" x2="1360" y2="160.0" stroke="#eeeeee"/>
<line x1="90" y1="215.0" x2="1360" y2="215.0" stroke="#eeeeee"/>
<line x1="90" y1="270.0" x2="1360" y2="270.0" stroke="#eeeeee"/>
<line x1="90.0" y1="50" x2="90.0" y2="270" stroke="#f3f3f3"/>
<line x1="407.5" y1="50" x2="407.5" y2="270" stroke="#f3f3f3"/>
<line x1="725.0" y1="50" x2="725.0" y2="270" stroke="#f3f3f3"/>
<line x1="1042.5" y1="50" x2="1042.5" y2="270" stroke="#f3f3f3"/>
<line x1="1360.0" y1="50" x2="1360.0" y2="270" stroke="#f3f3f3"/>
<text x="90" y="40" font-family="monospace" font-size="12">reward + baseline eval</text>
<text x="10" y="65" font-family="monospace" font-size="12">2.207</text>
<text x="10" y="270.0" font-family="monospace" font-size="12">2.110</text>
<text x="1370" y="65" font-family="monospace" font-size="12">1.000</text>
<text x="1370" y="270.0" font-family="monospace" font-size="12">0.000</text>
<polyline fill="none" stroke="#1f77b4" stroke-width="2" points="90.0,217.5 95.1,147.7 100.2,166.5 105.3,136.6 110.4,150.5 115.5,178.5 120.6,193.4 125.7,157.6 130.8,185.9 135.9,146.4 141.0,141.2 146.1,188.5 151.2,155.7 156.3,172.2 161.4,120.9 166.5,201.0 171.6,171.0 176.7,141.5 181.8,205.5 186.9,196.9 192.0,167.9 197.1,125.8 202.2,160.2 207.3,238.9 212.4,229.4 217.5,203.7 222.6,197.3 227.7,192.1 232.8,170.7 237.9,168.1 243.0,177.0 248.1,161.0 253.2,231.5 258.3,153.2 263.4,130.3 268.5,182.8 273.6,118.6 278.7,163.3 283.8,169.9 288.9,251.7 294.0,166.2 299.1,177.6 304.2,175.8 309.3,127.8 314.4,130.9 319.5,123.2 324.6,147.8 329.7,153.3 334.8,232.7 339.9,242.2 345.0,153.3 350.1,131.9 355.2,165.9 360.3,161.7 365.4,147.0 370.5,182.7 375.6,134.3 380.7,131.0 385.8,207.4 390.9,173.3 396.0,176.1 401.1,150.8 406.2,92.6 411.3,176.5 416.4,175.1 421.5,136.2 426.6,109.2 431.7,108.6 436.8,183.5 441.9,134.0 447.0,193.3 452.1,216.5 457.2,160.1 462.3,154.8 467.4,154.2 472.5,139.2 477.6,208.6 482.7,153.6 487.8,135.1 492.9,137.4 498.0,127.2 503.1,132.9 508.2,153.0 513.3,148.6 518.4,98.1 523.5,76.4 528.6,154.3 533.7,172.2 538.8,145.6 543.9,150.8 549.0,125.3 554.1,165.7 559.2,146.3 564.3,131.6 569.4,138.2 574.5,128.2 579.6,135.2 584.7,124.9 589.8,111.0 594.9,136.6 600.0,155.5 605.1,108.1 610.2,138.8 615.3,110.7 620.4,125.3 625.5,152.8 630.6,121.2 635.7,202.1 640.8,88.2 645.9,213.4 651.0,149.5 656.1,129.1 661.2,163.4 666.3,184.8 671.4,218.5 676.5,120.1 681.6,127.1 686.7,144.9 691.8,166.5 696.9,165.4 702.0,190.9 707.1,180.7 712.2,188.0 717.3,156.3 722.4,150.4 727.6,187.8 732.7,159.9 737.8,150.2 742.9,203.6 748.0,127.9 753.1,101.7 758.2,211.0 763.3,209.4 768.4,194.0 773.5,159.1 778.6,131.5 783.7,97.1 788.8,126.8 793.9,106.1 799.0,149.5 804.1,154.1 809.2,132.2 814.3,172.3 819.4,130.6 824.5,96.5 829.6,115.1 834.7,109.5 839.8,122.4 844.9,129.8 850.0,153.2 855.1,175.4 860.2,155.5 865.3,185.6 870.4,141.2 875.5,151.8 880.6,132.3 885.7,181.8 890.8,160.4 895.9,243.1 901.0,139.7 906.1,146.8 911.2,108.8 916.3,114.3 921.4,114.4 926.5,226.0 931.6,144.3 936.7,179.3 941.8,211.2 946.9,119.9 952.0,123.7 957.1,135.1 962.2,165.9 967.3,163.5 972.4,120.9 977.5,121.5 982.6,139.6 987.7,168.3 992.8,98.3 997.9,141.7 1003.0,151.5 1008.1,156.8 1013.2,172.9 1018.3,143.0 1023.4,105.3 1028.5,132.3 1033.6,183.5 1038.7,109.1 1043.8,123.2 1048.9,210.9 1054.0,107.0 1059.1,91.3 1064.2,87.0 1069.3,146.0 1074.4,154.6 1079.5,106.1 1084.6,68.3 1089.7,143.5 1094.8,143.0 1099.9,157.9 1105.0,133.0 1110.1,188.4 1115.2,130.8 1120.3,166.3 1125.4,174.8 1130.5,91.8 1135.6,141.5 1140.7,114.8 1145.8,90.4 1150.9,71.5 1156.0,143.6 1161.1,185.5 1166.2,178.2 1171.3,125.8 1176.4,141.1 1181.5,135.3 1186.6,135.1 1191.7,225.3 1196.8,151.8 1201.9,135.9 1207.0,166.1 1212.1,119.1 1217.2,150.6 1222.3,149.1 1227.4,126.5 1232.5,164.6 1237.6,115.1 1242.7,140.0 1247.8,131.5 1252.9,127.3 1258.0,111.6 1263.1,199.1 1268.2,163.8 1273.3,161.0 1278.4,198.0 1283.5,117.4 1288.6,112.0 1293.7,153.0 1298.8,174.9 1303.9,121.3 1309.0,117.5 1314.1,154.8 1319.2,209.9 1324.3,140.6 1329.4,148.2 1334.5,124.9 1339.6,87.2 1344.7,109.2 1349.8,151.4 1354.9,150.1 1360.0,113.0"/>
<line x1="100" y1="70" x2="120" y2="70" stroke="#1f77b4" stroke-width="2"/><text x="128" y="74" font-family="monospace" font-size="12">episode_reward_mean</text>
<circle cx="135.9" cy="124.8" r="3.5" fill="#ff7f0e"/>
<circle cx="186.9" cy="98.4" r="3.5" fill="#ff7f0e"/>
<circle cx="237.9" cy="124.8" r="3.5" fill="#ff7f0e"/>
<circle cx="288.9" cy="129.2" r="3.5" fill="#ff7f0e"/>
<circle cx="339.9" cy="142.4" r="3.5" fill="#ff7f0e"/>
<circle cx="390.9" cy="155.6" r="3.5" fill="#ff7f0e"/>
<circle cx="441.9" cy="138.0" r="3.5" fill="#ff7f0e"/>
<circle cx="492.9" cy="151.2" r="3.5" fill="#ff7f0e"/>
<circle cx="543.9" cy="98.4" r="3.5" fill="#ff7f0e"/>
<circle cx="594.9" cy="111.6" r="3.5" fill="#ff7f0e"/>
<circle cx="645.9" cy="120.4" r="3.5" fill="#ff7f0e"/>
<circle cx="696.9" cy="94.0" r="3.5" fill="#ff7f0e"/>
<circle cx="748.0" cy="146.8" r="3.5" fill="#ff7f0e"/>
<circle cx="799.0" cy="155.6" r="3.5" fill="#ff7f0e"/>
<circle cx="850.0" cy="129.2" r="3.5" fill="#ff7f0e"/>
<circle cx="901.0" cy="102.8" r="3.5" fill="#ff7f0e"/>
<circle cx="952.0" cy="124.8" r="3.5" fill="#ff7f0e"/>
<circle cx="1003.0" cy="111.6" r="3.5" fill="#ff7f0e"/>
<circle cx="1054.0" cy="124.8" r="3.5" fill="#ff7f0e"/>
<circle cx="1105.0" cy="129.2" r="3.5" fill="#ff7f0e"/>
<circle cx="1156.0" cy="138.0" r="3.5" fill="#ff7f0e"/>
<circle cx="1207.0" cy="116.0" r="3.5" fill="#ff7f0e"/>
<circle cx="1258.0" cy="129.2" r="3.5" fill="#ff7f0e"/>
<circle cx="1309.0" cy="98.4" r="3.5" fill="#ff7f0e"/>
<rect x="90" y="300" width="1270" height="220" fill="white" stroke="#cccccc"/>
<line x1="90" y1="300.0" x2="1360" y2="300.0" stroke="#eeeeee"/>
<line x1="90" y1="355.0" x2="1360" y2="355.0" stroke="#eeeeee"/>
<line x1="90" y1="410.0" x2="1360" y2="410.0" stroke="#eeeeee"/>
<line x1="90" y1="465.0" x2="1360" y2="465.0" stroke="#eeeeee"/>
<line x1="90" y1="520.0" x2="1360" y2="520.0" stroke="#eeeeee"/>
<line x1="90.0" y1="300" x2="90.0" y2="520" stroke="#f3f3f3"/>
<line x1="407.5" y1="300" x2="407.5" y2="520" stroke="#f3f3f3"/>
<line x1="725.0" y1="300" x2="725.0" y2="520" stroke="#f3f3f3"/>
<line x1="1042.5" y1="300" x2="1042.5" y2="520" stroke="#f3f3f3"/>
<line x1="1360.0" y1="300" x2="1360.0" y2="520" stroke="#f3f3f3"/>
<text x="90" y="290" font-family="monospace" font-size="12">losses</text>
<text x="10" y="315" font-family="monospace" font-size="12">0.123</text>
<text x="10" y="520.0" font-family="monospace" font-size="12">-0.126</text>
<polyline fill="none" stroke="#d62728" stroke-width="2" points="90.0,403.4 95.1,428.3 100.2,422.5 105.3,415.7 110.4,413.9 115.5,400.8 120.6,391.4 125.7,404.0 130.8,397.1 135.9,413.4 141.0,411.8 146.1,404.0 151.2,413.3 156.3,401.0 161.4,417.3 166.5,399.3 171.6,400.9 176.7,405.7 181.8,398.0 186.9,388.7 192.0,398.6 197.1,414.7 202.2,405.1 207.3,388.9 212.4,382.0 217.5,394.8 222.6,398.7 227.7,400.3 232.8,401.7 237.9,401.9 243.0,400.1 248.1,412.8 253.2,402.5 258.3,409.4 263.4,411.5 268.5,403.7 273.6,414.8 278.7,403.0 283.8,404.0 288.9,385.6 294.0,404.9 299.1,392.3 304.2,401.3 309.3,412.4 314.4,419.5 319.5,406.1 324.6,403.9 329.7,403.6 334.8,381.2 339.9,373.2 345.0,400.9 350.1,405.3 355.2,407.1 360.3,405.1 365.4,413.4 370.5,398.2 375.6,407.1 380.7,419.1 385.8,397.0 390.9,399.1 396.0,397.7 401.1,395.0 406.2,418.9 411.3,396.5 416.4,405.8 421.5,401.8 426.6,422.5 431.7,418.2 436.8,397.1 441.9,416.9 447.0,399.4 452.1,365.2 457.2,405.5 462.3,401.6 467.4,402.0 472.5,416.4 477.6,392.4 482.7,409.8 487.8,404.8 492.9,397.4 498.0,404.8 503.1,411.8 508.2,405.5 513.3,407.3 518.4,415.9 523.5,426.7 528.6,409.4 533.7,399.2 538.8,409.1 543.9,403.8 549.0,413.3 554.1,395.4 559.2,407.1 564.3,403.8 569.4,409.8 574.5,412.5 579.6,411.8 584.7,413.0 589.8,415.0 594.9,410.4 600.0,398.6 605.1,411.0 610.2,412.2 615.3,405.6 620.4,408.5 625.5,406.4 630.6,404.8 635.7,387.6 640.8,419.1 645.9,399.6 651.0,407.4 656.1,393.3 661.2,400.7 666.3,400.1 671.4,391.5 676.5,410.0 681.6,413.9 686.7,397.5 691.8,398.0 696.9,406.2 702.0,397.0 707.1,403.0 712.2,397.2 717.3,405.5 722.4,399.5 727.6,384.4 732.7,401.7 737.8,402.1 742.9,394.4 748.0,411.6 753.1,424.0 758.2,382.1 763.3,383.1 768.4,381.6 773.5,385.6 778.6,396.7 783.7,425.5 788.8,408.0 793.9,409.8 799.0,406.2 804.1,395.5 809.2,403.2 814.3,395.9 819.4,403.6 824.5,418.4 829.6,416.1 834.7,412.8 839.8,399.5 844.9,409.4 850.0,399.0 855.1,392.4 860.2,399.7 865.3,390.7 870.4,411.4 875.5,411.7 880.6,410.6 885.7,402.1 890.8,401.0 895.9,373.6 901.0,403.8 906.1,405.4 911.2,417.6 916.3,411.1 921.4,424.2 926.5,389.4 931.6,399.2 936.7,390.3 941.8,390.8 946.9,414.1 952.0,405.7 957.1,402.8 962.2,397.7 967.3,393.0 972.4,405.9 977.5,414.4 982.6,405.2 987.7,398.2 992.8,424.6 997.9,409.1 1003.0,402.7 1008.1,404.7 1013.2,388.8 1018.3,397.9 1023.4,413.5 1028.5,404.7 1033.6,394.2 1038.7,406.6 1043.8,408.5 1048.9,387.0 1054.0,415.1 1059.1,415.1 1064.2,423.9 1069.3,402.7 1074.4,405.8 1079.5,414.0 1084.6,426.4 1089.7,402.9 1094.8,403.0 1099.9,405.7 1105.0,401.9 1110.1,389.7 1115.2,404.3 1120.3,395.8 1125.4,396.2 1130.5,414.2 1135.6,406.5 1140.7,412.1 1145.8,418.5 1150.9,426.5 1156.0,393.5 1161.1,390.7 1166.2,392.9 1171.3,411.4 1176.4,398.4 1181.5,401.3 1186.6,408.4 1191.7,386.5 1196.8,397.5 1201.9,403.2 1207.0,396.5 1212.1,411.0 1217.2,401.2 1222.3,396.1 1227.4,399.1 1232.5,399.4 1237.6,413.3 1242.7,408.9 1247.8,402.3 1252.9,406.1 1258.0,413.3 1263.1,392.9 1268.2,400.6 1273.3,392.1 1278.4,390.3 1283.5,405.7 1288.6,408.1 1293.7,403.5 1298.8,397.2 1303.9,409.4 1309.0,409.4 1314.1,401.1 1319.2,378.4 1324.3,405.8 1329.4,399.4 1334.5,391.4 1339.6,412.3 1344.7,411.5 1349.8,401.2 1354.9,398.3 1360.0,406.7"/>
<line x1="100" y1="320" x2="120" y2="320" stroke="#d62728" stroke-width="2"/><text x="128" y="324" font-family="monospace" font-size="12">total_loss</text>
<polyline fill="none" stroke="#9467bd" stroke-width="2" stroke-dasharray="8,4" points="90.0,496.4 95.1,501.7 100.2,500.6 105.3,493.6 110.4,493.4 115.5,488.4 120.6,488.2 125.7,488.3 130.8,491.2 135.9,493.6 141.0,494.8 146.1,495.5 151.2,495.5 156.3,488.5 161.4,493.1 166.5,488.8 171.6,489.9 176.7,490.6 181.8,489.4 186.9,484.3 192.0,487.0 197.1,494.5 202.2,491.2 207.3,489.6 212.4,484.2 217.5,488.7 222.6,488.5 227.7,488.7 232.8,490.9 237.9,493.4 243.0,489.9 248.1,497.3 253.2,496.8 258.3,492.4 263.4,494.3 268.5,491.3 273.6,490.8 278.7,488.5 283.8,487.9 288.9,485.8 294.0,490.3 299.1,485.7 304.2,492.0 309.3,494.5 314.4,497.1 319.5,489.7 324.6,488.6 329.7,489.5 334.8,484.0 339.9,482.8 345.0,489.8 350.1,489.9 355.2,490.0 360.3,491.5 365.4,495.7 370.5,487.3 375.6,489.9 380.7,492.7 385.8,484.8 390.9,487.8 396.0,488.8 401.1,484.9 406.2,491.7 411.3,483.9 416.4,490.3 421.5,484.8 426.6,493.0 431.7,491.8 436.8,487.7 441.9,494.7 447.0,485.4 452.1,475.7 457.2,490.5 462.3,490.6 467.4,491.1 472.5,494.8 477.6,486.7 482.7,492.4 487.8,488.1 492.9,480.8 498.0,487.9 503.1,491.1 508.2,487.8 513.3,489.2 518.4,493.6 523.5,494.7 528.6,484.9 533.7,485.7 538.8,490.2 543.9,488.2 549.0,489.4 554.1,486.0 559.2,491.2 564.3,485.9 569.4,490.2 574.5,490.1 579.6,491.5 584.7,491.4 589.8,489.4 594.9,486.1 600.0,484.1 605.1,488.3 610.2,490.3 615.3,484.2 620.4,491.4 625.5,489.1 630.6,486.5 635.7,479.3 640.8,492.6 645.9,488.2 651.0,490.5 656.1,477.9 661.2,484.6 666.3,487.0 671.4,488.3 676.5,490.0 681.6,490.9 686.7,483.7 691.8,485.0 696.9,490.5 702.0,488.1 707.1,488.3 712.2,487.3 717.3,489.7 722.4,482.6 727.6,478.2 732.7,485.7 737.8,483.0 742.9,488.6 748.0,491.2 753.1,495.5 758.2,481.4 763.3,482.5 768.4,482.0 773.5,478.9 778.6,480.3 783.7,493.7 788.8,486.0 793.9,487.9 799.0,487.3 804.1,482.6 809.2,487.6 814.3,485.3 819.4,487.1 824.5,489.2 829.6,489.4 834.7,486.9 839.8,483.5 844.9,489.4 850.0,484.0 855.1,483.2 860.2,488.0 865.3,484.4 870.4,489.9 875.5,491.8 880.6,489.0 885.7,488.1 890.8,487.1 895.9,478.7 901.0,487.9 906.1,489.4 911.2,494.1 916.3,486.8 921.4,495.5 926.5,481.5 931.6,484.1 936.7,481.9 941.8,482.9 946.9,489.9 952.0,484.5 957.1,481.9 962.2,483.9 967.3,484.1 972.4,482.3 977.5,488.1 982.6,485.2 987.7,484.6 992.8,493.7 997.9,486.6 1003.0,484.8 1008.1,485.2 1013.2,478.5 1018.3,482.0 1023.4,485.2 1028.5,487.1 1033.6,483.4 1038.7,486.7 1043.8,488.9 1048.9,482.9 1054.0,488.8 1059.1,486.7 1064.2,491.4 1069.3,488.3 1074.4,486.1 1079.5,490.9 1084.6,492.3 1089.7,480.5 1094.8,485.7 1099.9,487.6 1105.0,485.4 1110.1,479.5 1115.2,481.4 1120.3,481.5 1125.4,484.3 1130.5,488.4 1135.6,484.2 1140.7,487.3 1145.8,487.4 1150.9,491.7 1156.0,474.8 1161.1,481.5 1166.2,482.3 1171.3,490.4 1176.4,482.0 1181.5,480.4 1186.6,487.6 1191.7,481.7 1196.8,481.2 1201.9,484.7 1207.0,483.8 1212.1,485.9 1217.2,480.9 1222.3,481.6 1227.4,481.3 1232.5,483.0 1237.6,486.9 1242.7,486.4 1247.8,483.3 1252.9,484.8 1258.0,487.7 1263.1,478.7 1268.2,483.4 1273.3,479.0 1278.4,479.6 1283.5,482.0 1288.6,483.4 1293.7,482.2 1298.8,480.2 1303.9,483.1 1309.0,486.2 1314.1,482.9 1319.2,476.7 1324.3,485.6 1329.4,484.2 1334.5,476.5 1339.6,483.9 1344.7,484.5 1349.8,479.2 1354.9,482.6 1360.0,481.8"/>
<line x1="100" y1="338" x2="120" y2="338" stroke="#9467bd" stroke-width="2" stroke-dasharray="8,4"/><text x="128" y="342" font-family="monospace" font-size="12">policy_loss</text>
<polyline fill="none" stroke="#2ca02c" stroke-width="2" stroke-dasharray="3,4" points="90.0,322.0 95.1,345.6 100.2,341.6 105.3,343.8 110.4,346.0 115.5,340.2 120.6,333.0 125.7,344.9 130.8,334.7 135.9,348.0 141.0,344.5 146.1,336.6 151.2,345.3 156.3,339.8 161.4,353.1 166.5,338.1 171.6,337.8 176.7,343.3 181.8,335.1 186.9,332.2 192.0,340.3 197.1,349.8 202.2,342.7 207.3,326.3 212.4,324.2 217.5,333.8 222.6,338.4 227.7,338.6 232.8,339.3 237.9,336.7 243.0,338.7 248.1,346.2 253.2,333.5 258.3,345.8 263.4,346.4 268.5,338.9 273.6,351.9 278.7,341.6 283.8,344.3 288.9,326.4 294.0,342.3 299.1,333.7 304.2,337.7 309.3,346.7 314.4,350.4 319.5,344.6 324.6,342.7 329.7,343.0 334.8,324.8 339.9,318.3 345.0,339.7 350.1,344.3 355.2,345.3 360.3,340.7 365.4,346.1 370.5,338.1 375.6,346.8 380.7,356.1 385.8,341.4 390.9,340.9 396.0,336.6 401.1,337.4 406.2,356.1 411.3,339.4 416.4,343.1 421.5,343.8 426.6,357.7 431.7,353.9 436.8,335.9 441.9,349.7 447.0,341.2 452.1,322.6 457.2,342.1 462.3,338.0 467.4,338.8 472.5,349.3 477.6,331.7 482.7,344.3 487.8,344.8 492.9,343.9 498.0,345.7 503.1,348.8 508.2,345.5 513.3,344.8 518.4,351.2 523.5,360.0 528.6,351.0 533.7,341.6 538.8,345.6 543.9,344.3 549.0,352.1 554.1,335.9 559.2,342.9 564.3,345.4 569.4,348.7 574.5,350.1 579.6,347.7 584.7,349.1 589.8,353.6 594.9,350.9 600.0,342.4 605.1,349.9 610.2,349.8 615.3,349.5 620.4,345.5 625.5,346.0 630.6,345.1 635.7,336.5 640.8,354.1 645.9,337.8 651.0,344.7 656.1,346.1 661.2,343.1 666.3,341.0 671.4,329.7 676.5,350.4 681.6,350.0 686.7,340.2 691.8,341.4 696.9,344.2 702.0,336.4 707.1,343.7 712.2,337.3 717.3,343.9 722.4,344.0 727.6,334.2 732.7,343.6 737.8,347.4 742.9,332.7 748.0,348.0 753.1,356.0 758.2,327.2 763.3,327.3 768.4,326.5 773.5,334.1 778.6,344.1 783.7,359.5 788.8,349.0 793.9,350.5 799.0,345.8 804.1,339.3 809.2,342.8 814.3,336.5 819.4,343.2 824.5,358.3 829.6,353.7 834.7,353.3 839.8,342.7 844.9,348.1 850.0,342.2 855.1,335.5 860.2,340.2 865.3,334.0 870.4,349.2 875.5,347.4 880.6,350.5 885.7,341.3 890.8,341.0 895.9,321.9 901.0,343.3 906.1,343.4 911.2,351.8 916.3,353.9 921.4,356.6 926.5,333.5 931.6,342.4 936.7,335.3 941.8,336.8 946.9,351.8 952.0,349.1 957.1,347.4 962.2,340.2 967.3,336.5 972.4,352.6 977.5,352.3 982.6,347.5 987.7,343.4 992.8,358.9 997.9,350.1 1003.0,346.7 1008.1,346.4 1013.2,337.2 1018.3,343.6 1023.4,355.2 1028.5,343.8 1033.6,337.3 1038.7,347.9 1043.8,347.9 1048.9,332.2 1054.0,354.7 1059.1,356.2 1064.2,360.5 1069.3,341.3 1074.4,347.5 1079.5,350.9 1084.6,361.9 1089.7,349.1 1094.8,345.4 1099.9,344.9 1105.0,344.5 1110.1,337.2 1115.2,350.0 1120.3,341.3 1125.4,338.9 1130.5,352.9 1135.6,348.9 1140.7,351.9 1145.8,359.8 1150.9,362.9 1156.0,345.3 1161.1,337.8 1166.2,336.6 1171.3,348.6 1176.4,344.5 1181.5,348.2 1186.6,346.0 1191.7,330.9 1196.8,342.9 1201.9,345.3 1207.0,339.0 1212.1,352.6 1217.2,345.6 1222.3,341.3 1227.4,344.4 1232.5,342.8 1237.6,354.0 1242.7,349.5 1247.8,346.8 1252.9,347.9 1258.0,353.8 1263.1,340.8 1268.2,343.9 1273.3,340.5 1278.4,337.8 1283.5,351.4 1288.6,352.4 1293.7,346.9 1298.8,343.8 1303.9,352.9 1309.0,351.2 1314.1,346.8 1319.2,327.8 1324.3,347.7 1329.4,343.0 1334.5,342.0 1339.6,356.4 1344.7,354.2 1349.8,348.1 1354.9,344.2 1360.0,352.1"/>
<line x1="100" y1="356" x2="120" y2="356" stroke="#2ca02c" stroke-width="2" stroke-dasharray="3,4"/><text x="128" y="360" font-family="monospace" font-size="12">vf_loss</text>
<rect x="90" y="550" width="1270" height="220" fill="white" stroke="#cccccc"/>
<line x1="90" y1="550.0" x2="1360" y2="550.0" stroke="#eeeeee"/>
<line x1="90" y1="605.0" x2="1360" y2="605.0" stroke="#eeeeee"/>
<line x1="90" y1="660.0" x2="1360" y2="660.0" stroke="#eeeeee"/>
<line x1="90" y1="715.0" x2="1360" y2="715.0" stroke="#eeeeee"/>
<line x1="90" y1="770.0" x2="1360" y2="770.0" stroke="#eeeeee"/>
<line x1="90.0" y1="550" x2="90.0" y2="770" stroke="#f3f3f3"/>
<line x1="407.5" y1="550" x2="407.5" y2="770" stroke="#f3f3f3"/>
<line x1="725.0" y1="550" x2="725.0" y2="770" stroke="#f3f3f3"/>
<line x1="1042.5" y1="550" x2="1042.5" y2="770" stroke="#f3f3f3"/>
<line x1="1360.0" y1="550" x2="1360.0" y2="770" stroke="#f3f3f3"/>
<text x="90" y="540" font-family="monospace" font-size="12">entropy</text>
<text x="10" y="565" font-family="monospace" font-size="12">2.029</text>
<text x="10" y="770.0" font-family="monospace" font-size="12">1.396</text>
<polyline fill="none" stroke="#8c564b" stroke-width="2" points="90.0,568.3 95.1,572.5 100.2,571.0 105.3,587.7 110.4,578.0 115.5,580.3 120.6,583.4 125.7,582.6 130.8,585.9 135.9,592.8 141.0,582.1 146.1,578.4 151.2,588.9 156.3,591.4 161.4,597.3 166.5,592.8 171.6,600.9 176.7,600.2 181.8,593.0 186.9,598.6 192.0,596.2 197.1,586.9 202.2,595.5 207.3,599.1 212.4,596.2 217.5,597.3 222.6,601.9 227.7,601.5 232.8,603.8 237.9,593.9 243.0,602.8 248.1,597.5 253.2,600.0 258.3,602.3 263.4,614.3 268.5,610.2 273.6,607.7 278.7,606.6 283.8,608.2 288.9,620.1 294.0,616.6 299.1,613.8 304.2,606.2 309.3,618.3 314.4,619.3 319.5,620.0 324.6,628.0 329.7,617.3 334.8,619.4 339.9,621.3 345.0,617.1 350.1,623.8 355.2,626.9 360.3,626.8 365.4,629.9 370.5,628.3 375.6,628.7 380.7,622.7 385.8,620.8 390.9,622.3 396.0,623.4 401.1,629.8 406.2,623.4 411.3,634.0 416.4,631.4 421.5,635.0 426.6,633.1 431.7,631.1 436.8,636.3 441.9,627.8 447.0,634.7 452.1,633.0 457.2,641.4 462.3,643.2 467.4,640.9 472.5,637.4 477.6,645.4 482.7,644.5 487.8,647.4 492.9,646.6 498.0,651.4 503.1,643.1 508.2,645.4 513.3,651.3 518.4,646.4 523.5,647.0 528.6,654.6 533.7,644.8 538.8,660.1 543.9,643.2 549.0,649.3 554.1,649.5 559.2,654.7 564.3,655.9 569.4,651.4 574.5,659.6 579.6,659.2 584.7,663.6 589.8,663.6 594.9,660.8 600.0,664.2 605.1,668.9 610.2,659.3 615.3,665.2 620.4,663.5 625.5,666.6 630.6,669.5 635.7,668.8 640.8,668.4 645.9,665.4 651.0,670.5 656.1,663.3 661.2,668.6 666.3,668.5 671.4,667.8 676.5,674.2 681.6,675.1 686.7,673.9 691.8,676.4 696.9,669.2 702.0,671.4 707.1,664.1 712.2,673.5 717.3,675.9 722.4,672.3 727.6,672.9 732.7,679.0 737.8,671.5 742.9,678.0 748.0,684.1 753.1,677.2 758.2,681.5 763.3,687.9 768.4,687.6 773.5,695.1 778.6,690.4 783.7,686.5 788.8,688.8 793.9,692.6 799.0,683.6 804.1,691.0 809.2,691.4 814.3,692.4 819.4,692.3 824.5,690.5 829.6,699.7 834.7,692.4 839.8,695.4 844.9,688.2 850.0,696.8 855.1,689.3 860.2,693.9 865.3,696.3 870.4,689.8 875.5,690.9 880.6,691.5 885.7,694.2 890.8,700.6 895.9,699.1 901.0,698.1 906.1,699.7 911.2,698.1 916.3,701.8 921.4,698.7 926.5,702.2 931.6,705.1 936.7,706.6 941.8,698.3 946.9,703.4 952.0,713.9 957.1,705.3 962.2,706.8 967.3,714.5 972.4,721.5 977.5,715.3 982.6,716.2 987.7,721.9 992.8,717.4 997.9,709.9 1003.0,711.3 1008.1,717.5 1013.2,718.7 1018.3,716.8 1023.4,714.3 1028.5,719.9 1033.6,718.9 1038.7,716.8 1043.8,715.5 1048.9,713.4 1054.0,715.9 1059.1,716.6 1064.2,718.6 1069.3,720.1 1074.4,718.7 1079.5,717.7 1084.6,718.6 1089.7,715.8 1094.8,724.5 1099.9,718.0 1105.0,724.3 1110.1,721.5 1115.2,722.2 1120.3,719.2 1125.4,727.2 1130.5,730.9 1135.6,730.9 1140.7,730.9 1145.8,724.1 1150.9,724.2 1156.0,734.0 1161.1,729.0 1166.2,733.4 1171.3,731.5 1176.4,731.2 1181.5,727.6 1186.6,731.4 1191.7,735.7 1196.8,735.1 1201.9,733.0 1207.0,734.8 1212.1,735.0 1217.2,737.5 1222.3,733.2 1227.4,737.6 1232.5,737.9 1237.6,743.3 1242.7,739.5 1247.8,741.0 1252.9,744.6 1258.0,738.6 1263.1,740.8 1268.2,739.7 1273.3,738.9 1278.4,741.7 1283.5,742.3 1288.6,742.7 1293.7,742.4 1298.8,747.1 1303.9,746.3 1309.0,741.0 1314.1,743.2 1319.2,750.1 1324.3,747.7 1329.4,750.8 1334.5,750.1 1339.6,751.5 1344.7,750.6 1349.8,747.8 1354.9,751.7 1360.0,748.7"/>
<line x1="100" y1="570" x2="120" y2="570" stroke="#8c564b" stroke-width="2"/><text x="128" y="574" font-family="monospace" font-size="12">entropy</text>
<rect x="90" y="800" width="1270" height="220" fill="white" stroke="#cccccc"/>
<line x1="90" y1="800.0" x2="1360" y2="800.0" stroke="#eeeeee"/>
<line x1="90" y1="855.0" x2="1360" y2="855.0" stroke="#eeeeee"/>
<line x1="90" y1="910.0" x2="1360" y2="910.0" stroke="#eeeeee"/>
<line x1="90" y1="965.0" x2="1360" y2="965.0" stroke="#eeeeee"/>
<line x1="90" y1="1020.0" x2="1360" y2="1020.0" stroke="#eeeeee"/>
<line x1="90.0" y1="800" x2="90.0" y2="1020" stroke="#f3f3f3"/>
<line x1="407.5" y1="800" x2="407.5" y2="1020" stroke="#f3f3f3"/>
<line x1="725.0" y1="800" x2="725.0" y2="1020" stroke="#f3f3f3"/>
<line x1="1042.5" y1="800" x2="1042.5" y2="1020" stroke="#f3f3f3"/>
<line x1="1360.0" y1="800" x2="1360.0" y2="1020" stroke="#f3f3f3"/>
<text x="90" y="790" font-family="monospace" font-size="12">kl</text>
<text x="10" y="815" font-family="monospace" font-size="12">0.040</text>
<text x="10" y="1020.0" font-family="monospace" font-size="12">0.010</text>
<polyline fill="none" stroke="#7f7f7f" stroke-width="2" points="90.0,847.1 95.1,818.3 100.2,895.6 105.3,934.1 110.4,955.7 115.5,937.3 120.6,977.1 125.7,980.4 130.8,982.5 135.9,985.7 141.0,989.6 146.1,986.7 151.2,989.3 156.3,990.4 161.4,981.3 166.5,988.8 171.6,993.5 176.7,986.0 181.8,994.9 186.9,987.7 192.0,982.9 197.1,977.9 202.2,982.7 207.3,992.5 212.4,995.2 217.5,988.0 222.6,985.4 227.7,992.1 232.8,984.3 237.9,986.1 243.0,984.5 248.1,971.7 253.2,988.0 258.3,982.1 263.4,980.5 268.5,994.5 273.6,987.7 278.7,991.7 283.8,986.0 288.9,994.4 294.0,988.1 299.1,991.3 304.2,985.0 309.3,982.2 314.4,987.0 319.5,986.0 324.6,990.2 329.7,982.0 334.8,989.4 339.9,986.8 345.0,983.1 350.1,982.4 355.2,985.4 360.3,991.9 365.4,984.9 370.5,991.3 375.6,978.4 380.7,977.8 385.8,981.0 390.9,978.4 396.0,988.4 401.1,990.3 406.2,981.6 411.3,992.5 416.4,989.0 421.5,993.6 426.6,985.9 431.7,989.6 436.8,994.7 441.9,989.6 447.0,991.0 452.1,959.2 457.2,991.5 462.3,992.0 467.4,987.4 472.5,988.7 477.6,997.3 482.7,992.6 487.8,985.8 492.9,990.4 498.0,982.5 503.1,985.8 508.2,988.1 513.3,994.0 518.4,981.9 523.5,986.5 528.6,994.4 533.7,985.9 538.8,993.6 543.9,983.4 549.0,986.1 554.1,994.6 559.2,991.6 564.3,989.3 569.4,980.7 574.5,988.6 579.6,989.7 584.7,989.2 589.8,987.2 594.9,994.4 600.0,986.7 605.1,991.0 610.2,987.0 615.3,986.2 620.4,984.9 625.5,983.2 630.6,993.1 635.7,985.4 640.8,988.7 645.9,995.3 651.0,987.4 656.1,972.2 661.2,992.2 666.3,987.5 671.4,995.0 676.5,973.7 681.6,992.1 686.7,995.8 691.8,985.2 696.9,984.1 702.0,989.4 707.1,981.5 712.2,990.7 717.3,986.9 722.4,991.7 727.6,987.2 732.7,989.3 737.8,985.5 742.9,992.3 748.0,989.2 753.1,989.3 758.2,994.6 763.3,993.9 768.4,992.2 773.5,990.2 778.6,988.4 783.7,988.4 788.8,991.9 793.9,983.6 799.0,992.6 804.1,995.4 809.2,990.9 814.3,998.2 819.4,993.4 824.5,980.4 829.6,991.9 834.7,990.4 839.8,993.7 844.9,986.1 850.0,991.2 855.1,996.1 860.2,984.2 865.3,988.4 870.4,988.6 875.5,989.0 880.6,982.4 885.7,990.4 890.8,991.8 895.9,992.0 901.0,989.6 906.1,990.1 911.2,985.1 916.3,977.9 921.4,987.4 926.5,1000.1 931.6,990.7 936.7,992.7 941.8,981.3 946.9,988.7 952.0,987.6 957.1,994.9 962.2,995.6 967.3,989.1 972.4,981.0 977.5,997.6 982.6,989.2 987.7,976.9 992.8,986.4 997.9,988.8 1003.0,982.6 1008.1,992.6 1013.2,992.9 1018.3,988.0 1023.4,992.3 1028.5,996.4 1033.6,994.9 1038.7,987.1 1043.8,985.0 1048.9,985.9 1054.0,984.7 1059.1,988.2 1064.2,987.0 1069.3,992.6 1074.4,987.8 1079.5,988.3 1084.6,987.6 1089.7,994.1 1094.8,986.3 1099.9,993.6 1105.0,987.1 1110.1,992.2 1115.2,991.6 1120.3,992.2 1125.4,992.0 1130.5,991.9 1135.6,994.1 1140.7,991.6 1145.8,983.0 1150.9,986.2 1156.0,994.5 1161.1,983.6 1166.2,997.7 1171.3,989.1 1176.4,986.9 1181.5,991.0 1186.6,1001.5 1191.7,997.1 1196.8,994.4 1201.9,993.0 1207.0,996.0 1212.1,989.7 1217.2,1001.7 1222.3,993.7 1227.4,994.2 1232.5,995.5 1237.6,988.6 1242.7,992.2 1247.8,987.7 1252.9,994.6 1258.0,985.9 1263.1,994.8 1268.2,994.0 1273.3,990.1 1278.4,991.6 1283.5,988.6 1288.6,988.4 1293.7,999.5 1298.8,993.0 1303.9,994.4 1309.0,986.8 1314.1,983.1 1319.2,996.6 1324.3,989.5 1329.4,987.6 1334.5,991.9 1339.6,987.0 1344.7,991.1 1349.8,996.7 1354.9,984.2 1360.0,991.4"/>
<line x1="100" y1="820" x2="120" y2="820" stroke="#7f7f7f" stroke-width="2"/><text x="128" y="824" font-family="monospace" font-size="12">kl</text>
<text x="90" y="1170" font-family="monospace" font-size="12">orange dots = baseline 50-episode eval win_rate</text>
</svg>