<svg xmlns="http://www.w3.org/2000/svg" width="1400" height="1120" viewBox="0 0 1400 1120">
<rect x="0" y="0" width="1400" height="1120" fill="white" />
<text x="90" y="28" font-size="22" font-family="Arial, sans-serif" font-weight="bold">Training Loss Curve</text>
<text x="90" y="46" font-size="12" font-family="Arial, sans-serif" fill="#555">/home/hice1/wsun377/Desktop/cs8803drl/ray_results/PPO_team_vs_baseline_shaping_restore_512x512_20260412_002744</text>
<rect x="90" y="50" width="1270" height="210" fill="none" stroke="#bbb" stroke-width="1"/>
<text x="90" y="42" font-size="15" font-family="Arial, sans-serif" font-weight="bold">Losses</text>
<text x="18" y="155.0" font-size="12" font-family="Arial, sans-serif" transform="rotate(-90 18 155.0)">Loss</text>
<text x="18" y="62" font-size="11" font-family="Arial, sans-serif" fill="#666">0.123</text>
<text x="18" y="258" font-size="11" font-family="Arial, sans-serif" fill="#666">-0.126</text>
<line x1="90" y1="102.5" x2="1360" y2="102.5" stroke="#eee" stroke-width="1"/>
<line x1="90" y1="155.0" x2="1360" y2="155.0" stroke="#eee" stroke-width="1"/>
<line x1="90" y1="207.5" x2="1360" y2="207.5" stroke="#eee" stroke-width="1"/>
<rect x="90" y="290" width="1270" height="210" fill="none" stroke="#bbb" stroke-width="1"/>
<text x="90" y="282" font-size="15" font-family="Arial, sans-serif" font-weight="bold">Entropy / KL</text>
<text x="18" y="395.0" font-size="12" font-family="Arial, sans-serif" transform="rotate(-90 18 395.0)">Aux</text>
<text x="18" y="302" font-size="11" font-family="Arial, sans-serif" fill="#666">2.173</text>
<text x="18" y="498" font-size="11" font-family="Arial, sans-serif" fill="#666">-0.184</text>
<line x1="90" y1="342.5" x2="1360" y2="342.5" stroke="#eee" stroke-width="1"/>
<line x1="90" y1="395.0" x2="1360" y2="395.0" stroke="#eee" stroke-width="1"/>
<line x1="90" y1="447.5" x2="1360" y2="447.5" stroke="#eee" stroke-width="1"/>
<rect x="90" y="530" width="1270" height="210" fill="none" stroke="#bbb" stroke-width="1"/>
<text x="90" y="522" font-size="15" font-family="Arial, sans-serif" font-weight="bold">Episode Reward Mean</text>
<text x="18" y="635.0" font-size="12" font-family="Arial, sans-serif" transform="rotate(-90 18 635.0)">Reward</text>
<text x="18" y="542" font-size="11" font-family="Arial, sans-serif" fill="#666">2.207</text>
<text x="18" y="738" font-size="11" font-family="Arial, sans-serif" fill="#666">2.110</text>
<line x1="90" y1="582.5" x2="1360" y2="582.5" stroke="#eee" stroke-width="1"/>
<line x1="90" y1="635.0" x2="1360" y2="635.0" stroke="#eee" stroke-width="1"/>
<line x1="90" y1="687.5" x2="1360" y2="687.5" stroke="#eee" stroke-width="1"/>
<rect x="90" y="770" width="1270" height="210" fill="none" stroke="#bbb" stroke-width="1"/>
<text x="90" y="762" font-size="15" font-family="Arial, sans-serif" font-weight="bold">Baseline Win Rate (checkpoint eval)</text>
<text x="18" y="875.0" font-size="12" font-family="Arial, sans-serif" transform="rotate(-90 18 875.0)">Win Rate</text>
<text x="18" y="782" font-size="11" font-family="Arial, sans-serif" fill="#666">1.000</text>
<text x="18" y="978" font-size="11" font-family="Arial, sans-serif" fill="#666">0.000</text>
<line x1="90" y1="822.5" x2="1360" y2="822.5" stroke="#eee" stroke-width="1"/>
<line x1="90" y1="875.0" x2="1360" y2="875.0" stroke="#eee" stroke-width="1"/>
<line x1="90" y1="927.5" x2="1360" y2="927.5" stroke="#eee" stroke-width="1"/>
<line x1="90.0" y1="50" x2="90.0" y2="980" stroke="#f3f3f3" stroke-width="1"/>
<text x="90.0" y="998" text-anchor="middle" font-size="11" font-family="Arial, sans-serif" fill="#666">411</text>
<line x1="407.5" y1="50" x2="407.5" y2="980" stroke="#f3f3f3" stroke-width="1"/>
<text x="407.5" y="998" text-anchor="middle" font-size="11" font-family="Arial, sans-serif" fill="#666">473</text>
<line x1="725.0" y1="50" x2="725.0" y2="980" stroke="#f3f3f3" stroke-width="1"/>
<text x="725.0" y="998" text-anchor="middle" font-size="11" font-family="Arial, sans-serif" fill="#666">536</text>
<line x1="1042.5" y1="50" x2="1042.5" y2="980" stroke="#f3f3f3" stroke-width="1"/>
<text x="1042.5" y="998" text-anchor="middle" font-size="11" font-family="Arial, sans-serif" fill="#666">598</text>
<line x1="1360.0" y1="50" x2="1360.0" y2="980" stroke="#f3f3f3" stroke-width="1"/>
<text x="1360.0" y="998" text-anchor="middle" font-size="11" font-family="Arial, sans-serif" fill="#666">660</text>
<text x="725.0" y="1110" text-anchor="middle" font-size="12" font-family="Arial, sans-serif">Training Iteration</text>
<line x1="100" y1="68" x2="122" y2="68" stroke="#1f77b4" stroke-width="3"/>
<text x="128" y="72" font-size="11" font-family="Arial, sans-serif">default_policy</text>
<polyline fill="none" stroke="#1f77b4" stroke-width="2" points="90.0,148.7 95.1,172.4 100.2,166.9 105.3,160.4 110.4,158.7 115.5,146.2 120.6,137.2 125.7,149.3 130.8,142.7 135.9,158.2 141.0,156.7 146.1,149.3 151.2,158.1 156.3,146.4 161.4,161.9 166.5,144.7 171.6,146.3 176.7,150.9 181.8,143.5 186.9,134.6 192.0,144.1 197.1,159.5 202.2,150.3 207.3,134.9 212.4,128.3 217.5,140.5 222.6,144.2 227.7,145.7 232.8,147.1 237.9,147.3 243.0,145.6 248.1,157.6 253.2,147.9 258.3,154.4 263.4,156.5 268.5,149.0 273.6,159.6 278.7,148.3 283.8,149.3 288.9,131.7 294.0,150.1 299.1,138.1 304.2,146.7 309.3,157.3 314.4,164.1 319.5,151.3 324.6,149.2 329.7,148.9 334.8,127.5 339.9,119.8 345.0,146.3 350.1,150.5 355.2,152.2 360.3,150.3 365.4,158.3 370.5,143.8 375.6,152.3 380.7,163.7 385.8,142.6 390.9,144.6 396.0,143.2 401.1,140.7 406.2,163.5 411.3,142.1 416.4,151.0 421.5,147.2 426.6,166.9 431.7,162.8 436.8,142.7 441.9,161.6 447.0,144.9 452.1,112.3 457.2,150.7 462.3,147.0 467.4,147.4 472.5,161.1 477.6,138.2 482.7,154.8 487.8,150.0 492.9,143.0 498.0,150.1 503.1,156.7 508.2,150.7 513.3,152.4 518.4,160.7 523.5,170.9 528.6,154.4 533.7,144.7 538.8,154.1 543.9,149.1 549.0,158.2 554.1,141.1 559.2,152.2 564.3,149.0 569.4,154.8 574.5,157.4 579.6,156.7 584.7,157.8 589.8,159.8 594.9,155.4 600.0,144.1 605.1,155.9 610.2,157.1 615.3,150.8 620.4,153.6 625.5,151.6 630.6,150.0 635.7,133.6 640.8,163.7 645.9,145.1 651.0,152.5 656.1,139.1 661.2,146.1 666.3,145.5 671.4,137.3 676.5,155.0 681.6,158.8 686.7,143.1 691.8,143.6 696.9,151.4 702.0,142.6 707.1,148.3 712.2,142.8 717.3,150.7 722.4,145.0 727.6,130.6 732.7,147.1 737.8,147.5 742.9,140.1 748.0,156.6 753.1,168.3 758.2,128.3 763.3,129.3 768.4,127.9 773.5,131.7 778.6,142.3 783.7,169.8 788.8,153.1 793.9,154.8 799.0,151.4 804.1,141.1 809.2,148.5 814.3,141.5 819.4,148.8 824.5,163.0 829.6,160.8 834.7,157.7 839.8,145.0 844.9,154.4 850.0,144.5 855.1,138.2 860.2,145.2 865.3,136.6 870.4,156.4 875.5,156.6 880.6,155.6 885.7,147.5 890.8,146.4 895.9,120.3 901.0,149.1 906.1,150.6 911.2,162.2 916.3,156.0 921.4,168.5 926.5,135.4 931.6,144.7 936.7,136.2 941.8,136.6 946.9,158.9 952.0,150.9 957.1,148.1 962.2,143.3 967.3,138.8 972.4,151.0 977.5,159.2 982.6,150.4 987.7,143.7 992.8,168.9 997.9,154.2 1003.0,148.1 1008.1,149.9 1013.2,134.8 1018.3,143.4 1023.4,158.3 1028.5,150.0 1033.6,139.9 1038.7,151.8 1043.8,153.5 1048.9,133.0 1054.0,159.9 1059.1,159.9 1064.2,168.3 1069.3,148.0 1074.4,151.0 1079.5,158.9 1084.6,170.6 1089.7,148.2 1094.8,148.3 1099.9,150.9 1105.0,147.3 1110.1,135.6 1115.2,149.6 1120.3,141.5 1125.4,141.8 1130.5,159.1 1135.6,151.6 1140.7,157.0 1145.8,163.1 1150.9,170.7 1156.0,139.3 1161.1,136.6 1166.2,138.7 1171.3,156.3 1176.4,144.0 1181.5,146.7 1186.6,153.5 1191.7,132.6 1196.8,143.1 1201.9,148.5 1207.0,142.1 1212.1,155.9 1217.2,146.6 1222.3,141.8 1227.4,144.6 1232.5,144.9 1237.6,158.1 1242.7,153.9 1247.8,147.7 1252.9,151.3 1258.0,158.1 1263.1,138.7 1268.2,146.1 1273.3,137.9 1278.4,136.2 1283.5,150.9 1288.6,153.2 1293.7,148.8 1298.8,142.8 1303.9,154.4 1309.0,154.4 1314.1,146.5 1319.2,124.8 1324.3,151.0 1329.4,144.9 1334.5,137.3 1339.6,157.2 1344.7,156.4 1349.8,146.6 1354.9,143.9 1360.0,151.9"/>
<polyline fill="none" stroke="#1f77b4" stroke-width="2" stroke-dasharray="8,4" points="90.0,237.5 95.1,242.5 100.2,241.5 105.3,234.8 110.4,234.6 115.5,229.8 120.6,229.6 125.7,229.7 130.8,232.5 135.9,234.8 141.0,236.0 146.1,236.6 151.2,236.6 156.3,229.9 161.4,234.4 166.5,230.2 171.6,231.2 176.7,231.9 181.8,230.8 186.9,225.9 192.0,228.5 197.1,235.7 202.2,232.5 207.3,230.9 212.4,225.9 217.5,230.2 222.6,230.0 227.7,230.1 232.8,232.2 237.9,234.6 243.0,231.3 248.1,238.3 253.2,237.9 258.3,233.6 263.4,235.5 268.5,232.6 273.6,232.1 278.7,229.9 283.8,229.3 288.9,227.3 294.0,231.7 299.1,227.3 304.2,233.2 309.3,235.7 314.4,238.1 319.5,231.1 324.6,230.0 329.7,230.9 334.8,225.6 339.9,224.5 345.0,231.2 350.1,231.2 355.2,231.4 360.3,232.8 365.4,236.8 370.5,228.8 375.6,231.3 380.7,234.0 385.8,226.4 390.9,229.2 396.0,230.2 401.1,226.5 406.2,233.0 411.3,225.6 416.4,231.7 421.5,226.4 426.6,234.2 431.7,233.1 436.8,229.2 441.9,235.8 447.0,227.0 452.1,217.7 457.2,231.8 462.3,232.0 467.4,232.4 472.5,235.9 477.6,228.2 482.7,233.7 487.8,229.6 492.9,222.6 498.0,229.3 503.1,232.4 508.2,229.2 513.3,230.6 518.4,234.8 523.5,235.9 528.6,226.5 533.7,227.3 538.8,231.6 543.9,229.6 549.0,230.8 554.1,227.6 559.2,232.6 564.3,227.5 569.4,231.6 574.5,231.4 579.6,232.8 584.7,232.7 589.8,230.8 594.9,227.6 600.0,225.8 605.1,229.8 610.2,231.6 615.3,225.8 620.4,232.7 625.5,230.5 630.6,228.0 635.7,221.2 640.8,233.9 645.9,229.7 651.0,231.8 656.1,219.8 661.2,226.2 666.3,228.5 671.4,229.7 676.5,231.4 681.6,232.2 686.7,225.3 691.8,226.5 696.9,231.9 702.0,229.6 707.1,229.8 712.2,228.7 717.3,231.0 722.4,224.3 727.6,220.1 732.7,227.2 737.8,224.6 742.9,230.1 748.0,232.5 753.1,236.6 758.2,223.2 763.3,224.2 768.4,223.8 773.5,220.8 778.6,222.2 783.7,234.9 788.8,227.5 793.9,229.4 799.0,228.8 804.1,224.3 809.2,229.1 814.3,226.9 819.4,228.6 824.5,230.6 829.6,230.8 834.7,228.4 839.8,225.2 844.9,230.8 850.0,225.7 855.1,224.9 860.2,229.5 865.3,226.0 870.4,231.3 875.5,233.1 880.6,230.4 885.7,229.6 890.8,228.6 895.9,220.6 901.0,229.4 906.1,230.8 911.2,235.3 916.3,228.3 921.4,236.6 926.5,223.3 931.6,225.7 936.7,223.6 941.8,224.6 946.9,231.3 952.0,226.1 957.1,223.6 962.2,225.6 967.3,225.7 972.4,224.0 977.5,229.6 982.6,226.8 987.7,226.2 992.8,234.9 997.9,228.2 1003.0,226.4 1008.1,226.8 1013.2,220.4 1018.3,223.8 1023.4,226.8 1028.5,228.6 1033.6,225.0 1038.7,228.2 1043.8,230.3 1048.9,224.6 1054.0,230.2 1059.1,228.2 1064.2,232.7 1069.3,229.8 1074.4,227.7 1079.5,232.2 1084.6,233.6 1089.7,222.3 1094.8,227.2 1099.9,229.1 1105.0,227.0 1110.1,221.3 1115.2,223.2 1120.3,223.2 1125.4,225.9 1130.5,229.9 1135.6,225.8 1140.7,228.8 1145.8,228.9 1150.9,233.0 1156.0,216.8 1161.1,223.2 1166.2,224.0 1171.3,231.7 1176.4,223.7 1181.5,222.2 1186.6,229.1 1191.7,223.4 1196.8,222.9 1201.9,226.3 1207.0,225.4 1212.1,227.4 1217.2,222.7 1222.3,223.4 1227.4,223.0 1232.5,224.7 1237.6,228.4 1242.7,227.9 1247.8,225.0 1252.9,226.4 1258.0,229.1 1263.1,220.5 1268.2,225.1 1273.3,220.9 1278.4,221.5 1283.5,223.7 1288.6,225.1 1293.7,223.9 1298.8,222.0 1303.9,224.8 1309.0,227.8 1314.1,224.6 1319.2,218.7 1324.3,227.2 1329.4,225.9 1334.5,218.5 1339.6,225.5 1344.7,226.1 1349.8,221.1 1354.9,224.3 1360.0,223.5"/>
<polyline fill="none" stroke="#1f77b4" stroke-width="2" stroke-dasharray="3,4" points="90.0,71.0 95.1,93.5 100.2,89.7 105.3,91.8 110.4,93.9 115.5,88.4 120.6,81.5 125.7,92.9 130.8,83.1 135.9,95.8 141.0,92.4 146.1,84.9 151.2,93.2 156.3,88.0 161.4,100.7 166.5,86.3 171.6,86.1 176.7,91.3 181.8,83.5 186.9,80.7 192.0,88.5 197.1,97.5 202.2,90.7 207.3,75.1 212.4,73.1 217.5,82.3 222.6,86.7 227.7,86.9 232.8,87.5 237.9,85.0 243.0,86.9 248.1,94.1 253.2,82.0 258.3,93.8 263.4,94.3 268.5,87.2 273.6,99.5 278.7,89.7 283.8,92.3 288.9,75.2 294.0,90.4 299.1,82.2 304.2,85.9 309.3,94.6 314.4,98.2 319.5,92.5 324.6,90.8 329.7,91.0 334.8,73.6 339.9,67.5 345.0,87.9 350.1,92.3 355.2,93.3 360.3,88.8 365.4,94.0 370.5,86.4 375.6,94.6 380.7,103.5 385.8,89.5 390.9,89.0 396.0,85.0 401.1,85.7 406.2,103.5 411.3,87.7 416.4,91.1 421.5,91.8 426.6,105.1 431.7,101.4 436.8,84.3 441.9,97.5 447.0,89.3 452.1,71.6 457.2,90.2 462.3,86.3 467.4,87.1 472.5,97.1 477.6,80.3 482.7,92.3 487.8,92.8 492.9,91.9 498.0,93.7 503.1,96.6 508.2,93.5 513.3,92.7 518.4,98.9 523.5,107.3 528.6,98.7 533.7,89.7 538.8,93.5 543.9,92.3 549.0,99.8 554.1,84.3 559.2,91.0 564.3,93.3 569.4,96.4 574.5,97.8 579.6,95.5 584.7,96.9 589.8,101.1 594.9,98.6 600.0,90.5 605.1,97.6 610.2,97.6 615.3,97.2 620.4,93.4 625.5,93.9 630.6,93.1 635.7,84.9 640.8,101.6 645.9,86.1 651.0,92.7 656.1,94.0 661.2,91.2 666.3,89.1 671.4,78.3 676.5,98.1 681.6,97.8 686.7,88.3 691.8,89.5 696.9,92.1 702.0,84.7 707.1,91.7 712.2,85.6 717.3,91.9 722.4,92.0 727.6,82.6 732.7,91.6 737.8,95.2 742.9,81.3 748.0,95.8 753.1,103.5 758.2,75.9 763.3,76.1 768.4,75.3 773.5,82.5 778.6,92.1 783.7,106.8 788.8,96.8 793.9,98.2 799.0,93.7 804.1,87.5 809.2,90.9 814.3,84.8 819.4,91.2 824.5,105.7 829.6,101.3 834.7,100.9 839.8,90.8 844.9,95.9 850.0,90.3 855.1,83.8 860.2,88.3 865.3,82.5 870.4,96.9 875.5,95.3 880.6,98.2 885.7,89.5 890.8,89.1 895.9,70.9 901.0,91.4 906.1,91.4 911.2,99.4 916.3,101.5 921.4,104.0 926.5,81.9 931.6,90.5 936.7,83.7 941.8,85.1 946.9,99.4 952.0,96.9 957.1,95.2 962.2,88.4 967.3,84.9 972.4,100.3 977.5,99.9 982.6,95.4 987.7,91.4 992.8,106.2 997.9,97.8 1003.0,94.6 1008.1,94.3 1013.2,85.5 1018.3,91.7 1023.4,102.7 1028.5,91.8 1033.6,85.6 1038.7,95.7 1043.8,95.7 1048.9,80.8 1054.0,102.2 1059.1,103.6 1064.2,107.7 1069.3,89.4 1074.4,95.4 1079.5,98.6 1084.6,109.1 1089.7,96.8 1094.8,93.3 1099.9,92.8 1105.0,92.4 1110.1,85.5 1115.2,97.7 1120.3,89.5 1125.4,87.2 1130.5,100.5 1135.6,96.7 1140.7,99.6 1145.8,107.1 1150.9,110.0 1156.0,93.3 1161.1,86.1 1166.2,84.9 1171.3,96.4 1176.4,92.4 1181.5,96.0 1186.6,93.9 1191.7,79.5 1196.8,91.0 1201.9,93.2 1207.0,87.2 1212.1,100.2 1217.2,93.5 1222.3,89.4 1227.4,92.4 1232.5,90.9 1237.6,101.6 1242.7,97.2 1247.8,94.7 1252.9,95.7 1258.0,101.3 1263.1,88.9 1268.2,91.9 1273.3,88.6 1278.4,86.0 1283.5,99.0 1288.6,100.0 1293.7,94.8 1298.8,91.8 1303.9,100.5 1309.0,98.8 1314.1,94.7 1319.2,76.6 1324.3,95.5 1329.4,91.1 1334.5,90.1 1339.6,103.8 1344.7,101.7 1349.8,96.0 1354.9,92.2 1360.0,99.7"/>
<polyline fill="none" stroke="#1f77b4" stroke-width="2" points="90.0,307.5 95.1,308.6 100.2,308.2 105.3,312.5 110.4,310.0 115.5,310.6 120.6,311.4 125.7,311.2 130.8,312.0 135.9,313.8 141.0,311.0 146.1,310.1 151.2,312.8 156.3,313.4 161.4,314.9 166.5,313.8 171.6,315.9 176.7,315.7 181.8,313.8 186.9,315.3 192.0,314.6 197.1,312.3 202.2,314.5 207.3,315.4 212.4,314.7 217.5,314.9 222.6,316.1 227.7,316.0 232.8,316.6 237.9,314.0 243.0,316.3 248.1,315.0 253.2,315.6 258.3,316.2 263.4,319.3 268.5,318.2 273.6,317.6 278.7,317.3 283.8,317.7 288.9,320.8 294.0,319.9 299.1,319.2 304.2,317.2 309.3,320.3 314.4,320.6 319.5,320.8 324.6,322.8 329.7,320.1 334.8,320.6 339.9,321.1 345.0,320.0 350.1,321.7 355.2,322.5 360.3,322.5 365.4,323.3 370.5,322.9 375.6,323.0 380.7,321.4 385.8,321.0 390.9,321.3 396.0,321.6 401.1,323.3 406.2,321.6 411.3,324.4 416.4,323.7 421.5,324.6 426.6,324.1 431.7,323.6 436.8,324.9 441.9,322.8 447.0,324.5 452.1,324.1 457.2,326.3 462.3,326.7 467.4,326.1 472.5,325.2 477.6,327.3 482.7,327.0 487.8,327.8 492.9,327.6 498.0,328.8 503.1,326.7 508.2,327.3 513.3,328.8 518.4,327.5 523.5,327.7 528.6,329.6 533.7,327.1 538.8,331.0 543.9,326.7 549.0,328.3 554.1,328.3 559.2,329.7 564.3,330.0 569.4,328.8 574.5,330.9 579.6,330.8 584.7,331.9 589.8,331.9 594.9,331.2 600.0,332.1 605.1,333.3 610.2,330.9 615.3,332.4 620.4,331.9 625.5,332.7 630.6,333.5 635.7,333.3 640.8,333.2 645.9,332.4 651.0,333.7 656.1,331.9 661.2,333.2 666.3,333.2 671.4,333.0 676.5,334.7 681.6,334.9 686.7,334.6 691.8,335.2 696.9,333.4 702.0,334.0 707.1,332.1 712.2,334.5 717.3,335.1 722.4,334.2 727.6,334.3 732.7,335.9 737.8,334.0 742.9,335.6 748.0,337.2 753.1,335.4 758.2,336.5 763.3,338.2 768.4,338.1 773.5,340.0 778.6,338.8 783.7,337.8 788.8,338.4 793.9,339.4 799.0,337.1 804.1,339.0 809.2,339.1 814.3,339.3 819.4,339.3 824.5,338.9 829.6,341.2 834.7,339.3 839.8,340.1 844.9,338.3 850.0,340.5 855.1,338.5 860.2,339.7 865.3,340.3 870.4,338.7 875.5,339.0 880.6,339.1 885.7,339.8 890.8,341.4 895.9,341.1 901.0,340.8 906.1,341.2 911.2,340.8 916.3,341.7 921.4,341.0 926.5,341.8 931.6,342.6 936.7,343.0 941.8,340.8 946.9,342.1 952.0,344.9 957.1,342.6 962.2,343.0 967.3,345.0 972.4,346.8 977.5,345.2 982.6,345.4 987.7,346.9 992.8,345.8 997.9,343.8 1003.0,344.2 1008.1,345.8 1013.2,346.1 1018.3,345.6 1023.4,344.9 1028.5,346.4 1033.6,346.1 1038.7,345.6 1043.8,345.3 1048.9,344.7 1054.0,345.4 1059.1,345.6 1064.2,346.1 1069.3,346.4 1074.4,346.1 1079.5,345.8 1084.6,346.1 1089.7,345.3 1094.8,347.6 1099.9,345.9 1105.0,347.5 1110.1,346.8 1115.2,347.0 1120.3,346.2 1125.4,348.3 1130.5,349.2 1135.6,349.2 1140.7,349.2 1145.8,347.5 1150.9,347.5 1156.0,350.0 1161.1,348.7 1166.2,349.9 1171.3,349.4 1176.4,349.3 1181.5,348.4 1186.6,349.4 1191.7,350.4 1196.8,350.3 1201.9,349.8 1207.0,350.2 1212.1,350.3 1217.2,350.9 1222.3,349.8 1227.4,350.9 1232.5,351.0 1237.6,352.4 1242.7,351.4 1247.8,351.8 1252.9,352.7 1258.0,351.2 1263.1,351.8 1268.2,351.5 1273.3,351.3 1278.4,352.0 1283.5,352.1 1288.6,352.2 1293.7,352.2 1298.8,353.4 1303.9,353.2 1309.0,351.8 1314.1,352.4 1319.2,354.1 1324.3,353.5 1329.4,354.3 1334.5,354.1 1339.6,354.5 1344.7,354.3 1349.8,353.5 1354.9,354.5 1360.0,353.8"/>
<polyline fill="none" stroke="#1f77b4" stroke-width="2" stroke-dasharray="8,4" points="90.0,480.6 95.1,480.3 100.2,481.2 105.3,481.7 110.4,481.9 115.5,481.7 120.6,482.2 125.7,482.2 130.8,482.3 135.9,482.3 141.0,482.4 146.1,482.3 151.2,482.3 156.3,482.4 161.4,482.3 166.5,482.3 171.6,482.4 176.7,482.3 181.8,482.4 186.9,482.3 192.0,482.3 197.1,482.2 202.2,482.3 207.3,482.4 212.4,482.4 217.5,482.3 222.6,482.3 227.7,482.4 232.8,482.3 237.9,482.3 243.0,482.3 248.1,482.1 253.2,482.3 258.3,482.3 263.4,482.2 268.5,482.4 273.6,482.3 278.7,482.4 283.8,482.3 288.9,482.4 294.0,482.3 299.1,482.4 304.2,482.3 309.3,482.3 314.4,482.3 319.5,482.3 324.6,482.4 329.7,482.3 334.8,482.3 339.9,482.3 345.0,482.3 350.1,482.3 355.2,482.3 360.3,482.4 365.4,482.3 370.5,482.4 375.6,482.2 380.7,482.2 385.8,482.2 390.9,482.2 396.0,482.3 401.1,482.4 406.2,482.3 411.3,482.4 416.4,482.3 421.5,482.4 426.6,482.3 431.7,482.4 436.8,482.4 441.9,482.4 447.0,482.4 452.1,482.0 457.2,482.4 462.3,482.4 467.4,482.3 472.5,482.3 477.6,482.4 482.7,482.4 487.8,482.3 492.9,482.4 498.0,482.3 503.1,482.3 508.2,482.3 513.3,482.4 518.4,482.3 523.5,482.3 528.6,482.4 533.7,482.3 538.8,482.4 543.9,482.3 549.0,482.3 554.1,482.4 559.2,482.4 564.3,482.3 569.4,482.2 574.5,482.3 579.6,482.4 584.7,482.3 589.8,482.3 594.9,482.4 600.0,482.3 605.1,482.4 610.2,482.3 615.3,482.3 620.4,482.3 625.5,482.3 630.6,482.4 635.7,482.3 640.8,482.3 645.9,482.4 651.0,482.3 656.1,482.1 661.2,482.4 666.3,482.3 671.4,482.4 676.5,482.2 681.6,482.4 686.7,482.4 691.8,482.3 696.9,482.3 702.0,482.3 707.1,482.3 712.2,482.4 717.3,482.3 722.4,482.4 727.6,482.3 732.7,482.3 737.8,482.3 742.9,482.4 748.0,482.3 753.1,482.3 758.2,482.4 763.3,482.4 768.4,482.4 773.5,482.4 778.6,482.3 783.7,482.3 788.8,482.4 793.9,482.3 799.0,482.4 804.1,482.4 809.2,482.4 814.3,482.5 819.4,482.4 824.5,482.2 829.6,482.4 834.7,482.4 839.8,482.4 844.9,482.3 850.0,482.4 855.1,482.4 860.2,482.3 865.3,482.3 870.4,482.3 875.5,482.3 880.6,482.3 885.7,482.4 890.8,482.4 895.9,482.4 901.0,482.4 906.1,482.4 911.2,482.3 916.3,482.2 921.4,482.3 926.5,482.5 931.6,482.4 936.7,482.4 941.8,482.3 946.9,482.3 952.0,482.3 957.1,482.4 962.2,482.4 967.3,482.3 972.4,482.2 977.5,482.5 982.6,482.3 987.7,482.2 992.8,482.3 997.9,482.3 1003.0,482.3 1008.1,482.4 1013.2,482.4 1018.3,482.3 1023.4,482.4 1028.5,482.4 1033.6,482.4 1038.7,482.3 1043.8,482.3 1048.9,482.3 1054.0,482.3 1059.1,482.3 1064.2,482.3 1069.3,482.4 1074.4,482.3 1079.5,482.3 1084.6,482.3 1089.7,482.4 1094.8,482.3 1099.9,482.4 1105.0,482.3 1110.1,482.4 1115.2,482.4 1120.3,482.4 1125.4,482.4 1130.5,482.4 1135.6,482.4 1140.7,482.4 1145.8,482.3 1150.9,482.3 1156.0,482.4 1161.1,482.3 1166.2,482.5 1171.3,482.3 1176.4,482.3 1181.5,482.4 1186.6,482.5 1191.7,482.4 1196.8,482.4 1201.9,482.4 1207.0,482.4 1212.1,482.4 1217.2,482.5 1222.3,482.4 1227.4,482.4 1232.5,482.4 1237.6,482.3 1242.7,482.4 1247.8,482.3 1252.9,482.4 1258.0,482.3 1263.1,482.4 1268.2,482.4 1273.3,482.4 1278.4,482.4 1283.5,482.3 1288.6,482.3 1293.7,482.5 1298.8,482.4 1303.9,482.4 1309.0,482.3 1314.1,482.3 1319.2,482.4 1324.3,482.4 1329.4,482.3 1334.5,482.4 1339.6,482.3 1344.7,482.4 1349.8,482.4 1354.9,482.3 1360.0,482.4"/>
<polyline fill="none" stroke="#111" stroke-width="2.5" points="90.0,689.9 95.1,623.3 100.2,641.2 105.3,612.7 110.4,626.0 115.5,652.7 120.6,666.9 125.7,632.7 130.8,659.7 135.9,622.0 141.0,617.0 146.1,662.2 151.2,630.9 156.3,646.7 161.4,597.7 166.5,674.1 171.6,645.5 176.7,617.4 181.8,678.5 186.9,670.2 192.0,642.5 197.1,602.3 202.2,635.2 207.3,710.3 212.4,701.2 217.5,676.7 222.6,670.6 227.7,665.7 232.8,645.2 237.9,642.8 243.0,651.2 248.1,635.9 253.2,703.3 258.3,628.5 263.4,606.7 268.5,656.8 273.6,595.5 278.7,638.2 283.8,644.5 288.9,722.5 294.0,640.9 299.1,651.8 304.2,650.1 309.3,604.3 314.4,607.3 319.5,599.9 324.6,623.4 329.7,628.6 334.8,704.4 339.9,713.5 345.0,628.6 350.1,608.2 355.2,640.6 360.3,636.6 365.4,622.6 370.5,656.6 375.6,610.5 380.7,607.3 385.8,680.2 390.9,647.7 396.0,650.4 401.1,626.2 406.2,570.7 411.3,650.7 416.4,649.4 421.5,612.3 426.6,586.5 431.7,585.9 436.8,657.4 441.9,610.2 447.0,666.8 452.1,689.0 457.2,635.1 462.3,630.1 467.4,629.4 472.5,615.2 477.6,681.3 482.7,628.9 487.8,611.2 492.9,613.5 498.0,603.7 503.1,609.1 508.2,628.3 513.3,624.1 518.4,575.9 523.5,555.2 528.6,629.6 533.7,646.6 538.8,621.2 543.9,626.2 549.0,601.9 554.1,640.4 559.2,621.9 564.3,607.9 569.4,614.2 574.5,604.6 579.6,611.3 584.7,601.5 589.8,588.2 594.9,612.7 600.0,630.7 605.1,585.5 610.2,614.8 615.3,588.0 620.4,601.8 625.5,628.1 630.6,598.0 635.7,675.2 640.8,566.5 645.9,685.9 651.0,624.9 656.1,605.5 661.2,638.2 666.3,658.7 671.4,690.8 676.5,596.9 681.6,603.6 686.7,620.6 691.8,641.2 696.9,640.2 702.0,664.5 707.1,654.8 712.2,661.8 717.3,631.4 722.4,625.8 727.6,661.5 732.7,634.9 737.8,625.7 742.9,676.6 748.0,604.3 753.1,579.4 758.2,683.7 763.3,682.2 768.4,667.4 773.5,634.2 778.6,607.8 783.7,574.9 788.8,603.3 793.9,583.6 799.0,625.0 804.1,629.3 809.2,608.4 814.3,646.7 819.4,607.0 824.5,574.4 829.6,592.1 834.7,586.8 839.8,599.1 844.9,606.1 850.0,628.5 855.1,649.7 860.2,630.7 865.3,659.4 870.4,617.1 875.5,627.2 880.6,608.5 885.7,655.8 890.8,635.4 895.9,714.3 901.0,615.7 906.1,622.4 911.2,586.1 916.3,591.4 921.4,591.4 926.5,698.0 931.6,620.0 936.7,653.4 941.8,683.8 946.9,596.8 952.0,600.3 957.1,611.3 962.2,640.7 967.3,638.3 972.4,597.7 977.5,598.2 982.6,615.6 987.7,642.9 992.8,576.1 997.9,617.5 1003.0,626.9 1008.1,632.0 1013.2,647.3 1018.3,618.8 1023.4,582.8 1028.5,608.5 1033.6,657.4 1038.7,586.4 1043.8,599.9 1048.9,683.6 1054.0,584.4 1059.1,569.4 1064.2,565.3 1069.3,621.6 1074.4,629.8 1079.5,583.5 1084.6,547.5 1089.7,619.2 1094.8,618.8 1099.9,633.0 1105.0,609.3 1110.1,662.1 1115.2,607.1 1120.3,641.0 1125.4,649.2 1130.5,569.9 1135.6,617.3 1140.7,591.8 1145.8,568.6 1150.9,550.5 1156.0,619.3 1161.1,659.3 1166.2,652.4 1171.3,602.3 1176.4,617.0 1181.5,611.5 1186.6,611.2 1191.7,697.3 1196.8,627.1 1201.9,612.0 1207.0,640.8 1212.1,595.9 1217.2,626.0 1222.3,624.6 1227.4,603.0 1232.5,639.4 1237.6,592.1 1242.7,615.9 1247.8,607.8 1252.9,603.8 1258.0,588.8 1263.1,672.3 1268.2,638.7 1273.3,635.9 1278.4,671.3 1283.5,594.3 1288.6,589.2 1293.7,628.3 1298.8,649.2 1303.9,598.1 1309.0,594.5 1314.1,630.0 1319.2,682.6 1324.3,616.4 1329.4,623.7 1334.5,601.5 1339.6,565.5 1344.7,586.5 1349.8,626.8 1354.9,625.6 1360.0,590.2"/>
<polyline fill="none" stroke="#2ca02c" stroke-width="2.5" points="135.9,841.4 186.9,816.2 237.9,841.4 288.9,845.6 339.9,858.2 390.9,870.8 441.9,854.0 492.9,866.6 543.9,816.2 594.9,828.8 645.9,837.2 696.9,812.0 748.0,862.4 799.0,870.8 850.0,845.6 901.0,820.4 952.0,841.4 1003.0,828.8 1054.0,841.4 1105.0,845.6 1156.0,854.0 1207.0,833.0 1258.0,845.6 1309.0,816.2"/>
<circle cx="135.9" cy="841.4" r="3.5" fill="#2ca02c"/>
<circle cx="186.9" cy="816.2" r="3.5" fill="#2ca02c"/>
<circle cx="237.9" cy="841.4" r="3.5" fill="#2ca02c"/>
<circle cx="288.9" cy="845.6" r="3.5" fill="#2ca02c"/>
<circle cx="339.9" cy="858.2" r="3.5" fill="#2ca02c"/>
<circle cx="390.9" cy="870.8" r="3.5" fill="#2ca02c"/>
<circle cx="441.9" cy="854.0" r="3.5" fill="#2ca02c"/>
<circle cx="492.9" cy="866.6" r="3.5" fill="#2ca02c"/>
<circle cx="543.9" cy="816.2" r="3.5" fill="#2ca02c"/>
<circle cx="594.9" cy="828.8" r="3.5" fill="#2ca02c"/>
<circle cx="645.9" cy="837.2" r="3.5" fill="#2ca02c"/>
<circle cx="696.9" cy="812.0" r="3.5" fill="#2ca02c"/>
<circle cx="748.0" cy="862.4" r="3.5" fill="#2ca02c"/>
<circle cx="799.0" cy="870.8" r="3.5" fill="#2ca02c"/>
<circle cx="850.0" cy="845.6" r="3.5" fill="#2ca02c"/>
<circle cx="901.0" cy="820.4" r="3.5" fill="#2ca02c"/>
<circle cx="952.0" cy="841.4" r="3.5" fill="#2ca02c"/>
<circle cx="1003.0" cy="828.8" r="3.5" fill="#2ca02c"/>
<circle cx="1054.0" cy="841.4" r="3.5" fill="#2ca02c"/>
<circle cx="1105.0" cy="845.6" r="3.5" fill="#2ca02c"/>
<circle cx="1156.0" cy="854.0" r="3.5" fill="#2ca02c"/>
<circle cx="1207.0" cy="833.0" r="3.5" fill="#2ca02c"/>
<circle cx="1258.0" cy="845.6" r="3.5" fill="#2ca02c"/>
<circle cx="1309.0" cy="816.2" r="3.5" fill="#2ca02c"/>
<line x1="1135" y1="70" x2="1161" y2="70" stroke="#333" stroke-width="2"/>
<text x="1169" y="74" font-size="11" font-family="Arial, sans-serif">total_loss</text>
<line x1="1135" y1="86" x2="1161" y2="86" stroke="#333" stroke-width="2" stroke-dasharray="8,4"/>
<text x="1169" y="90" font-size="11" font-family="Arial, sans-serif">policy_loss</text>
<line x1="1135" y1="102" x2="1161" y2="102" stroke="#333" stroke-width="2" stroke-dasharray="3,4"/>
<text x="1169" y="106" font-size="11" font-family="Arial, sans-serif">vf_loss</text>
</svg>