<svg xmlns="http://www.w3.org/2000/svg" width="1400" height="1120" viewBox="0 0 1400 1120">
<rect x="0" y="0" width="1400" height="1120" fill="white" />
<text x="90" y="28" font-size="22" font-family="Arial, sans-serif" font-weight="bold">Training Loss Curve</text>
<text x="90" y="46" font-size="12" font-family="Arial, sans-serif" fill="#555">/home/hice1/wsun377/Desktop/cs8803drl/ray_results/PPO_team_vs_baseline_shaping_scratch_512x512_20260412_002150</text>
<rect x="90" y="50" width="1270" height="210" fill="none" stroke="#bbb" stroke-width="1"/>
<text x="90" y="42" font-size="15" font-family="Arial, sans-serif" font-weight="bold">Losses</text>
<text x="18" y="155.0" font-size="12" font-family="Arial, sans-serif" transform="rotate(-90 18 155.0)">Loss</text>
<text x="18" y="62" font-size="11" font-family="Arial, sans-serif" fill="#666">0.129</text>
<text x="18" y="258" font-size="11" font-family="Arial, sans-serif" fill="#666">-0.169</text>
<line x1="90" y1="102.5" x2="1360" y2="102.5" stroke="#eee" stroke-width="1"/>
<line x1="90" y1="155.0" x2="1360" y2="155.0" stroke="#eee" stroke-width="1"/>
<line x1="90" y1="207.5" x2="1360" y2="207.5" stroke="#eee" stroke-width="1"/>
<rect x="90" y="290" width="1270" height="210" fill="none" stroke="#bbb" stroke-width="1"/>
<text x="90" y="282" font-size="15" font-family="Arial, sans-serif" font-weight="bold">Entropy / KL</text>
<text x="18" y="395.0" font-size="12" font-family="Arial, sans-serif" transform="rotate(-90 18 395.0)">Aux</text>
<text x="18" y="302" font-size="11" font-family="Arial, sans-serif" fill="#666">7.244</text>
<text x="18" y="498" font-size="11" font-family="Arial, sans-serif" fill="#666">-0.652</text>
<line x1="90" y1="342.5" x2="1360" y2="342.5" stroke="#eee" stroke-width="1"/>
<line x1="90" y1="395.0" x2="1360" y2="395.0" stroke="#eee" stroke-width="1"/>
<line x1="90" y1="447.5" x2="1360" y2="447.5" stroke="#eee" stroke-width="1"/>
<rect x="90" y="530" width="1270" height="210" fill="none" stroke="#bbb" stroke-width="1"/>
<text x="90" y="522" font-size="15" font-family="Arial, sans-serif" font-weight="bold">Episode Reward Mean</text>
<text x="18" y="635.0" font-size="12" font-family="Arial, sans-serif" transform="rotate(-90 18 635.0)">Reward</text>
<text x="18" y="542" font-size="11" font-family="Arial, sans-serif" fill="#666">2.509</text>
<text x="18" y="738" font-size="11" font-family="Arial, sans-serif" fill="#666">-1.341</text>
<line x1="90" y1="582.5" x2="1360" y2="582.5" stroke="#eee" stroke-width="1"/>
<line x1="90" y1="635.0" x2="1360" y2="635.0" stroke="#eee" stroke-width="1"/>
<line x1="90" y1="687.5" x2="1360" y2="687.5" stroke="#eee" stroke-width="1"/>
<rect x="90" y="770" width="1270" height="210" fill="none" stroke="#bbb" stroke-width="1"/>
<text x="90" y="762" font-size="15" font-family="Arial, sans-serif" font-weight="bold">Baseline Win Rate (checkpoint eval)</text>
<text x="18" y="875.0" font-size="12" font-family="Arial, sans-serif" transform="rotate(-90 18 875.0)">Win Rate</text>
<text x="18" y="782" font-size="11" font-family="Arial, sans-serif" fill="#666">1.000</text>
<text x="18" y="978" font-size="11" font-family="Arial, sans-serif" fill="#666">0.000</text>
<line x1="90" y1="822.5" x2="1360" y2="822.5" stroke="#eee" stroke-width="1"/>
<line x1="90" y1="875.0" x2="1360" y2="875.0" stroke="#eee" stroke-width="1"/>
<line x1="90" y1="927.5" x2="1360" y2="927.5" stroke="#eee" stroke-width="1"/>
<line x1="90.0" y1="50" x2="90.0" y2="980" stroke="#f3f3f3" stroke-width="1"/>
<text x="90.0" y="998" text-anchor="middle" font-size="11" font-family="Arial, sans-serif" fill="#666">1</text>
<line x1="407.5" y1="50" x2="407.5" y2="980" stroke="#f3f3f3" stroke-width="1"/>
<text x="407.5" y="998" text-anchor="middle" font-size="11" font-family="Arial, sans-serif" fill="#666">96</text>
<line x1="725.0" y1="50" x2="725.0" y2="980" stroke="#f3f3f3" stroke-width="1"/>
<text x="725.0" y="998" text-anchor="middle" font-size="11" font-family="Arial, sans-serif" fill="#666">192</text>
<line x1="1042.5" y1="50" x2="1042.5" y2="980" stroke="#f3f3f3" stroke-width="1"/>
<text x="1042.5" y="998" text-anchor="middle" font-size="11" font-family="Arial, sans-serif" fill="#666">288</text>
<line x1="1360.0" y1="50" x2="1360.0" y2="980" stroke="#f3f3f3" stroke-width="1"/>
<text x="1360.0" y="998" text-anchor="middle" font-size="11" font-family="Arial, sans-serif" fill="#666">383</text>
<text x="725.0" y="1110" text-anchor="middle" font-size="12" font-family="Arial, sans-serif">Training Iteration</text>
<line x1="100" y1="68" x2="122" y2="68" stroke="#1f77b4" stroke-width="3"/>
<text x="128" y="72" font-size="11" font-family="Arial, sans-serif">default_policy</text>
<polyline fill="none" stroke="#1f77b4" stroke-width="2" points="90.0,152.0 93.3,161.0 96.6,171.9 100.0,177.9 103.3,173.6 106.6,178.4 109.9,175.3 113.3,168.8 116.6,177.2 119.9,165.5 123.2,175.6 126.6,172.2 129.9,175.8 133.2,179.0 136.5,182.9 139.9,180.5 143.2,178.5 146.5,177.1 149.8,174.6 153.2,167.7 156.5,173.3 159.8,178.3 163.1,176.2 166.5,173.4 169.8,180.8 173.1,171.9 176.4,183.4 179.8,177.4 183.1,174.2 186.4,182.0 189.7,173.1 193.1,178.1 196.4,179.7 199.7,183.9 203.0,175.2 206.4,179.4 209.7,175.1 213.0,179.9 216.3,174.2 219.7,184.3 223.0,185.5 226.3,180.8 229.6,195.8 233.0,178.6 236.3,178.0 239.6,178.6 242.9,188.4 246.3,176.2 249.6,182.5 252.9,181.8 256.2,182.7 259.6,182.4 262.9,180.8 266.2,184.9 269.5,178.3 272.9,181.6 276.2,183.1 279.5,173.2 282.8,182.2 286.2,179.3 289.5,180.0 292.8,177.4 296.1,176.8 299.5,182.1 302.8,187.2 306.1,181.2 309.4,175.7 312.7,179.2 316.1,182.8 319.4,180.9 322.7,179.4 326.0,177.8 329.4,176.9 332.7,173.4 336.0,165.7 339.3,175.2 342.7,171.6 346.0,170.5 349.3,178.5 352.6,176.0 356.0,171.7 359.3,180.4 362.6,169.5 365.9,178.5 369.3,166.4 372.6,168.8 375.9,172.0 379.2,165.1 382.6,170.9 385.9,177.9 389.2,169.7 392.5,160.1 395.9,175.4 399.2,169.8 402.5,165.9 405.8,164.4 409.2,161.7 412.5,167.3 415.8,173.9 419.1,164.2 422.5,172.7 425.8,159.5 429.1,176.3 432.4,173.8 435.8,165.8 439.1,176.2 442.4,163.3 445.7,163.6 449.1,157.0 452.4,160.8 455.7,161.4 459.0,163.4 462.4,158.2 465.7,173.5 469.0,168.9 472.3,176.8 475.7,164.9 479.0,166.2 482.3,171.7 485.6,167.5 489.0,159.7 492.3,172.0 495.6,175.1 498.9,159.7 502.3,168.4 505.6,166.8 508.9,162.8 512.2,171.1 515.5,169.1 518.9,172.3 522.2,170.8 525.5,165.4 528.8,169.1 532.2,164.2 535.5,160.7 538.8,162.4 542.1,162.3 545.5,151.6 548.8,164.8 552.1,165.7 555.4,167.4 558.8,169.3 562.1,169.5 565.4,163.5 568.7,172.6 572.1,171.3 575.4,163.7 578.7,164.4 582.0,156.2 585.4,166.8 588.7,166.1 592.0,172.5 595.3,177.2 598.7,167.9 602.0,172.2 605.3,174.8 608.6,175.3 612.0,168.3 615.3,158.9 618.6,168.3 621.9,160.9 625.3,162.6 628.6,167.8 631.9,149.1 635.2,166.1 638.6,159.4 641.9,161.5 645.2,176.5 648.5,181.8 651.9,162.0 655.2,166.6 658.5,169.5 661.8,158.6 665.2,174.1 668.5,166.8 671.8,163.6 675.1,172.8 678.5,169.0 681.8,160.1 685.1,174.4 688.4,167.7 691.8,162.5 695.1,166.9 698.4,168.9 701.7,166.1 705.1,169.3 708.4,163.1 711.7,166.7 715.0,153.6 718.4,162.6 721.7,163.5 725.0,166.0 728.3,177.4 731.6,168.5 735.0,172.8 738.3,174.4 741.6,171.1 744.9,161.8 748.3,158.2 751.6,174.4 754.9,160.7 758.2,163.7 761.6,167.2 764.9,166.2 768.2,158.3 771.5,168.7 774.9,172.4 778.2,167.6 781.5,152.1 784.8,146.8 788.2,168.2 791.5,161.7 794.8,165.0 798.1,155.7 801.5,175.6 804.8,170.4 808.1,163.4 811.4,169.4 814.8,159.8 818.1,169.5 821.4,163.5 824.7,170.4 828.1,166.1 831.4,165.2 834.7,159.7 838.0,163.9 841.4,171.2 844.7,164.1 848.0,163.3 851.3,169.6 854.7,170.6 858.0,150.8 861.3,157.0 864.6,164.7 868.0,161.0 871.3,157.1 874.6,162.0 877.9,156.4 881.3,160.8 884.6,159.4 887.9,163.7 891.2,150.1 894.6,156.1 897.9,163.1 901.2,168.8 904.5,163.8 907.9,151.8 911.2,160.0 914.5,168.4 917.8,175.6 921.2,167.4 924.5,158.8 927.8,158.4 931.1,172.2 934.5,170.5 937.8,150.0 941.1,167.8 944.4,168.6 947.7,162.8 951.1,155.9 954.4,167.4 957.7,155.6 961.0,165.7 964.4,160.4 967.7,156.9 971.0,165.2 974.3,167.9 977.7,180.5 981.0,165.1 984.3,172.8 987.6,163.1 991.0,163.8 994.3,151.7 997.6,160.2 1000.9,169.0 1004.3,162.5 1007.6,173.1 1010.9,152.3 1014.2,162.4 1017.6,160.0 1020.9,160.9 1024.2,159.9 1027.5,154.4 1030.9,176.2 1034.2,162.3 1037.5,164.1 1040.8,158.6 1044.2,158.8 1047.5,164.0 1050.8,167.9 1054.1,171.9 1057.5,162.9 1060.8,164.1 1064.1,161.6 1067.4,169.1 1070.8,169.1 1074.1,164.8 1077.4,178.8 1080.7,167.8 1084.1,167.1 1087.4,165.0 1090.7,163.7 1094.0,165.2 1097.4,168.3 1100.7,158.6 1104.0,152.7 1107.3,162.3 1110.7,157.0 1114.0,150.7 1117.3,162.7 1120.6,154.2 1124.0,161.8 1127.3,156.0 1130.6,179.3 1133.9,165.7 1137.3,159.3 1140.6,151.7 1143.9,160.8 1147.2,155.6 1150.5,166.5 1153.9,157.8 1157.2,154.4 1160.5,161.8 1163.8,163.0 1167.2,161.4 1170.5,154.0 1173.8,156.4 1177.1,148.8 1180.5,173.5 1183.8,148.6 1187.1,147.6 1190.4,169.7 1193.8,159.9 1197.1,154.6 1200.4,164.8 1203.7,165.8 1207.1,172.3 1210.4,155.9 1213.7,157.3 1217.0,152.2 1220.4,160.8 1223.7,157.5 1227.0,159.5 1230.3,149.2 1233.7,147.4 1237.0,157.1 1240.3,153.1 1243.6,151.0 1247.0,144.1 1250.3,159.8 1253.6,157.5 1256.9,161.2 1260.3,162.6 1263.6,157.1 1266.9,168.9 1270.2,158.7 1273.6,160.5 1276.9,150.2 1280.2,149.5 1283.5,153.1 1286.9,150.7 1290.2,150.6 1293.5,163.4 1296.8,147.9 1300.2,160.7 1303.5,153.0 1306.8,169.3 1310.1,153.1 1313.5,150.9 1316.8,171.5 1320.1,152.3 1323.4,163.3 1326.8,152.8 1330.1,158.2 1333.4,152.8 1336.7,146.9 1340.1,146.8 1343.4,161.8 1346.7,150.8 1350.0,162.3 1353.4,156.5 1356.7,157.7 1360.0,155.7"/>
<polyline fill="none" stroke="#1f77b4" stroke-width="2" stroke-dasharray="8,4" points="90.0,158.6 93.3,167.4 96.6,180.9 100.0,185.4 103.3,181.8 106.6,183.8 109.9,181.9 113.3,176.9 116.6,183.2 119.9,175.4 123.2,184.4 126.6,182.3 129.9,185.6 133.2,187.2 136.5,190.0 139.9,186.7 143.2,185.7 146.5,183.6 149.8,181.3 153.2,178.2 156.5,186.1 159.8,188.6 163.1,187.8 166.5,183.8 169.8,193.0 173.1,185.2 176.4,192.2 179.8,190.7 183.1,189.2 186.4,193.7 189.7,187.1 193.1,192.0 196.4,192.7 199.7,196.7 203.0,192.2 206.4,194.4 209.7,194.1 213.0,196.5 216.3,200.7 219.7,202.4 223.0,201.2 226.3,203.2 229.6,213.0 233.0,198.2 236.3,201.1 239.6,200.7 242.9,208.3 246.3,203.9 249.6,208.3 252.9,208.6 256.2,215.1 259.6,214.4 262.9,212.3 266.2,216.0 269.5,214.6 272.9,215.7 276.2,218.8 279.5,214.3 282.8,218.2 286.2,219.1 289.5,220.5 292.8,215.8 296.1,221.3 299.5,219.4 302.8,222.3 306.1,225.7 309.4,222.1 312.7,225.4 316.1,227.9 319.4,224.2 322.7,226.5 326.0,226.0 329.4,231.8 332.7,227.6 336.0,225.3 339.3,229.1 342.7,230.2 346.0,227.7 349.3,229.0 352.6,233.0 356.0,233.3 359.3,232.9 362.6,226.0 365.9,233.3 369.3,229.8 372.6,231.4 375.9,233.4 379.2,230.0 382.6,234.6 385.9,233.9 389.2,232.5 392.5,230.8 395.9,237.3 399.2,232.0 402.5,231.8 405.8,231.1 409.2,233.1 412.5,235.0 415.8,235.3 419.1,231.2 422.5,235.0 425.8,231.5 429.1,239.2 432.4,239.9 435.8,233.0 439.1,240.1 442.4,229.2 445.7,233.4 449.1,228.7 452.4,234.0 455.7,233.9 459.0,236.0 462.4,232.9 465.7,238.9 469.0,238.2 472.3,239.9 475.7,236.7 479.0,236.1 482.3,237.8 485.6,238.0 489.0,236.3 492.3,236.0 495.6,239.7 498.9,234.4 502.3,238.3 505.6,237.3 508.9,235.9 512.2,238.4 515.5,237.3 518.9,240.7 522.2,236.0 525.5,238.7 528.8,238.3 532.2,235.2 535.5,234.2 538.8,235.3 542.1,239.0 545.5,233.5 548.8,240.9 552.1,238.4 555.4,235.6 558.8,236.9 562.1,239.2 565.4,235.9 568.7,241.2 572.1,240.5 575.4,234.8 578.7,238.0 582.0,230.3 585.4,238.3 588.7,238.8 592.0,240.9 595.3,240.4 598.7,236.4 602.0,239.5 605.3,238.3 608.6,241.2 612.0,237.9 615.3,237.1 618.6,235.9 621.9,234.3 625.3,235.3 628.6,236.9 631.9,231.0 635.2,238.9 638.6,233.9 641.9,236.0 645.2,240.2 648.5,242.5 651.9,236.3 655.2,237.2 658.5,237.2 661.8,230.6 665.2,239.4 668.5,233.3 671.8,232.4 675.1,240.0 678.5,239.7 681.8,234.0 685.1,239.2 688.4,237.1 691.8,233.5 695.1,236.0 698.4,238.6 701.7,234.4 705.1,232.5 708.4,236.0 711.7,234.0 715.0,231.7 718.4,234.1 721.7,235.6 725.0,236.1 728.3,241.5 731.6,236.5 735.0,240.3 738.3,240.4 741.6,237.0 744.9,235.6 748.3,235.4 751.6,237.6 754.9,233.3 758.2,232.7 761.6,239.0 764.9,235.8 768.2,231.9 771.5,233.8 774.9,237.0 778.2,233.1 781.5,228.9 784.8,227.1 788.2,236.8 791.5,233.8 794.8,234.4 798.1,230.4 801.5,239.4 804.8,234.3 808.1,232.9 811.4,236.9 814.8,231.3 818.1,233.8 821.4,233.5 824.7,234.9 828.1,233.3 831.4,231.7 834.7,229.8 838.0,232.1 841.4,238.2 844.7,234.8 848.0,234.0 851.3,235.5 854.7,237.0 858.0,225.3 861.3,230.8 864.6,233.6 868.0,231.8 871.3,234.0 874.6,230.6 877.9,228.4 881.3,232.5 884.6,230.9 887.9,229.3 891.2,225.9 894.6,232.9 897.9,235.5 901.2,235.0 904.5,233.4 907.9,230.0 911.2,233.4 914.5,234.4 917.8,237.7 921.2,234.6 924.5,230.0 927.8,228.6 931.1,233.1 934.5,234.5 937.8,224.6 941.1,234.8 944.4,231.5 947.7,232.0 951.1,229.1 954.4,233.2 957.7,227.5 961.0,227.9 964.4,229.1 967.7,224.1 971.0,230.2 974.3,231.0 977.7,239.0 981.0,229.6 984.3,233.6 987.6,230.4 991.0,229.7 994.3,224.8 997.6,229.8 1000.9,231.9 1004.3,230.2 1007.6,232.4 1010.9,223.1 1014.2,229.8 1017.6,228.8 1020.9,229.0 1024.2,229.9 1027.5,229.3 1030.9,235.8 1034.2,226.8 1037.5,228.8 1040.8,227.3 1044.2,228.8 1047.5,229.8 1050.8,233.4 1054.1,232.7 1057.5,227.9 1060.8,227.4 1064.1,225.9 1067.4,229.3 1070.8,229.7 1074.1,228.1 1077.4,233.6 1080.7,230.1 1084.1,228.2 1087.4,226.5 1090.7,228.3 1094.0,228.6 1097.4,229.4 1100.7,225.8 1104.0,223.7 1107.3,227.0 1110.7,223.4 1114.0,223.0 1117.3,226.8 1120.6,221.8 1124.0,227.8 1127.3,226.5 1130.6,235.9 1133.9,229.2 1137.3,226.9 1140.6,223.9 1143.9,226.7 1147.2,223.2 1150.5,226.6 1153.9,221.9 1157.2,226.5 1160.5,228.3 1163.8,224.3 1167.2,223.9 1170.5,222.4 1173.8,223.0 1177.1,221.1 1180.5,229.6 1183.8,220.9 1187.1,222.2 1190.4,227.7 1193.8,221.9 1197.1,223.8 1200.4,227.6 1203.7,228.8 1207.1,228.0 1210.4,223.5 1213.7,222.9 1217.0,221.4 1220.4,225.3 1223.7,221.0 1227.0,223.7 1230.3,219.0 1233.7,222.1 1237.0,223.1 1240.3,220.6 1243.6,219.3 1247.0,219.1 1250.3,224.4 1253.6,221.9 1256.9,226.2 1260.3,224.5 1263.6,222.1 1266.9,229.7 1270.2,224.6 1273.6,225.3 1276.9,219.6 1280.2,217.9 1283.5,220.5 1286.9,218.6 1290.2,221.3 1293.5,223.7 1296.8,216.3 1300.2,225.0 1303.5,221.1 1306.8,227.7 1310.1,219.1 1313.5,219.8 1316.8,226.3 1320.1,219.4 1323.4,226.2 1326.8,217.8 1330.1,220.3 1333.4,218.3 1336.7,218.6 1340.1,219.7 1343.4,221.8 1346.7,220.3 1350.0,223.4 1353.4,218.5 1356.7,220.9 1360.0,219.1"/>
<polyline fill="none" stroke="#1f77b4" stroke-width="2" stroke-dasharray="3,4" points="90.0,134.9 93.3,135.4 96.6,133.1 100.0,134.9 103.3,134.0 106.6,136.9 109.9,135.7 113.3,134.1 116.6,136.3 119.9,132.1 123.2,133.4 126.6,132.3 129.9,132.7 133.2,134.3 136.5,135.4 139.9,136.1 143.2,135.1 146.5,135.9 149.8,135.6 153.2,132.0 156.5,129.8 159.8,132.2 163.1,131.2 166.5,132.2 169.8,130.5 173.1,129.3 176.4,134.3 179.8,129.2 183.1,127.6 186.4,131.0 189.7,128.6 193.1,128.7 196.4,129.8 199.7,129.9 203.0,125.8 206.4,127.8 209.7,124.0 213.0,126.3 216.3,116.9 219.7,125.3 223.0,127.3 226.3,120.7 229.6,126.1 233.0,123.7 236.3,120.1 239.6,121.1 242.9,123.4 246.3,115.6 249.6,117.6 252.9,117.6 256.2,112.4 259.6,112.7 262.9,113.2 266.2,113.3 269.5,108.3 272.9,110.7 276.2,109.2 279.5,104.7 282.8,110.1 286.2,106.3 289.5,105.4 292.8,107.4 296.1,101.5 299.5,108.9 302.8,110.7 306.1,102.0 309.4,99.9 312.7,99.9 316.1,101.2 319.4,102.6 322.7,99.4 326.0,98.0 329.4,92.2 332.7,93.5 336.0,89.4 339.3,94.1 342.7,89.4 346.0,91.0 349.3,97.9 352.6,91.3 356.0,86.6 359.3,95.8 362.6,91.6 365.9,93.8 369.3,84.9 372.6,85.8 375.9,87.2 379.2,83.3 382.6,84.8 385.9,92.3 389.2,85.6 392.5,78.2 395.9,86.8 399.2,86.1 402.5,82.4 405.8,81.8 409.2,78.2 412.5,80.7 415.8,87.0 419.1,81.6 422.5,86.2 425.8,76.5 429.1,86.2 432.4,83.0 435.8,81.5 439.1,85.0 442.4,82.9 445.7,78.9 449.1,76.9 452.4,75.7 455.7,76.8 459.0,76.3 462.4,74.1 465.7,84.2 469.0,79.8 472.3,85.3 475.7,76.8 479.0,79.2 482.3,82.5 485.6,78.5 489.0,72.3 492.3,84.9 495.6,84.3 498.9,74.5 502.3,79.3 505.6,77.9 508.9,75.9 512.2,82.0 515.5,80.5 518.9,81.0 522.2,83.8 525.5,75.7 528.8,79.7 532.2,77.7 535.5,75.7 538.8,76.0 542.1,72.7 545.5,67.8 548.8,73.3 552.1,76.7 555.4,80.7 558.8,81.3 562.1,79.9 565.4,76.7 568.7,80.7 572.1,80.2 575.4,77.9 578.7,75.7 582.0,75.0 585.4,77.9 588.7,76.6 592.0,81.0 595.3,86.1 598.7,80.7 602.0,81.8 605.3,85.8 608.6,83.3 612.0,79.7 615.3,70.5 618.6,81.7 621.9,76.4 625.3,76.6 628.6,80.3 631.9,67.5 635.2,76.4 638.6,75.5 641.9,75.0 645.2,85.5 648.5,88.3 651.9,74.6 655.2,78.8 658.5,82.1 661.8,77.1 665.2,84.4 668.5,83.2 671.8,80.7 675.1,82.1 678.5,78.9 681.8,75.9 685.1,84.9 688.4,80.2 691.8,78.7 695.1,80.6 698.4,80.0 701.7,81.5 705.1,86.7 708.4,77.1 711.7,82.9 715.0,73.3 718.4,80.5 721.7,79.2 725.0,81.2 728.3,87.4 731.6,83.2 735.0,84.3 738.3,85.9 741.6,85.8 744.9,77.6 748.3,74.8 751.6,88.9 754.9,79.2 758.2,82.4 761.6,79.7 764.9,82.3 768.2,78.5 771.5,86.7 774.9,87.2 778.2,86.3 781.5,75.0 784.8,71.2 788.2,82.8 791.5,79.7 794.8,82.2 798.1,78.2 801.5,88.3 804.8,88.1 808.1,83.2 811.4,84.3 814.8,80.5 818.1,87.4 821.4,81.8 824.7,87.3 828.1,84.2 831.4,86.2 834.7,83.0 838.0,83.8 841.4,85.1 844.7,81.2 848.0,82.1 851.3,86.1 854.7,85.2 858.0,80.3 861.3,78.3 864.6,82.8 868.0,81.1 871.3,74.6 874.6,83.8 877.9,79.8 881.3,79.5 884.6,80.1 887.9,86.7 891.2,75.7 894.6,74.8 897.9,79.6 901.2,86.2 904.5,82.8 907.9,73.6 911.2,80.1 914.5,86.0 917.8,91.5 921.2,85.1 924.5,81.2 927.8,82.4 931.1,91.3 934.5,88.6 937.8,77.7 941.1,85.7 944.4,89.5 947.7,83.5 951.1,79.2 954.4,87.2 957.7,80.1 961.0,91.5 964.4,83.3 967.7,84.7 971.0,87.5 974.3,89.1 977.7,94.3 981.0,88.8 984.3,91.9 987.6,85.7 991.0,86.1 994.3,80.3 997.6,83.3 1000.9,88.8 1004.3,84.8 1007.6,94.7 1010.9,81.5 1014.2,85.6 1017.6,83.6 1020.9,84.3 1024.2,82.2 1027.5,77.8 1030.9,93.9 1034.2,88.2 1037.5,88.9 1040.8,85.1 1044.2,83.5 1047.5,87.2 1050.8,87.3 1054.1,91.3 1057.5,88.0 1060.8,88.9 1064.1,88.7 1067.4,93.2 1070.8,92.9 1074.1,91.3 1077.4,98.8 1080.7,90.8 1084.1,91.9 1087.4,91.2 1090.7,88.0 1094.0,90.0 1097.4,91.6 1100.7,85.7 1104.0,81.5 1107.3,89.1 1110.7,86.1 1114.0,80.7 1117.3,89.7 1120.6,85.0 1124.0,86.5 1127.3,82.9 1130.6,97.9 1133.9,90.0 1137.3,85.1 1140.6,80.7 1143.9,87.7 1147.2,85.4 1150.5,93.3 1153.9,89.0 1157.2,80.7 1160.5,86.5 1163.8,91.7 1167.2,91.0 1170.5,84.3 1173.8,86.5 1177.1,80.2 1180.5,98.3 1183.8,80.4 1187.1,77.3 1190.4,96.4 1193.8,91.1 1197.1,84.5 1200.4,90.2 1203.7,90.4 1207.1,97.6 1210.4,85.4 1213.7,87.0 1217.0,83.7 1220.4,90.0 1223.7,90.1 1227.0,88.3 1230.3,83.3 1233.7,78.2 1237.0,87.1 1240.3,85.2 1243.6,85.3 1247.0,77.8 1250.3,89.3 1253.6,89.0 1256.9,88.5 1260.3,91.2 1263.6,87.8 1266.9,93.1 1270.2,86.9 1273.6,88.6 1276.9,83.6 1280.2,85.6 1283.5,85.7 1286.9,86.5 1290.2,82.3 1293.5,92.7 1296.8,85.4 1300.2,89.1 1303.5,86.2 1306.8,95.4 1310.1,86.9 1313.5,84.5 1316.8,99.6 1320.1,86.5 1323.4,91.1 1326.8,88.0 1330.1,91.7 1333.4,88.3 1336.7,81.3 1340.1,81.7 1343.4,94.3 1346.7,83.8 1350.0,92.4 1353.4,92.1 1356.7,90.0 1360.0,89.7"/>
<polyline fill="none" stroke="#1f77b4" stroke-width="2" points="90.0,307.5 93.3,307.8 96.6,308.1 100.0,308.5 103.3,308.8 106.6,309.1 109.9,309.4 113.3,309.7 116.6,310.0 119.9,310.3 123.2,310.5 126.6,310.9 129.9,311.2 133.2,311.5 136.5,311.9 139.9,312.2 143.2,312.4 146.5,312.7 149.8,312.9 153.2,313.1 156.5,313.4 159.8,313.7 163.1,314.1 166.5,314.1 169.8,314.5 173.1,314.7 176.4,314.7 179.8,315.1 183.1,315.3 186.4,315.5 189.7,315.7 193.1,315.9 196.4,316.5 199.7,316.7 203.0,317.0 206.4,317.1 209.7,317.2 213.0,317.6 216.3,318.1 219.7,318.5 223.0,318.3 226.3,318.7 229.6,318.9 233.0,318.9 236.3,319.6 239.6,319.6 242.9,320.0 246.3,320.4 249.6,320.6 252.9,320.8 256.2,321.4 259.6,321.7 262.9,321.8 266.2,322.1 269.5,322.6 272.9,322.7 276.2,322.7 279.5,322.8 282.8,323.1 286.2,323.4 289.5,323.4 292.8,323.4 296.1,324.0 299.5,324.2 302.8,324.4 306.1,324.9 309.4,325.4 312.7,325.4 316.1,325.7 319.4,325.7 322.7,326.4 326.0,326.5 329.4,327.4 332.7,327.0 336.0,327.6 339.3,327.6 342.7,328.1 346.0,328.1 349.3,328.1 352.6,329.1 356.0,329.7 359.3,329.4 362.6,329.2 365.9,329.7 369.3,330.5 372.6,330.5 375.9,331.2 379.2,331.8 382.6,332.0 385.9,331.6 389.2,331.9 392.5,332.6 395.9,332.9 399.2,332.6 402.5,333.3 405.8,334.1 409.2,334.3 412.5,334.5 415.8,334.3 419.1,334.7 422.5,335.1 425.8,336.1 429.1,336.0 432.4,337.0 435.8,336.8 439.1,337.5 442.4,337.3 445.7,338.5 449.1,338.2 452.4,338.7 455.7,339.3 459.0,339.2 462.4,340.4 465.7,340.6 469.0,340.6 472.3,340.1 475.7,341.2 479.0,341.8 482.3,341.8 485.6,342.3 489.0,342.4 492.3,342.7 495.6,342.9 498.9,344.3 502.3,344.3 505.6,344.2 508.9,343.7 512.2,344.3 515.5,344.6 518.9,345.7 522.2,344.7 525.5,346.1 528.8,345.4 532.2,345.7 535.5,346.1 538.8,346.3 542.1,347.5 545.5,347.8 548.8,347.6 552.1,346.9 555.4,348.4 558.8,349.2 562.1,349.7 565.4,349.8 568.7,349.8 572.1,350.4 575.4,350.2 578.7,351.3 582.0,351.5 585.4,351.5 588.7,353.9 592.0,353.6 595.3,353.9 598.7,354.0 602.0,353.3 605.3,354.2 608.6,354.5 612.0,354.6 615.3,356.2 618.6,356.0 621.9,356.7 625.3,356.8 628.6,356.2 631.9,358.3 635.2,358.4 638.6,357.6 641.9,358.8 645.2,358.9 648.5,359.3 651.9,359.1 655.2,359.9 658.5,360.0 661.8,360.0 665.2,361.8 668.5,361.1 671.8,361.3 675.1,362.4 678.5,362.7 681.8,363.0 685.1,364.4 688.4,364.2 691.8,363.9 695.1,364.0 698.4,364.5 701.7,364.9 705.1,364.8 708.4,365.5 711.7,366.7 715.0,365.5 718.4,366.6 721.7,367.1 725.0,367.4 728.3,367.1 731.6,368.3 735.0,369.0 738.3,367.6 741.6,369.8 744.9,369.7 748.3,369.2 751.6,370.5 754.9,370.5 758.2,371.4 761.6,371.2 764.9,371.9 768.2,372.1 771.5,372.8 774.9,371.8 778.2,371.5 781.5,372.6 784.8,373.4 788.2,373.3 791.5,372.4 794.8,373.8 798.1,374.4 801.5,373.4 804.8,374.1 808.1,375.1 811.4,374.9 814.8,377.4 818.1,377.7 821.4,376.4 824.7,378.0 828.1,377.9 831.4,377.9 834.7,378.4 838.0,377.5 841.4,377.7 844.7,378.5 848.0,377.9 851.3,379.1 854.7,379.3 858.0,380.2 861.3,380.0 864.6,379.9 868.0,379.9 871.3,379.7 874.6,382.5 877.9,381.4 881.3,382.4 884.6,382.8 887.9,382.7 891.2,383.6 894.6,382.6 897.9,384.0 901.2,383.9 904.5,383.3 907.9,384.0 911.2,384.5 914.5,384.7 917.8,386.4 921.2,385.8 924.5,385.9 927.8,386.7 931.1,386.7 934.5,387.5 937.8,387.9 941.1,388.3 944.4,389.7 947.7,388.2 951.1,389.2 954.4,389.6 957.7,391.0 961.0,390.7 964.4,390.0 967.7,390.6 971.0,389.9 974.3,391.3 977.7,391.7 981.0,391.0 984.3,390.5 987.6,392.7 991.0,392.5 994.3,393.0 997.6,393.5 1000.9,393.4 1004.3,394.7 1007.6,394.8 1010.9,395.6 1014.2,395.1 1017.6,395.8 1020.9,395.2 1024.2,396.0 1027.5,396.4 1030.9,397.0 1034.2,396.7 1037.5,397.3 1040.8,397.3 1044.2,397.0 1047.5,398.4 1050.8,398.0 1054.1,398.2 1057.5,398.4 1060.8,399.1 1064.1,400.4 1067.4,400.1 1070.8,400.5 1074.1,401.5 1077.4,401.1 1080.7,400.1 1084.1,401.4 1087.4,401.3 1090.7,402.0 1094.0,401.3 1097.4,402.5 1100.7,403.5 1104.0,402.8 1107.3,403.3 1110.7,403.7 1114.0,404.2 1117.3,404.1 1120.6,404.5 1124.0,404.7 1127.3,404.1 1130.6,404.6 1133.9,405.0 1137.3,405.3 1140.6,406.2 1143.9,406.0 1147.2,405.9 1150.5,406.2 1153.9,407.4 1157.2,406.5 1160.5,407.0 1163.8,407.8 1167.2,407.5 1170.5,408.0 1173.8,408.1 1177.1,408.3 1180.5,408.9 1183.8,408.6 1187.1,409.5 1190.4,410.4 1193.8,409.8 1197.1,409.5 1200.4,410.0 1203.7,409.8 1207.1,411.1 1210.4,411.6 1213.7,411.7 1217.0,411.1 1220.4,412.2 1223.7,411.6 1227.0,411.7 1230.3,412.1 1233.7,412.4 1237.0,413.4 1240.3,413.1 1243.6,414.3 1247.0,413.8 1250.3,413.3 1253.6,413.3 1256.9,414.4 1260.3,414.2 1263.6,414.1 1266.9,414.1 1270.2,414.1 1273.6,415.8 1276.9,415.7 1280.2,416.1 1283.5,415.8 1286.9,416.2 1290.2,415.9 1293.5,417.1 1296.8,417.9 1300.2,416.0 1303.5,416.9 1306.8,417.8 1310.1,418.3 1313.5,418.1 1316.8,418.1 1320.1,417.7 1323.4,418.2 1326.8,418.5 1330.1,419.0 1333.4,418.1 1336.7,418.6 1340.1,418.2 1343.4,419.9 1346.7,419.4 1350.0,418.9 1353.4,420.1 1356.7,420.9 1360.0,420.0"/>
<polyline fill="none" stroke="#1f77b4" stroke-width="2" stroke-dasharray="8,4" points="90.0,482.5 93.3,482.4 96.6,482.4 100.0,482.3 103.3,482.4 106.6,482.3 109.9,482.3 113.3,482.4 116.6,482.3 119.9,482.4 123.2,482.4 126.6,482.3 129.9,482.3 133.2,482.3 136.5,482.3 139.9,482.3 143.2,482.3 146.5,482.3 149.8,482.3 153.2,482.3 156.5,482.3 159.8,482.3 163.1,482.3 166.5,482.3 169.8,482.3 173.1,482.3 176.4,482.2 179.8,482.3 183.1,482.3 186.4,482.3 189.7,482.3 193.1,482.3 196.4,482.2 199.7,482.3 203.0,482.3 206.4,482.2 209.7,482.2 213.0,482.2 216.3,482.1 219.7,482.1 223.0,482.2 226.3,482.2 229.6,482.2 233.0,482.2 236.3,482.2 239.6,482.2 242.9,482.2 246.3,482.2 249.6,482.1 252.9,482.2 256.2,482.1 259.6,482.2 262.9,482.2 266.2,482.2 269.5,482.2 272.9,482.2 276.2,482.1 279.5,482.2 282.8,482.2 286.2,482.2 289.5,482.2 292.8,482.2 296.1,482.2 299.5,482.2 302.8,482.2 306.1,482.2 309.4,482.2 312.7,482.2 316.1,482.2 319.4,482.2 322.7,482.2 326.0,482.2 329.4,482.1 332.7,482.3 336.0,482.2 339.3,482.2 342.7,482.3 346.0,482.2 349.3,482.2 352.6,482.2 356.0,482.2 359.3,482.2 362.6,482.2 365.9,482.2 369.3,482.2 372.6,482.2 375.9,482.2 379.2,482.2 382.6,482.2 385.9,482.2 389.2,482.2 392.5,482.2 395.9,482.2 399.2,482.2 402.5,482.2 405.8,482.2 409.2,482.2 412.5,482.2 415.8,482.2 419.1,482.2 422.5,482.2 425.8,482.2 429.1,482.2 432.4,482.2 435.8,482.2 439.1,482.2 442.4,482.2 445.7,482.2 449.1,482.2 452.4,482.2 455.7,482.2 459.0,482.2 462.4,482.2 465.7,482.2 469.0,482.2 472.3,482.2 475.7,482.2 479.0,482.2 482.3,482.2 485.6,482.2 489.0,482.2 492.3,482.2 495.6,482.2 498.9,482.2 502.3,482.2 505.6,482.2 508.9,482.2 512.2,482.2 515.5,482.2 518.9,482.2 522.2,482.2 525.5,482.2 528.8,482.2 532.2,482.2 535.5,482.2 538.8,482.2 542.1,482.2 545.5,482.2 548.8,482.2 552.1,482.2 555.4,482.2 558.8,482.2 562.1,482.2 565.4,482.2 568.7,482.2 572.1,482.2 575.4,482.2 578.7,482.2 582.0,482.2 585.4,482.2 588.7,482.2 592.0,482.2 595.3,482.2 598.7,482.2 602.0,482.2 605.3,482.2 608.6,482.2 612.0,482.2 615.3,482.2 618.6,482.2 621.9,482.1 625.3,482.2 628.6,482.2 631.9,482.2 635.2,482.2 638.6,482.1 641.9,482.2 645.2,482.2 648.5,482.2 651.9,482.2 655.2,482.2 658.5,482.1 661.8,482.2 665.2,482.2 668.5,482.2 671.8,482.2 675.1,482.2 678.5,482.2 681.8,482.2 685.1,482.2 688.4,482.2 691.8,482.2 695.1,482.2 698.4,482.1 701.7,482.1 705.1,482.1 708.4,482.1 711.7,482.1 715.0,482.3 718.4,482.2 721.7,482.3 725.0,482.3 728.3,482.3 731.6,482.3 735.0,482.2 738.3,482.2 741.6,482.2 744.9,482.3 748.3,482.2 751.6,482.2 754.9,482.2 758.2,482.3 761.6,482.3 764.9,482.2 768.2,482.2 771.5,482.2 774.9,482.2 778.2,482.2 781.5,482.2 784.8,482.3 788.2,482.3 791.5,482.2 794.8,482.3 798.1,482.2 801.5,482.2 804.8,482.2 808.1,482.2 811.4,482.2 814.8,482.2 818.1,482.2 821.4,482.2 824.7,482.2 828.1,482.3 831.4,482.2 834.7,482.2 838.0,482.2 841.4,482.2 844.7,482.2 848.0,482.2 851.3,482.2 854.7,482.3 858.0,482.1 861.3,482.2 864.6,482.2 868.0,482.2 871.3,482.3 874.6,482.2 877.9,482.2 881.3,482.3 884.6,482.3 887.9,482.2 891.2,482.3 894.6,482.3 897.9,482.2 901.2,482.2 904.5,482.2 907.9,482.2 911.2,482.2 914.5,482.2 917.8,482.2 921.2,482.2 924.5,482.2 927.8,482.2 931.1,482.2 934.5,482.2 937.8,482.2 941.1,482.2 944.4,482.2 947.7,482.2 951.1,482.2 954.4,482.2 957.7,482.2 961.0,482.2 964.4,482.2 967.7,482.2 971.0,482.2 974.3,482.2 977.7,482.2 981.0,482.2 984.3,482.2 987.6,482.2 991.0,482.2 994.3,482.2 997.6,482.2 1000.9,482.2 1004.3,482.2 1007.6,482.2 1010.9,482.2 1014.2,482.2 1017.6,482.2 1020.9,482.2 1024.2,482.2 1027.5,482.2 1030.9,482.2 1034.2,482.2 1037.5,482.2 1040.8,482.2 1044.2,482.2 1047.5,482.2 1050.8,482.2 1054.1,482.2 1057.5,482.2 1060.8,482.2 1064.1,482.2 1067.4,482.2 1070.8,482.2 1074.1,482.1 1077.4,482.2 1080.7,482.2 1084.1,482.2 1087.4,482.2 1090.7,482.2 1094.0,482.2 1097.4,482.2 1100.7,482.2 1104.0,482.2 1107.3,482.2 1110.7,482.2 1114.0,482.2 1117.3,482.2 1120.6,482.2 1124.0,482.2 1127.3,482.2 1130.6,482.1 1133.9,482.2 1137.3,482.2 1140.6,482.2 1143.9,482.2 1147.2,482.2 1150.5,482.2 1153.9,482.2 1157.2,482.2 1160.5,482.2 1163.8,482.2 1167.2,482.2 1170.5,482.2 1173.8,482.2 1177.1,482.2 1180.5,482.1 1183.8,482.2 1187.1,482.2 1190.4,482.1 1193.8,482.2 1197.1,482.2 1200.4,482.2 1203.7,482.2 1207.1,482.2 1210.4,482.2 1213.7,482.2 1217.0,482.2 1220.4,482.1 1223.7,482.2 1227.0,482.2 1230.3,482.2 1233.7,482.2 1237.0,482.2 1240.3,482.2 1243.6,482.2 1247.0,482.2 1250.3,482.2 1253.6,482.2 1256.9,482.2 1260.3,482.2 1263.6,482.2 1266.9,482.2 1270.2,482.2 1273.6,482.2 1276.9,482.2 1280.2,482.2 1283.5,482.2 1286.9,482.1 1290.2,482.2 1293.5,482.2 1296.8,482.2 1300.2,482.2 1303.5,482.1 1306.8,482.2 1310.1,482.2 1313.5,482.2 1316.8,482.1 1320.1,482.2 1323.4,482.2 1326.8,482.2 1330.1,482.2 1333.4,482.2 1336.7,482.2 1340.1,482.1 1343.4,482.2 1346.7,482.2 1350.0,482.2 1353.4,482.2 1356.7,482.2 1360.0,482.2"/>
<polyline fill="none" stroke="#111" stroke-width="2.5" points="90.0,707.1 93.3,708.8 96.6,718.1 100.0,713.9 103.3,708.6 106.6,716.7 109.9,715.1 113.3,717.5 116.6,722.5 119.9,720.0 123.2,721.3 126.6,711.4 129.9,705.0 133.2,716.2 136.5,721.9 139.9,717.9 143.2,721.7 146.5,716.4 149.8,715.1 153.2,703.9 156.5,698.7 159.8,710.6 163.1,692.2 166.5,675.2 169.8,688.3 173.1,689.5 176.4,690.5 179.8,683.8 183.1,680.8 186.4,696.5 189.7,673.9 193.1,668.2 196.4,671.7 199.7,673.1 203.0,667.0 206.4,668.5 209.7,645.5 213.0,647.2 216.3,635.5 219.7,641.4 223.0,651.2 226.3,635.5 229.6,623.1 233.0,644.8 236.3,624.9 239.6,636.6 242.9,634.5 246.3,634.7 249.6,617.8 252.9,638.2 256.2,597.6 259.6,597.7 262.9,609.0 266.2,598.7 269.5,600.7 272.9,599.1 276.2,590.4 279.5,605.5 282.8,594.5 286.2,592.0 289.5,600.1 292.8,594.9 296.1,591.3 299.5,590.9 302.8,595.9 306.1,583.6 309.4,581.7 312.7,585.7 316.1,576.8 319.4,586.7 322.7,579.8 326.0,578.8 329.4,571.3 332.7,580.8 336.0,573.4 339.3,580.3 342.7,579.4 346.0,576.8 349.3,578.5 352.6,569.3 356.0,569.0 359.3,566.0 362.6,582.4 365.9,572.6 369.3,570.0 372.6,571.0 375.9,569.2 379.2,567.2 382.6,566.9 385.9,566.2 389.2,564.2 392.5,570.0 395.9,562.1 399.2,565.6 402.5,566.7 405.8,566.3 409.2,562.7 412.5,565.6 415.8,563.2 419.1,565.5 422.5,564.5 425.8,564.3 429.1,558.7 432.4,560.3 435.8,560.7 439.1,558.6 442.4,559.2 445.7,561.1 449.1,563.2 452.4,560.6 455.7,559.6 459.0,561.2 462.4,559.9 465.7,556.1 469.0,557.4 472.3,557.4 475.7,560.8 479.0,559.2 482.3,556.0 485.6,558.1 489.0,558.7 492.3,556.1 495.6,557.2 498.9,558.9 502.3,556.1 505.6,558.0 508.9,557.9 512.2,555.3 515.5,556.9 518.9,554.9 522.2,555.9 525.5,556.3 528.8,557.4 532.2,559.3 535.5,558.6 538.8,557.6 542.1,557.2 545.5,556.8 548.8,557.2 552.1,557.6 555.4,554.0 558.8,554.4 562.1,554.3 565.4,555.5 568.7,554.3 572.1,554.3 575.4,555.1 578.7,554.7 582.0,554.2 585.4,555.0 588.7,552.9 592.0,553.0 595.3,552.6 598.7,553.8 602.0,554.2 605.3,552.5 608.6,553.1 612.0,553.8 615.3,556.3 618.6,553.6 621.9,553.5 625.3,554.5 628.6,554.2 631.9,555.2 635.2,553.6 638.6,553.7 641.9,553.5 645.2,551.2 648.5,551.0 651.9,555.0 655.2,553.5 658.5,551.9 661.8,553.5 665.2,551.2 668.5,552.2 671.8,552.8 675.1,552.4 678.5,553.3 681.8,554.2 685.1,551.2 688.4,551.8 691.8,553.6 695.1,552.7 698.4,552.8 701.7,551.6 705.1,551.0 708.4,552.5 711.7,550.5 715.0,553.8 718.4,552.4 721.7,551.8 725.0,551.7 728.3,550.3 731.6,551.9 735.0,550.9 738.3,551.3 741.6,550.8 744.9,552.9 748.3,553.3 751.6,549.6 754.9,552.9 758.2,551.6 761.6,551.6 764.9,550.7 768.2,551.3 771.5,550.8 774.9,550.3 778.2,550.7 781.5,553.7 784.8,553.6 788.2,550.4 791.5,553.1 794.8,550.7 798.1,552.3 801.5,551.3 804.8,550.0 808.1,550.1 811.4,550.7 814.8,551.4 818.1,549.6 821.4,550.8 824.7,549.5 828.1,550.7 831.4,550.3 834.7,551.2 838.0,550.8 841.4,550.7 844.7,552.1 848.0,551.5 851.3,550.7 854.7,550.1 858.0,551.6 861.3,551.9 864.6,550.4 868.0,551.3 871.3,552.3 874.6,549.5 877.9,551.5 881.3,551.2 884.6,550.7 887.9,550.2 891.2,551.6 894.6,552.7 897.9,551.2 901.2,550.6 904.5,552.4 907.9,552.5 911.2,551.2 914.5,550.2 917.8,548.7 921.2,550.1 924.5,551.3 927.8,550.9 931.1,549.7 934.5,550.1 937.8,551.5 941.1,550.1 944.4,550.1 947.7,550.9 951.1,551.0 954.4,551.0 957.7,550.6 961.0,549.2 964.4,551.3 967.7,551.5 971.0,550.7 974.3,550.1 977.7,548.6 981.0,549.5 984.3,549.6 987.6,549.8 991.0,551.0 994.3,550.7 997.6,550.2 1000.9,550.3 1004.3,550.2 1007.6,548.4 1010.9,551.9 1014.2,549.6 1017.6,550.7 1020.9,550.8 1024.2,550.4 1027.5,551.7 1030.9,548.3 1034.2,550.1 1037.5,549.3 1040.8,550.3 1044.2,550.2 1047.5,549.7 1050.8,549.8 1054.1,549.3 1057.5,549.7 1060.8,549.0 1064.1,549.9 1067.4,548.8 1070.8,549.3 1074.1,548.6 1077.4,547.7 1080.7,549.4 1084.1,549.3 1087.4,549.2 1090.7,550.1 1094.0,549.5 1097.4,549.5 1100.7,549.8 1104.0,551.0 1107.3,549.7 1110.7,549.7 1114.0,551.1 1117.3,549.0 1120.6,549.7 1124.0,550.2 1127.3,550.2 1130.6,547.6 1133.9,549.6 1137.3,550.4 1140.6,550.5 1143.9,549.5 1147.2,550.5 1150.5,548.5 1153.9,549.6 1157.2,550.9 1160.5,549.4 1163.8,549.8 1167.2,549.5 1170.5,550.5 1173.8,549.8 1177.1,550.8 1180.5,547.5 1183.8,551.1 1187.1,551.3 1190.4,548.2 1193.8,549.6 1197.1,551.4 1200.4,549.2 1203.7,549.7 1207.1,548.5 1210.4,549.8 1213.7,549.6 1217.0,550.1 1220.4,548.5 1223.7,549.3 1227.0,549.4 1230.3,550.2 1233.7,551.0 1237.0,549.0 1240.3,549.7 1243.6,549.6 1247.0,551.0 1250.3,548.8 1253.6,549.8 1256.9,549.4 1260.3,548.8 1263.6,549.5 1266.9,548.5 1270.2,549.9 1273.6,549.0 1276.9,550.0 1280.2,549.8 1283.5,549.8 1286.9,549.7 1290.2,550.2 1293.5,548.7 1296.8,549.8 1300.2,549.3 1303.5,549.1 1306.8,548.0 1310.1,549.4 1313.5,550.1 1316.8,547.8 1320.1,550.0 1323.4,548.6 1326.8,549.7 1330.1,548.7 1333.4,549.9 1336.7,550.5 1340.1,550.3 1343.4,548.2 1346.7,550.1 1350.0,548.9 1353.4,548.6 1356.7,548.9 1360.0,548.9"/>
<polyline fill="none" stroke="#2ca02c" stroke-width="2.5" points="119.9,959.0 153.2,963.2 186.4,950.6 219.7,938.0 252.9,933.8 286.2,917.0 319.4,917.0 352.6,883.4 385.9,887.6 419.1,908.6 452.4,875.0 485.6,870.8 518.9,854.0 552.1,870.8 585.4,866.6 618.6,849.8 651.9,891.8 685.1,862.4 718.4,866.6 751.6,862.4 784.8,845.6 818.1,828.8 851.3,854.0 884.6,849.8 917.8,833.0 951.1,845.6 984.3,824.6 1017.6,841.4 1050.8,854.0 1084.1,820.4 1117.3,837.2 1150.5,833.0 1183.8,837.2 1217.0,833.0 1250.3,858.2 1283.5,833.0 1316.8,845.6 1350.0,824.6"/>
<circle cx="119.9" cy="959.0" r="3.5" fill="#2ca02c"/>
<circle cx="153.2" cy="963.2" r="3.5" fill="#2ca02c"/>
<circle cx="186.4" cy="950.6" r="3.5" fill="#2ca02c"/>
<circle cx="219.7" cy="938.0" r="3.5" fill="#2ca02c"/>
<circle cx="252.9" cy="933.8" r="3.5" fill="#2ca02c"/>
<circle cx="286.2" cy="917.0" r="3.5" fill="#2ca02c"/>
<circle cx="319.4" cy="917.0" r="3.5" fill="#2ca02c"/>
<circle cx="352.6" cy="883.4" r="3.5" fill="#2ca02c"/>
<circle cx="385.9" cy="887.6" r="3.5" fill="#2ca02c"/>
<circle cx="419.1" cy="908.6" r="3.5" fill="#2ca02c"/>
<circle cx="452.4" cy="875.0" r="3.5" fill="#2ca02c"/>
<circle cx="485.6" cy="870.8" r="3.5" fill="#2ca02c"/>
<circle cx="518.9" cy="854.0" r="3.5" fill="#2ca02c"/>
<circle cx="552.1" cy="870.8" r="3.5" fill="#2ca02c"/>
<circle cx="585.4" cy="866.6" r="3.5" fill="#2ca02c"/>
<circle cx="618.6" cy="849.8" r="3.5" fill="#2ca02c"/>
<circle cx="651.9" cy="891.8" r="3.5" fill="#2ca02c"/>
<circle cx="685.1" cy="862.4" r="3.5" fill="#2ca02c"/>
<circle cx="718.4" cy="866.6" r="3.5" fill="#2ca02c"/>
<circle cx="751.6" cy="862.4" r="3.5" fill="#2ca02c"/>
<circle cx="784.8" cy="845.6" r="3.5" fill="#2ca02c"/>
<circle cx="818.1" cy="828.8" r="3.5" fill="#2ca02c"/>
<circle cx="851.3" cy="854.0" r="3.5" fill="#2ca02c"/>
<circle cx="884.6" cy="849.8" r="3.5" fill="#2ca02c"/>
<circle cx="917.8" cy="833.0" r="3.5" fill="#2ca02c"/>
<circle cx="951.1" cy="845.6" r="3.5" fill="#2ca02c"/>
<circle cx="984.3" cy="824.6" r="3.5" fill="#2ca02c"/>
<circle cx="1017.6" cy="841.4" r="3.5" fill="#2ca02c"/>
<circle cx="1050.8" cy="854.0" r="3.5" fill="#2ca02c"/>
<circle cx="1084.1" cy="820.4" r="3.5" fill="#2ca02c"/>
<circle cx="1117.3" cy="837.2" r="3.5" fill="#2ca02c"/>
<circle cx="1150.5" cy="833.0" r="3.5" fill="#2ca02c"/>
<circle cx="1183.8" cy="837.2" r="3.5" fill="#2ca02c"/>
<circle cx="1217.0" cy="833.0" r="3.5" fill="#2ca02c"/>
<circle cx="1250.3" cy="858.2" r="3.5" fill="#2ca02c"/>
<circle cx="1283.5" cy="833.0" r="3.5" fill="#2ca02c"/>
<circle cx="1316.8" cy="845.6" r="3.5" fill="#2ca02c"/>
<circle cx="1350.0" cy="824.6" r="3.5" fill="#2ca02c"/>
<line x1="1135" y1="70" x2="1161" y2="70" stroke="#333" stroke-width="2"/>
<text x="1169" y="74" font-size="11" font-family="Arial, sans-serif">total_loss</text>
<line x1="1135" y1="86" x2="1161" y2="86" stroke="#333" stroke-width="2" stroke-dasharray="8,4"/>
<text x="1169" y="90" font-size="11" font-family="Arial, sans-serif">policy_loss</text>
<line x1="1135" y1="102" x2="1161" y2="102" stroke="#333" stroke-width="2" stroke-dasharray="3,4"/>
<text x="1169" y="106" font-size="11" font-family="Arial, sans-serif">vf_loss</text>
</svg>