<svg xmlns="http://www.w3.org/2000/svg" width="1400" height="1180" viewBox="0 0 1400 1180">
<rect width="100%" height="100%" fill="#fafafa"/>
<text x="90" y="24" font-family="monospace" font-size="12" font-size="16">PPO_team_vs_baseline_shaping_scratch_512x512_20260412_002150 full-history training curves</text>
<text x="90" y="42" font-family="monospace" font-size="12">iterations 1..383</text>
<rect x="90" y="50" width="1270" height="220" fill="white" stroke="#cccccc"/>
<line x1="90" y1="50.0" x2="1360" y2="50.0" stroke="#eeeeee"/>
<line x1="90" y1="105.0" x2="1360" y2="105.0" stroke="#eeeeee"/>
<line x1="90" y1="160.0" x2="1360" y2="160.0" stroke="#eeeeee"/>
<line x1="90" y1="215.0" x2="1360" y2="215.0" stroke="#eeeeee"/>
<line x1="90" y1="270.0" x2="1360" y2="270.0" stroke="#eeeeee"/>
<line x1="90.0" y1="50" x2="90.0" y2="270" stroke="#f3f3f3"/>
<line x1="407.5" y1="50" x2="407.5" y2="270" stroke="#f3f3f3"/>
<line x1="725.0" y1="50" x2="725.0" y2="270" stroke="#f3f3f3"/>
<line x1="1042.5" y1="50" x2="1042.5" y2="270" stroke="#f3f3f3"/>
<line x1="1360.0" y1="50" x2="1360.0" y2="270" stroke="#f3f3f3"/>
<text x="90" y="40" font-family="monospace" font-size="12">reward + baseline eval</text>
<text x="10" y="65" font-family="monospace" font-size="12">2.509</text>
<text x="10" y="270.0" font-family="monospace" font-size="12">-1.341</text>
<text x="1370" y="65" font-family="monospace" font-size="12">1.000</text>
<text x="1370" y="270.0" font-family="monospace" font-size="12">0.000</text>
<polyline fill="none" stroke="#1f77b4" stroke-width="2" points="90.0,235.6 93.3,237.3 96.6,247.1 100.0,242.6 103.3,237.1 106.6,245.6 109.9,243.9 113.3,246.4 116.6,251.7 119.9,249.1 123.2,250.4 126.6,240.0 129.9,233.3 133.2,245.1 136.5,251.1 139.9,246.9 143.2,250.9 146.5,245.3 149.8,243.9 153.2,232.2 156.5,226.7 159.8,239.2 163.1,220.0 166.5,202.1 169.8,215.8 173.1,217.1 176.4,218.2 179.8,211.1 183.1,208.0 186.4,224.5 189.7,200.8 193.1,194.8 196.4,198.4 199.7,199.9 203.0,193.5 206.4,195.1 209.7,171.0 213.0,172.8 216.3,160.5 219.7,166.7 223.0,177.0 226.3,160.5 229.6,147.6 233.0,170.3 236.3,149.4 239.6,161.7 242.9,159.4 246.3,159.7 249.6,142.0 252.9,163.3 256.2,120.8 259.6,120.9 262.9,132.8 266.2,122.0 269.5,124.1 272.9,122.4 276.2,113.3 279.5,129.1 282.8,117.6 286.2,114.9 289.5,123.5 292.8,118.0 296.1,114.3 299.5,113.8 302.8,119.0 306.1,106.2 309.4,104.2 312.7,108.4 316.1,99.1 319.4,109.4 322.7,102.2 326.0,101.1 329.4,93.3 332.7,103.2 336.0,95.5 339.3,102.7 342.7,101.7 346.0,99.0 349.3,100.8 352.6,91.2 356.0,90.9 359.3,87.7 362.6,104.9 365.9,94.6 369.3,91.9 372.6,92.9 375.9,91.1 379.2,88.9 382.6,88.6 385.9,87.9 389.2,85.9 392.5,91.9 395.9,83.6 399.2,87.3 402.5,88.4 405.8,88.1 409.2,84.3 412.5,87.2 415.8,84.8 419.1,87.2 422.5,86.1 425.8,86.0 429.1,80.1 432.4,81.8 435.8,82.2 439.1,80.0 442.4,80.6 445.7,82.6 449.1,84.8 452.4,82.1 455.7,81.0 459.0,82.7 462.4,81.3 465.7,77.3 469.0,78.7 472.3,78.7 475.7,82.2 479.0,80.6 482.3,77.3 485.6,79.5 489.0,80.1 492.3,77.3 495.6,78.5 498.9,80.3 502.3,77.3 505.6,79.4 508.9,79.2 512.2,76.5 515.5,78.1 518.9,76.1 522.2,77.1 525.5,77.6 528.8,78.7 532.2,80.7 535.5,79.9 538.8,78.9 542.1,78.5 545.5,78.0 548.8,78.5 552.1,78.9 555.4,75.1 558.8,75.6 562.1,75.4 565.4,76.7 568.7,75.4 572.1,75.5 575.4,76.3 578.7,75.9 582.0,75.4 585.4,76.1 588.7,74.0 592.0,74.1 595.3,73.7 598.7,74.9 602.0,75.3 605.3,73.6 608.6,74.2 612.0,75.0 615.3,77.5 618.6,74.7 621.9,74.6 625.3,75.7 628.6,75.4 631.9,76.4 635.2,74.7 638.6,74.8 641.9,74.6 645.2,72.2 648.5,72.0 651.9,76.2 655.2,74.6 658.5,72.9 661.8,74.6 665.2,72.2 668.5,73.3 671.8,73.9 675.1,73.4 678.5,74.4 681.8,75.4 685.1,72.2 688.4,72.8 691.8,74.7 695.1,73.7 698.4,73.9 701.7,72.6 705.1,72.0 708.4,73.6 711.7,71.5 715.0,74.9 718.4,73.5 721.7,72.8 725.0,72.7 728.3,71.3 731.6,72.9 735.0,71.9 738.3,72.3 741.6,71.8 744.9,73.9 748.3,74.5 751.6,70.5 754.9,73.9 758.2,72.6 761.6,72.7 764.9,71.7 768.2,72.3 771.5,71.8 774.9,71.3 778.2,71.7 781.5,74.9 784.8,74.7 788.2,71.4 791.5,74.2 794.8,71.6 798.1,73.4 801.5,72.4 804.8,71.0 808.1,71.0 811.4,71.6 814.8,72.5 818.1,70.5 821.4,71.8 824.7,70.4 828.1,71.6 831.4,71.2 834.7,72.2 838.0,71.8 841.4,71.7 844.7,73.2 848.0,72.5 851.3,71.7 854.7,71.1 858.0,72.7 861.3,72.9 864.6,71.4 868.0,72.3 871.3,73.4 874.6,70.5 877.9,72.5 881.3,72.2 884.6,71.7 887.9,71.1 891.2,72.6 894.6,73.8 897.9,72.3 901.2,71.6 904.5,73.4 907.9,73.5 911.2,72.2 914.5,71.1 917.8,69.6 921.2,71.1 924.5,72.3 927.8,71.9 931.1,70.6 934.5,71.0 937.8,72.5 941.1,71.0 944.4,71.1 947.7,71.9 951.1,72.0 954.4,72.0 957.7,71.6 961.0,70.2 964.4,72.3 967.7,72.5 971.0,71.7 974.3,71.1 977.7,69.5 981.0,70.4 984.3,70.6 987.6,70.8 991.0,72.0 994.3,71.7 997.6,71.2 1000.9,71.3 1004.3,71.2 1007.6,69.2 1010.9,72.9 1014.2,70.5 1017.6,71.7 1020.9,71.8 1024.2,71.3 1027.5,72.8 1030.9,69.2 1034.2,71.0 1037.5,70.2 1040.8,71.3 1044.2,71.2 1047.5,70.6 1050.8,70.8 1054.1,70.2 1057.5,70.6 1060.8,69.9 1064.1,70.8 1067.4,69.7 1070.8,70.3 1074.1,69.5 1077.4,68.5 1080.7,70.3 1084.1,70.2 1087.4,70.2 1090.7,71.1 1094.0,70.5 1097.4,70.5 1100.7,70.8 1104.0,72.0 1107.3,70.7 1110.7,70.6 1114.0,72.1 1117.3,69.9 1120.6,70.7 1124.0,71.2 1127.3,71.1 1130.6,68.4 1133.9,70.5 1137.3,71.3 1140.6,71.4 1143.9,70.5 1147.2,71.5 1150.5,69.4 1153.9,70.5 1157.2,71.9 1160.5,70.3 1163.8,70.8 1167.2,70.4 1170.5,71.5 1173.8,70.7 1177.1,71.8 1180.5,68.3 1183.8,72.1 1187.1,72.3 1190.4,69.0 1193.8,70.6 1197.1,72.4 1200.4,70.1 1203.7,70.6 1207.1,69.4 1210.4,70.8 1213.7,70.5 1217.0,71.1 1220.4,69.4 1223.7,70.2 1227.0,70.3 1230.3,71.2 1233.7,72.0 1237.0,69.9 1240.3,70.6 1243.6,70.5 1247.0,72.0 1250.3,69.7 1253.6,70.7 1256.9,70.3 1260.3,69.7 1263.6,70.4 1266.9,69.3 1270.2,70.9 1273.6,69.9 1276.9,71.0 1280.2,70.7 1283.5,70.8 1286.9,70.7 1290.2,71.2 1293.5,69.6 1296.8,70.7 1300.2,70.2 1303.5,70.0 1306.8,68.9 1310.1,70.3 1313.5,71.0 1316.8,68.7 1320.1,70.9 1323.4,69.5 1326.8,70.6 1330.1,69.5 1333.4,70.8 1336.7,71.5 1340.1,71.3 1343.4,69.0 1346.7,71.1 1350.0,69.8 1353.4,69.5 1356.7,69.8 1360.0,69.8"/>
<line x1="100" y1="70" x2="120" y2="70" stroke="#1f77b4" stroke-width="2"/><text x="128" y="74" font-family="monospace" font-size="12">episode_reward_mean</text>
<circle cx="119.9" cy="248.0" r="3.5" fill="#ff7f0e"/>
<circle cx="153.2" cy="252.4" r="3.5" fill="#ff7f0e"/>
<circle cx="186.4" cy="239.2" r="3.5" fill="#ff7f0e"/>
<circle cx="219.7" cy="226.0" r="3.5" fill="#ff7f0e"/>
<circle cx="252.9" cy="221.6" r="3.5" fill="#ff7f0e"/>
<circle cx="286.2" cy="204.0" r="3.5" fill="#ff7f0e"/>
<circle cx="319.4" cy="204.0" r="3.5" fill="#ff7f0e"/>
<circle cx="352.6" cy="168.8" r="3.5" fill="#ff7f0e"/>
<circle cx="385.9" cy="173.2" r="3.5" fill="#ff7f0e"/>
<circle cx="419.1" cy="195.2" r="3.5" fill="#ff7f0e"/>
<circle cx="452.4" cy="160.0" r="3.5" fill="#ff7f0e"/>
<circle cx="485.6" cy="155.6" r="3.5" fill="#ff7f0e"/>
<circle cx="518.9" cy="138.0" r="3.5" fill="#ff7f0e"/>
<circle cx="552.1" cy="155.6" r="3.5" fill="#ff7f0e"/>
<circle cx="585.4" cy="151.2" r="3.5" fill="#ff7f0e"/>
<circle cx="618.6" cy="133.6" r="3.5" fill="#ff7f0e"/>
<circle cx="651.9" cy="177.6" r="3.5" fill="#ff7f0e"/>
<circle cx="685.1" cy="146.8" r="3.5" fill="#ff7f0e"/>
<circle cx="718.4" cy="151.2" r="3.5" fill="#ff7f0e"/>
<circle cx="751.6" cy="146.8" r="3.5" fill="#ff7f0e"/>
<circle cx="784.8" cy="129.2" r="3.5" fill="#ff7f0e"/>
<circle cx="818.1" cy="111.6" r="3.5" fill="#ff7f0e"/>
<circle cx="851.3" cy="138.0" r="3.5" fill="#ff7f0e"/>
<circle cx="884.6" cy="133.6" r="3.5" fill="#ff7f0e"/>
<circle cx="917.8" cy="116.0" r="3.5" fill="#ff7f0e"/>
<circle cx="951.1" cy="129.2" r="3.5" fill="#ff7f0e"/>
<circle cx="984.3" cy="107.2" r="3.5" fill="#ff7f0e"/>
<circle cx="1017.6" cy="124.8" r="3.5" fill="#ff7f0e"/>
<circle cx="1050.8" cy="138.0" r="3.5" fill="#ff7f0e"/>
<circle cx="1084.1" cy="102.8" r="3.5" fill="#ff7f0e"/>
<circle cx="1117.3" cy="120.4" r="3.5" fill="#ff7f0e"/>
<circle cx="1150.5" cy="116.0" r="3.5" fill="#ff7f0e"/>
<circle cx="1183.8" cy="120.4" r="3.5" fill="#ff7f0e"/>
<circle cx="1217.0" cy="116.0" r="3.5" fill="#ff7f0e"/>
<circle cx="1250.3" cy="142.4" r="3.5" fill="#ff7f0e"/>
<circle cx="1283.5" cy="116.0" r="3.5" fill="#ff7f0e"/>
<circle cx="1316.8" cy="129.2" r="3.5" fill="#ff7f0e"/>
<circle cx="1350.0" cy="107.2" r="3.5" fill="#ff7f0e"/>
<rect x="90" y="300" width="1270" height="220" fill="white" stroke="#cccccc"/>
<line x1="90" y1="300.0" x2="1360" y2="300.0" stroke="#eeeeee"/>
<line x1="90" y1="355.0" x2="1360" y2="355.0" stroke="#eeeeee"/>
<line x1="90" y1="410.0" x2="1360" y2="410.0" stroke="#eeeeee"/>
<line x1="90" y1="465.0" x2="1360" y2="465.0" stroke="#eeeeee"/>
<line x1="90" y1="520.0" x2="1360" y2="520.0" stroke="#eeeeee"/>
<line x1="90.0" y1="300" x2="90.0" y2="520" stroke="#f3f3f3"/>
<line x1="407.5" y1="300" x2="407.5" y2="520" stroke="#f3f3f3"/>
<line x1="725.0" y1="300" x2="725.0" y2="520" stroke="#f3f3f3"/>
<line x1="1042.5" y1="300" x2="1042.5" y2="520" stroke="#f3f3f3"/>
<line x1="1360.0" y1="300" x2="1360.0" y2="520" stroke="#f3f3f3"/>
<text x="90" y="290" font-family="monospace" font-size="12">losses</text>
<text x="10" y="315" font-family="monospace" font-size="12">0.129</text>
<text x="10" y="520.0" font-family="monospace" font-size="12">-0.169</text>
<polyline fill="none" stroke="#d62728" stroke-width="2" points="90.0,406.9 93.3,416.3 96.6,427.7 100.0,434.0 103.3,429.5 106.6,434.5 109.9,431.3 113.3,424.4 116.6,433.3 119.9,421.0 123.2,431.6 126.6,428.0 129.9,431.8 133.2,435.2 136.5,439.2 139.9,436.7 143.2,434.6 146.5,433.1 149.8,430.5 153.2,423.3 156.5,429.2 159.8,434.4 163.1,432.2 166.5,429.2 169.8,437.0 173.1,427.7 176.4,439.7 179.8,433.5 183.1,430.1 186.4,438.3 189.7,429.0 193.1,434.2 196.4,435.8 199.7,440.3 203.0,431.1 206.4,435.5 209.7,431.1 213.0,436.1 216.3,430.1 219.7,440.7 223.0,441.9 226.3,437.0 229.6,452.8 233.0,434.7 236.3,434.1 239.6,434.7 242.9,445.0 246.3,432.2 249.6,438.8 252.9,438.1 256.2,439.0 259.6,438.7 262.9,437.0 266.2,441.3 269.5,434.4 272.9,437.9 276.2,439.5 279.5,429.1 282.8,438.5 286.2,435.5 289.5,436.2 292.8,433.4 296.1,432.8 299.5,438.4 302.8,443.7 306.1,437.4 309.4,431.7 312.7,435.3 316.1,439.1 319.4,437.1 322.7,435.6 326.0,433.9 329.4,432.9 332.7,429.3 336.0,421.2 339.3,431.2 342.7,427.4 346.0,426.2 349.3,434.6 352.6,432.0 356.0,427.5 359.3,436.7 362.6,425.2 365.9,434.6 369.3,422.0 372.6,424.5 375.9,427.8 379.2,420.6 382.6,426.7 385.9,434.0 389.2,425.4 392.5,415.3 395.9,431.3 399.2,425.5 402.5,421.4 405.8,419.9 409.2,417.0 412.5,422.9 415.8,429.8 419.1,419.6 422.5,428.5 425.8,414.7 429.1,432.4 432.4,429.7 435.8,421.3 439.1,432.2 442.4,418.7 445.7,419.0 449.1,412.1 452.4,416.1 455.7,416.7 459.0,418.8 462.4,413.3 465.7,429.4 469.0,424.5 472.3,432.8 475.7,420.3 479.0,421.7 482.3,427.5 485.6,423.1 489.0,414.9 492.3,427.8 495.6,431.0 498.9,414.9 502.3,424.0 505.6,422.3 508.9,418.2 512.2,426.9 515.5,424.8 518.9,428.1 522.2,426.5 525.5,420.9 528.8,424.7 532.2,419.6 535.5,415.9 538.8,417.8 542.1,417.6 545.5,406.4 548.8,420.3 552.1,421.2 555.4,423.0 558.8,425.0 562.1,425.2 565.4,418.9 568.7,428.5 572.1,427.1 575.4,419.2 578.7,419.8 582.0,411.2 585.4,422.3 588.7,421.6 592.0,428.4 595.3,433.3 598.7,423.5 602.0,428.0 605.3,430.8 608.6,431.2 612.0,424.0 615.3,414.1 618.6,423.9 621.9,416.1 625.3,418.0 628.6,423.4 631.9,403.8 635.2,421.7 638.6,414.7 641.9,416.8 645.2,432.5 648.5,438.0 651.9,417.3 655.2,422.1 658.5,425.2 661.8,413.7 665.2,430.1 668.5,422.3 671.8,419.0 675.1,428.6 678.5,424.6 681.8,415.4 685.1,430.3 688.4,423.3 691.8,417.9 695.1,422.5 698.4,424.6 701.7,421.7 705.1,425.0 708.4,418.4 711.7,422.2 715.0,408.5 718.4,417.9 721.7,418.9 725.0,421.5 728.3,433.4 731.6,424.1 735.0,428.7 738.3,430.4 741.6,426.9 744.9,417.2 748.3,413.3 751.6,430.4 754.9,416.0 758.2,419.1 761.6,422.8 764.9,421.8 768.2,413.5 771.5,424.4 774.9,428.2 778.2,423.2 781.5,407.0 784.8,401.4 788.2,423.8 791.5,417.0 794.8,420.5 798.1,410.7 801.5,431.6 804.8,426.1 808.1,418.8 811.4,425.1 814.8,415.0 818.1,425.2 821.4,418.9 824.7,426.2 828.1,421.6 831.4,420.7 834.7,414.9 838.0,419.3 841.4,426.9 844.7,419.6 848.0,418.7 851.3,425.3 854.7,426.4 858.0,405.6 861.3,412.1 864.6,420.1 868.0,416.3 871.3,412.2 874.6,417.3 877.9,411.4 881.3,416.0 884.6,414.6 887.9,419.1 891.2,404.8 894.6,411.2 897.9,418.5 901.2,424.5 904.5,419.3 907.9,406.6 911.2,415.3 914.5,424.1 917.8,431.6 921.2,423.0 924.5,414.0 927.8,413.6 931.1,428.0 934.5,426.3 937.8,404.8 941.1,423.4 944.4,424.3 947.7,418.1 951.1,410.9 954.4,422.9 957.7,410.7 961.0,421.2 964.4,415.7 967.7,412.0 971.0,420.6 974.3,423.5 977.7,436.7 981.0,420.6 984.3,428.7 987.6,418.5 991.0,419.2 994.3,406.5 997.6,415.4 1000.9,424.7 1004.3,417.9 1007.6,429.0 1010.9,407.2 1014.2,417.7 1017.6,415.2 1020.9,416.2 1024.2,415.2 1027.5,409.4 1030.9,432.2 1034.2,417.6 1037.5,419.5 1040.8,413.8 1044.2,414.0 1047.5,419.4 1050.8,423.5 1054.1,427.7 1057.5,418.3 1060.8,419.5 1064.1,416.9 1067.4,424.8 1070.8,424.8 1074.1,420.2 1077.4,435.0 1080.7,423.4 1084.1,422.7 1087.4,420.5 1090.7,419.1 1094.0,420.7 1097.4,424.0 1100.7,413.8 1104.0,407.6 1107.3,417.6 1110.7,412.1 1114.0,405.5 1117.3,418.1 1120.6,409.1 1124.0,417.1 1127.3,411.1 1130.6,435.5 1133.9,421.2 1137.3,414.5 1140.6,406.6 1143.9,416.1 1147.2,410.6 1150.5,422.1 1153.9,413.0 1157.2,409.4 1160.5,417.1 1163.8,418.4 1167.2,416.7 1170.5,409.0 1173.8,411.5 1177.1,403.5 1180.5,429.4 1183.8,403.3 1187.1,402.2 1190.4,425.4 1193.8,415.2 1197.1,409.6 1200.4,420.2 1203.7,421.3 1207.1,428.1 1210.4,411.0 1213.7,412.5 1217.0,407.1 1220.4,416.0 1223.7,412.6 1227.0,414.7 1230.3,403.9 1233.7,402.1 1237.0,412.2 1240.3,408.1 1243.6,405.8 1247.0,398.5 1250.3,415.0 1253.6,412.7 1256.9,416.5 1260.3,417.9 1263.6,412.2 1266.9,424.6 1270.2,413.9 1273.6,415.8 1276.9,405.0 1280.2,404.2 1283.5,408.0 1286.9,405.5 1290.2,405.4 1293.5,418.8 1296.8,402.5 1300.2,415.9 1303.5,407.9 1306.8,425.0 1310.1,408.0 1313.5,405.7 1316.8,427.3 1320.1,407.2 1323.4,418.7 1326.8,407.7 1330.1,413.4 1333.4,407.7 1336.7,401.5 1340.1,401.4 1343.4,417.1 1346.7,405.6 1350.0,417.7 1353.4,411.6 1356.7,412.8 1360.0,410.8"/>
<line x1="100" y1="320" x2="120" y2="320" stroke="#d62728" stroke-width="2"/><text x="128" y="324" font-family="monospace" font-size="12">total_loss</text>
<polyline fill="none" stroke="#9467bd" stroke-width="2" stroke-dasharray="8,4" points="90.0,413.7 93.3,423.0 96.6,437.1 100.0,441.8 103.3,438.0 106.6,440.2 109.9,438.2 113.3,432.9 116.6,439.5 119.9,431.4 123.2,440.8 126.6,438.6 129.9,442.0 133.2,443.7 136.5,446.7 139.9,443.3 143.2,442.2 146.5,440.0 149.8,437.5 153.2,434.3 156.5,442.6 159.8,445.2 163.1,444.3 166.5,440.1 169.8,449.8 173.1,441.7 176.4,449.0 179.8,447.4 183.1,445.8 186.4,450.6 189.7,443.6 193.1,448.8 196.4,449.5 199.7,453.7 203.0,448.9 206.4,451.3 209.7,451.0 213.0,453.5 216.3,457.8 219.7,459.6 223.0,458.4 226.3,460.5 229.6,470.8 233.0,455.2 236.3,458.3 239.6,457.9 242.9,465.8 246.3,461.3 249.6,465.9 252.9,466.2 256.2,472.9 259.6,472.2 262.9,470.0 266.2,473.9 269.5,472.4 272.9,473.6 276.2,476.8 279.5,472.1 282.8,476.2 286.2,477.2 289.5,478.6 292.8,473.7 296.1,479.5 299.5,477.5 302.8,480.5 306.1,484.0 309.4,480.3 312.7,483.8 316.1,486.4 319.4,482.5 322.7,484.9 326.0,484.4 329.4,490.5 332.7,486.1 336.0,483.7 339.3,487.7 342.7,488.8 346.0,486.1 349.3,487.5 352.6,491.7 356.0,492.1 359.3,491.6 362.6,484.4 365.9,492.0 369.3,488.4 372.6,490.0 375.9,492.2 379.2,488.6 382.6,493.4 385.9,492.6 389.2,491.2 392.5,489.4 395.9,496.2 399.2,490.7 402.5,490.4 405.8,489.7 409.2,491.8 412.5,493.8 415.8,494.1 419.1,489.9 422.5,493.8 425.8,490.1 429.1,498.2 432.4,498.9 435.8,491.7 439.1,499.1 442.4,487.7 445.7,492.1 449.1,487.3 452.4,492.8 455.7,492.7 459.0,494.8 462.4,491.7 465.7,497.9 469.0,497.2 472.3,499.0 475.7,495.6 479.0,494.9 482.3,496.7 485.6,496.9 489.0,495.2 492.3,494.9 495.6,498.7 498.9,493.2 502.3,497.3 505.6,496.2 508.9,494.7 512.2,497.4 515.5,496.3 518.9,499.8 522.2,494.9 525.5,497.6 528.8,497.3 532.2,494.0 535.5,493.0 538.8,494.1 542.1,498.0 545.5,492.2 548.8,500.0 552.1,497.4 555.4,494.4 558.8,495.8 562.1,498.2 565.4,494.7 568.7,500.3 572.1,499.5 575.4,493.7 578.7,496.9 582.0,488.9 585.4,497.2 588.7,497.8 592.0,500.0 595.3,499.5 598.7,495.3 602.0,498.6 605.3,497.3 608.6,500.3 612.0,496.8 615.3,496.0 618.6,494.8 621.9,493.1 625.3,494.1 628.6,495.8 631.9,489.6 635.2,497.9 638.6,492.7 641.9,494.9 645.2,499.3 648.5,501.7 651.9,495.1 655.2,496.1 658.5,496.1 661.8,489.2 665.2,498.5 668.5,492.0 671.8,491.1 675.1,499.0 678.5,498.7 681.8,492.7 685.1,498.2 688.4,496.1 691.8,492.2 695.1,494.9 698.4,497.6 701.7,493.2 705.1,491.1 708.4,494.8 711.7,492.8 715.0,490.4 718.4,492.8 721.7,494.4 725.0,494.9 728.3,500.6 731.6,495.4 735.0,499.4 738.3,499.4 741.6,495.9 744.9,494.5 748.3,494.2 751.6,496.5 754.9,492.0 758.2,491.4 761.6,498.0 764.9,494.7 768.2,490.6 771.5,492.5 774.9,495.9 778.2,491.8 781.5,487.4 784.8,485.6 788.2,495.7 791.5,492.6 794.8,493.2 798.1,488.9 801.5,498.4 804.8,493.1 808.1,491.6 811.4,495.8 814.8,489.9 818.1,492.6 821.4,492.2 824.7,493.7 828.1,492.0 831.4,490.4 834.7,488.4 838.0,490.7 841.4,497.1 844.7,493.6 848.0,492.8 851.3,494.3 854.7,495.9 858.0,483.7 861.3,489.5 864.6,492.4 868.0,490.4 871.3,492.8 874.6,489.2 877.9,486.9 881.3,491.2 884.6,489.5 887.9,487.9 891.2,484.3 894.6,491.6 897.9,494.3 901.2,493.8 904.5,492.1 907.9,488.6 911.2,492.1 914.5,493.2 917.8,496.7 921.2,493.4 924.5,488.6 927.8,487.1 931.1,491.8 934.5,493.2 937.8,482.9 941.1,493.6 944.4,490.1 947.7,490.6 951.1,487.6 954.4,492.0 957.7,485.9 961.0,486.4 964.4,487.6 967.7,482.3 971.0,488.8 974.3,489.6 977.7,498.0 981.0,488.2 984.3,492.3 987.6,489.0 991.0,488.3 994.3,483.1 997.6,488.4 1000.9,490.6 1004.3,488.8 1007.6,491.0 1010.9,481.3 1014.2,488.3 1017.6,487.3 1020.9,487.5 1024.2,488.5 1027.5,487.8 1030.9,494.7 1034.2,485.2 1037.5,487.3 1040.8,485.7 1044.2,487.3 1047.5,488.4 1050.8,492.1 1054.1,491.4 1057.5,486.3 1060.8,485.8 1064.1,484.2 1067.4,487.8 1070.8,488.2 1074.1,486.6 1077.4,492.4 1080.7,488.7 1084.1,486.6 1087.4,484.9 1090.7,486.8 1094.0,487.1 1097.4,487.9 1100.7,484.1 1104.0,481.9 1107.3,485.4 1110.7,481.6 1114.0,481.3 1117.3,485.2 1120.6,480.0 1124.0,486.2 1127.3,484.9 1130.6,494.8 1133.9,487.7 1137.3,485.3 1140.6,482.2 1143.9,485.1 1147.2,481.4 1150.5,485.0 1153.9,480.1 1157.2,484.9 1160.5,486.8 1163.8,482.6 1167.2,482.2 1170.5,480.6 1173.8,481.2 1177.1,479.3 1180.5,488.1 1183.8,479.1 1187.1,480.4 1190.4,486.1 1193.8,480.1 1197.1,482.0 1200.4,486.0 1203.7,487.3 1207.1,486.4 1210.4,481.7 1213.7,481.2 1217.0,479.5 1220.4,483.6 1223.7,479.1 1227.0,481.9 1230.3,477.0 1233.7,480.3 1237.0,481.3 1240.3,478.7 1243.6,477.4 1247.0,477.2 1250.3,482.8 1253.6,480.0 1256.9,484.6 1260.3,482.8 1263.6,480.3 1266.9,488.3 1270.2,482.9 1273.6,483.6 1276.9,477.7 1280.2,475.9 1283.5,478.6 1286.9,476.7 1290.2,479.4 1293.5,482.0 1296.8,474.2 1300.2,483.4 1303.5,479.2 1306.8,486.2 1310.1,477.1 1313.5,477.8 1316.8,484.7 1320.1,477.4 1323.4,484.6 1326.8,475.8 1330.1,478.5 1333.4,476.4 1336.7,476.6 1340.1,477.8 1343.4,480.0 1346.7,478.4 1350.0,481.7 1353.4,476.5 1356.7,479.0 1360.0,477.1"/>
<line x1="100" y1="338" x2="120" y2="338" stroke="#9467bd" stroke-width="2" stroke-dasharray="8,4"/><text x="128" y="342" font-family="monospace" font-size="12">policy_loss</text>
<polyline fill="none" stroke="#2ca02c" stroke-width="2" stroke-dasharray="3,4" points="90.0,389.0 93.3,389.4 96.6,387.0 100.0,388.9 103.3,388.0 106.6,391.0 109.9,389.8 113.3,388.1 116.6,390.5 119.9,386.0 123.2,387.4 126.6,386.2 129.9,386.6 133.2,388.3 136.5,389.5 139.9,390.2 143.2,389.2 146.5,390.0 149.8,389.7 153.2,385.9 156.5,383.6 159.8,386.1 163.1,385.1 166.5,386.1 169.8,384.3 173.1,383.1 176.4,388.3 179.8,383.0 183.1,381.3 186.4,384.9 189.7,382.4 193.1,382.5 196.4,383.6 199.7,383.7 203.0,379.4 206.4,381.5 209.7,377.5 213.0,380.0 216.3,370.1 219.7,378.9 223.0,381.0 226.3,374.1 229.6,379.7 233.0,377.2 236.3,373.5 239.6,374.5 242.9,376.9 246.3,368.7 249.6,370.9 252.9,370.8 256.2,365.3 259.6,365.7 262.9,366.2 266.2,366.3 269.5,361.1 272.9,363.5 276.2,362.1 279.5,357.4 282.8,362.9 286.2,359.0 289.5,358.0 292.8,360.1 296.1,354.0 299.5,361.7 302.8,363.6 306.1,354.5 309.4,352.3 312.7,352.3 316.1,353.7 319.4,355.1 322.7,351.7 326.0,350.3 329.4,344.3 332.7,345.5 336.0,341.3 339.3,346.2 342.7,341.3 346.0,342.9 349.3,350.1 352.6,343.2 356.0,338.4 359.3,348.0 362.6,343.6 365.9,345.9 369.3,336.5 372.6,337.5 375.9,339.0 379.2,334.9 382.6,336.4 385.9,344.3 389.2,337.3 392.5,329.5 395.9,338.6 399.2,337.9 402.5,333.9 405.8,333.3 409.2,329.5 412.5,332.2 415.8,338.8 419.1,333.1 422.5,337.9 425.8,327.7 429.1,337.9 432.4,334.5 435.8,333.0 439.1,336.7 442.4,334.5 445.7,330.3 449.1,328.2 452.4,326.9 455.7,328.0 459.0,327.5 462.4,325.3 465.7,335.8 469.0,331.3 472.3,336.9 475.7,328.1 479.0,330.6 482.3,334.0 485.6,329.8 489.0,323.4 492.3,336.5 495.6,335.9 498.9,325.7 502.3,330.7 505.6,329.2 508.9,327.1 512.2,333.5 515.5,332.0 518.9,332.5 522.2,335.4 525.5,326.9 528.8,331.1 532.2,329.1 535.5,326.9 538.8,327.3 542.1,323.8 545.5,318.7 548.8,324.5 552.1,328.0 555.4,332.2 558.8,332.7 562.1,331.3 565.4,327.9 568.7,332.2 572.1,331.6 575.4,329.2 578.7,327.0 582.0,326.2 585.4,329.2 588.7,327.9 592.0,332.5 595.3,337.8 598.7,332.2 602.0,333.3 605.3,337.5 608.6,334.9 612.0,331.1 615.3,321.5 618.6,333.2 621.9,327.7 625.3,327.8 628.6,331.7 631.9,318.3 635.2,327.7 638.6,326.7 641.9,326.2 645.2,337.2 648.5,340.1 651.9,325.7 655.2,330.2 658.5,333.6 661.8,328.4 665.2,336.1 668.5,334.8 671.8,332.2 675.1,333.7 678.5,330.3 681.8,327.1 685.1,336.6 688.4,331.6 691.8,330.1 695.1,332.1 698.4,331.5 701.7,333.0 705.1,338.5 708.4,328.4 711.7,334.5 715.0,324.4 718.4,332.0 721.7,330.6 725.0,332.7 728.3,339.1 731.6,334.8 735.0,335.9 738.3,337.6 741.6,337.6 744.9,329.0 748.3,326.0 751.6,340.8 754.9,330.5 758.2,333.9 761.6,331.1 764.9,333.8 768.2,329.8 771.5,338.4 774.9,338.9 778.2,338.1 781.5,326.2 784.8,322.2 788.2,334.3 791.5,331.2 794.8,333.8 798.1,329.6 801.5,340.2 804.8,339.9 808.1,334.8 811.4,336.0 814.8,331.9 818.1,339.1 821.4,333.3 824.7,339.1 828.1,335.8 831.4,337.9 834.7,334.5 838.0,335.4 841.4,336.8 844.7,332.7 848.0,333.6 851.3,337.8 854.7,336.9 858.0,331.7 861.3,329.6 864.6,334.4 868.0,332.6 871.3,325.8 874.6,335.4 877.9,331.2 881.3,330.9 884.6,331.5 887.9,338.5 891.2,326.9 894.6,325.9 897.9,331.0 901.2,338.0 904.5,334.4 907.9,324.8 911.2,331.5 914.5,337.7 917.8,343.4 921.2,336.7 924.5,332.7 927.8,333.9 931.1,343.2 934.5,340.4 937.8,329.0 941.1,337.4 944.4,341.4 947.7,335.1 951.1,330.6 954.4,338.9 957.7,331.5 961.0,343.4 964.4,334.9 967.7,336.3 971.0,339.3 974.3,340.9 977.7,346.4 981.0,340.7 984.3,343.9 987.6,337.4 991.0,337.8 994.3,331.8 997.6,334.9 1000.9,340.7 1004.3,336.4 1007.6,346.8 1010.9,333.0 1014.2,337.2 1017.6,335.2 1020.9,335.9 1024.2,333.7 1027.5,329.1 1030.9,346.0 1034.2,340.0 1037.5,340.8 1040.8,336.8 1044.2,335.1 1047.5,339.0 1050.8,339.0 1054.1,343.3 1057.5,339.8 1060.8,340.7 1064.1,340.5 1067.4,345.3 1070.8,344.9 1074.1,343.3 1077.4,351.1 1080.7,342.7 1084.1,343.9 1087.4,343.2 1090.7,339.8 1094.0,341.9 1097.4,343.6 1100.7,337.5 1104.0,333.0 1107.3,341.0 1110.7,337.8 1114.0,332.1 1117.3,341.6 1120.6,336.6 1124.0,338.3 1127.3,334.5 1130.6,350.2 1133.9,341.9 1137.3,336.8 1140.6,332.2 1143.9,339.4 1147.2,337.1 1150.5,345.3 1153.9,340.9 1157.2,332.1 1160.5,338.3 1163.8,343.7 1167.2,343.0 1170.5,335.9 1173.8,338.2 1177.1,331.7 1180.5,350.6 1183.8,331.8 1187.1,328.6 1190.4,348.6 1193.8,343.1 1197.1,336.2 1200.4,342.1 1203.7,342.3 1207.1,349.9 1210.4,337.0 1213.7,338.8 1217.0,335.3 1220.4,341.9 1223.7,342.0 1227.0,340.1 1230.3,334.9 1233.7,329.5 1237.0,338.9 1240.3,336.9 1243.6,336.9 1247.0,329.1 1250.3,341.2 1253.6,340.8 1256.9,340.3 1260.3,343.2 1263.6,339.6 1266.9,345.1 1270.2,338.7 1273.6,340.4 1276.9,335.2 1280.2,337.3 1283.5,337.4 1286.9,338.2 1290.2,333.9 1293.5,344.7 1296.8,337.1 1300.2,341.0 1303.5,337.9 1306.8,347.6 1310.1,338.7 1313.5,336.2 1316.8,351.9 1320.1,338.2 1323.4,343.0 1326.8,339.9 1330.1,343.7 1333.4,340.2 1336.7,332.8 1340.1,333.2 1343.4,346.4 1346.7,335.4 1350.0,344.4 1353.4,344.1 1356.7,341.9 1360.0,341.6"/>
<line x1="100" y1="356" x2="120" y2="356" stroke="#2ca02c" stroke-width="2" stroke-dasharray="3,4"/><text x="128" y="360" font-family="monospace" font-size="12">vf_loss</text>
<rect x="90" y="550" width="1270" height="220" fill="white" stroke="#cccccc"/>
<line x1="90" y1="550.0" x2="1360" y2="550.0" stroke="#eeeeee"/>
<line x1="90" y1="605.0" x2="1360" y2="605.0" stroke="#eeeeee"/>
<line x1="90" y1="660.0" x2="1360" y2="660.0" stroke="#eeeeee"/>
<line x1="90" y1="715.0" x2="1360" y2="715.0" stroke="#eeeeee"/>
<line x1="90" y1="770.0" x2="1360" y2="770.0" stroke="#eeeeee"/>
<line x1="90.0" y1="550" x2="90.0" y2="770" stroke="#f3f3f3"/>
<line x1="407.5" y1="550" x2="407.5" y2="770" stroke="#f3f3f3"/>
<line x1="725.0" y1="550" x2="725.0" y2="770" stroke="#f3f3f3"/>
<line x1="1042.5" y1="550" x2="1042.5" y2="770" stroke="#f3f3f3"/>
<line x1="1360.0" y1="550" x2="1360.0" y2="770" stroke="#f3f3f3"/>
<text x="90" y="540" font-family="monospace" font-size="12">entropy</text>
<text x="10" y="565" font-family="monospace" font-size="12">7.012</text>
<text x="10" y="770.0" font-family="monospace" font-size="12">1.898</text>
<polyline fill="none" stroke="#8c564b" stroke-width="2" points="90.0,568.3 93.3,568.7 96.6,569.3 100.0,570.0 103.3,570.4 106.6,571.0 109.9,571.5 113.3,571.9 116.6,572.4 119.9,572.8 123.2,573.2 126.6,573.8 129.9,574.2 133.2,574.9 136.5,575.5 139.9,575.9 143.2,576.3 146.5,576.8 149.8,577.1 153.2,577.4 156.5,577.9 159.8,578.3 163.1,579.0 166.5,579.0 169.8,579.6 173.1,580.0 176.4,580.0 179.8,580.6 183.1,580.9 186.4,581.3 189.7,581.6 193.1,581.9 196.4,582.8 199.7,583.2 203.0,583.7 206.4,583.9 209.7,584.1 213.0,584.7 216.3,585.4 219.7,586.1 223.0,585.9 226.3,586.5 229.6,586.8 233.0,586.7 236.3,588.0 239.6,587.9 242.9,588.5 246.3,589.2 249.6,589.6 252.9,589.9 256.2,590.8 259.6,591.3 262.9,591.5 266.2,592.0 269.5,592.7 272.9,593.0 276.2,592.9 279.5,593.0 282.8,593.6 286.2,594.0 289.5,594.1 292.8,594.1 296.1,595.0 299.5,595.3 302.8,595.6 306.1,596.5 309.4,597.4 312.7,597.2 316.1,597.7 319.4,597.8 322.7,598.9 326.0,599.0 329.4,600.5 332.7,599.8 336.0,600.9 339.3,600.9 342.7,601.7 346.0,601.6 349.3,601.6 352.6,603.3 356.0,604.2 359.3,603.8 362.6,603.5 365.9,604.3 369.3,605.5 372.6,605.5 375.9,606.7 379.2,607.6 382.6,607.9 385.9,607.3 389.2,607.8 392.5,609.0 395.9,609.4 399.2,608.9 402.5,610.1 405.8,611.4 409.2,611.6 412.5,612.1 415.8,611.7 419.1,612.4 422.5,612.9 425.8,614.6 429.1,614.4 432.4,616.1 435.8,615.7 439.1,616.9 442.4,616.6 445.7,618.5 449.1,618.0 452.4,618.8 455.7,619.7 459.0,619.6 462.4,621.6 465.7,621.8 469.0,621.8 472.3,621.1 475.7,622.9 479.0,623.8 482.3,623.9 485.6,624.5 489.0,624.7 492.3,625.3 495.6,625.6 498.9,627.8 502.3,627.8 505.6,627.6 508.9,626.9 512.2,627.9 515.5,628.3 518.9,630.1 522.2,628.6 525.5,630.7 528.8,629.7 532.2,630.1 535.5,630.8 538.8,631.2 542.1,633.0 545.5,633.5 548.8,633.2 552.1,632.0 555.4,634.6 558.8,635.7 562.1,636.5 565.4,636.7 568.7,636.7 572.1,637.7 575.4,637.5 578.7,639.1 582.0,639.6 585.4,639.5 588.7,643.4 592.0,642.9 595.3,643.4 598.7,643.5 602.0,642.4 605.3,643.8 608.6,644.3 612.0,644.5 615.3,647.1 618.6,646.8 621.9,647.8 625.3,648.1 628.6,647.2 631.9,650.5 635.2,650.6 638.6,649.4 641.9,651.2 645.2,651.5 648.5,652.1 651.9,651.8 655.2,653.0 658.5,653.2 661.8,653.3 665.2,656.2 668.5,655.1 671.8,655.4 675.1,657.2 678.5,657.6 681.8,658.1 685.1,660.4 688.4,660.0 691.8,659.6 695.1,659.7 698.4,660.5 701.7,661.1 705.1,661.0 708.4,662.2 711.7,664.1 715.0,662.2 718.4,663.9 721.7,664.8 725.0,665.3 728.3,664.7 731.6,666.6 735.0,667.9 738.3,665.5 741.6,669.1 744.9,668.9 748.3,668.1 751.6,670.2 754.9,670.2 758.2,671.7 761.6,671.4 764.9,672.5 768.2,672.8 771.5,673.9 774.9,672.4 778.2,671.9 781.5,673.6 784.8,674.9 788.2,674.8 791.5,673.3 794.8,675.5 798.1,676.5 801.5,675.0 804.8,676.0 808.1,677.7 811.4,677.4 814.8,681.4 818.1,681.9 821.4,679.8 824.7,682.4 828.1,682.2 831.4,682.2 834.7,683.1 838.0,681.6 841.4,681.8 844.7,683.1 848.0,682.2 851.3,684.1 854.7,684.5 858.0,685.9 861.3,685.6 864.6,685.4 868.0,685.4 871.3,685.2 874.6,689.6 877.9,687.8 881.3,689.4 884.6,690.2 887.9,690.0 891.2,691.4 894.6,689.9 897.9,692.1 901.2,691.9 904.5,690.9 907.9,692.1 911.2,692.9 914.5,693.1 917.8,695.9 921.2,695.0 924.5,695.2 927.8,696.4 931.1,696.4 934.5,697.7 937.8,698.3 941.1,698.9 944.4,701.3 947.7,698.9 951.1,700.5 954.4,701.1 957.7,703.3 961.0,702.9 964.4,701.7 967.7,702.7 971.0,701.6 974.3,703.8 977.7,704.4 981.0,703.4 984.3,702.6 987.6,706.1 991.0,705.8 994.3,706.6 997.6,707.4 1000.9,707.2 1004.3,709.3 1007.6,709.5 1010.9,710.8 1014.2,710.1 1017.6,711.1 1020.9,710.2 1024.2,711.5 1027.5,712.1 1030.9,713.1 1034.2,712.7 1037.5,713.6 1040.8,713.6 1044.2,713.0 1047.5,715.3 1050.8,714.7 1054.1,715.0 1057.5,715.4 1060.8,716.6 1064.1,718.5 1067.4,718.1 1070.8,718.7 1074.1,720.4 1077.4,719.7 1080.7,718.1 1084.1,720.2 1087.4,720.0 1090.7,721.2 1094.0,720.1 1097.4,721.9 1100.7,723.6 1104.0,722.4 1107.3,723.3 1110.7,723.9 1114.0,724.8 1117.3,724.5 1120.6,725.1 1124.0,725.5 1127.3,724.6 1130.6,725.3 1133.9,726.0 1137.3,726.5 1140.6,728.0 1143.9,727.7 1147.2,727.6 1150.5,728.0 1153.9,730.0 1157.2,728.5 1160.5,729.3 1163.8,730.6 1167.2,730.1 1170.5,730.8 1173.8,731.0 1177.1,731.4 1180.5,732.4 1183.8,731.8 1187.1,733.2 1190.4,734.7 1193.8,733.8 1197.1,733.3 1200.4,734.1 1203.7,733.8 1207.1,735.9 1210.4,736.7 1213.7,736.8 1217.0,735.9 1220.4,737.7 1223.7,736.7 1227.0,736.9 1230.3,737.4 1233.7,737.9 1237.0,739.6 1240.3,739.1 1243.6,741.1 1247.0,740.2 1250.3,739.4 1253.6,739.4 1256.9,741.2 1260.3,740.9 1263.6,740.8 1266.9,740.7 1270.2,740.8 1273.6,743.5 1276.9,743.3 1280.2,744.0 1283.5,743.5 1286.9,744.2 1290.2,743.6 1293.5,745.6 1296.8,746.9 1300.2,743.9 1303.5,745.3 1306.8,746.8 1310.1,747.6 1313.5,747.2 1316.8,747.2 1320.1,746.5 1323.4,747.3 1326.8,747.9 1330.1,748.6 1333.4,747.2 1336.7,748.0 1340.1,747.4 1343.4,750.1 1346.7,749.3 1350.0,748.5 1353.4,750.5 1356.7,751.7 1360.0,750.4"/>
<line x1="100" y1="570" x2="120" y2="570" stroke="#8c564b" stroke-width="2"/><text x="128" y="574" font-family="monospace" font-size="12">entropy</text>
<rect x="90" y="800" width="1270" height="220" fill="white" stroke="#cccccc"/>
<line x1="90" y1="800.0" x2="1360" y2="800.0" stroke="#eeeeee"/>
<line x1="90" y1="855.0" x2="1360" y2="855.0" stroke="#eeeeee"/>
<line x1="90" y1="910.0" x2="1360" y2="910.0" stroke="#eeeeee"/>
<line x1="90" y1="965.0" x2="1360" y2="965.0" stroke="#eeeeee"/>
<line x1="90" y1="1020.0" x2="1360" y2="1020.0" stroke="#eeeeee"/>
<line x1="90.0" y1="800" x2="90.0" y2="1020" stroke="#f3f3f3"/>
<line x1="407.5" y1="800" x2="407.5" y2="1020" stroke="#f3f3f3"/>
<line x1="725.0" y1="800" x2="725.0" y2="1020" stroke="#f3f3f3"/>
<line x1="1042.5" y1="800" x2="1042.5" y2="1020" stroke="#f3f3f3"/>
<line x1="1360.0" y1="800" x2="1360.0" y2="1020" stroke="#f3f3f3"/>
<text x="90" y="790" font-family="monospace" font-size="12">kl</text>
<text x="10" y="815" font-family="monospace" font-size="12">0.022</text>
<text x="10" y="1020.0" font-family="monospace" font-size="12">0.005</text>
<polyline fill="none" stroke="#7f7f7f" stroke-width="2" points="90.0,1001.7 93.3,975.9 96.6,952.0 100.0,925.0 103.3,944.4 106.6,926.3 109.9,927.2 113.3,945.0 116.6,928.0 119.9,951.4 123.2,937.9 126.6,930.0 129.9,919.0 133.2,911.8 136.5,911.7 139.9,920.0 143.2,925.1 146.5,917.6 149.8,927.9 153.2,914.9 156.5,908.9 159.8,911.3 163.1,887.9 166.5,901.6 169.8,896.1 173.1,903.4 176.4,858.1 179.8,911.0 183.1,907.5 186.4,888.7 189.7,901.3 193.1,900.0 196.4,879.2 199.7,893.0 203.0,885.0 206.4,880.9 209.7,867.5 213.0,870.8 216.3,835.6 219.7,830.6 223.0,861.9 226.3,852.5 229.6,843.5 233.0,846.1 236.3,845.1 239.6,845.6 242.9,846.0 246.3,837.3 249.6,824.9 252.9,855.5 256.2,834.7 259.6,841.6 262.9,838.0 266.2,856.4 269.5,844.5 272.9,838.7 276.2,825.2 279.5,874.8 282.8,861.9 286.2,859.6 289.5,870.5 292.8,872.7 296.1,862.5 299.5,855.7 302.8,873.8 306.1,845.8 309.4,852.2 312.7,857.9 316.1,850.2 319.4,867.8 322.7,848.0 326.0,856.3 329.4,818.3 332.7,892.9 336.0,857.0 339.3,882.3 342.7,884.3 346.0,878.7 349.3,873.5 352.6,877.9 356.0,876.9 359.3,877.0 362.6,881.0 365.9,868.7 369.3,875.8 372.6,875.1 375.9,864.6 379.2,879.4 382.6,871.9 385.9,877.1 389.2,870.5 392.5,860.4 395.9,863.5 399.2,873.0 402.5,875.8 405.8,870.3 409.2,841.9 412.5,873.7 415.8,871.0 419.1,865.9 422.5,870.6 425.8,871.4 429.1,856.7 432.4,856.4 435.8,864.2 439.1,859.3 442.4,860.7 445.7,863.0 449.1,864.6 452.4,860.6 455.7,848.8 459.0,862.6 462.4,859.7 465.7,842.1 469.0,852.7 472.3,872.5 475.7,866.9 479.0,853.3 482.3,868.3 485.6,858.9 489.0,857.6 492.3,859.5 495.6,858.8 498.9,851.8 502.3,850.4 505.6,870.7 508.9,857.8 512.2,850.1 515.5,863.4 518.9,845.7 522.2,855.5 525.5,858.6 528.8,859.3 532.2,864.0 535.5,850.1 538.8,859.5 542.1,845.5 545.5,838.0 548.8,846.3 552.1,845.7 555.4,859.1 558.8,860.1 562.1,841.3 565.4,854.7 568.7,847.8 572.1,847.6 575.4,857.2 578.7,848.1 582.0,854.4 585.4,847.9 588.7,849.3 592.0,845.8 595.3,850.5 598.7,851.2 602.0,852.6 605.3,849.1 608.6,848.2 612.0,850.7 615.3,865.3 618.6,847.8 621.9,832.8 625.3,851.8 628.6,847.6 631.9,847.0 635.2,852.4 638.6,832.6 641.9,844.0 645.2,849.4 648.5,855.8 651.9,860.8 655.2,845.4 658.5,835.8 661.8,853.5 665.2,838.2 668.5,838.2 671.8,843.1 675.1,847.4 678.5,840.1 681.8,838.5 685.1,838.3 688.4,840.6 691.8,839.5 695.1,837.3 698.4,836.6 701.7,834.9 705.1,834.6 708.4,830.2 711.7,824.3 715.0,887.9 718.4,877.3 721.7,890.7 725.0,890.7 728.3,886.2 731.6,890.3 735.0,882.3 738.3,880.3 741.6,882.6 744.9,887.8 748.3,875.9 751.6,875.7 754.9,881.7 758.2,889.6 761.6,886.9 764.9,880.0 768.2,875.9 771.5,882.7 774.9,881.2 778.2,880.2 781.5,881.5 784.8,885.9 788.2,888.0 791.5,879.4 794.8,885.0 798.1,862.2 801.5,876.1 804.8,876.2 808.1,865.1 811.4,881.2 814.8,878.6 818.1,882.9 821.4,883.0 824.7,881.0 828.1,888.5 831.4,865.7 834.7,858.4 838.0,878.6 841.4,875.6 844.7,880.0 848.0,864.3 851.3,878.0 854.7,885.4 858.0,828.0 861.3,875.9 864.6,881.0 868.0,879.5 871.3,886.1 874.6,870.4 877.9,881.2 881.3,891.7 884.6,885.3 887.9,871.5 891.2,886.1 894.6,885.3 897.9,878.5 901.2,871.2 904.5,871.0 907.9,880.7 911.2,852.6 914.5,877.6 917.8,849.7 921.2,872.4 924.5,871.3 927.8,868.8 931.1,875.0 934.5,868.8 937.8,873.6 941.1,864.1 944.4,871.5 947.7,865.1 951.1,870.1 954.4,859.4 957.7,879.2 961.0,849.2 964.4,878.2 967.7,880.6 971.0,867.8 974.3,874.3 977.7,863.2 981.0,854.8 984.3,866.5 987.6,859.5 991.0,877.9 994.3,852.1 997.6,860.8 1000.9,883.2 1004.3,869.8 1007.6,844.0 1010.9,873.8 1014.2,860.9 1017.6,869.9 1020.9,872.1 1024.2,873.9 1027.5,866.4 1030.9,850.5 1034.2,865.9 1037.5,847.8 1040.8,847.0 1044.2,851.0 1047.5,858.9 1050.8,863.2 1054.1,874.9 1057.5,860.4 1060.8,874.1 1064.1,861.1 1067.4,853.0 1070.8,853.2 1074.1,830.9 1077.4,849.7 1080.7,857.5 1084.1,861.6 1087.4,865.4 1090.7,867.4 1094.0,853.3 1097.4,865.0 1100.7,861.5 1104.0,870.5 1107.3,845.0 1110.7,869.1 1114.0,860.4 1117.3,847.0 1120.6,866.6 1124.0,868.2 1127.3,853.0 1130.6,833.8 1133.9,850.9 1137.3,865.6 1140.6,861.4 1143.9,851.8 1147.2,859.6 1150.5,854.9 1153.9,859.0 1157.2,863.6 1160.5,859.2 1163.8,860.2 1167.2,850.8 1170.5,866.9 1173.8,858.7 1177.1,866.7 1180.5,836.5 1183.8,864.6 1187.1,878.0 1190.4,836.0 1193.8,858.4 1197.1,848.3 1200.4,859.9 1203.7,853.1 1207.1,855.2 1210.4,862.2 1213.7,866.7 1217.0,862.5 1220.4,832.7 1223.7,849.5 1227.0,869.7 1230.3,858.4 1233.7,863.1 1237.0,857.2 1240.3,865.6 1243.6,850.8 1247.0,862.4 1250.3,842.7 1253.6,855.2 1256.9,851.5 1260.3,858.0 1263.6,862.9 1266.9,844.5 1270.2,863.8 1273.6,855.0 1276.9,860.0 1280.2,841.6 1283.5,857.0 1286.9,835.7 1290.2,860.0 1293.5,860.0 1296.8,844.9 1300.2,851.6 1303.5,836.7 1306.8,845.5 1310.1,861.9 1313.5,853.8 1316.8,835.6 1320.1,849.8 1323.4,844.2 1326.8,858.1 1330.1,846.3 1333.4,844.7 1336.7,859.1 1340.1,832.3 1343.4,837.9 1346.7,854.8 1350.0,852.1 1353.4,841.9 1356.7,857.2 1360.0,859.0"/>
<line x1="100" y1="820" x2="120" y2="820" stroke="#7f7f7f" stroke-width="2"/><text x="128" y="824" font-family="monospace" font-size="12">kl</text>
<text x="90" y="1170" font-family="monospace" font-size="12">orange dots = baseline 50-episode eval win_rate, left-to-right by checkpoint iteration</text>
</svg>