<svg xmlns="http://www.w3.org/2000/svg" width="1400" height="1120" viewBox="0 0 1400 1120">
<rect x="0" y="0" width="1400" height="1120" fill="white" />
<text x="90" y="28" font-size="22" font-family="Arial, sans-serif" font-weight="bold">Training Loss Curve</text>
<text x="90" y="46" font-size="12" font-family="Arial, sans-serif" fill="#555">/home/hice1/wsun377/Desktop/cs8803drl/ray_results/PPO_team_vs_baseline_shaping_scratch_512x512_continue_20260412_061353</text>
<rect x="90" y="50" width="1270" height="210" fill="none" stroke="#bbb" stroke-width="1"/>
<text x="90" y="42" font-size="15" font-family="Arial, sans-serif" font-weight="bold">Losses</text>
<text x="18" y="155.0" font-size="12" font-family="Arial, sans-serif" transform="rotate(-90 18 155.0)">Loss</text>
<text x="18" y="62" font-size="11" font-family="Arial, sans-serif" fill="#666">0.119</text>
<text x="18" y="258" font-size="11" font-family="Arial, sans-serif" fill="#666">-0.138</text>
<line x1="90" y1="102.5" x2="1360" y2="102.5" stroke="#eee" stroke-width="1"/>
<line x1="90" y1="155.0" x2="1360" y2="155.0" stroke="#eee" stroke-width="1"/>
<line x1="90" y1="207.5" x2="1360" y2="207.5" stroke="#eee" stroke-width="1"/>
<rect x="90" y="290" width="1270" height="210" fill="none" stroke="#bbb" stroke-width="1"/>
<text x="90" y="282" font-size="15" font-family="Arial, sans-serif" font-weight="bold">Entropy / KL</text>
<text x="18" y="395.0" font-size="12" font-family="Arial, sans-serif" transform="rotate(-90 18 395.0)">Aux</text>
<text x="18" y="302" font-size="11" font-family="Arial, sans-serif" fill="#666">2.600</text>
<text x="18" y="498" font-size="11" font-family="Arial, sans-serif" fill="#666">-0.222</text>
<line x1="90" y1="342.5" x2="1360" y2="342.5" stroke="#eee" stroke-width="1"/>
<line x1="90" y1="395.0" x2="1360" y2="395.0" stroke="#eee" stroke-width="1"/>
<line x1="90" y1="447.5" x2="1360" y2="447.5" stroke="#eee" stroke-width="1"/>
<rect x="90" y="530" width="1270" height="210" fill="none" stroke="#bbb" stroke-width="1"/>
<text x="90" y="522" font-size="15" font-family="Arial, sans-serif" font-weight="bold">Episode Reward Mean</text>
<text x="18" y="635.0" font-size="12" font-family="Arial, sans-serif" transform="rotate(-90 18 635.0)">Reward</text>
<text x="18" y="542" font-size="11" font-family="Arial, sans-serif" fill="#666">2.200</text>
<text x="18" y="738" font-size="11" font-family="Arial, sans-serif" fill="#666">2.091</text>
<line x1="90" y1="582.5" x2="1360" y2="582.5" stroke="#eee" stroke-width="1"/>
<line x1="90" y1="635.0" x2="1360" y2="635.0" stroke="#eee" stroke-width="1"/>
<line x1="90" y1="687.5" x2="1360" y2="687.5" stroke="#eee" stroke-width="1"/>
<rect x="90" y="770" width="1270" height="210" fill="none" stroke="#bbb" stroke-width="1"/>
<text x="90" y="762" font-size="15" font-family="Arial, sans-serif" font-weight="bold">Baseline Win Rate (checkpoint eval)</text>
<text x="18" y="875.0" font-size="12" font-family="Arial, sans-serif" transform="rotate(-90 18 875.0)">Win Rate</text>
<text x="18" y="782" font-size="11" font-family="Arial, sans-serif" fill="#666">1.000</text>
<text x="18" y="978" font-size="11" font-family="Arial, sans-serif" fill="#666">0.000</text>
<line x1="90" y1="822.5" x2="1360" y2="822.5" stroke="#eee" stroke-width="1"/>
<line x1="90" y1="875.0" x2="1360" y2="875.0" stroke="#eee" stroke-width="1"/>
<line x1="90" y1="927.5" x2="1360" y2="927.5" stroke="#eee" stroke-width="1"/>
<line x1="90.0" y1="50" x2="90.0" y2="980" stroke="#f3f3f3" stroke-width="1"/>
<text x="90.0" y="998" text-anchor="middle" font-size="11" font-family="Arial, sans-serif" fill="#666">381</text>
<line x1="407.5" y1="50" x2="407.5" y2="980" stroke="#f3f3f3" stroke-width="1"/>
<text x="407.5" y="998" text-anchor="middle" font-size="11" font-family="Arial, sans-serif" fill="#666">410</text>
<line x1="725.0" y1="50" x2="725.0" y2="980" stroke="#f3f3f3" stroke-width="1"/>
<text x="725.0" y="998" text-anchor="middle" font-size="11" font-family="Arial, sans-serif" fill="#666">439</text>
<line x1="1042.5" y1="50" x2="1042.5" y2="980" stroke="#f3f3f3" stroke-width="1"/>
<text x="1042.5" y="998" text-anchor="middle" font-size="11" font-family="Arial, sans-serif" fill="#666">468</text>
<line x1="1360.0" y1="50" x2="1360.0" y2="980" stroke="#f3f3f3" stroke-width="1"/>
<text x="1360.0" y="998" text-anchor="middle" font-size="11" font-family="Arial, sans-serif" fill="#666">497</text>
<text x="725.0" y="1110" text-anchor="middle" font-size="12" font-family="Arial, sans-serif">Training Iteration</text>
<line x1="100" y1="68" x2="122" y2="68" stroke="#1f77b4" stroke-width="3"/>
<text x="128" y="72" font-size="11" font-family="Arial, sans-serif">default_policy</text>
<polyline fill="none" stroke="#1f77b4" stroke-width="2" points="90.0,147.3 100.9,172.3 111.9,162.2 122.8,150.7 133.8,164.9 144.7,144.4 155.7,169.4 166.6,159.5 177.6,163.9 188.5,163.9 199.5,152.2 210.4,151.3 221.4,152.9 232.3,168.3 243.3,155.2 254.2,148.5 265.2,154.1 276.1,158.4 287.1,155.4 298.0,165.2 309.0,147.0 319.9,162.4 330.9,150.3 341.8,162.7 352.8,154.2 363.7,145.6 374.7,130.3 385.6,151.5 396.6,148.3 407.5,164.6 418.4,150.8 429.4,152.0 440.3,144.2 451.3,155.5 462.2,155.0 473.2,161.5 484.1,148.5 495.1,158.4 506.0,167.5 517.0,153.6 527.9,156.1 538.9,161.1 549.8,148.4 560.8,156.8 571.7,155.1 582.7,158.6 593.6,158.8 604.6,145.0 615.5,167.2 626.5,161.1 637.4,148.6 648.4,169.3 659.3,154.0 670.3,137.2 681.2,139.3 692.2,151.5 703.1,160.4 714.1,164.0 725.0,149.0 735.9,161.1 746.9,139.4 757.8,158.7 768.8,157.8 779.7,150.0 790.7,142.4 801.6,141.6 812.6,157.0 823.5,154.2 834.5,152.1 845.4,166.5 856.4,150.3 867.3,155.7 878.3,162.7 889.2,169.8 900.2,156.4 911.1,142.9 922.1,158.8 933.0,147.7 944.0,154.0 954.9,152.3 965.9,148.1 976.8,140.8 987.8,138.8 998.7,147.7 1009.7,144.8 1020.6,147.6 1031.6,158.7 1042.5,164.7 1053.4,152.9 1064.4,142.7 1075.3,154.4 1086.3,145.5 1097.2,161.4 1108.2,143.2 1119.1,148.2 1130.1,152.2 1141.0,156.9 1152.0,166.1 1162.9,142.8 1173.9,161.6 1184.8,157.8 1195.8,160.3 1206.7,159.0 1217.7,162.7 1228.6,150.6 1239.6,156.3 1250.5,158.5 1261.5,149.6 1272.4,153.4 1283.4,158.9 1294.3,144.5 1305.3,153.0 1316.2,153.3 1327.2,143.1 1338.1,147.9 1349.1,161.2 1360.0,153.1"/>
<polyline fill="none" stroke="#1f77b4" stroke-width="2" stroke-dasharray="8,4" points="90.0,232.4 100.9,239.8 111.9,237.2 122.8,232.6 133.8,238.9 144.7,231.8 155.7,242.4 166.6,235.6 177.6,236.1 188.5,236.8 199.5,230.9 210.4,233.6 221.4,238.1 232.3,242.5 243.3,233.1 254.2,229.8 265.2,233.3 276.1,234.0 287.1,233.4 298.0,238.5 309.0,225.4 319.9,233.9 330.9,234.4 341.8,238.1 352.8,233.1 363.7,230.6 374.7,227.8 385.6,234.1 396.6,230.9 407.5,237.3 418.4,230.1 429.4,229.5 440.3,226.5 451.3,233.7 462.2,234.8 473.2,234.8 484.1,231.7 495.1,234.9 506.0,237.4 517.0,232.5 527.9,232.1 538.9,236.3 549.8,231.4 560.8,234.1 571.7,233.8 582.7,235.9 593.6,233.2 604.6,226.6 615.5,235.0 626.5,236.1 637.4,230.3 648.4,240.1 659.3,229.8 670.3,226.7 681.2,229.2 692.2,232.6 703.1,232.7 714.1,240.1 725.0,228.5 735.9,234.8 746.9,226.7 757.8,231.8 768.8,235.1 779.7,230.2 790.7,227.0 801.6,229.1 812.6,237.1 823.5,233.8 834.5,231.6 845.4,237.8 856.4,227.7 867.3,231.6 878.3,238.6 889.2,240.5 900.2,231.5 911.1,228.0 922.1,233.9 933.0,228.2 944.0,235.6 954.9,231.6 965.9,228.2 976.8,230.0 987.8,226.8 998.7,231.3 1009.7,227.3 1020.6,230.5 1031.6,231.2 1042.5,235.3 1053.4,230.3 1064.4,225.9 1075.3,232.6 1086.3,232.2 1097.2,232.5 1108.2,224.9 1119.1,230.6 1130.1,231.8 1141.0,234.9 1152.0,238.8 1162.9,226.3 1173.9,233.9 1184.8,233.9 1195.8,234.4 1206.7,233.5 1217.7,232.6 1228.6,229.1 1239.6,231.7 1250.5,234.0 1261.5,228.4 1272.4,229.3 1283.4,230.5 1294.3,227.5 1305.3,230.0 1316.2,228.1 1327.2,225.0 1338.1,228.8 1349.1,230.2 1360.0,231.9"/>
<polyline fill="none" stroke="#1f77b4" stroke-width="2" stroke-dasharray="3,4" points="90.0,67.7 100.9,88.8 111.9,82.8 122.8,77.5 133.8,90.2 144.7,79.3 155.7,94.8 166.6,90.0 177.6,93.3 188.5,93.6 199.5,88.9 210.4,82.4 221.4,80.3 232.3,91.3 243.3,87.5 254.2,84.9 265.2,86.2 276.1,92.1 287.1,88.4 298.0,92.5 309.0,86.1 319.9,95.5 330.9,82.0 341.8,90.7 352.8,85.7 363.7,80.0 374.7,67.5 385.6,83.5 396.6,83.1 407.5,92.1 418.4,86.8 429.4,88.5 440.3,83.7 451.3,89.7 462.2,85.0 473.2,92.4 484.1,83.5 495.1,87.8 506.0,96.5 517.0,87.1 527.9,88.7 538.9,90.2 549.8,82.7 560.8,89.1 571.7,87.6 582.7,87.8 593.6,90.9 604.6,83.0 615.5,98.5 626.5,91.3 637.4,82.8 648.4,94.8 659.3,89.9 670.3,74.6 681.2,74.6 692.2,83.3 703.1,95.0 714.1,89.8 725.0,85.8 735.9,90.9 746.9,77.5 757.8,92.6 768.8,88.3 779.7,86.9 790.7,81.6 801.6,77.0 812.6,86.8 823.5,85.3 834.5,87.0 845.4,94.7 856.4,87.7 867.3,88.4 878.3,89.6 889.2,96.0 900.2,90.6 911.1,81.0 922.1,91.8 933.0,84.4 944.0,83.5 954.9,86.0 965.9,85.6 976.8,75.3 987.8,77.3 998.7,82.8 1009.7,82.6 1020.6,81.3 1031.6,92.5 1042.5,94.4 1053.4,89.1 1064.4,81.2 1075.3,87.2 1086.3,78.3 1097.2,96.6 1108.2,84.5 1119.1,82.9 1130.1,84.3 1141.0,88.3 1152.0,92.3 1162.9,81.6 1173.9,95.0 1184.8,90.1 1195.8,91.6 1206.7,91.0 1217.7,95.1 1228.6,87.2 1239.6,89.6 1250.5,89.7 1261.5,87.0 1272.4,89.8 1283.4,95.2 1294.3,80.8 1305.3,88.5 1316.2,90.0 1327.2,83.5 1338.1,83.6 1349.1,98.1 1360.0,85.8"/>
<polyline fill="none" stroke="#1f77b4" stroke-width="2" points="90.0,307.5 100.9,312.7 111.9,309.0 122.8,314.4 133.8,310.8 144.7,309.1 155.7,311.3 166.6,314.1 177.6,312.8 188.5,314.3 199.5,312.2 210.4,312.1 221.4,312.0 232.3,312.2 243.3,314.6 254.2,312.4 265.2,315.3 276.1,312.6 287.1,315.3 298.0,315.6 309.0,316.2 319.9,313.7 330.9,313.4 341.8,314.1 352.8,315.2 363.7,316.2 374.7,316.4 385.6,317.4 396.6,319.2 407.5,319.9 418.4,317.8 429.4,317.8 440.3,318.3 451.3,318.5 462.2,318.0 473.2,320.0 484.1,320.9 495.1,320.0 506.0,320.9 517.0,321.9 527.9,323.6 538.9,323.2 549.8,324.3 560.8,323.6 571.7,323.1 582.7,323.4 593.6,324.7 604.6,324.5 615.5,324.9 626.5,322.5 637.4,325.2 648.4,323.0 659.3,324.6 670.3,324.4 681.2,325.2 692.2,326.8 703.1,327.5 714.1,324.3 725.0,324.9 735.9,326.8 746.9,328.2 757.8,326.3 768.8,324.2 779.7,328.4 790.7,328.4 801.6,327.2 812.6,324.5 823.5,327.3 834.5,329.7 845.4,327.8 856.4,327.8 867.3,329.1 878.3,327.3 889.2,329.2 900.2,329.4 911.1,331.1 922.1,333.1 933.0,330.0 944.0,330.1 954.9,329.9 965.9,328.6 976.8,330.2 987.8,329.7 998.7,332.2 1009.7,332.7 1020.6,332.6 1031.6,335.6 1042.5,335.4 1053.4,334.4 1064.4,335.7 1075.3,335.1 1086.3,332.6 1097.2,334.6 1108.2,335.2 1119.1,333.1 1130.1,335.5 1141.0,334.3 1152.0,333.8 1162.9,336.0 1173.9,336.5 1184.8,336.3 1195.8,335.3 1206.7,334.5 1217.7,338.0 1228.6,337.6 1239.6,341.0 1250.5,338.3 1261.5,340.3 1272.4,337.4 1283.4,337.0 1294.3,337.6 1305.3,338.6 1316.2,340.8 1327.2,340.4 1338.1,339.0 1349.1,340.8 1360.0,338.8"/>
<polyline fill="none" stroke="#1f77b4" stroke-width="2" stroke-dasharray="8,4" points="90.0,481.0 100.9,480.8 111.9,481.4 122.8,481.9 133.8,482.0 144.7,482.3 155.7,482.3 166.6,482.4 177.6,482.4 188.5,482.3 199.5,482.3 210.4,482.4 221.4,482.4 232.3,482.4 243.3,482.4 254.2,482.4 265.2,482.4 276.1,482.3 287.1,482.3 298.0,482.4 309.0,482.5 319.9,482.3 330.9,482.4 341.8,482.4 352.8,482.5 363.7,482.4 374.7,482.4 385.6,482.4 396.6,482.4 407.5,482.4 418.4,482.4 429.4,482.4 440.3,482.4 451.3,482.3 462.2,482.4 473.2,482.4 484.1,482.3 495.1,482.5 506.0,482.3 517.0,482.4 527.9,482.5 538.9,482.4 549.8,482.4 560.8,482.3 571.7,482.4 582.7,482.4 593.6,482.4 604.6,482.5 615.5,482.4 626.5,482.3 637.4,482.5 648.4,482.4 659.3,482.4 670.3,482.5 681.2,482.5 692.2,482.5 703.1,482.3 714.1,482.4 725.0,482.4 735.9,482.5 746.9,482.4 757.8,482.4 768.8,482.4 779.7,482.3 790.7,482.4 801.6,482.5 812.6,482.3 823.5,482.4 834.5,482.3 845.4,482.4 856.4,482.4 867.3,482.5 878.3,482.4 889.2,482.3 900.2,482.4 911.1,482.4 922.1,482.3 933.0,482.4 944.0,482.4 954.9,482.4 965.9,482.4 976.8,482.5 987.8,482.4 998.7,482.3 1009.7,482.4 1020.6,482.5 1031.6,482.4 1042.5,482.4 1053.4,482.3 1064.4,482.5 1075.3,482.4 1086.3,482.4 1097.2,482.3 1108.2,482.4 1119.1,482.4 1130.1,482.5 1141.0,482.4 1152.0,482.4 1162.9,482.4 1173.9,482.3 1184.8,482.4 1195.8,482.4 1206.7,482.4 1217.7,482.4 1228.6,482.4 1239.6,482.4 1250.5,482.4 1261.5,482.4 1272.4,482.4 1283.4,482.3 1294.3,482.5 1305.3,482.4 1316.2,482.4 1327.2,482.4 1338.1,482.5 1349.1,482.3 1360.0,482.4"/>
<polyline fill="none" stroke="#111" stroke-width="2.5" points="90.0,695.5 100.9,593.1 111.9,648.2 122.8,613.5 133.8,569.8 144.7,636.5 155.7,574.2 166.6,600.0 177.6,602.9 188.5,578.1 199.5,589.9 210.4,647.4 221.4,646.8 232.3,583.3 243.3,620.2 254.2,621.1 265.2,621.9 276.1,600.8 287.1,615.3 298.0,604.9 309.0,625.0 319.9,596.7 330.9,652.3 341.8,584.6 352.8,645.2 363.7,670.6 374.7,722.5 385.6,631.5 396.6,630.7 407.5,593.2 418.4,597.9 429.4,603.5 440.3,648.5 451.3,609.9 462.2,638.2 473.2,573.7 484.1,638.8 495.1,610.3 506.0,571.3 517.0,615.5 527.9,609.0 538.9,589.4 549.8,599.5 560.8,607.6 571.7,599.8 582.7,618.1 593.6,594.2 604.6,617.2 615.5,553.7 626.5,602.2 637.4,658.6 648.4,570.2 659.3,623.8 670.3,675.5 681.2,672.2 692.2,613.9 703.1,547.5 714.1,592.7 725.0,620.4 735.9,598.9 746.9,650.0 757.8,576.7 768.8,605.6 779.7,613.2 790.7,627.5 801.6,656.9 812.6,605.9 823.5,615.8 834.5,625.9 845.4,578.1 856.4,613.0 867.3,600.0 878.3,578.9 889.2,570.7 900.2,591.7 911.1,633.6 922.1,590.2 933.0,644.2 944.0,608.6 954.9,613.7 965.9,642.1 976.8,680.1 987.8,667.6 998.7,612.9 1009.7,616.9 1020.6,617.3 1031.6,584.6 1042.5,579.8 1053.4,599.4 1064.4,643.2 1075.3,589.2 1086.3,654.6 1097.2,566.0 1108.2,624.4 1119.1,653.4 1130.1,611.3 1141.0,589.0 1152.0,587.9 1162.9,627.0 1173.9,556.8 1184.8,584.9 1195.8,603.2 1206.7,618.3 1217.7,567.0 1228.6,606.1 1239.6,596.1 1250.5,571.3 1261.5,596.8 1272.4,591.6 1283.4,580.9 1294.3,646.5 1305.3,589.8 1316.2,599.3 1327.2,619.6 1338.1,641.1 1349.1,565.5 1360.0,622.1"/>
<polyline fill="none" stroke="#2ca02c" stroke-width="2.5" points="188.5,820.4 298.0,816.2 407.5,824.6 517.0,820.4 626.5,812.0 735.9,866.6 845.4,833.0 954.9,824.6 1064.4,828.8 1173.9,837.2 1283.4,837.2"/>
<circle cx="188.5" cy="820.4" r="3.5" fill="#2ca02c"/>
<circle cx="298.0" cy="816.2" r="3.5" fill="#2ca02c"/>
<circle cx="407.5" cy="824.6" r="3.5" fill="#2ca02c"/>
<circle cx="517.0" cy="820.4" r="3.5" fill="#2ca02c"/>
<circle cx="626.5" cy="812.0" r="3.5" fill="#2ca02c"/>
<circle cx="735.9" cy="866.6" r="3.5" fill="#2ca02c"/>
<circle cx="845.4" cy="833.0" r="3.5" fill="#2ca02c"/>
<circle cx="954.9" cy="824.6" r="3.5" fill="#2ca02c"/>
<circle cx="1064.4" cy="828.8" r="3.5" fill="#2ca02c"/>
<circle cx="1173.9" cy="837.2" r="3.5" fill="#2ca02c"/>
<circle cx="1283.4" cy="837.2" r="3.5" fill="#2ca02c"/>
<line x1="1135" y1="70" x2="1161" y2="70" stroke="#333" stroke-width="2"/>
<text x="1169" y="74" font-size="11" font-family="Arial, sans-serif">total_loss</text>
<line x1="1135" y1="86" x2="1161" y2="86" stroke="#333" stroke-width="2" stroke-dasharray="8,4"/>
<text x="1169" y="90" font-size="11" font-family="Arial, sans-serif">policy_loss</text>
<line x1="1135" y1="102" x2="1161" y2="102" stroke="#333" stroke-width="2" stroke-dasharray="3,4"/>
<text x="1169" y="106" font-size="11" font-family="Arial, sans-serif">vf_loss</text>
</svg>