<svg xmlns="http://www.w3.org/2000/svg" width="1400" height="1180" viewBox="0 0 1400 1180">
<rect width="100%" height="100%" fill="#fafafa"/>
<text x="90" y="24" font-family="monospace" font-size="12" font-size="16">PPO_team_vs_baseline_shaping_scratch_512x512_continue_20260412_061353 full-history training curves</text>
<text x="90" y="42" font-family="monospace" font-size="12">iterations 381..497</text>
<rect x="90" y="50" width="1270" height="220" fill="white" stroke="#cccccc"/>
<line x1="90" y1="50.0" x2="1360" y2="50.0" stroke="#eeeeee"/>
<line x1="90" y1="105.0" x2="1360" y2="105.0" stroke="#eeeeee"/>
<line x1="90" y1="160.0" x2="1360" y2="160.0" stroke="#eeeeee"/>
<line x1="90" y1="215.0" x2="1360" y2="215.0" stroke="#eeeeee"/>
<line x1="90" y1="270.0" x2="1360" y2="270.0" stroke="#eeeeee"/>
<line x1="90.0" y1="50" x2="90.0" y2="270" stroke="#f3f3f3"/>
<line x1="407.5" y1="50" x2="407.5" y2="270" stroke="#f3f3f3"/>
<line x1="725.0" y1="50" x2="725.0" y2="270" stroke="#f3f3f3"/>
<line x1="1042.5" y1="50" x2="1042.5" y2="270" stroke="#f3f3f3"/>
<line x1="1360.0" y1="50" x2="1360.0" y2="270" stroke="#f3f3f3"/>
<text x="90" y="40" font-family="monospace" font-size="12">reward + baseline eval</text>
<text x="10" y="65" font-family="monospace" font-size="12">2.200</text>
<text x="10" y="270.0" font-family="monospace" font-size="12">2.091</text>
<text x="1370" y="65" font-family="monospace" font-size="12">1.000</text>
<text x="1370" y="270.0" font-family="monospace" font-size="12">0.000</text>
<polyline fill="none" stroke="#1f77b4" stroke-width="2" points="90.0,223.3 100.9,116.1 111.9,173.8 122.8,137.4 133.8,91.7 144.7,161.6 155.7,96.3 166.6,123.3 177.6,126.3 188.5,100.4 199.5,112.8 210.4,173.0 221.4,172.3 232.3,105.8 243.3,144.5 254.2,145.4 265.2,146.2 276.1,124.2 287.1,139.4 298.0,128.5 309.0,149.5 319.9,119.9 330.9,178.2 341.8,107.2 352.8,170.6 363.7,197.2 374.7,251.7 385.6,156.4 396.6,155.5 407.5,116.2 418.4,121.1 429.4,127.0 440.3,174.2 451.3,133.8 462.2,163.3 473.2,95.8 484.1,164.0 495.1,134.1 506.0,93.3 517.0,139.6 527.9,132.8 538.9,112.2 549.8,122.9 560.8,131.3 571.7,123.1 582.7,142.3 593.6,117.2 604.6,141.4 615.5,74.9 626.5,125.6 637.4,184.7 648.4,92.1 659.3,148.2 670.3,202.4 681.2,199.0 692.2,137.9 703.1,68.3 714.1,115.7 725.0,144.7 735.9,122.2 746.9,175.7 757.8,98.9 768.8,129.2 779.7,137.1 790.7,152.1 801.6,182.9 812.6,129.5 823.5,139.9 834.5,150.5 845.4,100.4 856.4,137.0 867.3,123.4 878.3,101.3 889.2,92.6 900.2,114.7 911.1,158.5 922.1,113.1 933.0,169.6 944.0,132.4 954.9,137.7 965.9,167.4 976.8,207.3 987.8,194.1 998.7,136.9 1009.7,141.0 1020.6,141.5 1031.6,107.2 1042.5,102.2 1053.4,122.7 1064.4,168.5 1075.3,112.0 1086.3,180.5 1097.2,87.7 1108.2,148.9 1119.1,179.3 1130.1,135.2 1141.0,111.9 1152.0,110.7 1162.9,151.6 1173.9,78.1 1184.8,107.5 1195.8,126.7 1206.7,142.5 1217.7,88.8 1228.6,129.7 1239.6,119.2 1250.5,93.3 1261.5,120.0 1272.4,114.5 1283.4,103.3 1294.3,172.0 1305.3,112.7 1316.2,122.6 1327.2,143.9 1338.1,166.4 1349.1,87.2 1360.0,146.4"/>
<line x1="100" y1="70" x2="120" y2="70" stroke="#1f77b4" stroke-width="2"/><text x="128" y="74" font-family="monospace" font-size="12">episode_reward_mean</text>
<circle cx="188.5" cy="102.8" r="3.5" fill="#ff7f0e"/>
<circle cx="298.0" cy="98.4" r="3.5" fill="#ff7f0e"/>
<circle cx="407.5" cy="107.2" r="3.5" fill="#ff7f0e"/>
<circle cx="517.0" cy="102.8" r="3.5" fill="#ff7f0e"/>
<circle cx="626.5" cy="94.0" r="3.5" fill="#ff7f0e"/>
<circle cx="735.9" cy="151.2" r="3.5" fill="#ff7f0e"/>
<circle cx="845.4" cy="116.0" r="3.5" fill="#ff7f0e"/>
<circle cx="954.9" cy="107.2" r="3.5" fill="#ff7f0e"/>
<circle cx="1064.4" cy="111.6" r="3.5" fill="#ff7f0e"/>
<circle cx="1173.9" cy="120.4" r="3.5" fill="#ff7f0e"/>
<circle cx="1283.4" cy="120.4" r="3.5" fill="#ff7f0e"/>
<rect x="90" y="300" width="1270" height="220" fill="white" stroke="#cccccc"/>
<line x1="90" y1="300.0" x2="1360" y2="300.0" stroke="#eeeeee"/>
<line x1="90" y1="355.0" x2="1360" y2="355.0" stroke="#eeeeee"/>
<line x1="90" y1="410.0" x2="1360" y2="410.0" stroke="#eeeeee"/>
<line x1="90" y1="465.0" x2="1360" y2="465.0" stroke="#eeeeee"/>
<line x1="90" y1="520.0" x2="1360" y2="520.0" stroke="#eeeeee"/>
<line x1="90.0" y1="300" x2="90.0" y2="520" stroke="#f3f3f3"/>
<line x1="407.5" y1="300" x2="407.5" y2="520" stroke="#f3f3f3"/>
<line x1="725.0" y1="300" x2="725.0" y2="520" stroke="#f3f3f3"/>
<line x1="1042.5" y1="300" x2="1042.5" y2="520" stroke="#f3f3f3"/>
<line x1="1360.0" y1="300" x2="1360.0" y2="520" stroke="#f3f3f3"/>
<text x="90" y="290" font-family="monospace" font-size="12">losses</text>
<text x="10" y="315" font-family="monospace" font-size="12">0.119</text>
<text x="10" y="520.0" font-family="monospace" font-size="12">-0.138</text>
<polyline fill="none" stroke="#d62728" stroke-width="2" points="90.0,402.0 100.9,428.1 111.9,417.5 122.8,405.5 133.8,420.4 144.7,398.9 155.7,425.1 166.6,414.8 177.6,419.4 188.5,419.3 199.5,407.1 210.4,406.1 221.4,407.8 232.3,423.9 243.3,410.2 254.2,403.2 265.2,409.1 276.1,413.6 287.1,410.5 298.0,420.7 309.0,401.6 319.9,417.7 330.9,405.1 341.8,418.0 352.8,409.2 363.7,400.2 374.7,384.2 385.6,406.3 396.6,403.0 407.5,420.1 418.4,405.6 429.4,406.9 440.3,398.7 451.3,410.5 462.2,410.0 473.2,416.8 484.1,403.2 495.1,413.6 506.0,423.0 517.0,408.5 527.9,411.2 538.9,416.4 549.8,403.1 560.8,411.9 571.7,410.1 582.7,413.7 593.6,414.0 604.6,399.5 615.5,422.8 626.5,416.4 637.4,403.3 648.4,425.0 659.3,409.0 670.3,391.3 681.2,393.6 692.2,406.3 703.1,415.7 714.1,419.4 725.0,403.8 735.9,416.4 746.9,393.6 757.8,413.8 768.8,413.0 779.7,404.8 790.7,396.8 801.6,395.9 812.6,412.1 823.5,409.2 834.5,406.9 845.4,422.0 856.4,405.1 867.3,410.7 878.3,418.0 889.2,425.6 900.2,411.4 911.1,397.3 922.1,414.0 933.0,402.4 944.0,409.0 954.9,407.2 965.9,402.8 976.8,395.1 987.8,393.0 998.7,402.3 1009.7,399.3 1020.6,402.2 1031.6,413.9 1042.5,420.1 1053.4,407.8 1064.4,397.1 1075.3,409.4 1086.3,400.1 1097.2,416.7 1108.2,397.7 1119.1,402.8 1130.1,407.1 1141.0,412.0 1152.0,421.6 1162.9,397.3 1173.9,416.9 1184.8,412.9 1195.8,415.5 1206.7,414.2 1217.7,418.0 1228.6,405.3 1239.6,411.4 1250.5,413.6 1261.5,404.3 1272.4,408.4 1283.4,414.1 1294.3,399.0 1305.3,407.9 1316.2,408.2 1327.2,397.5 1338.1,402.5 1349.1,416.4 1360.0,408.0"/>
<line x1="100" y1="320" x2="120" y2="320" stroke="#d62728" stroke-width="2"/><text x="128" y="324" font-family="monospace" font-size="12">total_loss</text>
<polyline fill="none" stroke="#9467bd" stroke-width="2" stroke-dasharray="8,4" points="90.0,491.1 100.9,498.8 111.9,496.1 122.8,491.3 133.8,497.8 144.7,490.5 155.7,501.6 166.6,494.4 177.6,494.9 188.5,495.7 199.5,489.5 210.4,492.3 221.4,497.1 232.3,501.7 243.3,491.9 254.2,488.4 265.2,492.1 276.1,492.7 287.1,492.1 298.0,497.5 309.0,483.7 319.9,492.6 330.9,493.2 341.8,497.1 352.8,491.8 363.7,489.2 374.7,486.3 385.6,492.9 396.6,489.5 407.5,496.2 418.4,488.7 429.4,488.1 440.3,484.9 451.3,492.4 462.2,493.6 473.2,493.6 484.1,490.3 495.1,493.7 506.0,496.3 517.0,491.2 527.9,490.7 538.9,495.1 549.8,490.0 560.8,492.9 571.7,492.5 582.7,494.7 593.6,492.0 604.6,485.0 615.5,493.9 626.5,495.0 637.4,488.9 648.4,499.1 659.3,488.3 670.3,485.1 681.2,487.8 692.2,491.3 703.1,491.4 714.1,499.2 725.0,487.0 735.9,493.6 746.9,485.1 757.8,490.5 768.8,493.9 779.7,488.8 790.7,485.5 801.6,487.6 812.6,496.0 823.5,492.5 834.5,490.3 845.4,496.8 856.4,486.2 867.3,490.3 878.3,497.5 889.2,499.6 900.2,490.1 911.1,486.5 922.1,492.6 933.0,486.7 944.0,494.4 954.9,490.3 965.9,486.7 976.8,488.6 987.8,485.3 998.7,489.9 1009.7,485.8 1020.6,489.0 1031.6,489.8 1042.5,494.1 1053.4,488.9 1064.4,484.2 1075.3,491.3 1086.3,490.9 1097.2,491.2 1108.2,483.2 1119.1,489.2 1130.1,490.5 1141.0,493.7 1152.0,497.8 1162.9,484.7 1173.9,492.7 1184.8,492.6 1195.8,493.2 1206.7,492.3 1217.7,491.2 1228.6,487.6 1239.6,490.4 1250.5,492.7 1261.5,486.9 1272.4,487.8 1283.4,489.1 1294.3,486.0 1305.3,488.6 1316.2,486.6 1327.2,483.3 1338.1,487.3 1349.1,488.8 1360.0,490.6"/>
<line x1="100" y1="338" x2="120" y2="338" stroke="#9467bd" stroke-width="2" stroke-dasharray="8,4"/><text x="128" y="342" font-family="monospace" font-size="12">policy_loss</text>
<polyline fill="none" stroke="#2ca02c" stroke-width="2" stroke-dasharray="3,4" points="90.0,318.6 100.9,340.6 111.9,334.3 122.8,328.8 133.8,342.1 144.7,330.7 155.7,346.9 166.6,341.9 177.6,345.3 188.5,345.7 199.5,340.7 210.4,334.0 221.4,331.7 232.3,343.3 243.3,339.3 254.2,336.6 265.2,338.0 276.1,344.1 287.1,340.3 298.0,344.6 309.0,337.9 319.9,347.6 330.9,333.5 341.8,342.7 352.8,337.4 363.7,331.4 374.7,318.3 385.6,335.1 396.6,334.6 407.5,344.1 418.4,338.6 429.4,340.3 440.3,335.3 451.3,341.6 462.2,336.6 473.2,344.4 484.1,335.1 495.1,339.7 506.0,348.7 517.0,338.9 527.9,340.5 538.9,342.1 549.8,334.3 560.8,341.0 571.7,339.4 582.7,339.6 593.6,342.9 604.6,334.6 615.5,350.8 626.5,343.3 637.4,334.4 648.4,346.9 659.3,341.8 670.3,325.7 681.2,325.7 692.2,334.8 703.1,347.1 714.1,341.7 725.0,337.5 735.9,342.9 746.9,328.8 757.8,344.7 768.8,340.1 779.7,338.6 790.7,333.1 801.6,328.3 812.6,338.6 823.5,337.0 834.5,338.7 845.4,346.8 856.4,339.5 867.3,340.3 878.3,341.4 889.2,348.2 900.2,342.5 911.1,332.5 922.1,343.8 933.0,336.0 944.0,335.1 954.9,337.7 965.9,337.3 976.8,326.5 987.8,328.6 998.7,334.4 1009.7,334.2 1020.6,332.8 1031.6,344.5 1042.5,346.5 1053.4,340.9 1064.4,332.7 1075.3,339.0 1086.3,329.6 1097.2,348.8 1108.2,336.1 1119.1,334.4 1130.1,335.9 1141.0,340.2 1152.0,344.3 1162.9,333.1 1173.9,347.1 1184.8,342.0 1195.8,343.6 1206.7,342.9 1217.7,347.3 1228.6,339.0 1239.6,341.5 1250.5,341.6 1261.5,338.8 1272.4,341.7 1283.4,347.4 1294.3,332.3 1305.3,340.4 1316.2,341.9 1327.2,335.1 1338.1,335.2 1349.1,350.4 1360.0,337.5"/>
<line x1="100" y1="356" x2="120" y2="356" stroke="#2ca02c" stroke-width="2" stroke-dasharray="3,4"/><text x="128" y="360" font-family="monospace" font-size="12">vf_loss</text>
<rect x="90" y="550" width="1270" height="220" fill="white" stroke="#cccccc"/>
<line x1="90" y1="550.0" x2="1360" y2="550.0" stroke="#eeeeee"/>
<line x1="90" y1="605.0" x2="1360" y2="605.0" stroke="#eeeeee"/>
<line x1="90" y1="660.0" x2="1360" y2="660.0" stroke="#eeeeee"/>
<line x1="90" y1="715.0" x2="1360" y2="715.0" stroke="#eeeeee"/>
<line x1="90" y1="770.0" x2="1360" y2="770.0" stroke="#eeeeee"/>
<line x1="90.0" y1="550" x2="90.0" y2="770" stroke="#f3f3f3"/>
<line x1="407.5" y1="550" x2="407.5" y2="770" stroke="#f3f3f3"/>
<line x1="725.0" y1="550" x2="725.0" y2="770" stroke="#f3f3f3"/>
<line x1="1042.5" y1="550" x2="1042.5" y2="770" stroke="#f3f3f3"/>
<line x1="1360.0" y1="550" x2="1360.0" y2="770" stroke="#f3f3f3"/>
<text x="90" y="540" font-family="monospace" font-size="12">entropy</text>
<text x="10" y="565" font-family="monospace" font-size="12">2.410</text>
<text x="10" y="770.0" font-family="monospace" font-size="12">1.870</text>
<polyline fill="none" stroke="#8c564b" stroke-width="2" points="90.0,568.3 100.9,596.6 111.9,576.5 122.8,606.4 133.8,586.5 144.7,576.9 155.7,589.3 166.6,604.4 177.6,597.6 188.5,605.6 199.5,593.8 210.4,593.6 221.4,593.1 232.3,594.1 243.3,607.2 254.2,595.1 265.2,611.3 276.1,596.3 287.1,611.0 298.0,612.6 309.0,616.1 319.9,602.5 330.9,600.5 341.8,604.4 352.8,610.5 363.7,615.8 374.7,617.3 385.6,622.3 396.6,632.6 407.5,636.4 418.4,624.8 429.4,624.7 440.3,627.7 451.3,628.5 462.2,625.8 473.2,637.0 484.1,641.8 495.1,636.7 506.0,641.5 517.0,647.2 527.9,656.7 538.9,654.3 549.8,660.5 560.8,656.7 571.7,653.5 582.7,655.2 593.6,662.3 604.6,661.1 615.5,663.6 626.5,650.2 637.4,665.3 648.4,653.3 659.3,661.7 670.3,660.7 681.2,665.2 692.2,673.9 703.1,678.0 714.1,660.5 725.0,663.5 735.9,673.9 746.9,681.8 757.8,671.3 768.8,659.9 779.7,682.6 790.7,682.6 801.6,676.0 812.6,661.6 823.5,676.9 834.5,689.8 845.4,679.5 856.4,679.7 867.3,686.5 878.3,676.9 889.2,687.0 900.2,688.0 911.1,697.6 922.1,708.6 933.0,691.7 944.0,692.2 954.9,691.2 965.9,683.8 976.8,692.7 987.8,689.8 998.7,703.7 1009.7,706.0 1020.6,705.5 1031.6,722.1 1042.5,721.2 1053.4,715.8 1064.4,722.7 1075.3,719.5 1086.3,705.9 1097.2,716.6 1108.2,719.7 1119.1,708.6 1130.1,721.6 1141.0,714.8 1152.0,712.5 1162.9,724.5 1173.9,727.3 1184.8,725.8 1195.8,720.2 1206.7,716.0 1217.7,735.1 1228.6,732.9 1239.6,751.7 1250.5,737.0 1261.5,747.7 1272.4,731.9 1283.4,729.7 1294.3,733.0 1305.3,738.4 1316.2,750.8 1327.2,748.3 1338.1,740.5 1349.1,750.7 1360.0,739.7"/>
<line x1="100" y1="570" x2="120" y2="570" stroke="#8c564b" stroke-width="2"/><text x="128" y="574" font-family="monospace" font-size="12">entropy</text>
<rect x="90" y="800" width="1270" height="220" fill="white" stroke="#cccccc"/>
<line x1="90" y1="800.0" x2="1360" y2="800.0" stroke="#eeeeee"/>
<line x1="90" y1="855.0" x2="1360" y2="855.0" stroke="#eeeeee"/>
<line x1="90" y1="910.0" x2="1360" y2="910.0" stroke="#eeeeee"/>
<line x1="90" y1="965.0" x2="1360" y2="965.0" stroke="#eeeeee"/>
<line x1="90" y1="1020.0" x2="1360" y2="1020.0" stroke="#eeeeee"/>
<line x1="90.0" y1="800" x2="90.0" y2="1020" stroke="#f3f3f3"/>
<line x1="407.5" y1="800" x2="407.5" y2="1020" stroke="#f3f3f3"/>
<line x1="725.0" y1="800" x2="725.0" y2="1020" stroke="#f3f3f3"/>
<line x1="1042.5" y1="800" x2="1042.5" y2="1020" stroke="#f3f3f3"/>
<line x1="1360.0" y1="800" x2="1360.0" y2="1020" stroke="#f3f3f3"/>
<text x="90" y="790" font-family="monospace" font-size="12">kl</text>
<text x="10" y="815" font-family="monospace" font-size="12">0.038</text>
<text x="10" y="1020.0" font-family="monospace" font-size="12">0.011</text>
<polyline fill="none" stroke="#7f7f7f" stroke-width="2" points="90.0,841.6 100.9,818.3 111.9,882.5 122.8,933.6 133.8,946.4 144.7,983.3 155.7,976.2 166.6,987.6 177.6,991.3 188.5,983.9 199.5,977.7 210.4,996.2 221.4,991.1 232.3,990.8 243.3,991.4 254.2,986.4 265.2,991.2 276.1,977.2 287.1,985.1 298.0,988.8 309.0,997.2 319.9,981.5 330.9,986.9 341.8,986.7 352.8,997.1 363.7,994.8 374.7,994.0 385.6,986.9 396.6,990.0 407.5,995.8 418.4,986.6 429.4,987.5 440.3,987.9 451.3,975.4 462.2,995.5 473.2,989.3 484.1,983.1 495.1,998.6 506.0,984.6 517.0,987.3 527.9,996.6 538.9,991.5 549.8,989.5 560.8,985.0 571.7,985.9 582.7,993.0 593.6,992.0 604.6,996.7 615.5,985.6 626.5,985.5 637.4,997.0 648.4,990.5 659.3,989.8 670.3,1000.0 681.2,997.6 692.2,998.5 703.1,979.6 714.1,988.0 725.0,992.8 735.9,996.6 746.9,995.3 757.8,989.0 768.8,990.4 779.7,980.8 790.7,986.1 801.6,997.1 812.6,982.1 823.5,995.0 834.5,984.3 845.4,987.0 856.4,993.3 867.3,998.3 878.3,991.1 889.2,983.6 900.2,989.5 911.1,986.8 922.1,981.9 933.0,995.1 944.0,993.5 954.9,991.6 965.9,989.8 976.8,997.0 987.8,991.7 998.7,985.1 1009.7,993.4 1020.6,999.0 1031.6,994.1 1042.5,994.3 1053.4,984.6 1064.4,998.2 1075.3,991.8 1086.3,994.1 1097.2,976.7 1108.2,987.0 1119.1,992.0 1130.1,1001.2 1141.0,985.8 1152.0,994.4 1162.9,993.4 1173.9,979.6 1184.8,986.3 1195.8,989.5 1206.7,991.0 1217.7,994.1 1228.6,989.7 1239.6,994.1 1250.5,992.7 1261.5,988.5 1272.4,990.2 1283.4,982.3 1294.3,1001.7 1305.3,990.9 1316.2,995.3 1327.2,991.8 1338.1,996.8 1349.1,980.2 1360.0,996.1"/>
<line x1="100" y1="820" x2="120" y2="820" stroke="#7f7f7f" stroke-width="2"/><text x="128" y="824" font-family="monospace" font-size="12">kl</text>
<text x="90" y="1170" font-family="monospace" font-size="12">orange dots = baseline 50-episode eval win_rate</text>
</svg>