<svg xmlns="http://www.w3.org/2000/svg" width="1400" height="1120" viewBox="0 0 1400 1120">
<rect x="0" y="0" width="1400" height="1120" fill="white" />
<text x="90" y="28" font-size="22" font-family="Arial, sans-serif" font-weight="bold">Training Loss Curve</text>
<text x="90" y="46" font-size="12" font-family="Arial, sans-serif" fill="#555">/home/hice1/wsun377/Desktop/cs8803drl/ray_results/PPO_singleplayer_fixed_teammate_wide512x256_20260411_151654</text>
<rect x="90" y="50" width="1270" height="210" fill="none" stroke="#bbb" stroke-width="1"/>
<text x="90" y="42" font-size="15" font-family="Arial, sans-serif" font-weight="bold">Losses</text>
<text x="18" y="155.0" font-size="12" font-family="Arial, sans-serif" transform="rotate(-90 18 155.0)">Loss</text>
<text x="18" y="62" font-size="11" font-family="Arial, sans-serif" fill="#666">0.019</text>
<text x="18" y="258" font-size="11" font-family="Arial, sans-serif" fill="#666">-0.016</text>
<line x1="90" y1="102.5" x2="1360" y2="102.5" stroke="#eee" stroke-width="1"/>
<line x1="90" y1="155.0" x2="1360" y2="155.0" stroke="#eee" stroke-width="1"/>
<line x1="90" y1="207.5" x2="1360" y2="207.5" stroke="#eee" stroke-width="1"/>
<rect x="90" y="290" width="1270" height="210" fill="none" stroke="#bbb" stroke-width="1"/>
<text x="90" y="282" font-size="15" font-family="Arial, sans-serif" font-weight="bold">Entropy / KL</text>
<text x="18" y="395.0" font-size="12" font-family="Arial, sans-serif" transform="rotate(-90 18 395.0)">Aux</text>
<text x="18" y="302" font-size="11" font-family="Arial, sans-serif" fill="#666">3.619</text>
<text x="18" y="498" font-size="11" font-family="Arial, sans-serif" fill="#666">-0.324</text>
<line x1="90" y1="342.5" x2="1360" y2="342.5" stroke="#eee" stroke-width="1"/>
<line x1="90" y1="395.0" x2="1360" y2="395.0" stroke="#eee" stroke-width="1"/>
<line x1="90" y1="447.5" x2="1360" y2="447.5" stroke="#eee" stroke-width="1"/>
<rect x="90" y="530" width="1270" height="210" fill="none" stroke="#bbb" stroke-width="1"/>
<text x="90" y="522" font-size="15" font-family="Arial, sans-serif" font-weight="bold">Episode Reward Mean</text>
<text x="18" y="635.0" font-size="12" font-family="Arial, sans-serif" transform="rotate(-90 18 635.0)">Reward</text>
<text x="18" y="542" font-size="11" font-family="Arial, sans-serif" fill="#666">0.024</text>
<text x="18" y="738" font-size="11" font-family="Arial, sans-serif" fill="#666">-0.489</text>
<line x1="90" y1="582.5" x2="1360" y2="582.5" stroke="#eee" stroke-width="1"/>
<line x1="90" y1="635.0" x2="1360" y2="635.0" stroke="#eee" stroke-width="1"/>
<line x1="90" y1="687.5" x2="1360" y2="687.5" stroke="#eee" stroke-width="1"/>
<rect x="90" y="770" width="1270" height="210" fill="none" stroke="#bbb" stroke-width="1"/>
<text x="90" y="762" font-size="15" font-family="Arial, sans-serif" font-weight="bold">Baseline Win Rate (checkpoint eval)</text>
<text x="18" y="875.0" font-size="12" font-family="Arial, sans-serif" transform="rotate(-90 18 875.0)">Win Rate</text>
<text x="18" y="782" font-size="11" font-family="Arial, sans-serif" fill="#666">1.000</text>
<text x="18" y="978" font-size="11" font-family="Arial, sans-serif" fill="#666">0.000</text>
<line x1="90" y1="822.5" x2="1360" y2="822.5" stroke="#eee" stroke-width="1"/>
<line x1="90" y1="875.0" x2="1360" y2="875.0" stroke="#eee" stroke-width="1"/>
<line x1="90" y1="927.5" x2="1360" y2="927.5" stroke="#eee" stroke-width="1"/>
<line x1="90.0" y1="50" x2="90.0" y2="980" stroke="#f3f3f3" stroke-width="1"/>
<text x="90.0" y="998" text-anchor="middle" font-size="11" font-family="Arial, sans-serif" fill="#666">1</text>
<line x1="407.5" y1="50" x2="407.5" y2="980" stroke="#f3f3f3" stroke-width="1"/>
<text x="407.5" y="998" text-anchor="middle" font-size="11" font-family="Arial, sans-serif" fill="#666">32</text>
<line x1="725.0" y1="50" x2="725.0" y2="980" stroke="#f3f3f3" stroke-width="1"/>
<text x="725.0" y="998" text-anchor="middle" font-size="11" font-family="Arial, sans-serif" fill="#666">63</text>
<line x1="1042.5" y1="50" x2="1042.5" y2="980" stroke="#f3f3f3" stroke-width="1"/>
<text x="1042.5" y="998" text-anchor="middle" font-size="11" font-family="Arial, sans-serif" fill="#666">94</text>
<line x1="1360.0" y1="50" x2="1360.0" y2="980" stroke="#f3f3f3" stroke-width="1"/>
<text x="1360.0" y="998" text-anchor="middle" font-size="11" font-family="Arial, sans-serif" fill="#666">125</text>
<text x="725.0" y="1110" text-anchor="middle" font-size="12" font-family="Arial, sans-serif">Training Iteration</text>
<line x1="100" y1="68" x2="122" y2="68" stroke="#1f77b4" stroke-width="3"/>
<text x="128" y="72" font-size="11" font-family="Arial, sans-serif">default_policy</text>
<polyline fill="none" stroke="#1f77b4" stroke-width="2" points="90.0,159.4 100.2,137.8 110.5,140.8 120.7,122.6 131.0,152.6 141.2,177.3 151.5,209.6 161.7,130.2 171.9,120.6 182.2,175.1 192.4,170.9 202.7,180.1 212.9,166.2 223.1,163.9 233.4,166.4 243.6,179.2 253.9,177.6 264.1,149.0 274.4,200.2 284.6,173.2 294.8,140.0 305.1,179.3 315.3,193.6 325.6,146.9 335.8,171.3 346.0,194.0 356.3,193.4 366.5,195.8 376.8,176.4 387.0,140.9 397.3,194.3 407.5,179.0 417.7,184.4 428.0,194.8 438.2,214.2 448.5,182.8 458.7,174.7 469.0,154.4 479.2,189.5 489.4,151.8 499.7,197.3 509.9,190.0 520.2,175.7 530.4,182.1 540.6,197.3 550.9,189.8 561.1,191.1 571.4,203.1 581.6,199.9 591.9,190.9 602.1,176.4 612.3,157.9 622.6,195.4 632.8,178.6 643.1,167.4 653.3,181.4 663.5,213.0 673.8,190.9 684.0,211.3 694.3,184.6 704.5,191.6 714.8,176.8 725.0,190.2 735.2,181.3 745.5,175.0 755.7,193.8 766.0,191.4 776.2,188.9 786.5,192.1 796.7,188.7 806.9,176.8 817.2,204.8 827.4,206.4 837.7,202.1 847.9,196.4 858.1,188.0 868.4,199.7 878.6,175.6 888.9,186.7 899.1,192.0 909.4,186.0 919.6,189.1 929.8,191.2 940.1,188.2 950.3,203.0 960.6,183.5 970.8,189.3 981.0,155.9 991.3,177.9 1001.5,196.4 1011.8,186.0 1022.0,181.0 1032.3,178.5 1042.5,176.4 1052.7,194.5 1063.0,201.4 1073.2,194.4 1083.5,179.3 1093.7,197.4 1104.0,208.8 1114.2,194.6 1124.4,187.7 1134.7,197.7 1144.9,194.7 1155.2,196.7 1165.4,198.6 1175.6,189.0 1185.9,187.6 1196.1,195.7 1206.4,182.8 1216.6,184.2 1226.9,192.9 1237.1,194.8 1247.3,189.1 1257.6,174.9 1267.8,184.8 1278.1,195.9 1288.3,187.4 1298.5,190.2 1308.8,177.5 1319.0,197.6 1329.3,192.6 1339.5,206.0 1349.8,209.0 1360.0,204.8"/>
<polyline fill="none" stroke="#1f77b4" stroke-width="2" stroke-dasharray="8,4" points="90.0,206.0 100.2,209.1 110.5,205.2 120.7,211.9 131.0,206.2 141.2,205.0 151.5,215.0 161.7,206.4 171.9,215.8 182.2,217.2 192.4,218.0 202.7,216.9 212.9,224.3 223.1,209.3 233.4,221.9 243.6,229.9 253.9,224.0 264.1,234.0 274.4,214.0 284.6,222.5 294.8,223.9 305.1,220.7 315.3,218.5 325.6,225.9 335.8,219.8 346.0,215.5 356.3,212.7 366.5,207.7 376.8,220.1 387.0,242.1 397.3,218.1 407.5,216.8 417.7,226.4 428.0,225.8 438.2,219.2 448.5,212.8 458.7,218.7 469.0,225.2 479.2,214.0 489.4,221.1 499.7,222.8 509.9,215.6 520.2,229.7 530.4,220.3 540.6,204.4 550.9,217.3 561.1,215.5 571.4,215.1 581.6,209.7 591.9,239.6 602.1,234.7 612.3,234.9 622.6,215.0 632.8,228.8 643.1,226.9 653.3,218.5 663.5,216.6 673.8,206.2 684.0,225.0 694.3,225.0 704.5,234.2 714.8,228.4 725.0,229.4 735.2,239.7 745.5,233.2 755.7,223.4 766.0,225.8 776.2,226.1 786.5,230.6 796.7,216.1 806.9,239.2 817.2,220.7 827.4,236.2 837.7,217.1 847.9,213.2 858.1,241.0 868.4,230.4 878.6,227.9 888.9,216.2 899.1,207.1 909.4,232.0 919.6,228.4 929.8,220.6 940.1,228.8 950.3,218.2 960.6,223.3 970.8,236.2 981.0,242.5 991.3,238.6 1001.5,221.2 1011.8,237.5 1022.0,233.3 1032.3,231.9 1042.5,235.3 1052.7,236.7 1063.0,229.6 1073.2,217.3 1083.5,223.3 1093.7,216.0 1104.0,236.1 1114.2,217.9 1124.4,231.5 1134.7,235.7 1144.9,230.2 1155.2,225.0 1165.4,225.0 1175.6,234.2 1185.9,233.8 1196.1,233.3 1206.4,230.8 1216.6,236.1 1226.9,237.6 1237.1,211.0 1247.3,233.5 1257.6,240.0 1267.8,236.6 1278.1,221.1 1288.3,216.3 1298.5,236.9 1308.8,221.1 1319.0,239.2 1329.3,227.5 1339.5,215.7 1349.8,213.0 1360.0,222.4"/>
<polyline fill="none" stroke="#1f77b4" stroke-width="2" stroke-dasharray="3,4" points="90.0,126.6 100.2,103.0 110.5,108.0 120.7,80.1 131.0,114.7 141.2,140.9 151.5,163.2 161.7,92.4 171.9,73.7 182.2,126.9 192.4,121.3 202.7,131.8 212.9,110.5 223.1,122.8 233.4,113.2 243.6,117.7 253.9,122.2 264.1,83.9 274.4,154.6 284.6,119.1 294.8,84.6 305.1,127.3 315.3,143.8 325.6,89.7 335.8,119.8 346.0,146.8 356.3,149.0 366.5,156.6 376.8,124.8 387.0,67.5 397.3,144.3 407.5,130.4 417.7,126.8 428.0,138.2 438.2,163.4 448.5,138.8 458.7,124.9 469.0,97.9 479.2,143.9 489.4,99.1 499.7,143.0 509.9,142.9 520.2,114.5 530.4,130.3 540.6,161.1 550.9,140.8 561.1,144.4 571.4,156.5 581.6,158.0 591.9,118.7 602.1,109.3 612.3,90.5 622.6,147.7 632.8,117.2 643.1,108.3 653.3,130.3 663.5,163.8 673.8,152.3 684.0,153.7 694.3,127.1 704.5,124.9 714.8,115.9 725.0,128.2 735.2,109.0 745.5,109.3 755.7,137.8 766.0,133.2 776.2,130.0 786.5,128.9 796.7,140.4 806.9,105.3 817.2,151.4 827.4,137.8 837.7,152.6 847.9,150.6 858.1,114.9 868.4,137.0 878.6,115.1 888.9,137.9 899.1,152.1 909.4,121.7 919.6,128.1 929.8,138.2 940.1,126.9 950.3,152.0 960.6,127.6 970.8,120.8 981.0,80.8 991.3,106.7 1001.5,142.8 1011.8,116.1 1022.0,115.1 1032.3,114.1 1042.5,108.8 1052.7,125.0 1063.0,139.4 1073.2,144.4 1083.5,123.6 1093.7,148.8 1104.0,140.2 1114.2,144.0 1124.4,123.6 1134.7,129.6 1144.9,132.1 1155.2,139.1 1165.4,141.2 1175.6,122.4 1185.9,121.3 1196.1,130.0 1206.4,119.4 1216.6,115.9 1226.9,122.8 1237.1,151.2 1247.3,122.8 1257.6,102.5 1267.8,115.7 1278.1,142.0 1288.3,138.5 1298.5,120.7 1308.8,124.3 1319.0,126.0 1329.3,132.7 1339.5,157.8 1349.8,163.2 1360.0,149.8"/>
<polyline fill="none" stroke="#1f77b4" stroke-width="2" points="90.0,307.5 100.2,307.9 110.5,308.3 120.7,308.7 131.0,308.9 141.2,309.9 151.5,310.4 161.7,310.9 171.9,311.2 182.2,311.5 192.4,311.8 202.7,313.1 212.9,314.1 223.1,314.7 233.4,315.0 243.6,316.3 253.9,317.0 264.1,316.7 274.4,316.6 284.6,317.0 294.8,317.9 305.1,318.0 315.3,318.3 325.6,317.4 335.8,315.4 346.0,315.8 356.3,316.0 366.5,316.4 376.8,316.3 387.0,317.2 397.3,317.8 407.5,318.5 417.7,318.1 428.0,318.9 438.2,320.2 448.5,319.3 458.7,319.6 469.0,320.2 479.2,320.2 489.4,320.8 499.7,321.7 509.9,321.6 520.2,320.2 530.4,321.3 540.6,321.9 550.9,321.8 561.1,321.9 571.4,322.7 581.6,323.0 591.9,322.7 602.1,322.3 612.3,321.5 622.6,322.5 632.8,322.5 643.1,321.3 653.3,321.9 663.5,322.9 673.8,322.8 684.0,323.0 694.3,324.1 704.5,324.6 714.8,324.6 725.0,324.1 735.2,324.6 745.5,324.6 755.7,326.4 766.0,328.6 776.2,327.5 786.5,327.8 796.7,329.3 806.9,329.7 817.2,329.0 827.4,330.4 837.7,332.3 847.9,333.7 858.1,334.1 868.4,336.5 878.6,334.2 888.9,331.6 899.1,333.3 909.4,332.3 919.6,333.3 929.8,330.7 940.1,329.5 950.3,329.2 960.6,329.7 970.8,328.2 981.0,327.9 991.3,328.3 1001.5,327.2 1011.8,327.8 1022.0,326.8 1032.3,328.8 1042.5,328.6 1052.7,329.3 1063.0,329.3 1073.2,330.6 1083.5,330.0 1093.7,330.0 1104.0,329.2 1114.2,329.4 1124.4,332.6 1134.7,332.3 1144.9,333.1 1155.2,335.1 1165.4,336.1 1175.6,337.0 1185.9,338.2 1196.1,336.1 1206.4,335.4 1216.6,336.1 1226.9,335.3 1237.1,336.0 1247.3,336.6 1257.6,334.5 1267.8,335.9 1278.1,337.0 1288.3,338.1 1298.5,337.3 1308.8,337.2 1319.0,337.7 1329.3,340.3 1339.5,338.0 1349.8,340.2 1360.0,340.0"/>
<polyline fill="none" stroke="#1f77b4" stroke-width="2" stroke-dasharray="8,4" points="90.0,482.5 100.2,482.4 110.5,482.5 120.7,482.5 131.0,482.4 141.2,482.4 151.5,482.4 161.7,482.4 171.9,482.3 182.2,482.3 192.4,482.4 202.7,482.4 212.9,482.4 223.1,482.4 233.4,482.4 243.6,482.4 253.9,482.4 264.1,482.3 274.4,482.4 284.6,482.4 294.8,482.4 305.1,482.4 315.3,482.4 325.6,482.3 335.8,482.4 346.0,482.4 356.3,482.4 366.5,482.4 376.8,482.4 387.0,482.4 397.3,482.5 407.5,482.4 417.7,482.3 428.0,482.3 438.2,482.4 448.5,482.3 458.7,482.3 469.0,482.4 479.2,482.4 489.4,482.4 499.7,482.4 509.9,482.4 520.2,482.4 530.4,482.4 540.6,482.4 550.9,482.4 561.1,482.3 571.4,482.4 581.6,482.5 591.9,482.4 602.1,482.3 612.3,482.4 622.6,482.4 632.8,482.4 643.1,482.3 653.3,482.4 663.5,482.4 673.8,482.3 684.0,482.4 694.3,482.4 704.5,482.4 714.8,482.4 725.0,482.4 735.2,482.4 745.5,482.4 755.7,482.4 766.0,482.4 776.2,482.5 786.5,482.4 796.7,482.3 806.9,482.3 817.2,482.4 827.4,482.3 837.7,482.3 847.9,482.4 858.1,482.2 868.4,482.3 878.6,482.4 888.9,482.4 899.1,482.5 909.4,482.3 919.6,482.4 929.8,482.3 940.1,482.4 950.3,482.5 960.6,482.4 970.8,482.3 981.0,482.4 991.3,482.4 1001.5,482.3 1011.8,482.3 1022.0,482.4 1032.3,482.3 1042.5,482.3 1052.7,482.5 1063.0,482.3 1073.2,482.5 1083.5,482.4 1093.7,482.4 1104.0,482.4 1114.2,482.4 1124.4,482.4 1134.7,482.3 1144.9,482.3 1155.2,482.4 1165.4,482.3 1175.6,482.4 1185.9,482.4 1196.1,482.3 1206.4,482.4 1216.6,482.3 1226.9,482.3 1237.1,482.4 1247.3,482.5 1257.6,482.4 1267.8,482.4 1278.1,482.5 1288.3,482.4 1298.5,482.4 1308.8,482.3 1319.0,482.3 1329.3,482.4 1339.5,482.4 1349.8,482.5 1360.0,482.4"/>
<polyline fill="none" stroke="#111" stroke-width="2.5" points="90.0,644.3 100.2,682.9 110.5,708.2 120.7,722.5 131.0,719.2 141.2,709.2 151.5,649.3 161.7,646.3 171.9,677.3 182.2,661.1 192.4,630.8 202.7,591.4 212.9,610.2 223.1,641.3 233.4,660.7 243.6,642.2 253.9,642.3 264.1,667.2 274.4,663.1 284.6,653.9 294.8,628.9 305.1,597.4 315.3,573.7 325.6,598.1 335.8,619.6 346.0,641.6 356.3,616.6 366.5,547.5 376.8,553.7 387.0,643.5 397.3,654.8 407.5,674.6 417.7,637.7 428.0,603.7 438.2,606.6 448.5,586.2 458.7,585.2 469.0,619.8 479.2,639.0 489.4,640.1 499.7,636.7 509.9,616.5 520.2,591.1 530.4,582.4 540.6,568.8 550.9,575.0 561.1,594.5 571.4,570.3 581.6,584.7 591.9,577.6 602.1,581.5 612.3,617.0 622.6,598.4 632.8,559.5 643.1,585.1 653.3,601.0 663.5,608.1 673.8,594.9 684.0,556.8 694.3,556.2 704.5,585.8 714.8,635.6 725.0,636.3 735.2,631.7 745.5,666.2 755.7,655.5 766.0,630.0 776.2,583.6 786.5,551.9 796.7,582.2 806.9,614.7 817.2,600.0 827.4,577.9 837.7,577.6 847.9,559.0 858.1,578.4 868.4,572.8 878.6,596.6 888.9,601.8 899.1,610.1 909.4,634.4 919.6,597.7 929.8,596.6 940.1,599.8 950.3,580.2 960.6,589.4 970.8,603.7 981.0,608.8 991.3,594.5 1001.5,601.8 1011.8,606.0 1022.0,626.4 1032.3,663.3 1042.5,658.8 1052.7,640.0 1063.0,633.8 1073.2,613.1 1083.5,604.7 1093.7,598.4 1104.0,606.3 1114.2,606.0 1124.4,603.0 1134.7,615.4 1144.9,629.9 1155.2,615.6 1165.4,637.9 1175.6,588.4 1185.9,601.6 1196.1,602.4 1206.4,619.4 1216.6,622.7 1226.9,626.7 1237.1,611.2 1247.3,584.5 1257.6,630.8 1267.8,613.1 1278.1,609.4 1288.3,596.6 1298.5,608.9 1308.8,595.4 1319.0,599.1 1329.3,619.9 1339.5,589.6 1349.8,583.8 1360.0,561.5"/>
<polyline fill="none" stroke="#2ca02c" stroke-width="2.5" points="131.0,858.2 182.2,854.0 233.4,845.6 284.6,849.8 335.8,870.8 387.0,828.8 438.2,862.4 489.4,858.2 540.6,854.0 591.9,833.0 643.1,837.2 694.3,854.0 745.5,824.6 796.7,854.0 847.9,841.4 899.1,845.6 950.3,849.8 1001.5,837.2 1052.7,845.6 1104.0,845.6 1155.2,828.8 1206.4,858.2 1257.6,862.4 1308.8,849.8 1360.0,833.0"/>
<circle cx="131.0" cy="858.2" r="3.5" fill="#2ca02c"/>
<circle cx="182.2" cy="854.0" r="3.5" fill="#2ca02c"/>
<circle cx="233.4" cy="845.6" r="3.5" fill="#2ca02c"/>
<circle cx="284.6" cy="849.8" r="3.5" fill="#2ca02c"/>
<circle cx="335.8" cy="870.8" r="3.5" fill="#2ca02c"/>
<circle cx="387.0" cy="828.8" r="3.5" fill="#2ca02c"/>
<circle cx="438.2" cy="862.4" r="3.5" fill="#2ca02c"/>
<circle cx="489.4" cy="858.2" r="3.5" fill="#2ca02c"/>
<circle cx="540.6" cy="854.0" r="3.5" fill="#2ca02c"/>
<circle cx="591.9" cy="833.0" r="3.5" fill="#2ca02c"/>
<circle cx="643.1" cy="837.2" r="3.5" fill="#2ca02c"/>
<circle cx="694.3" cy="854.0" r="3.5" fill="#2ca02c"/>
<circle cx="745.5" cy="824.6" r="3.5" fill="#2ca02c"/>
<circle cx="796.7" cy="854.0" r="3.5" fill="#2ca02c"/>
<circle cx="847.9" cy="841.4" r="3.5" fill="#2ca02c"/>
<circle cx="899.1" cy="845.6" r="3.5" fill="#2ca02c"/>
<circle cx="950.3" cy="849.8" r="3.5" fill="#2ca02c"/>
<circle cx="1001.5" cy="837.2" r="3.5" fill="#2ca02c"/>
<circle cx="1052.7" cy="845.6" r="3.5" fill="#2ca02c"/>
<circle cx="1104.0" cy="845.6" r="3.5" fill="#2ca02c"/>
<circle cx="1155.2" cy="828.8" r="3.5" fill="#2ca02c"/>
<circle cx="1206.4" cy="858.2" r="3.5" fill="#2ca02c"/>
<circle cx="1257.6" cy="862.4" r="3.5" fill="#2ca02c"/>
<circle cx="1308.8" cy="849.8" r="3.5" fill="#2ca02c"/>
<circle cx="1360.0" cy="833.0" r="3.5" fill="#2ca02c"/>
<line x1="1135" y1="70" x2="1161" y2="70" stroke="#333" stroke-width="2"/>
<text x="1169" y="74" font-size="11" font-family="Arial, sans-serif">total_loss</text>
<line x1="1135" y1="86" x2="1161" y2="86" stroke="#333" stroke-width="2" stroke-dasharray="8,4"/>
<text x="1169" y="90" font-size="11" font-family="Arial, sans-serif">policy_loss</text>
<line x1="1135" y1="102" x2="1161" y2="102" stroke="#333" stroke-width="2" stroke-dasharray="3,4"/>
<text x="1169" y="106" font-size="11" font-family="Arial, sans-serif">vf_loss</text>
</svg>