<svg xmlns="http://www.w3.org/2000/svg" width="1400" height="1120" viewBox="0 0 1400 1120">
<rect x="0" y="0" width="1400" height="1120" fill="white" />
<text x="90" y="28" font-size="22" font-family="Arial, sans-serif" font-weight="bold">Training Loss Curve</text>
<text x="90" y="46" font-size="12" font-family="Arial, sans-serif" fill="#555">/home/hice1/wsun377/Desktop/cs8803drl/ray_results/PPO_shared_cc_warm225_20260409_123447</text>
<rect x="90" y="50" width="1270" height="210" fill="none" stroke="#bbb" stroke-width="1"/>
<text x="90" y="42" font-size="15" font-family="Arial, sans-serif" font-weight="bold">Losses</text>
<text x="18" y="155.0" font-size="12" font-family="Arial, sans-serif" transform="rotate(-90 18 155.0)">Loss</text>
<text x="18" y="62" font-size="11" font-family="Arial, sans-serif" fill="#666">0.230</text>
<text x="18" y="258" font-size="11" font-family="Arial, sans-serif" fill="#666">-0.034</text>
<line x1="90" y1="102.5" x2="1360" y2="102.5" stroke="#eee" stroke-width="1"/>
<line x1="90" y1="155.0" x2="1360" y2="155.0" stroke="#eee" stroke-width="1"/>
<line x1="90" y1="207.5" x2="1360" y2="207.5" stroke="#eee" stroke-width="1"/>
<rect x="90" y="290" width="1270" height="210" fill="none" stroke="#bbb" stroke-width="1"/>
<text x="90" y="282" font-size="15" font-family="Arial, sans-serif" font-weight="bold">Entropy / KL</text>
<text x="18" y="395.0" font-size="12" font-family="Arial, sans-serif" transform="rotate(-90 18 395.0)">Aux</text>
<text x="18" y="302" font-size="11" font-family="Arial, sans-serif" fill="#666">1.233</text>
<text x="18" y="498" font-size="11" font-family="Arial, sans-serif" fill="#666">-0.109</text>
<line x1="90" y1="342.5" x2="1360" y2="342.5" stroke="#eee" stroke-width="1"/>
<line x1="90" y1="395.0" x2="1360" y2="395.0" stroke="#eee" stroke-width="1"/>
<line x1="90" y1="447.5" x2="1360" y2="447.5" stroke="#eee" stroke-width="1"/>
<rect x="90" y="530" width="1270" height="210" fill="none" stroke="#bbb" stroke-width="1"/>
<text x="90" y="522" font-size="15" font-family="Arial, sans-serif" font-weight="bold">Episode Reward Mean</text>
<text x="18" y="635.0" font-size="12" font-family="Arial, sans-serif" transform="rotate(-90 18 635.0)">Reward</text>
<text x="18" y="542" font-size="11" font-family="Arial, sans-serif" fill="#666">-0.078</text>
<text x="18" y="738" font-size="11" font-family="Arial, sans-serif" fill="#666">-0.099</text>
<line x1="90" y1="582.5" x2="1360" y2="582.5" stroke="#eee" stroke-width="1"/>
<line x1="90" y1="635.0" x2="1360" y2="635.0" stroke="#eee" stroke-width="1"/>
<line x1="90" y1="687.5" x2="1360" y2="687.5" stroke="#eee" stroke-width="1"/>
<rect x="90" y="770" width="1270" height="210" fill="none" stroke="#bbb" stroke-width="1"/>
<text x="90" y="762" font-size="15" font-family="Arial, sans-serif" font-weight="bold">Baseline Win Rate (checkpoint eval)</text>
<text x="18" y="875.0" font-size="12" font-family="Arial, sans-serif" transform="rotate(-90 18 875.0)">Win Rate</text>
<text x="18" y="782" font-size="11" font-family="Arial, sans-serif" fill="#666">1.000</text>
<text x="18" y="978" font-size="11" font-family="Arial, sans-serif" fill="#666">0.000</text>
<line x1="90" y1="822.5" x2="1360" y2="822.5" stroke="#eee" stroke-width="1"/>
<line x1="90" y1="875.0" x2="1360" y2="875.0" stroke="#eee" stroke-width="1"/>
<line x1="90" y1="927.5" x2="1360" y2="927.5" stroke="#eee" stroke-width="1"/>
<line x1="90.0" y1="50" x2="90.0" y2="980" stroke="#f3f3f3" stroke-width="1"/>
<text x="90.0" y="998" text-anchor="middle" font-size="11" font-family="Arial, sans-serif" fill="#666">1</text>
<line x1="407.5" y1="50" x2="407.5" y2="980" stroke="#f3f3f3" stroke-width="1"/>
<text x="407.5" y="998" text-anchor="middle" font-size="11" font-family="Arial, sans-serif" fill="#666">32</text>
<line x1="725.0" y1="50" x2="725.0" y2="980" stroke="#f3f3f3" stroke-width="1"/>
<text x="725.0" y="998" text-anchor="middle" font-size="11" font-family="Arial, sans-serif" fill="#666">63</text>
<line x1="1042.5" y1="50" x2="1042.5" y2="980" stroke="#f3f3f3" stroke-width="1"/>
<text x="1042.5" y="998" text-anchor="middle" font-size="11" font-family="Arial, sans-serif" fill="#666">94</text>
<line x1="1360.0" y1="50" x2="1360.0" y2="980" stroke="#f3f3f3" stroke-width="1"/>
<text x="1360.0" y="998" text-anchor="middle" font-size="11" font-family="Arial, sans-serif" fill="#666">125</text>
<text x="725.0" y="1110" text-anchor="middle" font-size="12" font-family="Arial, sans-serif">Training Iteration</text>
<line x1="100" y1="68" x2="122" y2="68" stroke="#1f77b4" stroke-width="3"/>
<text x="128" y="72" font-size="11" font-family="Arial, sans-serif">shared_cc_policy</text>
<polyline fill="none" stroke="#1f77b4" stroke-width="2" points="90.0,76.3 100.2,130.2 110.5,172.4 120.7,150.9 131.0,159.6 141.2,154.3 151.5,159.2 161.7,161.2 171.9,163.8 182.2,164.0 192.4,166.0 202.7,160.5 212.9,159.5 223.1,165.1 233.4,167.7 243.6,166.7 253.9,162.9 264.1,158.3 274.4,165.7 284.6,164.8 294.8,168.4 305.1,159.0 315.3,159.0 325.6,162.0 335.8,162.0 346.0,162.8 356.3,168.2 366.5,159.7 376.8,165.5 387.0,172.7 397.3,164.3 407.5,164.3 417.7,171.2 428.0,168.4 438.2,170.7 448.5,172.8 458.7,164.7 469.0,173.9 479.2,163.9 489.4,161.1 499.7,165.2 509.9,164.2 520.2,168.3 530.4,158.3 540.6,167.9 550.9,169.1 561.1,161.3 571.4,164.8 581.6,171.8 591.9,171.2 602.1,170.2 612.3,169.8 622.6,172.8 632.8,164.3 643.1,158.2 653.3,166.6 663.5,163.2 673.8,167.4 684.0,172.2 694.3,165.2 704.5,173.3 714.8,176.5 725.0,170.3 735.2,162.3 745.5,165.6 755.7,169.4 766.0,166.5 776.2,162.9 786.5,170.0 796.7,159.6 806.9,170.3 817.2,167.7 827.4,175.0 837.7,172.6 847.9,160.1 858.1,169.7 868.4,170.8 878.6,169.2 888.9,163.2 899.1,167.0 909.4,171.5 919.6,175.7 929.8,179.4 940.1,178.1 950.3,169.9 960.6,177.4 970.8,172.4 981.0,173.7 991.3,169.9 1001.5,169.4 1011.8,178.9 1022.0,178.4 1032.3,175.6 1042.5,171.6 1052.7,177.0 1063.0,178.9 1073.2,177.2 1083.5,180.0 1093.7,173.1 1104.0,171.8 1114.2,170.2 1124.4,169.6 1134.7,173.5 1144.9,171.8 1155.2,174.2 1165.4,165.5 1175.6,171.5 1185.9,176.9 1196.1,174.4 1206.4,171.9 1216.6,176.9 1226.9,175.2 1237.1,178.9 1247.3,179.3 1257.6,176.6 1267.8,167.1 1278.1,178.0 1288.3,168.3 1298.5,171.3 1308.8,169.9 1319.0,172.5 1329.3,176.7 1339.5,169.8 1349.8,179.8 1360.0,176.8"/>
<polyline fill="none" stroke="#1f77b4" stroke-width="2" stroke-dasharray="8,4" points="90.0,242.0 100.2,239.9 110.5,240.6 120.7,240.6 131.0,240.7 141.2,241.2 151.5,240.1 161.7,241.9 171.9,240.9 182.2,241.2 192.4,241.2 202.7,241.9 212.9,241.4 223.1,241.3 233.4,240.6 243.6,241.2 253.9,240.9 264.1,241.3 274.4,241.5 284.6,240.5 294.8,241.2 305.1,241.8 315.3,239.5 325.6,239.7 335.8,242.2 346.0,241.1 356.3,240.3 366.5,240.2 376.8,240.3 387.0,241.6 397.3,240.1 407.5,240.5 417.7,240.2 428.0,242.4 438.2,241.4 448.5,241.2 458.7,241.0 469.0,242.3 479.2,242.5 489.4,240.0 499.7,241.4 509.9,241.9 520.2,241.4 530.4,241.3 540.6,239.8 550.9,240.4 561.1,240.4 571.4,241.0 581.6,241.1 591.9,241.4 602.1,241.6 612.3,242.1 622.6,241.7 632.8,239.6 643.1,239.5 653.3,241.1 663.5,240.8 673.8,240.9 684.0,239.9 694.3,239.6 704.5,239.7 714.8,241.1 725.0,241.3 735.2,241.2 745.5,241.3 755.7,240.4 766.0,241.7 776.2,240.3 786.5,240.7 796.7,240.7 806.9,240.6 817.2,240.9 827.4,241.3 837.7,239.4 847.9,240.3 858.1,240.3 868.4,241.1 878.6,240.5 888.9,240.3 899.1,240.9 909.4,240.5 919.6,241.1 929.8,241.0 940.1,240.9 950.3,241.7 960.6,240.2 970.8,240.1 981.0,240.7 991.3,239.6 1001.5,240.0 1011.8,240.7 1022.0,240.6 1032.3,241.3 1042.5,241.4 1052.7,240.3 1063.0,240.7 1073.2,240.0 1083.5,240.6 1093.7,239.4 1104.0,239.1 1114.2,240.2 1124.4,240.5 1134.7,240.9 1144.9,240.7 1155.2,240.4 1165.4,240.6 1175.6,240.1 1185.9,241.0 1196.1,240.2 1206.4,239.9 1216.6,241.8 1226.9,240.1 1237.1,240.9 1247.3,240.5 1257.6,241.1 1267.8,240.5 1278.1,241.1 1288.3,240.2 1298.5,239.9 1308.8,240.6 1319.0,241.7 1329.3,240.8 1339.5,241.0 1349.8,241.2 1360.0,240.7"/>
<polyline fill="none" stroke="#1f77b4" stroke-width="2" stroke-dasharray="3,4" points="90.0,67.5 100.2,123.4 110.5,164.7 120.7,143.1 131.0,151.7 141.2,145.9 151.5,151.9 161.7,152.1 171.9,155.8 182.2,155.6 192.4,157.6 202.7,151.4 212.9,150.8 223.1,156.5 233.4,159.9 243.6,158.3 253.9,154.8 264.1,149.8 274.4,157.0 284.6,157.0 294.8,160.0 305.1,149.9 315.3,152.3 325.6,155.1 335.8,152.6 346.0,154.5 356.3,160.8 366.5,152.2 376.8,158.0 387.0,163.9 397.3,157.0 407.5,156.6 417.7,163.8 428.0,158.8 438.2,162.0 448.5,164.4 458.7,156.5 469.0,164.3 479.2,154.2 489.4,154.0 499.7,156.6 509.9,155.1 520.2,159.7 530.4,149.8 540.6,160.9 550.9,161.5 561.1,153.6 571.4,156.6 581.6,163.5 591.9,162.6 602.1,161.3 612.3,160.5 622.6,163.9 632.8,157.5 643.1,151.5 653.3,158.2 663.5,155.2 673.8,159.4 684.0,165.1 694.3,158.4 704.5,166.4 714.8,168.2 725.0,161.8 735.2,153.9 745.5,157.1 755.7,161.8 766.0,157.6 776.2,155.4 786.5,162.1 796.7,151.8 806.9,162.5 817.2,159.6 827.4,166.5 837.7,166.0 847.9,152.7 858.1,162.2 868.4,162.5 878.6,161.5 888.9,155.7 899.1,158.9 909.4,163.8 919.6,167.5 929.8,171.2 940.1,170.0 950.3,161.0 960.6,170.0 970.8,165.1 981.0,165.8 991.3,163.0 1001.5,162.2 1011.8,171.0 1022.0,170.6 1032.3,167.1 1042.5,162.9 1052.7,169.5 1063.0,171.0 1073.2,170.0 1083.5,172.2 1093.7,166.6 1104.0,165.4 1114.2,162.9 1124.4,161.8 1134.7,165.4 1144.9,163.9 1155.2,166.7 1165.4,157.7 1175.6,164.2 1185.9,168.7 1196.1,167.1 1206.4,164.7 1216.6,167.9 1226.9,167.8 1237.1,170.7 1247.3,171.5 1257.6,168.4 1267.8,159.4 1278.1,169.7 1288.3,160.9 1298.5,164.3 1308.8,162.2 1319.0,163.6 1329.3,168.8 1339.5,161.7 1349.8,171.4 1360.0,168.9"/>
<polyline fill="none" stroke="#1f77b4" stroke-width="2" points="90.0,309.4 100.2,309.9 110.5,310.9 120.7,307.7 131.0,307.5 141.2,308.4 151.5,307.8 161.7,309.1 171.9,309.8 182.2,311.2 192.4,313.4 202.7,312.7 212.9,309.2 223.1,312.7 233.4,315.5 243.6,314.0 253.9,315.8 264.1,315.4 274.4,317.9 284.6,318.6 294.8,318.8 305.1,316.8 315.3,317.9 325.6,317.6 335.8,316.8 346.0,321.6 356.3,323.3 366.5,320.7 376.8,321.6 387.0,321.6 397.3,320.6 407.5,322.9 417.7,324.5 428.0,323.6 438.2,325.9 448.5,327.2 458.7,322.8 469.0,325.1 479.2,327.1 489.4,325.9 499.7,329.6 509.9,329.0 520.2,330.7 530.4,328.0 540.6,331.0 550.9,332.1 561.1,329.4 571.4,333.3 581.6,332.5 591.9,336.0 602.1,335.6 612.3,334.8 622.6,336.2 632.8,335.7 643.1,333.6 653.3,335.0 663.5,334.0 673.8,337.6 684.0,339.6 694.3,340.7 704.5,339.3 714.8,338.3 725.0,337.8 735.2,338.3 745.5,341.6 755.7,338.2 766.0,338.5 776.2,338.3 786.5,339.8 796.7,339.4 806.9,337.6 817.2,340.1 827.4,338.9 837.7,339.7 847.9,338.7 858.1,337.9 868.4,336.9 878.6,336.8 888.9,340.7 899.1,339.8 909.4,340.7 919.6,340.7 929.8,339.4 940.1,341.6 950.3,340.8 960.6,342.0 970.8,339.1 981.0,340.0 991.3,340.5 1001.5,341.1 1011.8,340.7 1022.0,342.7 1032.3,342.2 1042.5,343.1 1052.7,343.8 1063.0,343.0 1073.2,342.8 1083.5,342.7 1093.7,342.7 1104.0,343.7 1114.2,344.5 1124.4,344.1 1134.7,344.9 1144.9,344.3 1155.2,342.7 1165.4,341.9 1175.6,342.3 1185.9,343.0 1196.1,344.8 1206.4,341.6 1216.6,343.6 1226.9,344.1 1237.1,343.5 1247.3,343.5 1257.6,344.3 1267.8,341.9 1278.1,343.6 1288.3,341.9 1298.5,342.5 1308.8,343.1 1319.0,339.8 1329.3,339.9 1339.5,338.9 1349.8,342.3 1360.0,342.2"/>
<polyline fill="none" stroke="#1f77b4" stroke-width="2" stroke-dasharray="8,4" points="90.0,482.5 100.2,482.4 110.5,482.3 120.7,482.3 131.0,482.4 141.2,482.4 151.5,482.4 161.7,482.4 171.9,482.4 182.2,482.4 192.4,482.5 202.7,482.4 212.9,482.4 223.1,482.3 233.4,482.3 243.6,482.4 253.9,482.3 264.1,482.4 274.4,482.3 284.6,482.4 294.8,482.4 305.1,482.3 315.3,482.4 325.6,482.3 335.8,482.3 346.0,482.4 356.3,482.4 366.5,482.4 376.8,482.4 387.0,482.4 397.3,482.3 407.5,482.4 417.7,482.4 428.0,482.4 438.2,482.4 448.5,482.4 458.7,482.3 469.0,482.4 479.2,482.3 489.4,482.5 499.7,482.4 509.9,482.4 520.2,482.4 530.4,482.4 540.6,482.4 550.9,482.4 561.1,482.3 571.4,482.4 581.6,482.4 591.9,482.4 602.1,482.4 612.3,482.4 622.6,482.4 632.8,482.4 643.1,482.3 653.3,482.4 663.5,482.4 673.8,482.4 684.0,482.5 694.3,482.3 704.5,482.3 714.8,482.4 725.0,482.4 735.2,482.3 745.5,482.4 755.7,482.4 766.0,482.5 776.2,482.4 786.5,482.4 796.7,482.4 806.9,482.3 817.2,482.4 827.4,482.4 837.7,482.4 847.9,482.4 858.1,482.4 868.4,482.4 878.6,482.4 888.9,482.4 899.1,482.4 909.4,482.4 919.6,482.3 929.8,482.4 940.1,482.4 950.3,482.3 960.6,482.4 970.8,482.4 981.0,482.4 991.3,482.4 1001.5,482.3 1011.8,482.3 1022.0,482.4 1032.3,482.3 1042.5,482.3 1052.7,482.4 1063.0,482.4 1073.2,482.4 1083.5,482.4 1093.7,482.3 1104.0,482.4 1114.2,482.4 1124.4,482.4 1134.7,482.4 1144.9,482.4 1155.2,482.4 1165.4,482.4 1175.6,482.3 1185.9,482.3 1196.1,482.3 1206.4,482.4 1216.6,482.4 1226.9,482.3 1237.1,482.4 1247.3,482.4 1257.6,482.4 1267.8,482.3 1278.1,482.4 1288.3,482.4 1298.5,482.4 1308.8,482.4 1319.0,482.4 1329.3,482.4 1339.5,482.3 1349.8,482.4 1360.0,482.4"/>
<polyline fill="none" stroke="#111" stroke-width="2.5" points="90.0,685.7 100.2,602.4 110.5,689.8 120.7,661.0 131.0,635.7 141.2,618.2 151.5,673.7 161.7,671.9 171.9,688.5 182.2,718.2 192.4,628.3 202.7,676.4 212.9,592.3 223.1,646.5 233.4,594.3 243.6,656.5 253.9,690.9 264.1,645.5 274.4,683.9 284.6,583.4 294.8,658.8 305.1,606.6 315.3,639.2 325.6,695.1 335.8,668.5 346.0,710.8 356.3,680.5 366.5,628.1 376.8,674.6 387.0,690.9 397.3,670.2 407.5,646.0 417.7,656.9 428.0,654.0 438.2,572.9 448.5,640.7 458.7,665.0 469.0,663.6 479.2,645.5 489.4,626.6 499.7,634.6 509.9,641.4 520.2,708.9 530.4,634.5 540.6,663.3 550.9,663.4 561.1,640.7 571.4,636.2 581.6,636.3 591.9,687.0 602.1,636.7 612.3,629.2 622.6,649.1 632.8,616.0 643.1,651.7 653.3,702.1 663.5,662.1 673.8,654.5 684.0,655.9 694.3,617.2 704.5,703.3 714.8,648.1 725.0,638.1 735.2,609.1 745.5,612.1 755.7,659.2 766.0,638.8 776.2,628.2 786.5,660.8 796.7,604.9 806.9,692.3 817.2,646.2 827.4,651.8 837.7,626.4 847.9,560.3 858.1,663.0 868.4,682.9 878.6,608.3 888.9,660.3 899.1,642.2 909.4,657.5 919.6,657.7 929.8,695.5 940.1,635.9 950.3,649.7 960.6,677.9 970.8,662.6 981.0,662.7 991.3,659.8 1001.5,657.3 1011.8,644.4 1022.0,601.2 1032.3,648.1 1042.5,574.1 1052.7,615.2 1063.0,659.6 1073.2,689.9 1083.5,722.5 1093.7,612.4 1104.0,547.5 1114.2,561.6 1124.4,589.2 1134.7,563.8 1144.9,579.7 1155.2,636.4 1165.4,605.3 1175.6,677.7 1185.9,635.0 1196.1,622.6 1206.4,670.4 1216.6,703.1 1226.9,590.0 1237.1,598.4 1247.3,629.9 1257.6,627.1 1267.8,627.1 1278.1,636.7 1288.3,595.0 1298.5,658.6 1308.8,605.0 1319.0,628.7 1329.3,679.6 1339.5,610.3 1349.8,663.1 1360.0,680.2"/>
<polyline fill="none" stroke="#2ca02c" stroke-width="2.5" points="131.0,799.4 182.2,799.4 233.4,816.2 284.6,824.6 335.8,833.0 387.0,841.4 438.2,820.4 489.4,812.0 540.6,833.0 591.9,820.4 643.1,824.6 694.3,812.0 745.5,816.2 796.7,824.6 847.9,803.6 899.1,799.4 950.3,816.2 1001.5,807.8 1052.7,812.0 1104.0,807.8 1155.2,807.8 1206.4,828.8 1257.6,816.2 1308.8,824.6 1360.0,816.2"/>
<circle cx="131.0" cy="799.4" r="3.5" fill="#2ca02c"/>
<circle cx="182.2" cy="799.4" r="3.5" fill="#2ca02c"/>
<circle cx="233.4" cy="816.2" r="3.5" fill="#2ca02c"/>
<circle cx="284.6" cy="824.6" r="3.5" fill="#2ca02c"/>
<circle cx="335.8" cy="833.0" r="3.5" fill="#2ca02c"/>
<circle cx="387.0" cy="841.4" r="3.5" fill="#2ca02c"/>
<circle cx="438.2" cy="820.4" r="3.5" fill="#2ca02c"/>
<circle cx="489.4" cy="812.0" r="3.5" fill="#2ca02c"/>
<circle cx="540.6" cy="833.0" r="3.5" fill="#2ca02c"/>
<circle cx="591.9" cy="820.4" r="3.5" fill="#2ca02c"/>
<circle cx="643.1" cy="824.6" r="3.5" fill="#2ca02c"/>
<circle cx="694.3" cy="812.0" r="3.5" fill="#2ca02c"/>
<circle cx="745.5" cy="816.2" r="3.5" fill="#2ca02c"/>
<circle cx="796.7" cy="824.6" r="3.5" fill="#2ca02c"/>
<circle cx="847.9" cy="803.6" r="3.5" fill="#2ca02c"/>
<circle cx="899.1" cy="799.4" r="3.5" fill="#2ca02c"/>
<circle cx="950.3" cy="816.2" r="3.5" fill="#2ca02c"/>
<circle cx="1001.5" cy="807.8" r="3.5" fill="#2ca02c"/>
<circle cx="1052.7" cy="812.0" r="3.5" fill="#2ca02c"/>
<circle cx="1104.0" cy="807.8" r="3.5" fill="#2ca02c"/>
<circle cx="1155.2" cy="807.8" r="3.5" fill="#2ca02c"/>
<circle cx="1206.4" cy="828.8" r="3.5" fill="#2ca02c"/>
<circle cx="1257.6" cy="816.2" r="3.5" fill="#2ca02c"/>
<circle cx="1308.8" cy="824.6" r="3.5" fill="#2ca02c"/>
<circle cx="1360.0" cy="816.2" r="3.5" fill="#2ca02c"/>
<line x1="1135" y1="70" x2="1161" y2="70" stroke="#333" stroke-width="2"/>
<text x="1169" y="74" font-size="11" font-family="Arial, sans-serif">total_loss</text>
<line x1="1135" y1="86" x2="1161" y2="86" stroke="#333" stroke-width="2" stroke-dasharray="8,4"/>
<text x="1169" y="90" font-size="11" font-family="Arial, sans-serif">policy_loss</text>
<line x1="1135" y1="102" x2="1161" y2="102" stroke="#333" stroke-width="2" stroke-dasharray="3,4"/>
<text x="1169" y="106" font-size="11" font-family="Arial, sans-serif">vf_loss</text>
</svg>