<svg xmlns="http://www.w3.org/2000/svg" width="1400" height="1120" viewBox="0 0 1400 1120">
<rect x="0" y="0" width="1400" height="1120" fill="white" />
<text x="90" y="28" font-size="22" font-family="Arial, sans-serif" font-weight="bold">Training Loss Curve</text>
<text x="90" y="46" font-size="12" font-family="Arial, sans-serif" fill="#555">/home/hice1/wsun377/Desktop/cs8803drl/ray_results/PPO_shared_role_token_20260409_001347</text>
<rect x="90" y="50" width="1270" height="210" fill="none" stroke="#bbb" stroke-width="1"/>
<text x="90" y="42" font-size="15" font-family="Arial, sans-serif" font-weight="bold">Losses</text>
<text x="18" y="155.0" font-size="12" font-family="Arial, sans-serif" transform="rotate(-90 18 155.0)">Loss</text>
<text x="18" y="62" font-size="11" font-family="Arial, sans-serif" fill="#666">0.182</text>
<text x="18" y="258" font-size="11" font-family="Arial, sans-serif" fill="#666">-0.031</text>
<line x1="90" y1="102.5" x2="1360" y2="102.5" stroke="#eee" stroke-width="1"/>
<line x1="90" y1="155.0" x2="1360" y2="155.0" stroke="#eee" stroke-width="1"/>
<line x1="90" y1="207.5" x2="1360" y2="207.5" stroke="#eee" stroke-width="1"/>
<rect x="90" y="290" width="1270" height="210" fill="none" stroke="#bbb" stroke-width="1"/>
<text x="90" y="282" font-size="15" font-family="Arial, sans-serif" font-weight="bold">Entropy / KL</text>
<text x="18" y="395.0" font-size="12" font-family="Arial, sans-serif" transform="rotate(-90 18 395.0)">Aux</text>
<text x="18" y="302" font-size="11" font-family="Arial, sans-serif" fill="#666">1.215</text>
<text x="18" y="498" font-size="11" font-family="Arial, sans-serif" fill="#666">-0.107</text>
<line x1="90" y1="342.5" x2="1360" y2="342.5" stroke="#eee" stroke-width="1"/>
<line x1="90" y1="395.0" x2="1360" y2="395.0" stroke="#eee" stroke-width="1"/>
<line x1="90" y1="447.5" x2="1360" y2="447.5" stroke="#eee" stroke-width="1"/>
<rect x="90" y="530" width="1270" height="210" fill="none" stroke="#bbb" stroke-width="1"/>
<text x="90" y="522" font-size="15" font-family="Arial, sans-serif" font-weight="bold">Episode Reward Mean</text>
<text x="18" y="635.0" font-size="12" font-family="Arial, sans-serif" transform="rotate(-90 18 635.0)">Reward</text>
<text x="18" y="542" font-size="11" font-family="Arial, sans-serif" fill="#666">-0.077</text>
<text x="18" y="738" font-size="11" font-family="Arial, sans-serif" fill="#666">-0.105</text>
<line x1="90" y1="582.5" x2="1360" y2="582.5" stroke="#eee" stroke-width="1"/>
<line x1="90" y1="635.0" x2="1360" y2="635.0" stroke="#eee" stroke-width="1"/>
<line x1="90" y1="687.5" x2="1360" y2="687.5" stroke="#eee" stroke-width="1"/>
<rect x="90" y="770" width="1270" height="210" fill="none" stroke="#bbb" stroke-width="1"/>
<text x="90" y="762" font-size="15" font-family="Arial, sans-serif" font-weight="bold">Baseline Win Rate (checkpoint eval)</text>
<text x="18" y="875.0" font-size="12" font-family="Arial, sans-serif" transform="rotate(-90 18 875.0)">Win Rate</text>
<text x="18" y="782" font-size="11" font-family="Arial, sans-serif" fill="#666">1.000</text>
<text x="18" y="978" font-size="11" font-family="Arial, sans-serif" fill="#666">0.000</text>
<line x1="90" y1="822.5" x2="1360" y2="822.5" stroke="#eee" stroke-width="1"/>
<line x1="90" y1="875.0" x2="1360" y2="875.0" stroke="#eee" stroke-width="1"/>
<line x1="90" y1="927.5" x2="1360" y2="927.5" stroke="#eee" stroke-width="1"/>
<line x1="90.0" y1="50" x2="90.0" y2="980" stroke="#f3f3f3" stroke-width="1"/>
<text x="90.0" y="998" text-anchor="middle" font-size="11" font-family="Arial, sans-serif" fill="#666">1</text>
<line x1="407.5" y1="50" x2="407.5" y2="980" stroke="#f3f3f3" stroke-width="1"/>
<text x="407.5" y="998" text-anchor="middle" font-size="11" font-family="Arial, sans-serif" fill="#666">22</text>
<line x1="725.0" y1="50" x2="725.0" y2="980" stroke="#f3f3f3" stroke-width="1"/>
<text x="725.0" y="998" text-anchor="middle" font-size="11" font-family="Arial, sans-serif" fill="#666">42</text>
<line x1="1042.5" y1="50" x2="1042.5" y2="980" stroke="#f3f3f3" stroke-width="1"/>
<text x="1042.5" y="998" text-anchor="middle" font-size="11" font-family="Arial, sans-serif" fill="#666">63</text>
<line x1="1360.0" y1="50" x2="1360.0" y2="980" stroke="#f3f3f3" stroke-width="1"/>
<text x="1360.0" y="998" text-anchor="middle" font-size="11" font-family="Arial, sans-serif" fill="#666">84</text>
<text x="725.0" y="1110" text-anchor="middle" font-size="12" font-family="Arial, sans-serif">Training Iteration</text>
<line x1="100" y1="68" x2="122" y2="68" stroke="#1f77b4" stroke-width="3"/>
<text x="128" y="72" font-size="11" font-family="Arial, sans-serif">shared_policy</text>
<polyline fill="none" stroke="#1f77b4" stroke-width="2" points="90.0,75.9 105.3,119.0 120.6,137.6 135.9,137.9 151.2,136.5 166.5,135.9 181.8,141.8 197.1,144.1 212.4,146.4 227.7,144.0 243.0,133.0 258.3,130.3 273.6,130.5 288.9,133.3 304.2,147.3 319.5,128.6 334.8,127.9 350.1,132.1 365.4,134.2 380.7,137.0 396.0,121.6 411.3,130.0 426.6,133.1 441.9,132.0 457.2,127.4 472.5,124.4 487.8,131.5 503.1,140.2 518.4,128.1 533.7,134.2 549.0,129.8 564.3,149.0 579.6,137.1 594.9,140.5 610.2,138.2 625.5,132.2 640.8,138.2 656.1,137.9 671.4,135.7 686.7,144.1 702.0,125.0 717.3,125.7 732.7,118.6 748.0,119.4 763.3,130.7 778.6,124.8 793.9,135.1 809.2,133.8 824.5,144.1 839.8,138.4 855.1,141.2 870.4,142.3 885.7,133.4 901.0,129.1 916.3,142.9 931.6,133.8 946.9,125.5 962.2,128.0 977.5,125.4 992.8,122.8 1008.1,137.4 1023.4,130.2 1038.7,122.7 1054.0,131.8 1069.3,122.8 1084.6,134.3 1099.9,136.1 1115.2,129.5 1130.5,136.5 1145.8,141.2 1161.1,149.4 1176.4,137.2 1191.7,133.3 1207.0,137.1 1222.3,128.7 1237.6,133.8 1252.9,137.2 1268.2,146.8 1283.5,143.1 1298.8,143.5 1314.1,128.9 1329.4,151.4 1344.7,144.1 1360.0,138.4"/>
<polyline fill="none" stroke="#1f77b4" stroke-width="2" stroke-dasharray="8,4" points="90.0,238.7 105.3,238.6 120.6,238.0 135.9,239.5 151.2,239.3 166.5,240.0 181.8,239.9 197.1,241.8 212.4,238.6 227.7,239.8 243.0,239.8 258.3,239.6 273.6,238.8 288.9,239.3 304.2,240.4 319.5,238.0 334.8,240.0 350.1,238.4 365.4,239.7 380.7,239.4 396.0,239.9 411.3,239.0 426.6,240.5 441.9,240.7 457.2,239.2 472.5,239.1 487.8,240.3 503.1,239.1 518.4,238.6 533.7,239.0 549.0,241.3 564.3,238.5 579.6,239.8 594.9,238.8 610.2,239.1 625.5,238.3 640.8,238.8 656.1,240.1 671.4,240.4 686.7,240.1 702.0,239.4 717.3,238.2 732.7,240.0 748.0,239.6 763.3,240.1 778.6,238.7 793.9,242.5 809.2,238.8 824.5,240.1 839.8,239.3 855.1,239.7 870.4,240.2 885.7,239.3 901.0,240.1 916.3,240.3 931.6,240.0 946.9,241.5 962.2,241.2 977.5,240.2 992.8,240.5 1008.1,240.4 1023.4,239.7 1038.7,238.6 1054.0,239.2 1069.3,239.2 1084.6,240.5 1099.9,239.7 1115.2,239.8 1130.5,238.4 1145.8,241.4 1161.1,240.6 1176.4,238.1 1191.7,239.9 1207.0,239.1 1222.3,238.6 1237.6,239.4 1252.9,240.5 1268.2,238.9 1283.5,239.3 1298.8,241.1 1314.1,239.4 1329.4,240.8 1344.7,241.0 1360.0,239.4"/>
<polyline fill="none" stroke="#1f77b4" stroke-width="2" stroke-dasharray="3,4" points="90.0,67.5 105.3,110.4 120.6,129.5 135.9,128.2 151.2,127.0 166.5,125.6 181.8,131.6 197.1,132.1 212.4,137.5 227.7,133.9 243.0,122.9 258.3,120.4 273.6,121.4 288.9,123.7 304.2,136.6 319.5,120.3 334.8,117.7 350.1,123.4 365.4,124.2 380.7,127.4 396.0,111.4 411.3,120.8 426.6,122.3 441.9,121.0 457.2,118.0 472.5,115.0 487.8,120.9 503.1,130.8 518.4,119.3 533.7,125.0 549.0,118.3 564.3,140.2 579.6,127.0 594.9,131.4 610.2,128.8 625.5,123.7 640.8,129.1 656.1,127.4 671.4,125.0 686.7,133.8 702.0,115.3 717.3,117.2 732.7,108.2 748.0,109.5 763.3,120.4 778.6,115.8 793.9,122.3 809.2,124.7 824.5,133.7 839.8,128.9 855.1,131.2 870.4,131.8 885.7,123.9 901.0,118.7 916.3,132.3 931.6,123.6 946.9,113.7 962.2,116.6 977.5,115.0 992.8,112.1 1008.1,126.7 1023.4,120.3 1038.7,113.9 1054.0,122.2 1069.3,113.3 1084.6,123.5 1099.9,126.2 1115.2,119.4 1130.5,127.7 1145.8,129.6 1161.1,138.5 1176.4,128.8 1191.7,123.2 1207.0,127.6 1222.3,119.8 1237.6,124.1 1252.9,126.4 1268.2,137.6 1283.5,133.5 1298.8,132.1 1314.1,119.2 1329.4,140.3 1344.7,132.8 1360.0,128.7"/>
<polyline fill="none" stroke="#1f77b4" stroke-width="2" points="90.0,308.1 105.3,309.3 120.6,307.5 135.9,308.9 151.2,308.9 166.5,307.5 181.8,309.3 197.1,309.9 212.4,310.3 227.7,311.6 243.0,314.9 258.3,316.7 273.6,316.0 288.9,317.1 304.2,319.3 319.5,314.9 334.8,313.8 350.1,315.8 365.4,316.3 380.7,317.0 396.0,315.4 411.3,314.7 426.6,318.7 441.9,319.9 457.2,318.0 472.5,316.6 487.8,318.6 503.1,321.6 518.4,322.9 533.7,324.6 549.0,322.8 564.3,323.6 579.6,322.6 594.9,325.7 610.2,325.0 625.5,325.3 640.8,325.8 656.1,326.0 671.4,326.8 686.7,328.5 702.0,329.6 717.3,328.4 732.7,328.4 748.0,329.3 763.3,331.2 778.6,330.3 793.9,333.1 809.2,331.3 824.5,330.5 839.8,331.1 855.1,331.9 870.4,333.1 885.7,332.3 901.0,330.5 916.3,331.5 931.6,334.5 946.9,333.2 962.2,334.1 977.5,334.0 992.8,334.9 1008.1,337.3 1023.4,340.1 1038.7,337.8 1054.0,337.9 1069.3,337.0 1084.6,340.0 1099.9,339.4 1115.2,339.4 1130.5,341.7 1145.8,340.9 1161.1,340.7 1176.4,340.4 1191.7,341.0 1207.0,339.5 1222.3,340.8 1237.6,336.9 1252.9,338.9 1268.2,336.0 1283.5,337.8 1298.8,339.7 1314.1,339.3 1329.4,341.0 1344.7,340.1 1360.0,339.4"/>
<polyline fill="none" stroke="#1f77b4" stroke-width="2" stroke-dasharray="8,4" points="90.0,482.5 105.3,482.5 120.6,482.4 135.9,482.4 151.2,482.4 166.5,482.4 181.8,482.4 197.1,482.3 212.4,482.4 227.7,482.4 243.0,482.5 258.3,482.4 273.6,482.3 288.9,482.4 304.2,482.4 319.5,482.4 334.8,482.3 350.1,482.4 365.4,482.4 380.7,482.3 396.0,482.4 411.3,482.4 426.6,482.3 441.9,482.4 457.2,482.4 472.5,482.4 487.8,482.4 503.1,482.4 518.4,482.4 533.7,482.4 549.0,482.4 564.3,482.4 579.6,482.4 594.9,482.4 610.2,482.4 625.5,482.3 640.8,482.4 656.1,482.3 671.4,482.4 686.7,482.4 702.0,482.3 717.3,482.4 732.7,482.4 748.0,482.4 763.3,482.4 778.6,482.5 793.9,482.4 809.2,482.3 824.5,482.5 839.8,482.4 855.1,482.4 870.4,482.4 885.7,482.4 901.0,482.4 916.3,482.4 931.6,482.4 946.9,482.4 962.2,482.4 977.5,482.4 992.8,482.3 1008.1,482.4 1023.4,482.4 1038.7,482.5 1054.0,482.4 1069.3,482.4 1084.6,482.4 1099.9,482.4 1115.2,482.4 1130.5,482.4 1145.8,482.4 1161.1,482.4 1176.4,482.4 1191.7,482.4 1207.0,482.4 1222.3,482.3 1237.6,482.4 1252.9,482.4 1268.2,482.4 1283.5,482.4 1298.8,482.4 1314.1,482.4 1329.4,482.4 1344.7,482.4 1360.0,482.5"/>
<polyline fill="none" stroke="#111" stroke-width="2.5" points="90.0,634.9 105.3,591.4 120.6,663.9 135.9,680.8 151.2,630.0 166.5,611.2 181.8,650.8 197.1,656.4 212.4,722.5 227.7,709.7 243.0,622.5 258.3,613.4 273.6,598.0 288.9,618.2 304.2,587.0 319.5,583.4 334.8,649.0 350.1,616.3 365.4,627.1 380.7,596.8 396.0,547.5 411.3,638.4 426.6,608.1 441.9,627.4 457.2,639.0 472.5,628.8 487.8,636.7 503.1,682.3 518.4,605.3 533.7,620.0 549.0,610.4 564.3,669.0 579.6,639.0 594.9,597.0 610.2,579.1 625.5,610.2 640.8,615.7 656.1,615.1 671.4,640.8 686.7,609.0 702.0,599.9 717.3,632.4 732.7,600.1 748.0,591.1 763.3,621.3 778.6,591.1 793.9,579.9 809.2,652.2 824.5,634.9 839.8,642.1 855.1,597.7 870.4,626.2 885.7,588.3 901.0,633.7 916.3,591.4 931.6,600.9 946.9,598.3 962.2,580.1 977.5,602.4 992.8,582.7 1008.1,583.8 1023.4,610.4 1038.7,582.7 1054.0,615.9 1069.3,566.7 1084.6,607.0 1099.9,600.9 1115.2,609.3 1130.5,621.1 1145.8,593.3 1161.1,639.2 1176.4,578.6 1191.7,566.1 1207.0,629.1 1222.3,582.2 1237.6,611.3 1252.9,603.9 1268.2,637.2 1283.5,600.8 1298.8,620.6 1314.1,592.7 1329.4,608.3 1344.7,594.5 1360.0,596.2"/>
<polyline fill="none" stroke="#2ca02c" stroke-width="2.5" points="151.2,807.8 227.7,820.4 304.2,824.6 380.7,803.6 457.2,820.4 533.7,824.6 610.2,833.0 686.7,807.8 763.3,820.4 839.8,828.8 916.3,816.2 992.8,807.8 1069.3,816.2 1145.8,824.6 1222.3,820.4 1298.8,816.2 1360.0,807.8"/>
<circle cx="151.2" cy="807.8" r="3.5" fill="#2ca02c"/>
<circle cx="227.7" cy="820.4" r="3.5" fill="#2ca02c"/>
<circle cx="304.2" cy="824.6" r="3.5" fill="#2ca02c"/>
<circle cx="380.7" cy="803.6" r="3.5" fill="#2ca02c"/>
<circle cx="457.2" cy="820.4" r="3.5" fill="#2ca02c"/>
<circle cx="533.7" cy="824.6" r="3.5" fill="#2ca02c"/>
<circle cx="610.2" cy="833.0" r="3.5" fill="#2ca02c"/>
<circle cx="686.7" cy="807.8" r="3.5" fill="#2ca02c"/>
<circle cx="763.3" cy="820.4" r="3.5" fill="#2ca02c"/>
<circle cx="839.8" cy="828.8" r="3.5" fill="#2ca02c"/>
<circle cx="916.3" cy="816.2" r="3.5" fill="#2ca02c"/>
<circle cx="992.8" cy="807.8" r="3.5" fill="#2ca02c"/>
<circle cx="1069.3" cy="816.2" r="3.5" fill="#2ca02c"/>
<circle cx="1145.8" cy="824.6" r="3.5" fill="#2ca02c"/>
<circle cx="1222.3" cy="820.4" r="3.5" fill="#2ca02c"/>
<circle cx="1298.8" cy="816.2" r="3.5" fill="#2ca02c"/>
<circle cx="1360.0" cy="807.8" r="3.5" fill="#2ca02c"/>
<line x1="1135" y1="70" x2="1161" y2="70" stroke="#333" stroke-width="2"/>
<text x="1169" y="74" font-size="11" font-family="Arial, sans-serif">total_loss</text>
<line x1="1135" y1="86" x2="1161" y2="86" stroke="#333" stroke-width="2" stroke-dasharray="8,4"/>
<text x="1169" y="90" font-size="11" font-family="Arial, sans-serif">policy_loss</text>
<line x1="1135" y1="102" x2="1161" y2="102" stroke="#333" stroke-width="2" stroke-dasharray="3,4"/>
<text x="1169" y="106" font-size="11" font-family="Arial, sans-serif">vf_loss</text>
</svg>