<svg xmlns="http://www.w3.org/2000/svg" width="1400" height="1120" viewBox="0 0 1400 1120">
<rect x="0" y="0" width="1400" height="1120" fill="white" />
<text x="90" y="28" font-size="22" font-family="Arial, sans-serif" font-weight="bold">Training Loss Curve</text>
<text x="90" y="46" font-size="12" font-family="Arial, sans-serif" fill="#555">/home/hice1/wsun377/Desktop/cs8803drl/ray_results/PPO_team_vs_baseline_shaping_restore_512x512_conservative_20260412_061403</text>
<rect x="90" y="50" width="1270" height="210" fill="none" stroke="#bbb" stroke-width="1"/>
<text x="90" y="42" font-size="15" font-family="Arial, sans-serif" font-weight="bold">Losses</text>
<text x="18" y="155.0" font-size="12" font-family="Arial, sans-serif" transform="rotate(-90 18 155.0)">Loss</text>
<text x="18" y="62" font-size="11" font-family="Arial, sans-serif" fill="#666">0.115</text>
<text x="18" y="258" font-size="11" font-family="Arial, sans-serif" fill="#666">-0.078</text>
<line x1="90" y1="102.5" x2="1360" y2="102.5" stroke="#eee" stroke-width="1"/>
<line x1="90" y1="155.0" x2="1360" y2="155.0" stroke="#eee" stroke-width="1"/>
<line x1="90" y1="207.5" x2="1360" y2="207.5" stroke="#eee" stroke-width="1"/>
<rect x="90" y="290" width="1270" height="210" fill="none" stroke="#bbb" stroke-width="1"/>
<text x="90" y="282" font-size="15" font-family="Arial, sans-serif" font-weight="bold">Entropy / KL</text>
<text x="18" y="395.0" font-size="12" font-family="Arial, sans-serif" transform="rotate(-90 18 395.0)">Aux</text>
<text x="18" y="302" font-size="11" font-family="Arial, sans-serif" fill="#666">2.229</text>
<text x="18" y="498" font-size="11" font-family="Arial, sans-serif" fill="#666">-0.194</text>
<line x1="90" y1="342.5" x2="1360" y2="342.5" stroke="#eee" stroke-width="1"/>
<line x1="90" y1="395.0" x2="1360" y2="395.0" stroke="#eee" stroke-width="1"/>
<line x1="90" y1="447.5" x2="1360" y2="447.5" stroke="#eee" stroke-width="1"/>
<rect x="90" y="530" width="1270" height="210" fill="none" stroke="#bbb" stroke-width="1"/>
<text x="90" y="522" font-size="15" font-family="Arial, sans-serif" font-weight="bold">Episode Reward Mean</text>
<text x="18" y="635.0" font-size="12" font-family="Arial, sans-serif" transform="rotate(-90 18 635.0)">Reward</text>
<text x="18" y="542" font-size="11" font-family="Arial, sans-serif" fill="#666">2.076</text>
<text x="18" y="738" font-size="11" font-family="Arial, sans-serif" fill="#666">1.960</text>
<line x1="90" y1="582.5" x2="1360" y2="582.5" stroke="#eee" stroke-width="1"/>
<line x1="90" y1="635.0" x2="1360" y2="635.0" stroke="#eee" stroke-width="1"/>
<line x1="90" y1="687.5" x2="1360" y2="687.5" stroke="#eee" stroke-width="1"/>
<rect x="90" y="770" width="1270" height="210" fill="none" stroke="#bbb" stroke-width="1"/>
<text x="90" y="762" font-size="15" font-family="Arial, sans-serif" font-weight="bold">Baseline Win Rate (checkpoint eval)</text>
<text x="18" y="875.0" font-size="12" font-family="Arial, sans-serif" transform="rotate(-90 18 875.0)">Win Rate</text>
<text x="18" y="782" font-size="11" font-family="Arial, sans-serif" fill="#666">1.000</text>
<text x="18" y="978" font-size="11" font-family="Arial, sans-serif" fill="#666">0.000</text>
<line x1="90" y1="822.5" x2="1360" y2="822.5" stroke="#eee" stroke-width="1"/>
<line x1="90" y1="875.0" x2="1360" y2="875.0" stroke="#eee" stroke-width="1"/>
<line x1="90" y1="927.5" x2="1360" y2="927.5" stroke="#eee" stroke-width="1"/>
<line x1="90.0" y1="50" x2="90.0" y2="980" stroke="#f3f3f3" stroke-width="1"/>
<text x="90.0" y="998" text-anchor="middle" font-size="11" font-family="Arial, sans-serif" fill="#666">411</text>
<line x1="407.5" y1="50" x2="407.5" y2="980" stroke="#f3f3f3" stroke-width="1"/>
<text x="407.5" y="998" text-anchor="middle" font-size="11" font-family="Arial, sans-serif" fill="#666">448</text>
<line x1="725.0" y1="50" x2="725.0" y2="980" stroke="#f3f3f3" stroke-width="1"/>
<text x="725.0" y="998" text-anchor="middle" font-size="11" font-family="Arial, sans-serif" fill="#666">486</text>
<line x1="1042.5" y1="50" x2="1042.5" y2="980" stroke="#f3f3f3" stroke-width="1"/>
<text x="1042.5" y="998" text-anchor="middle" font-size="11" font-family="Arial, sans-serif" fill="#666">523</text>
<line x1="1360.0" y1="50" x2="1360.0" y2="980" stroke="#f3f3f3" stroke-width="1"/>
<text x="1360.0" y="998" text-anchor="middle" font-size="11" font-family="Arial, sans-serif" fill="#666">560</text>
<text x="725.0" y="1110" text-anchor="middle" font-size="12" font-family="Arial, sans-serif">Training Iteration</text>
<line x1="100" y1="68" x2="122" y2="68" stroke="#1f77b4" stroke-width="3"/>
<text x="128" y="72" font-size="11" font-family="Arial, sans-serif">default_policy</text>
<polyline fill="none" stroke="#1f77b4" stroke-width="2" points="90.0,152.5 98.5,160.2 107.0,148.4 115.6,158.1 124.1,157.5 132.6,163.5 141.1,164.6 149.7,147.0 158.2,171.8 166.7,156.7 175.2,153.4 183.8,160.3 192.3,138.3 200.8,155.9 209.3,145.9 217.9,157.5 226.4,153.6 234.9,155.8 243.4,138.2 251.9,156.5 260.5,171.0 269.0,174.9 277.5,176.7 286.0,149.5 294.6,162.6 303.1,146.9 311.6,170.3 320.1,153.1 328.7,140.7 337.2,159.0 345.7,156.5 354.2,150.2 362.8,162.3 371.3,125.4 379.8,143.1 388.3,155.9 396.8,159.3 405.4,132.5 413.9,149.3 422.4,151.6 430.9,160.1 439.5,143.5 448.0,152.8 456.5,148.0 465.0,147.4 473.6,139.7 482.1,121.9 490.6,163.4 499.1,143.7 507.7,141.8 516.2,139.1 524.7,152.3 533.2,153.5 541.7,147.8 550.3,146.0 558.8,142.3 567.3,178.9 575.8,155.4 584.4,157.4 592.9,153.7 601.4,120.0 609.9,150.8 618.5,151.9 627.0,136.5 635.5,147.9 644.0,158.1 652.6,189.9 661.1,153.1 669.6,171.2 678.1,150.5 686.6,155.3 695.2,151.8 703.7,155.5 712.2,163.2 720.7,152.4 729.3,161.0 737.8,149.5 746.3,156.0 754.8,152.8 763.4,150.6 771.9,170.4 780.4,168.1 788.9,163.8 797.4,163.6 806.0,157.0 814.5,154.5 823.0,155.8 831.5,141.6 840.1,156.5 848.6,144.9 857.1,161.3 865.6,168.7 874.2,135.8 882.7,140.4 891.2,170.3 899.7,156.5 908.3,152.7 916.8,153.5 925.3,159.8 933.8,149.3 942.3,146.8 950.9,156.4 959.4,143.3 967.9,177.1 976.4,142.9 985.0,153.8 993.5,153.4 1002.0,164.5 1010.5,156.0 1019.1,165.7 1027.6,176.1 1036.1,151.9 1044.6,173.4 1053.2,160.8 1061.7,172.3 1070.2,163.8 1078.7,167.7 1087.2,167.3 1095.8,157.1 1104.3,149.3 1112.8,176.4 1121.3,148.1 1129.9,157.8 1138.4,157.0 1146.9,154.1 1155.4,143.4 1164.0,166.8 1172.5,127.0 1181.0,160.7 1189.5,149.1 1198.1,142.5 1206.6,176.1 1215.1,158.6 1223.6,154.1 1232.1,156.2 1240.7,153.0 1249.2,159.0 1257.7,152.3 1266.2,162.9 1274.8,145.3 1283.3,157.0 1291.8,165.5 1300.3,174.5 1308.9,152.3 1317.4,143.5 1325.9,157.2 1334.4,166.9 1343.0,164.0 1351.5,179.5 1360.0,161.9"/>
<polyline fill="none" stroke="#1f77b4" stroke-width="2" stroke-dasharray="8,4" points="90.0,239.1 98.5,236.7 107.0,234.2 115.6,240.2 124.1,233.5 132.6,233.4 141.1,237.8 149.7,230.2 158.2,233.9 166.7,232.0 175.2,231.9 183.8,234.2 192.3,225.6 200.8,236.0 209.3,227.6 217.9,233.9 226.4,233.1 234.9,236.0 243.4,236.1 251.9,229.2 260.5,240.2 269.0,240.7 277.5,240.3 286.0,233.4 294.6,233.8 303.1,230.0 311.6,238.2 320.1,232.3 328.7,233.6 337.2,233.4 345.7,232.3 354.2,231.2 362.8,240.8 371.3,228.6 379.8,227.2 388.3,235.2 396.8,234.2 405.4,227.3 413.9,233.6 422.4,231.0 430.9,239.5 439.5,236.6 448.0,236.9 456.5,233.2 465.0,235.7 473.6,234.5 482.1,220.1 490.6,238.9 499.1,224.3 507.7,228.9 516.2,233.5 524.7,231.9 533.2,233.4 541.7,228.7 550.3,230.5 558.8,231.4 567.3,238.5 575.8,234.6 584.4,233.4 592.9,230.3 601.4,229.5 609.9,232.9 618.5,234.5 627.0,226.9 635.5,232.2 644.0,232.8 652.6,242.5 661.1,229.9 669.6,238.3 678.1,227.8 686.6,231.4 695.2,232.2 703.7,229.7 712.2,233.5 720.7,229.0 729.3,237.1 737.8,229.3 746.3,234.0 754.8,236.1 763.4,226.7 771.9,235.4 780.4,230.8 788.9,233.8 797.4,230.1 806.0,229.8 814.5,233.6 823.0,229.0 831.5,226.7 840.1,231.1 848.6,225.7 857.1,235.5 865.6,233.5 874.2,229.9 882.7,233.8 891.2,237.0 899.7,228.4 908.3,233.9 916.8,236.0 925.3,233.2 933.8,226.7 942.3,231.8 950.9,234.2 959.4,221.7 967.9,236.2 976.4,221.8 985.0,223.3 993.5,232.1 1002.0,234.2 1010.5,229.9 1019.1,234.1 1027.6,237.8 1036.1,228.0 1044.6,236.2 1053.2,230.5 1061.7,227.1 1070.2,232.0 1078.7,229.8 1087.2,236.7 1095.8,228.3 1104.3,223.9 1112.8,237.9 1121.3,229.7 1129.9,232.9 1138.4,234.1 1146.9,231.7 1155.4,230.4 1164.0,235.4 1172.5,225.6 1181.0,233.3 1189.5,224.6 1198.1,227.6 1206.6,242.5 1215.1,234.0 1223.6,224.7 1232.1,224.3 1240.7,227.3 1249.2,236.1 1257.7,231.8 1266.2,235.4 1274.8,229.1 1283.3,232.9 1291.8,237.8 1300.3,235.7 1308.9,228.1 1317.4,227.6 1325.9,234.0 1334.4,234.8 1343.0,228.6 1351.5,239.9 1360.0,228.4"/>
<polyline fill="none" stroke="#1f77b4" stroke-width="2" stroke-dasharray="3,4" points="90.0,90.5 98.5,100.5 107.0,91.4 115.6,95.0 124.1,101.1 132.6,107.2 141.1,104.0 149.7,94.1 158.2,115.2 166.7,101.7 175.2,98.7 183.8,103.3 192.3,89.7 200.8,97.3 209.3,95.5 217.9,100.6 226.4,97.4 234.9,96.9 243.4,79.2 251.9,104.5 260.5,107.9 269.0,111.3 277.5,113.4 286.0,93.4 294.6,105.9 303.1,94.1 311.6,109.1 320.1,97.9 328.7,84.3 337.2,102.8 345.7,101.5 354.2,96.1 362.8,98.7 371.3,73.9 379.8,93.3 388.3,98.0 396.8,102.3 405.4,82.4 413.9,92.8 422.4,97.8 430.9,97.8 439.5,84.1 448.0,92.9 456.5,92.0 465.0,89.0 473.6,82.4 482.1,79.5 490.6,102.0 499.1,97.1 507.7,90.1 516.2,82.8 524.7,97.8 533.2,97.4 541.7,96.3 550.3,92.6 558.8,87.9 567.3,117.6 575.8,97.8 584.4,101.0 592.9,100.6 601.4,67.5 609.9,95.2 618.5,94.6 627.0,87.6 635.5,93.0 644.0,102.4 652.6,124.8 661.1,100.1 669.6,110.0 678.1,99.6 686.6,101.1 695.2,96.7 703.7,103.1 712.2,107.1 720.7,100.5 729.3,100.9 737.8,97.3 746.3,99.1 754.8,93.7 763.4,101.0 771.9,112.1 780.4,114.7 788.9,107.1 797.4,110.6 806.0,104.4 814.5,97.9 823.0,103.8 831.5,92.5 840.1,102.6 848.6,96.2 857.1,103.1 865.6,112.5 874.2,83.0 882.7,84.0 891.2,110.3 899.7,105.6 908.3,95.9 916.8,94.6 925.3,103.6 933.8,99.9 942.3,92.1 950.9,99.4 959.4,99.0 967.9,118.2 976.4,98.4 985.0,107.8 993.5,98.4 1002.0,107.5 1010.5,103.5 1019.1,108.7 1027.6,115.7 1036.1,100.9 1044.6,114.3 1053.2,107.5 1061.7,122.5 1070.2,108.9 1078.7,114.9 1087.2,107.6 1095.8,106.0 1104.3,102.7 1112.8,115.9 1121.3,95.7 1129.9,102.0 1138.4,99.9 1146.9,99.5 1155.4,90.4 1164.0,108.6 1172.5,78.7 1181.0,104.6 1189.5,101.9 1198.1,92.0 1206.6,110.8 1215.1,101.7 1223.6,106.7 1232.1,109.2 1240.7,102.9 1249.2,99.9 1257.7,97.7 1266.2,104.7 1274.8,93.3 1283.3,101.4 1291.8,104.8 1300.3,116.3 1308.9,101.3 1317.4,92.9 1325.9,100.4 1334.4,109.4 1343.0,112.6 1351.5,116.9 1360.0,110.8"/>
<polyline fill="none" stroke="#1f77b4" stroke-width="2" points="90.0,308.9 98.5,309.0 107.0,307.5 115.6,307.7 124.1,309.6 132.6,311.6 141.1,308.6 149.7,309.2 158.2,309.8 166.7,311.8 175.2,309.6 183.8,310.6 192.3,311.5 200.8,309.4 209.3,313.2 217.9,310.7 226.4,313.9 234.9,310.7 243.4,311.6 251.9,313.0 260.5,313.3 269.0,311.0 277.5,313.1 286.0,314.0 294.6,312.0 303.1,312.6 311.6,313.8 320.1,313.3 328.7,313.2 337.2,311.2 345.7,312.1 354.2,314.8 362.8,311.0 371.3,312.3 379.8,312.3 388.3,313.0 396.8,313.7 405.4,315.3 413.9,315.2 422.4,316.9 430.9,314.7 439.5,312.8 448.0,315.6 456.5,314.6 465.0,317.4 473.6,316.1 482.1,316.8 490.6,314.2 499.1,317.7 507.7,316.0 516.2,316.6 524.7,316.0 533.2,316.3 541.7,316.5 550.3,316.0 558.8,316.8 567.3,318.0 575.8,316.1 584.4,316.8 592.9,316.8 601.4,314.8 609.9,316.0 618.5,317.5 627.0,319.7 635.5,316.9 644.0,317.8 652.6,319.8 661.1,318.5 669.6,318.2 678.1,319.2 686.6,317.2 695.2,317.8 703.7,316.8 712.2,317.2 720.7,319.5 729.3,320.9 737.8,319.8 746.3,319.5 754.8,321.0 763.4,320.3 771.9,322.0 780.4,322.2 788.9,321.6 797.4,323.3 806.0,322.8 814.5,323.3 823.0,323.2 831.5,321.8 840.1,322.2 848.6,321.3 857.1,322.0 865.6,321.4 874.2,322.4 882.7,322.5 891.2,323.6 899.7,322.4 908.3,321.6 916.8,322.2 925.3,323.0 933.8,323.6 942.3,323.4 950.9,322.1 959.4,324.3 967.9,322.7 976.4,323.8 985.0,324.4 993.5,324.8 1002.0,321.7 1010.5,322.5 1019.1,323.7 1027.6,322.5 1036.1,323.1 1044.6,325.2 1053.2,325.9 1061.7,324.2 1070.2,324.9 1078.7,326.2 1087.2,324.3 1095.8,325.0 1104.3,323.3 1112.8,324.0 1121.3,324.0 1129.9,324.9 1138.4,324.7 1146.9,326.0 1155.4,325.0 1164.0,325.6 1172.5,325.8 1181.0,327.7 1189.5,326.4 1198.1,325.6 1206.6,323.7 1215.1,326.7 1223.6,327.7 1232.1,327.2 1240.7,327.5 1249.2,326.7 1257.7,328.0 1266.2,328.4 1274.8,328.6 1283.3,327.6 1291.8,327.6 1300.3,327.7 1308.9,327.7 1317.4,328.1 1325.9,328.2 1334.4,328.4 1343.0,328.2 1351.5,328.8 1360.0,330.0"/>
<polyline fill="none" stroke="#1f77b4" stroke-width="2" stroke-dasharray="8,4" points="90.0,482.4 98.5,482.4 107.0,482.4 115.6,482.4 124.1,482.4 132.6,482.4 141.1,482.4 149.7,482.4 158.2,482.3 166.7,482.4 175.2,482.4 183.8,482.4 192.3,482.4 200.8,482.3 209.3,482.3 217.9,482.4 226.4,482.5 234.9,482.4 243.4,482.4 251.9,482.4 260.5,482.4 269.0,482.4 277.5,482.4 286.0,482.4 294.6,482.4 303.1,482.4 311.6,482.4 320.1,482.4 328.7,482.3 337.2,482.4 345.7,482.4 354.2,482.4 362.8,482.4 371.3,482.4 379.8,482.3 388.3,482.3 396.8,482.4 405.4,482.4 413.9,482.4 422.4,482.4 430.9,482.4 439.5,482.4 448.0,482.4 456.5,482.4 465.0,482.3 473.6,482.4 482.1,482.2 490.6,482.2 499.1,482.2 507.7,482.4 516.2,482.4 524.7,482.3 533.2,482.3 541.7,482.4 550.3,482.4 558.8,482.5 567.3,482.4 575.8,482.4 584.4,482.4 592.9,482.3 601.4,482.5 609.9,482.3 618.5,482.4 627.0,482.1 635.5,482.3 644.0,482.4 652.6,482.3 661.1,482.5 669.6,482.4 678.1,482.5 686.6,482.4 695.2,482.4 703.7,482.4 712.2,482.3 720.7,482.4 729.3,482.4 737.8,482.4 746.3,482.4 754.8,482.4 763.4,482.4 771.9,482.4 780.4,482.3 788.9,482.4 797.4,482.4 806.0,482.4 814.5,482.5 823.0,482.4 831.5,482.2 840.1,482.4 848.6,482.4 857.1,482.3 865.6,482.4 874.2,482.4 882.7,482.3 891.2,482.4 899.7,482.3 908.3,482.4 916.8,482.4 925.3,482.4 933.8,482.3 942.3,482.4 950.9,482.4 959.4,482.3 967.9,482.3 976.4,482.3 985.0,482.3 993.5,482.4 1002.0,482.4 1010.5,482.3 1019.1,482.4 1027.6,482.3 1036.1,482.4 1044.6,482.4 1053.2,482.4 1061.7,482.3 1070.2,482.4 1078.7,482.4 1087.2,482.4 1095.8,482.4 1104.3,482.3 1112.8,482.3 1121.3,482.3 1129.9,482.4 1138.4,482.4 1146.9,482.4 1155.4,482.3 1164.0,482.4 1172.5,482.3 1181.0,482.4 1189.5,482.3 1198.1,482.4 1206.6,482.4 1215.1,482.4 1223.6,482.3 1232.1,482.3 1240.7,482.4 1249.2,482.4 1257.7,482.4 1266.2,482.4 1274.8,482.4 1283.3,482.3 1291.8,482.4 1300.3,482.3 1308.9,482.4 1317.4,482.4 1325.9,482.4 1334.4,482.3 1343.0,482.4 1351.5,482.3 1360.0,482.3"/>
<polyline fill="none" stroke="#111" stroke-width="2.5" points="90.0,628.7 98.5,612.3 107.0,631.9 115.6,618.9 124.1,591.1 132.6,585.6 141.1,613.0 149.7,636.9 158.2,582.2 166.7,606.0 175.2,624.3 183.8,608.6 192.3,628.5 200.8,621.5 209.3,618.7 217.9,613.2 226.4,616.6 234.9,618.7 243.4,657.7 251.9,597.8 260.5,601.0 269.0,586.8 277.5,574.9 286.0,637.9 294.6,600.9 303.1,622.8 311.6,607.4 320.1,629.3 328.7,647.4 337.2,597.8 345.7,614.6 354.2,624.4 362.8,636.6 371.3,694.2 379.8,615.7 388.3,609.2 396.8,607.9 405.4,668.2 413.9,612.8 422.4,619.3 430.9,623.0 439.5,659.2 448.0,619.8 456.5,639.1 465.0,621.4 473.6,656.4 482.1,651.2 490.6,596.3 499.1,608.1 507.7,631.4 516.2,636.7 524.7,622.6 533.2,614.9 541.7,627.0 550.3,637.5 558.8,646.4 567.3,569.1 575.8,627.0 584.4,611.2 592.9,607.2 601.4,722.5 609.9,610.6 618.5,615.8 627.0,630.0 635.5,631.3 644.0,601.2 652.6,547.5 661.1,622.8 669.6,585.2 678.1,607.1 686.6,600.5 695.2,632.1 703.7,587.0 712.2,594.7 720.7,604.4 729.3,601.8 737.8,599.6 746.3,627.5 754.8,630.6 763.4,612.9 771.9,571.1 780.4,579.2 788.9,613.9 797.4,576.9 806.0,599.9 814.5,612.4 823.0,604.9 831.5,629.5 840.1,595.8 848.6,621.8 857.1,592.2 865.6,580.5 874.2,659.1 882.7,632.3 891.2,584.5 899.7,584.4 908.3,630.6 916.8,620.9 925.3,590.1 933.8,622.2 942.3,629.8 950.9,597.1 959.4,608.8 967.9,559.6 976.4,615.8 985.0,600.2 993.5,620.9 1002.0,606.0 1010.5,595.3 1019.1,591.5 1027.6,573.4 1036.1,626.5 1044.6,580.1 1053.2,604.3 1061.7,558.1 1070.2,589.0 1078.7,587.7 1087.2,609.8 1095.8,599.5 1104.3,606.8 1112.8,569.1 1121.3,641.0 1129.9,610.4 1138.4,612.7 1146.9,606.8 1155.4,636.5 1164.0,594.3 1172.5,665.6 1181.0,601.6 1189.5,591.4 1198.1,611.4 1206.6,580.5 1215.1,619.8 1223.6,588.6 1232.1,590.4 1240.7,597.0 1249.2,617.9 1257.7,613.2 1266.2,582.2 1274.8,619.0 1283.3,606.4 1291.8,587.0 1300.3,570.6 1308.9,613.2 1317.4,630.1 1325.9,594.0 1334.4,589.6 1343.0,578.8 1351.5,569.5 1360.0,589.6"/>
<polyline fill="none" stroke="#2ca02c" stroke-width="2.5" points="124.1,862.4 166.7,828.8 209.3,841.4 251.9,820.4 294.6,828.8 337.2,849.8 379.8,820.4 422.4,862.4 465.0,841.4 507.7,837.2 550.3,845.6 592.9,849.8 635.5,824.6 678.1,841.4 720.7,828.8 763.4,833.0 806.0,828.8 848.6,833.0 891.2,862.4 933.8,795.2 976.4,849.8 1019.1,807.8 1061.7,841.4 1104.3,812.0 1146.9,828.8 1189.5,854.0 1232.1,854.0 1274.8,833.0 1317.4,866.6"/>
<circle cx="124.1" cy="862.4" r="3.5" fill="#2ca02c"/>
<circle cx="166.7" cy="828.8" r="3.5" fill="#2ca02c"/>
<circle cx="209.3" cy="841.4" r="3.5" fill="#2ca02c"/>
<circle cx="251.9" cy="820.4" r="3.5" fill="#2ca02c"/>
<circle cx="294.6" cy="828.8" r="3.5" fill="#2ca02c"/>
<circle cx="337.2" cy="849.8" r="3.5" fill="#2ca02c"/>
<circle cx="379.8" cy="820.4" r="3.5" fill="#2ca02c"/>
<circle cx="422.4" cy="862.4" r="3.5" fill="#2ca02c"/>
<circle cx="465.0" cy="841.4" r="3.5" fill="#2ca02c"/>
<circle cx="507.7" cy="837.2" r="3.5" fill="#2ca02c"/>
<circle cx="550.3" cy="845.6" r="3.5" fill="#2ca02c"/>
<circle cx="592.9" cy="849.8" r="3.5" fill="#2ca02c"/>
<circle cx="635.5" cy="824.6" r="3.5" fill="#2ca02c"/>
<circle cx="678.1" cy="841.4" r="3.5" fill="#2ca02c"/>
<circle cx="720.7" cy="828.8" r="3.5" fill="#2ca02c"/>
<circle cx="763.4" cy="833.0" r="3.5" fill="#2ca02c"/>
<circle cx="806.0" cy="828.8" r="3.5" fill="#2ca02c"/>
<circle cx="848.6" cy="833.0" r="3.5" fill="#2ca02c"/>
<circle cx="891.2" cy="862.4" r="3.5" fill="#2ca02c"/>
<circle cx="933.8" cy="795.2" r="3.5" fill="#2ca02c"/>
<circle cx="976.4" cy="849.8" r="3.5" fill="#2ca02c"/>
<circle cx="1019.1" cy="807.8" r="3.5" fill="#2ca02c"/>
<circle cx="1061.7" cy="841.4" r="3.5" fill="#2ca02c"/>
<circle cx="1104.3" cy="812.0" r="3.5" fill="#2ca02c"/>
<circle cx="1146.9" cy="828.8" r="3.5" fill="#2ca02c"/>
<circle cx="1189.5" cy="854.0" r="3.5" fill="#2ca02c"/>
<circle cx="1232.1" cy="854.0" r="3.5" fill="#2ca02c"/>
<circle cx="1274.8" cy="833.0" r="3.5" fill="#2ca02c"/>
<circle cx="1317.4" cy="866.6" r="3.5" fill="#2ca02c"/>
<line x1="1135" y1="70" x2="1161" y2="70" stroke="#333" stroke-width="2"/>
<text x="1169" y="74" font-size="11" font-family="Arial, sans-serif">total_loss</text>
<line x1="1135" y1="86" x2="1161" y2="86" stroke="#333" stroke-width="2" stroke-dasharray="8,4"/>
<text x="1169" y="90" font-size="11" font-family="Arial, sans-serif">policy_loss</text>
<line x1="1135" y1="102" x2="1161" y2="102" stroke="#333" stroke-width="2" stroke-dasharray="3,4"/>
<text x="1169" y="106" font-size="11" font-family="Arial, sans-serif">vf_loss</text>
</svg>